<svg width="25" height="24" viewBox="0 0 25 24" fill="none" xmlns="http://www.w3.org/2000/svg">
<path d="M1.25 1.75H5.25L7.93 15.14C8.02144 15.6004 8.27191 16.014 8.63755 16.3083C9.00318 16.6026 9.4607 16.759 9.93 16.75H19.65C20.1193 16.759 20.5768 16.6026 20.9425 16.3083C21.3081 16.014 21.5586 15.6004 21.65 15.14L23.25 6.75H6.25M10.25 21.75C10.25 22.3023 9.80228 22.75 9.25 22.75C8.69772 22.75 8.25 22.3023 8.25 21.75C8.25 21.1977 8.69772 20.75 9.25 20.75C9.80228 20.75 10.25 21.1977 10.25 21.75ZM21.25 21.75C21.25 22.3023 20.8023 22.75 20.25 22.75C19.6977 22.75 19.25 22.3023 19.25 21.75C19.25 21.1977 19.6977 20.75 20.25 20.75C20.8023 20.75 21.25 21.1977 21.25 21.75Z" stroke="white" stroke-width="2" stroke-linecap="round" stroke-linejoin="round"/>
</svg>
