<svg width="248" height="218" viewBox="0 0 248 218" fill="none" xmlns="http://www.w3.org/2000/svg">
<path d="M4.26356 178H2.60163L7.40845 164.909H9.04481L13.8516 178H12.1897L8.27777 166.98H8.17549L4.26356 178ZM4.8772 172.886H11.5761V174.293H4.8772V172.886ZM21.8972 164.909V178H20.3886V164.909H21.8972ZM28.4688 178.205C27.5824 178.205 26.8047 177.994 26.1357 177.572C25.4709 177.15 24.951 176.56 24.576 175.801C24.2053 175.043 24.0199 174.156 24.0199 173.142C24.0199 172.119 24.2053 171.227 24.576 170.464C24.951 169.701 25.4709 169.109 26.1357 168.687C26.8047 168.265 27.5824 168.054 28.4688 168.054C29.3551 168.054 30.1307 168.265 30.7955 168.687C31.4645 169.109 31.9844 169.701 32.3551 170.464C32.7301 171.227 32.9176 172.119 32.9176 173.142C32.9176 174.156 32.7301 175.043 32.3551 175.801C31.9844 176.56 31.4645 177.15 30.7955 177.572C30.1307 177.994 29.3551 178.205 28.4688 178.205ZM28.4688 176.849C29.1421 176.849 29.696 176.677 30.1307 176.332C30.5654 175.987 30.8871 175.533 31.0959 174.97C31.3047 174.408 31.4091 173.798 31.4091 173.142C31.4091 172.486 31.3047 171.874 31.0959 171.308C30.8871 170.741 30.5654 170.283 30.1307 169.933C29.696 169.584 29.1421 169.409 28.4688 169.409C27.7955 169.409 27.2415 169.584 26.8068 169.933C26.3722 170.283 26.0504 170.741 25.8416 171.308C25.6328 171.874 25.5284 172.486 25.5284 173.142C25.5284 173.798 25.6328 174.408 25.8416 174.97C26.0504 175.533 26.3722 175.987 26.8068 176.332C27.2415 176.677 27.7955 176.849 28.4688 176.849ZM36.5489 172.094V178H35.0404V168.182H36.4978V169.716H36.6256C36.8557 169.217 37.2051 168.817 37.6739 168.514C38.1426 168.207 38.7478 168.054 39.4892 168.054C40.154 168.054 40.7357 168.19 41.2343 168.463C41.7328 168.732 42.1206 169.141 42.3976 169.69C42.6746 170.236 42.8131 170.926 42.8131 171.761V178H41.3046V171.864C41.3046 171.092 41.1043 170.491 40.7037 170.061C40.3031 169.626 39.7534 169.409 39.0546 169.409C38.573 169.409 38.1426 169.513 37.7634 169.722C37.3884 169.931 37.0922 170.236 36.8749 170.636C36.6576 171.037 36.5489 171.523 36.5489 172.094ZM49.3527 181.886C48.624 181.886 47.9976 181.793 47.4735 181.605C46.9493 181.422 46.5125 181.179 46.1631 180.876C45.8179 180.578 45.5431 180.259 45.3385 179.918L46.5402 179.074C46.6766 179.253 46.8492 179.457 47.058 179.688C47.2668 179.922 47.5523 180.124 47.9145 180.295C48.281 180.469 48.7604 180.557 49.3527 180.557C50.1453 180.557 50.7995 180.365 51.3151 179.982C51.8307 179.598 52.0885 178.997 52.0885 178.179V176.185H51.9607C51.8499 176.364 51.6922 176.585 51.4877 176.849C51.2874 177.109 50.9976 177.342 50.6184 177.546C50.2434 177.746 49.7363 177.847 49.097 177.847C48.3044 177.847 47.5928 177.659 46.9621 177.284C46.3357 176.909 45.8392 176.364 45.4728 175.648C45.1105 174.932 44.9294 174.062 44.9294 173.04C44.9294 172.034 45.1063 171.158 45.46 170.413C45.8137 169.663 46.3059 169.083 46.9365 168.674C47.5672 168.261 48.2959 168.054 49.1226 168.054C49.7618 168.054 50.2689 168.161 50.6439 168.374C51.0232 168.582 51.313 168.821 51.5132 169.089C51.7178 169.354 51.8755 169.571 51.9863 169.741H52.1397V168.182H53.597V178.281C53.597 179.125 53.4053 179.811 53.0218 180.339C52.6425 180.872 52.1311 181.262 51.4877 181.509C50.8485 181.761 50.1368 181.886 49.3527 181.886ZM49.3016 176.491C49.9067 176.491 50.4181 176.353 50.8357 176.076C51.2533 175.799 51.5708 175.401 51.7881 174.881C52.0054 174.361 52.1141 173.739 52.1141 173.014C52.1141 172.307 52.0076 171.683 51.7945 171.141C51.5814 170.6 51.2661 170.176 50.8485 169.869C50.4309 169.562 49.9152 169.409 49.3016 169.409C48.6624 169.409 48.1297 169.571 47.7036 169.895C47.2817 170.219 46.9642 170.653 46.7512 171.199C46.5424 171.744 46.438 172.349 46.438 173.014C46.438 173.696 46.5445 174.299 46.7576 174.823C46.9749 175.343 47.2945 175.752 47.7164 176.05C48.1425 176.344 48.6709 176.491 49.3016 176.491ZM65.1774 178.205C64.2314 178.205 63.4153 177.996 62.7292 177.578C62.0474 177.156 61.5211 176.568 61.1504 175.814C60.7839 175.055 60.6007 174.173 60.6007 173.168C60.6007 172.162 60.7839 171.276 61.1504 170.509C61.5211 169.737 62.0368 169.136 62.6973 168.706C63.3621 168.271 64.1376 168.054 65.024 168.054C65.5353 168.054 66.0403 168.139 66.5389 168.31C67.0375 168.48 67.4913 168.757 67.9004 169.141C68.3095 169.52 68.6355 170.023 68.8784 170.649C69.1213 171.276 69.2427 172.047 69.2427 172.963V173.602H61.6746V172.298H67.7086C67.7086 171.744 67.5978 171.25 67.3763 170.815C67.1589 170.381 66.8478 170.038 66.443 169.786C66.0424 169.535 65.5694 169.409 65.024 169.409C64.4231 169.409 63.9032 169.558 63.4643 169.857C63.0297 170.151 62.6951 170.534 62.4608 171.007C62.2264 171.48 62.1092 171.987 62.1092 172.528V173.398C62.1092 174.139 62.2371 174.768 62.4927 175.283C62.7527 175.795 63.1128 176.185 63.573 176.453C64.0332 176.717 64.568 176.849 65.1774 176.849C65.5737 176.849 65.9317 176.794 66.2513 176.683C66.5751 176.568 66.8542 176.398 67.0886 176.172C67.323 175.942 67.5041 175.656 67.6319 175.315L69.0893 175.724C68.9359 176.219 68.6781 176.653 68.3159 177.028C67.9537 177.399 67.5062 177.689 66.9736 177.898C66.4409 178.102 65.8422 178.205 65.1774 178.205ZM78.312 170.381L76.9569 170.764C76.8717 170.538 76.746 170.319 76.5798 170.106C76.4178 169.888 76.1963 169.71 75.915 169.569C75.6338 169.428 75.2737 169.358 74.8347 169.358C74.2339 169.358 73.7332 169.496 73.3326 169.773C72.9363 170.046 72.7382 170.393 72.7382 170.815C72.7382 171.19 72.8745 171.487 73.1472 171.704C73.42 171.921 73.8461 172.102 74.4257 172.247L75.883 172.605C76.7609 172.818 77.415 173.144 77.8454 173.583C78.2758 174.018 78.491 174.578 78.491 175.264C78.491 175.827 78.3291 176.33 78.0052 176.773C77.6856 177.216 77.2382 177.565 76.6629 177.821C76.0876 178.077 75.4186 178.205 74.6558 178.205C73.6543 178.205 72.8255 177.987 72.1693 177.553C71.513 177.118 71.0975 176.483 70.9228 175.648L72.3546 175.29C72.491 175.818 72.7488 176.214 73.1281 176.479C73.5116 176.743 74.0123 176.875 74.6302 176.875C75.3333 176.875 75.8916 176.726 76.3049 176.428C76.7225 176.125 76.9313 175.763 76.9313 175.341C76.9313 175 76.812 174.714 76.5734 174.484C76.3347 174.25 75.9683 174.075 75.474 173.96L73.8376 173.577C72.9384 173.364 72.2779 173.033 71.8561 172.586C71.4384 172.134 71.2296 171.57 71.2296 170.892C71.2296 170.338 71.3852 169.848 71.6963 169.422C72.0116 168.996 72.4399 168.661 72.9811 168.418C73.5265 168.175 74.1444 168.054 74.8347 168.054C75.8063 168.054 76.5691 168.267 77.1231 168.693C77.6813 169.119 78.0776 169.682 78.312 170.381ZM84.8517 168.182V169.46H79.7636V168.182H84.8517ZM81.2465 165.83H82.7551V175.188C82.7551 175.614 82.8169 175.933 82.9404 176.146C83.0683 176.355 83.2302 176.496 83.4262 176.568C83.6265 176.636 83.8375 176.67 84.059 176.67C84.2252 176.67 84.3616 176.662 84.4681 176.645C84.5747 176.624 84.6599 176.607 84.7238 176.594L85.0306 177.949C84.9284 177.987 84.7856 178.026 84.6024 178.064C84.4191 178.107 84.1869 178.128 83.9056 178.128C83.4795 178.128 83.0619 178.036 82.6528 177.853C82.248 177.67 81.9113 177.391 81.6428 177.016C81.3786 176.641 81.2465 176.168 81.2465 175.597V165.83ZM89.83 178.23C89.2079 178.23 88.6432 178.113 88.1361 177.879C87.629 177.64 87.2263 177.297 86.928 176.849C86.6298 176.398 86.4806 175.852 86.4806 175.213C86.4806 174.651 86.5914 174.195 86.813 173.845C87.0346 173.491 87.3307 173.214 87.7015 173.014C88.0722 172.814 88.4813 172.665 88.9288 172.567C89.3805 172.464 89.8343 172.384 90.2903 172.324C90.8869 172.247 91.3705 172.19 91.7413 172.151C92.1163 172.109 92.389 172.038 92.5594 171.94C92.7342 171.842 92.8215 171.672 92.8215 171.429V171.378C92.8215 170.747 92.6489 170.257 92.3038 169.908C91.9628 169.558 91.4451 169.384 90.7505 169.384C90.0303 169.384 89.4657 169.541 89.0566 169.857C88.6475 170.172 88.3599 170.509 88.1937 170.866L86.7619 170.355C87.0175 169.759 87.3584 169.294 87.7846 168.962C88.215 168.625 88.6837 168.391 89.1908 168.259C89.7022 168.122 90.205 168.054 90.6994 168.054C91.0147 168.054 91.3769 168.092 91.786 168.169C92.1994 168.241 92.5978 168.393 92.9813 168.623C93.3691 168.853 93.6908 169.2 93.9465 169.665C94.2022 170.129 94.33 170.751 94.33 171.531V178H92.8215V176.67H92.7448C92.6425 176.884 92.4721 177.112 92.2334 177.354C91.9948 177.597 91.6773 177.804 91.281 177.974C90.8847 178.145 90.4011 178.23 89.83 178.23ZM90.0602 176.875C90.6567 176.875 91.1596 176.758 91.5687 176.523C91.982 176.289 92.2931 175.987 92.5019 175.616C92.715 175.245 92.8215 174.855 92.8215 174.446V173.065C92.7576 173.142 92.617 173.212 92.3996 173.276C92.1866 173.336 91.9394 173.389 91.6582 173.436C91.3812 173.479 91.1106 173.517 90.8464 173.551C90.5864 173.581 90.3755 173.607 90.2136 173.628C89.8215 173.679 89.455 173.762 89.1141 173.877C88.7775 173.988 88.5048 174.156 88.2959 174.382C88.0914 174.604 87.9891 174.906 87.9891 175.29C87.9891 175.814 88.183 176.21 88.5708 176.479C88.9628 176.743 89.4593 176.875 90.0602 176.875ZM97.108 178V164.909H98.6165V169.741H98.7443C98.8551 169.571 99.0085 169.354 99.2045 169.089C99.4048 168.821 99.6903 168.582 100.061 168.374C100.436 168.161 100.943 168.054 101.582 168.054C102.409 168.054 103.138 168.261 103.768 168.674C104.399 169.087 104.891 169.673 105.245 170.432C105.599 171.19 105.776 172.085 105.776 173.116C105.776 174.156 105.599 175.058 105.245 175.82C104.891 176.579 104.401 177.167 103.775 177.585C103.148 177.998 102.426 178.205 101.608 178.205C100.977 178.205 100.472 178.1 100.093 177.891C99.7138 177.678 99.4219 177.437 99.2173 177.169C99.0128 176.896 98.8551 176.67 98.7443 176.491H98.5653V178H97.108ZM98.5909 173.091C98.5909 173.832 98.6996 174.487 98.9169 175.053C99.1342 175.616 99.4517 176.057 99.8693 176.376C100.287 176.692 100.798 176.849 101.403 176.849C102.034 176.849 102.56 176.683 102.982 176.351C103.408 176.014 103.728 175.562 103.941 174.996C104.158 174.425 104.267 173.79 104.267 173.091C104.267 172.401 104.161 171.778 103.947 171.224C103.739 170.666 103.421 170.225 102.995 169.901C102.573 169.573 102.043 169.409 101.403 169.409C100.79 169.409 100.274 169.565 99.8565 169.876C99.4389 170.183 99.1236 170.613 98.9105 171.167C98.6974 171.717 98.5909 172.358 98.5909 173.091ZM109.412 164.909V178H107.903V164.909H109.412ZM111.995 178V168.182H113.503V178H111.995ZM112.762 166.545C112.468 166.545 112.214 166.445 112.001 166.245C111.792 166.045 111.688 165.804 111.688 165.523C111.688 165.241 111.792 165.001 112.001 164.8C112.214 164.6 112.468 164.5 112.762 164.5C113.056 164.5 113.307 164.6 113.516 164.8C113.729 165.001 113.835 165.241 113.835 165.523C113.835 165.804 113.729 166.045 113.516 166.245C113.307 166.445 113.056 166.545 112.762 166.545ZM123.041 170.381L121.686 170.764C121.6 170.538 121.475 170.319 121.308 170.106C121.146 169.888 120.925 169.71 120.644 169.569C120.362 169.428 120.002 169.358 119.563 169.358C118.962 169.358 118.462 169.496 118.061 169.773C117.665 170.046 117.467 170.393 117.467 170.815C117.467 171.19 117.603 171.487 117.876 171.704C118.149 171.921 118.575 172.102 119.154 172.247L120.612 172.605C121.489 172.818 122.144 173.144 122.574 173.583C123.004 174.018 123.22 174.578 123.22 175.264C123.22 175.827 123.058 176.33 122.734 176.773C122.414 177.216 121.967 177.565 121.391 177.821C120.816 178.077 120.147 178.205 119.384 178.205C118.383 178.205 117.554 177.987 116.898 177.553C116.242 177.118 115.826 176.483 115.651 175.648L117.083 175.29C117.22 175.818 117.477 176.214 117.857 176.479C118.24 176.743 118.741 176.875 119.359 176.875C120.062 176.875 120.62 176.726 121.034 176.428C121.451 176.125 121.66 175.763 121.66 175.341C121.66 175 121.541 174.714 121.302 174.484C121.063 174.25 120.697 174.075 120.203 173.96L118.566 173.577C117.667 173.364 117.007 173.033 116.585 172.586C116.167 172.134 115.958 171.57 115.958 170.892C115.958 170.338 116.114 169.848 116.425 169.422C116.74 168.996 117.168 168.661 117.71 168.418C118.255 168.175 118.873 168.054 119.563 168.054C120.535 168.054 121.298 168.267 121.852 168.693C122.41 169.119 122.806 169.682 123.041 170.381ZM126.819 172.094V178H125.31V164.909H126.819V169.716H126.947C127.177 169.209 127.522 168.806 127.982 168.508C128.447 168.205 129.065 168.054 129.836 168.054C130.505 168.054 131.091 168.188 131.594 168.457C132.097 168.721 132.487 169.128 132.763 169.678C133.045 170.223 133.185 170.918 133.185 171.761V178H131.677V171.864C131.677 171.084 131.474 170.481 131.07 170.055C130.669 169.624 130.113 169.409 129.401 169.409C128.907 169.409 128.464 169.513 128.072 169.722C127.684 169.931 127.377 170.236 127.151 170.636C126.93 171.037 126.819 171.523 126.819 172.094ZM139.882 178.205C138.936 178.205 138.12 177.996 137.433 177.578C136.752 177.156 136.225 176.568 135.855 175.814C135.488 175.055 135.305 174.173 135.305 173.168C135.305 172.162 135.488 171.276 135.855 170.509C136.225 169.737 136.741 169.136 137.401 168.706C138.066 168.271 138.842 168.054 139.728 168.054C140.24 168.054 140.745 168.139 141.243 168.31C141.742 168.48 142.196 168.757 142.605 169.141C143.014 169.52 143.34 170.023 143.583 170.649C143.825 171.276 143.947 172.047 143.947 172.963V173.602H136.379V172.298H142.413C142.413 171.744 142.302 171.25 142.08 170.815C141.863 170.381 141.552 170.038 141.147 169.786C140.747 169.535 140.274 169.409 139.728 169.409C139.127 169.409 138.607 169.558 138.169 169.857C137.734 170.151 137.399 170.534 137.165 171.007C136.931 171.48 136.813 171.987 136.813 172.528V173.398C136.813 174.139 136.941 174.768 137.197 175.283C137.457 175.795 137.817 176.185 138.277 176.453C138.737 176.717 139.272 176.849 139.882 176.849C140.278 176.849 140.636 176.794 140.955 176.683C141.279 176.568 141.558 176.398 141.793 176.172C142.027 175.942 142.208 175.656 142.336 175.315L143.794 175.724C143.64 176.219 143.382 176.653 143.02 177.028C142.658 177.399 142.21 177.689 141.678 177.898C141.145 178.102 140.546 178.205 139.882 178.205ZM149.769 178.205C148.951 178.205 148.229 177.998 147.602 177.585C146.976 177.167 146.486 176.579 146.132 175.82C145.778 175.058 145.601 174.156 145.601 173.116C145.601 172.085 145.778 171.19 146.132 170.432C146.486 169.673 146.978 169.087 147.609 168.674C148.239 168.261 148.968 168.054 149.795 168.054C150.434 168.054 150.939 168.161 151.31 168.374C151.685 168.582 151.97 168.821 152.166 169.089C152.366 169.354 152.522 169.571 152.633 169.741H152.761V164.909H154.269V178H152.812V176.491H152.633C152.522 176.67 152.364 176.896 152.16 177.169C151.955 177.437 151.663 177.678 151.284 177.891C150.905 178.1 150.4 178.205 149.769 178.205ZM149.974 176.849C150.579 176.849 151.09 176.692 151.508 176.376C151.925 176.057 152.243 175.616 152.46 175.053C152.677 174.487 152.786 173.832 152.786 173.091C152.786 172.358 152.68 171.717 152.467 171.167C152.253 170.613 151.938 170.183 151.521 169.876C151.103 169.565 150.587 169.409 149.974 169.409C149.334 169.409 148.802 169.573 148.376 169.901C147.954 170.225 147.636 170.666 147.423 171.224C147.214 171.778 147.11 172.401 147.11 173.091C147.11 173.79 147.217 174.425 147.43 174.996C147.647 175.562 147.967 176.014 148.388 176.351C148.815 176.683 149.343 176.849 149.974 176.849ZM166.316 168.182V169.46H161.023V168.182H166.316ZM162.609 178V166.827C162.609 166.264 162.741 165.795 163.005 165.42C163.269 165.045 163.612 164.764 164.034 164.577C164.456 164.389 164.901 164.295 165.37 164.295C165.741 164.295 166.043 164.325 166.278 164.385C166.512 164.445 166.687 164.5 166.802 164.551L166.367 165.855C166.29 165.83 166.184 165.798 166.048 165.759C165.915 165.721 165.741 165.702 165.523 165.702C165.025 165.702 164.665 165.827 164.443 166.079C164.226 166.33 164.117 166.699 164.117 167.185V178H162.609ZM170.858 178.23C170.236 178.23 169.671 178.113 169.164 177.879C168.657 177.64 168.254 177.297 167.956 176.849C167.658 176.398 167.509 175.852 167.509 175.213C167.509 174.651 167.62 174.195 167.841 173.845C168.063 173.491 168.359 173.214 168.73 173.014C169.1 172.814 169.509 172.665 169.957 172.567C170.409 172.464 170.862 172.384 171.318 172.324C171.915 172.247 172.399 172.19 172.769 172.151C173.144 172.109 173.417 172.038 173.588 171.94C173.762 171.842 173.85 171.672 173.85 171.429V171.378C173.85 170.747 173.677 170.257 173.332 169.908C172.991 169.558 172.473 169.384 171.779 169.384C171.058 169.384 170.494 169.541 170.085 169.857C169.676 170.172 169.388 170.509 169.222 170.866L167.79 170.355C168.046 169.759 168.387 169.294 168.813 168.962C169.243 168.625 169.712 168.391 170.219 168.259C170.73 168.122 171.233 168.054 171.727 168.054C172.043 168.054 172.405 168.092 172.814 168.169C173.227 168.241 173.626 168.393 174.009 168.623C174.397 168.853 174.719 169.2 174.975 169.665C175.23 170.129 175.358 170.751 175.358 171.531V178H173.85V176.67H173.773C173.671 176.884 173.5 177.112 173.262 177.354C173.023 177.597 172.705 177.804 172.309 177.974C171.913 178.145 171.429 178.23 170.858 178.23ZM171.088 176.875C171.685 176.875 172.188 176.758 172.597 176.523C173.01 176.289 173.321 175.987 173.53 175.616C173.743 175.245 173.85 174.855 173.85 174.446V173.065C173.786 173.142 173.645 173.212 173.428 173.276C173.215 173.336 172.968 173.389 172.686 173.436C172.409 173.479 172.139 173.517 171.874 173.551C171.615 173.581 171.404 173.607 171.242 173.628C170.85 173.679 170.483 173.762 170.142 173.877C169.806 173.988 169.533 174.156 169.324 174.382C169.12 174.604 169.017 174.906 169.017 175.29C169.017 175.814 169.211 176.21 169.599 176.479C169.991 176.743 170.487 176.875 171.088 176.875ZM181.92 178.205C181 178.205 180.207 177.987 179.542 177.553C178.878 177.118 178.366 176.519 178.008 175.756C177.65 174.994 177.471 174.122 177.471 173.142C177.471 172.145 177.655 171.265 178.021 170.502C178.392 169.735 178.907 169.136 179.568 168.706C180.233 168.271 181.008 168.054 181.895 168.054C182.585 168.054 183.207 168.182 183.761 168.438C184.315 168.693 184.769 169.051 185.123 169.511C185.476 169.972 185.696 170.509 185.781 171.122H184.272C184.157 170.675 183.902 170.278 183.505 169.933C183.113 169.584 182.585 169.409 181.92 169.409C181.332 169.409 180.816 169.562 180.373 169.869C179.934 170.172 179.591 170.6 179.344 171.154C179.101 171.704 178.98 172.349 178.98 173.091C178.98 173.849 179.099 174.51 179.338 175.072C179.581 175.635 179.922 176.072 180.361 176.383C180.804 176.694 181.324 176.849 181.92 176.849C182.312 176.849 182.668 176.781 182.988 176.645C183.307 176.509 183.578 176.312 183.799 176.057C184.021 175.801 184.179 175.494 184.272 175.136H185.781C185.696 175.716 185.485 176.238 185.148 176.702C184.816 177.163 184.375 177.529 183.825 177.802C183.28 178.07 182.645 178.205 181.92 178.205ZM192.076 168.182V169.46H186.988V168.182H192.076ZM188.471 165.83H189.98V175.188C189.98 175.614 190.041 175.933 190.165 176.146C190.293 176.355 190.455 176.496 190.651 176.568C190.851 176.636 191.062 176.67 191.283 176.67C191.45 176.67 191.586 176.662 191.693 176.645C191.799 176.624 191.884 176.607 191.948 176.594L192.255 177.949C192.153 177.987 192.01 178.026 191.827 178.064C191.644 178.107 191.411 178.128 191.13 178.128C190.704 178.128 190.286 178.036 189.877 177.853C189.472 177.67 189.136 177.391 188.867 177.016C188.603 176.641 188.471 176.168 188.471 175.597V165.83ZM203.318 168.182V169.46H198.23V168.182H203.318ZM199.713 165.83H201.221V175.188C201.221 175.614 201.283 175.933 201.406 176.146C201.534 176.355 201.696 176.496 201.892 176.568C202.093 176.636 202.303 176.67 202.525 176.67C202.691 176.67 202.828 176.662 202.934 176.645C203.041 176.624 203.126 176.607 203.19 176.594L203.497 177.949C203.394 177.987 203.252 178.026 203.068 178.064C202.885 178.107 202.653 178.128 202.372 178.128C201.946 178.128 201.528 178.036 201.119 177.853C200.714 177.67 200.377 177.391 200.109 177.016C199.845 176.641 199.713 176.168 199.713 175.597V165.83ZM207.126 172.094V178H205.618V164.909H207.126V169.716H207.254C207.484 169.209 207.829 168.806 208.29 168.508C208.754 168.205 209.372 168.054 210.143 168.054C210.812 168.054 211.398 168.188 211.901 168.457C212.404 168.721 212.794 169.128 213.071 169.678C213.352 170.223 213.493 170.918 213.493 171.761V178H211.984V171.864C211.984 171.084 211.782 170.481 211.377 170.055C210.976 169.624 210.42 169.409 209.709 169.409C209.214 169.409 208.771 169.513 208.379 169.722C207.991 169.931 207.685 170.236 207.459 170.636C207.237 171.037 207.126 171.523 207.126 172.094ZM218.962 178.23C218.34 178.23 217.775 178.113 217.268 177.879C216.761 177.64 216.358 177.297 216.06 176.849C215.761 176.398 215.612 175.852 215.612 175.213C215.612 174.651 215.723 174.195 215.945 173.845C216.166 173.491 216.462 173.214 216.833 173.014C217.204 172.814 217.613 172.665 218.06 172.567C218.512 172.464 218.966 172.384 219.422 172.324C220.019 172.247 220.502 172.19 220.873 172.151C221.248 172.109 221.521 172.038 221.691 171.94C221.866 171.842 221.953 171.672 221.953 171.429V171.378C221.953 170.747 221.781 170.257 221.435 169.908C221.095 169.558 220.577 169.384 219.882 169.384C219.162 169.384 218.597 169.541 218.188 169.857C217.779 170.172 217.492 170.509 217.325 170.866L215.894 170.355C216.149 169.759 216.49 169.294 216.916 168.962C217.347 168.625 217.815 168.391 218.323 168.259C218.834 168.122 219.337 168.054 219.831 168.054C220.146 168.054 220.509 168.092 220.918 168.169C221.331 168.241 221.73 168.393 222.113 168.623C222.501 168.853 222.823 169.2 223.078 169.665C223.334 170.129 223.462 170.751 223.462 171.531V178H221.953V176.67H221.877C221.774 176.884 221.604 177.112 221.365 177.354C221.127 177.597 220.809 177.804 220.413 177.974C220.016 178.145 219.533 178.23 218.962 178.23ZM219.192 176.875C219.788 176.875 220.291 176.758 220.7 176.523C221.114 176.289 221.425 175.987 221.634 175.616C221.847 175.245 221.953 174.855 221.953 174.446V173.065C221.889 173.142 221.749 173.212 221.531 173.276C221.318 173.336 221.071 173.389 220.79 173.436C220.513 173.479 220.242 173.517 219.978 173.551C219.718 173.581 219.507 173.607 219.345 173.628C218.953 173.679 218.587 173.762 218.246 173.877C217.909 173.988 217.636 174.156 217.428 174.382C217.223 174.604 217.121 174.906 217.121 175.29C217.121 175.814 217.315 176.21 217.703 176.479C218.095 176.743 218.591 176.875 219.192 176.875ZM230.305 168.182V169.46H225.217V168.182H230.305ZM226.7 165.83H228.208V175.188C228.208 175.614 228.27 175.933 228.394 176.146C228.522 176.355 228.684 176.496 228.88 176.568C229.08 176.636 229.291 176.67 229.512 176.67C229.679 176.67 229.815 176.662 229.921 176.645C230.028 176.624 230.113 176.607 230.177 176.594L230.484 177.949C230.382 177.987 230.239 178.026 230.056 178.064C229.872 178.107 229.64 178.128 229.359 178.128C228.933 178.128 228.515 178.036 228.106 177.853C227.701 177.67 227.365 177.391 227.096 177.016C226.832 176.641 226.7 176.168 226.7 175.597V165.83ZM240.166 178.23C239.544 178.23 238.979 178.113 238.472 177.879C237.965 177.64 237.562 177.297 237.264 176.849C236.966 176.398 236.816 175.852 236.816 175.213C236.816 174.651 236.927 174.195 237.149 173.845C237.37 173.491 237.667 173.214 238.037 173.014C238.408 172.814 238.817 172.665 239.265 172.567C239.716 172.464 240.17 172.384 240.626 172.324C241.223 172.247 241.706 172.19 242.077 172.151C242.452 172.109 242.725 172.038 242.895 171.94C243.07 171.842 243.157 171.672 243.157 171.429V171.378C243.157 170.747 242.985 170.257 242.64 169.908C242.299 169.558 241.781 169.384 241.086 169.384C240.366 169.384 239.802 169.541 239.392 169.857C238.983 170.172 238.696 170.509 238.53 170.866L237.098 170.355C237.353 169.759 237.694 169.294 238.12 168.962C238.551 168.625 239.02 168.391 239.527 168.259C240.038 168.122 240.541 168.054 241.035 168.054C241.351 168.054 241.713 168.092 242.122 168.169C242.535 168.241 242.934 168.393 243.317 168.623C243.705 168.853 244.027 169.2 244.282 169.665C244.538 170.129 244.666 170.751 244.666 171.531V178H243.157V176.67H243.081C242.978 176.884 242.808 177.112 242.569 177.354C242.331 177.597 242.013 177.804 241.617 177.974C241.221 178.145 240.737 178.23 240.166 178.23ZM240.396 176.875C240.993 176.875 241.495 176.758 241.905 176.523C242.318 176.289 242.629 175.987 242.838 175.616C243.051 175.245 243.157 174.855 243.157 174.446V173.065C243.093 173.142 242.953 173.212 242.736 173.276C242.522 173.336 242.275 173.389 241.994 173.436C241.717 173.479 241.446 173.517 241.182 173.551C240.922 173.581 240.711 173.607 240.549 173.628C240.157 173.679 239.791 173.762 239.45 173.877C239.113 173.988 238.841 174.156 238.632 174.382C238.427 174.604 238.325 174.906 238.325 175.29C238.325 175.814 238.519 176.21 238.907 176.479C239.299 176.743 239.795 176.875 240.396 176.875ZM24.5006 209L21.5091 199.182H23.0944L25.2165 206.699H25.3188L27.4154 199.182H29.0262L31.0972 206.673H31.1995L33.3216 199.182H34.9069L31.9154 209H30.4324L28.2847 201.457H28.1313L25.9836 209H24.5006ZM38.2297 203.094V209H36.7212V195.909H38.2297V200.716H38.3576C38.5877 200.209 38.9328 199.806 39.3931 199.508C39.8576 199.205 40.4755 199.054 41.2468 199.054C41.9158 199.054 42.5017 199.188 43.0046 199.457C43.5074 199.721 43.8973 200.128 44.1743 200.678C44.4556 201.223 44.5962 201.918 44.5962 202.761V209H43.0877V202.864C43.0877 202.084 42.8853 201.481 42.4804 201.055C42.0799 200.624 41.5237 200.409 40.8121 200.409C40.3178 200.409 39.8746 200.513 39.4826 200.722C39.0948 200.931 38.788 201.236 38.5621 201.636C38.3405 202.037 38.2297 202.523 38.2297 203.094ZM51.1646 209.205C50.2782 209.205 49.5005 208.994 48.8315 208.572C48.1667 208.15 47.6468 207.56 47.2718 206.801C46.9011 206.043 46.7157 205.156 46.7157 204.142C46.7157 203.119 46.9011 202.227 47.2718 201.464C47.6468 200.701 48.1667 200.109 48.8315 199.687C49.5005 199.265 50.2782 199.054 51.1646 199.054C52.051 199.054 52.8265 199.265 53.4913 199.687C54.1603 200.109 54.6802 200.701 55.051 201.464C55.426 202.227 55.6135 203.119 55.6135 204.142C55.6135 205.156 55.426 206.043 55.051 206.801C54.6802 207.56 54.1603 208.15 53.4913 208.572C52.8265 208.994 52.051 209.205 51.1646 209.205ZM51.1646 207.849C51.8379 207.849 52.3919 207.677 52.8265 207.332C53.2612 206.987 53.5829 206.533 53.7917 205.97C54.0005 205.408 54.1049 204.798 54.1049 204.142C54.1049 203.486 54.0005 202.874 53.7917 202.308C53.5829 201.741 53.2612 201.283 52.8265 200.933C52.3919 200.584 51.8379 200.409 51.1646 200.409C50.4913 200.409 49.9373 200.584 49.5027 200.933C49.068 201.283 48.7463 201.741 48.5375 202.308C48.3287 202.874 48.2243 203.486 48.2243 204.142C48.2243 204.798 48.3287 205.408 48.5375 205.97C48.7463 206.533 49.068 206.987 49.5027 207.332C49.9373 207.677 50.4913 207.849 51.1646 207.849ZM64.1272 195.909V209H62.6187V195.909H64.1272ZM70.6988 209.205C69.8124 209.205 69.0347 208.994 68.3657 208.572C67.7009 208.15 67.1811 207.56 66.8061 206.801C66.4353 206.043 66.2499 205.156 66.2499 204.142C66.2499 203.119 66.4353 202.227 66.8061 201.464C67.1811 200.701 67.7009 200.109 68.3657 199.687C69.0347 199.265 69.8124 199.054 70.6988 199.054C71.5852 199.054 72.3607 199.265 73.0255 199.687C73.6945 200.109 74.2144 200.701 74.5852 201.464C74.9602 202.227 75.1477 203.119 75.1477 204.142C75.1477 205.156 74.9602 206.043 74.5852 206.801C74.2144 207.56 73.6945 208.15 73.0255 208.572C72.3607 208.994 71.5852 209.205 70.6988 209.205ZM70.6988 207.849C71.3721 207.849 71.9261 207.677 72.3607 207.332C72.7954 206.987 73.1171 206.533 73.3259 205.97C73.5347 205.408 73.6392 204.798 73.6392 204.142C73.6392 203.486 73.5347 202.874 73.3259 202.308C73.1171 201.741 72.7954 201.283 72.3607 200.933C71.9261 200.584 71.3721 200.409 70.6988 200.409C70.0255 200.409 69.4715 200.584 69.0369 200.933C68.6022 201.283 68.2805 201.741 68.0717 202.308C67.8629 202.874 67.7585 203.486 67.7585 204.142C67.7585 204.798 67.8629 205.408 68.0717 205.97C68.2805 206.533 68.6022 206.987 69.0369 207.332C69.4715 207.677 70.0255 207.849 70.6988 207.849ZM81.259 209.205C80.3727 209.205 79.595 208.994 78.9259 208.572C78.2612 208.15 77.7413 207.56 77.3663 206.801C76.9955 206.043 76.8102 205.156 76.8102 204.142C76.8102 203.119 76.9955 202.227 77.3663 201.464C77.7413 200.701 78.2612 200.109 78.9259 199.687C79.595 199.265 80.3727 199.054 81.259 199.054C82.1454 199.054 82.921 199.265 83.5857 199.687C84.2548 200.109 84.7747 200.701 85.1454 201.464C85.5204 202.227 85.7079 203.119 85.7079 204.142C85.7079 205.156 85.5204 206.043 85.1454 206.801C84.7747 207.56 84.2548 208.15 83.5857 208.572C82.921 208.994 82.1454 209.205 81.259 209.205ZM81.259 207.849C81.9323 207.849 82.4863 207.677 82.921 207.332C83.3556 206.987 83.6774 206.533 83.8862 205.97C84.095 205.408 84.1994 204.798 84.1994 204.142C84.1994 203.486 84.095 202.874 83.8862 202.308C83.6774 201.741 83.3556 201.283 82.921 200.933C82.4863 200.584 81.9323 200.409 81.259 200.409C80.5857 200.409 80.0318 200.584 79.5971 200.933C79.1625 201.283 78.8407 201.741 78.6319 202.308C78.4231 202.874 78.3187 203.486 78.3187 204.142C78.3187 204.798 78.4231 205.408 78.6319 205.97C78.8407 206.533 79.1625 206.987 79.5971 207.332C80.0318 207.677 80.5857 207.849 81.259 207.849ZM89.2369 205.42L89.2113 203.554H89.5181L93.8136 199.182H95.6801L91.1034 203.81H90.9755L89.2369 205.42ZM87.8306 209V195.909H89.3392V209H87.8306ZM94.0693 209L90.234 204.142L91.3079 203.094L95.9869 209H94.0693ZM97.4417 209V199.182H98.9502V209H97.4417ZM98.2087 197.545C97.9147 197.545 97.6611 197.445 97.448 197.245C97.2392 197.045 97.1348 196.804 97.1348 196.523C97.1348 196.241 97.2392 196.001 97.448 195.8C97.6611 195.6 97.9147 195.5 98.2087 195.5C98.5027 195.5 98.7542 195.6 98.963 195.8C99.176 196.001 99.2826 196.241 99.2826 196.523C99.2826 196.804 99.176 197.045 98.963 197.245C98.7542 197.445 98.5027 197.545 98.2087 197.545ZM103.042 203.094V209H101.533V199.182H102.991V200.716H103.118C103.348 200.217 103.698 199.817 104.167 199.514C104.635 199.207 105.241 199.054 105.982 199.054C106.647 199.054 107.228 199.19 107.727 199.463C108.226 199.732 108.613 200.141 108.89 200.69C109.167 201.236 109.306 201.926 109.306 202.761V209H107.797V202.864C107.797 202.092 107.597 201.491 107.196 201.061C106.796 200.626 106.246 200.409 105.547 200.409C105.066 200.409 104.635 200.513 104.256 200.722C103.881 200.931 103.585 201.236 103.368 201.636C103.15 202.037 103.042 202.523 103.042 203.094ZM115.846 212.886C115.117 212.886 114.49 212.793 113.966 212.605C113.442 212.422 113.005 212.179 112.656 211.876C112.311 211.578 112.036 211.259 111.831 210.918L113.033 210.074C113.169 210.253 113.342 210.457 113.551 210.688C113.76 210.922 114.045 211.124 114.407 211.295C114.774 211.469 115.253 211.557 115.846 211.557C116.638 211.557 117.292 211.365 117.808 210.982C118.323 210.598 118.581 209.997 118.581 209.179V207.185H118.453C118.343 207.364 118.185 207.585 117.98 207.849C117.78 208.109 117.49 208.342 117.111 208.546C116.736 208.746 116.229 208.847 115.59 208.847C114.797 208.847 114.086 208.659 113.455 208.284C112.828 207.909 112.332 207.364 111.966 206.648C111.603 205.932 111.422 205.062 111.422 204.04C111.422 203.034 111.599 202.158 111.953 201.413C112.306 200.663 112.799 200.083 113.429 199.674C114.06 199.261 114.789 199.054 115.615 199.054C116.255 199.054 116.762 199.161 117.137 199.374C117.516 199.582 117.806 199.821 118.006 200.089C118.211 200.354 118.368 200.571 118.479 200.741H118.632V199.182H120.09V209.281C120.09 210.125 119.898 210.811 119.515 211.339C119.135 211.872 118.624 212.262 117.98 212.509C117.341 212.761 116.63 212.886 115.846 212.886ZM115.794 207.491C116.399 207.491 116.911 207.353 117.328 207.076C117.746 206.799 118.064 206.401 118.281 205.881C118.498 205.361 118.607 204.739 118.607 204.014C118.607 203.307 118.5 202.683 118.287 202.141C118.074 201.6 117.759 201.176 117.341 200.869C116.924 200.562 116.408 200.409 115.794 200.409C115.155 200.409 114.622 200.571 114.196 200.895C113.774 201.219 113.457 201.653 113.244 202.199C113.035 202.744 112.931 203.349 112.931 204.014C112.931 204.696 113.037 205.299 113.25 205.823C113.468 206.343 113.787 206.752 114.209 207.05C114.635 207.344 115.164 207.491 115.794 207.491ZM130.443 209.23C129.821 209.23 129.256 209.113 128.749 208.879C128.242 208.64 127.839 208.297 127.541 207.849C127.243 207.398 127.093 206.852 127.093 206.213C127.093 205.651 127.204 205.195 127.426 204.845C127.647 204.491 127.944 204.214 128.314 204.014C128.685 203.814 129.094 203.665 129.542 203.567C129.993 203.464 130.447 203.384 130.903 203.324C131.5 203.247 131.983 203.19 132.354 203.151C132.729 203.109 133.002 203.038 133.172 202.94C133.347 202.842 133.434 202.672 133.434 202.429V202.378C133.434 201.747 133.262 201.257 132.917 200.908C132.576 200.558 132.058 200.384 131.363 200.384C130.643 200.384 130.079 200.541 129.669 200.857C129.26 201.172 128.973 201.509 128.807 201.866L127.375 201.355C127.63 200.759 127.971 200.294 128.397 199.962C128.828 199.625 129.297 199.391 129.804 199.259C130.315 199.122 130.818 199.054 131.312 199.054C131.628 199.054 131.99 199.092 132.399 199.169C132.812 199.241 133.211 199.393 133.594 199.623C133.982 199.853 134.304 200.2 134.559 200.665C134.815 201.129 134.943 201.751 134.943 202.531V209H133.434V207.67H133.358C133.255 207.884 133.085 208.112 132.846 208.354C132.608 208.597 132.29 208.804 131.894 208.974C131.498 209.145 131.014 209.23 130.443 209.23ZM130.673 207.875C131.27 207.875 131.772 207.758 132.182 207.523C132.595 207.289 132.906 206.987 133.115 206.616C133.328 206.245 133.434 205.855 133.434 205.446V204.065C133.37 204.142 133.23 204.212 133.012 204.276C132.799 204.336 132.552 204.389 132.271 204.436C131.994 204.479 131.723 204.517 131.459 204.551C131.199 204.581 130.988 204.607 130.826 204.628C130.434 204.679 130.068 204.762 129.727 204.877C129.39 204.988 129.118 205.156 128.909 205.382C128.704 205.604 128.602 205.906 128.602 206.29C128.602 206.814 128.796 207.21 129.184 207.479C129.576 207.743 130.072 207.875 130.673 207.875ZM141.786 199.182V200.46H136.698V199.182H141.786ZM138.181 196.83H139.69V206.188C139.69 206.614 139.751 206.933 139.875 207.146C140.003 207.355 140.165 207.496 140.361 207.568C140.561 207.636 140.772 207.67 140.994 207.67C141.16 207.67 141.296 207.662 141.403 207.645C141.509 207.624 141.594 207.607 141.658 207.594L141.965 208.949C141.863 208.987 141.72 209.026 141.537 209.064C141.354 209.107 141.121 209.128 140.84 209.128C140.414 209.128 139.996 209.036 139.587 208.853C139.182 208.67 138.846 208.391 138.577 208.016C138.313 207.641 138.181 207.168 138.181 206.597V196.83ZM148.758 209V199.182H150.266V209H148.758ZM149.525 197.545C149.231 197.545 148.977 197.445 148.764 197.245C148.555 197.045 148.451 196.804 148.451 196.523C148.451 196.241 148.555 196.001 148.764 195.8C148.977 195.6 149.231 195.5 149.525 195.5C149.819 195.5 150.07 195.6 150.279 195.8C150.492 196.001 150.599 196.241 150.599 196.523C150.599 196.804 150.492 197.045 150.279 197.245C150.07 197.445 149.819 197.545 149.525 197.545ZM157.119 199.182V200.46H152.031V199.182H157.119ZM153.514 196.83H155.023V206.188C155.023 206.614 155.084 206.933 155.208 207.146C155.336 207.355 155.498 207.496 155.694 207.568C155.894 207.636 156.105 207.67 156.327 207.67C156.493 207.67 156.629 207.662 156.736 207.645C156.842 207.624 156.927 207.607 156.991 207.594L157.298 208.949C157.196 208.987 157.053 209.026 156.87 209.064C156.687 209.107 156.454 209.128 156.173 209.128C155.747 209.128 155.329 209.036 154.92 208.853C154.516 208.67 154.179 208.391 153.91 208.016C153.646 207.641 153.514 207.168 153.514 206.597V196.83ZM165.987 201.381L164.632 201.764C164.547 201.538 164.421 201.319 164.255 201.106C164.093 200.888 163.871 200.71 163.59 200.569C163.309 200.428 162.949 200.358 162.51 200.358C161.909 200.358 161.408 200.496 161.008 200.773C160.611 201.046 160.413 201.393 160.413 201.815C160.413 202.19 160.55 202.487 160.822 202.704C161.095 202.921 161.521 203.102 162.101 203.247L163.558 203.605C164.436 203.818 165.09 204.144 165.521 204.583C165.951 205.018 166.166 205.578 166.166 206.264C166.166 206.827 166.004 207.33 165.68 207.773C165.361 208.216 164.913 208.565 164.338 208.821C163.763 209.077 163.094 209.205 162.331 209.205C161.329 209.205 160.501 208.987 159.844 208.553C159.188 208.118 158.773 207.483 158.598 206.648L160.03 206.29C160.166 206.818 160.424 207.214 160.803 207.479C161.187 207.743 161.687 207.875 162.305 207.875C163.008 207.875 163.567 207.726 163.98 207.428C164.398 207.125 164.606 206.763 164.606 206.341C164.606 206 164.487 205.714 164.249 205.484C164.01 205.25 163.643 205.075 163.149 204.96L161.513 204.577C160.614 204.364 159.953 204.033 159.531 203.586C159.114 203.134 158.905 202.57 158.905 201.892C158.905 201.338 159.06 200.848 159.371 200.422C159.687 199.996 160.115 199.661 160.656 199.418C161.202 199.175 161.82 199.054 162.51 199.054C163.481 199.054 164.244 199.267 164.798 199.693C165.356 200.119 165.753 200.682 165.987 201.381ZM174.648 195.909V209H173.139V195.909H174.648ZM180.12 209.23C179.498 209.23 178.933 209.113 178.426 208.879C177.919 208.64 177.516 208.297 177.218 207.849C176.92 207.398 176.771 206.852 176.771 206.213C176.771 205.651 176.881 205.195 177.103 204.845C177.325 204.491 177.621 204.214 177.992 204.014C178.362 203.814 178.771 203.665 179.219 203.567C179.671 203.464 180.124 203.384 180.58 203.324C181.177 203.247 181.661 203.19 182.031 203.151C182.406 203.109 182.679 203.038 182.849 202.94C183.024 202.842 183.112 202.672 183.112 202.429V202.378C183.112 201.747 182.939 201.257 182.594 200.908C182.253 200.558 181.735 200.384 181.041 200.384C180.32 200.384 179.756 200.541 179.347 200.857C178.938 201.172 178.65 201.509 178.484 201.866L177.052 201.355C177.308 200.759 177.648 200.294 178.075 199.962C178.505 199.625 178.974 199.391 179.481 199.259C179.992 199.122 180.495 199.054 180.989 199.054C181.305 199.054 181.667 199.092 182.076 199.169C182.489 199.241 182.888 199.393 183.271 199.623C183.659 199.853 183.981 200.2 184.237 200.665C184.492 201.129 184.62 201.751 184.62 202.531V209H183.112V207.67H183.035C182.933 207.884 182.762 208.112 182.523 208.354C182.285 208.597 181.967 208.804 181.571 208.974C181.175 209.145 180.691 209.23 180.12 209.23ZM180.35 207.875C180.947 207.875 181.45 207.758 181.859 207.523C182.272 207.289 182.583 206.987 182.792 206.616C183.005 206.245 183.112 205.855 183.112 205.446V204.065C183.048 204.142 182.907 204.212 182.69 204.276C182.477 204.336 182.229 204.389 181.948 204.436C181.671 204.479 181.401 204.517 181.136 204.551C180.876 204.581 180.666 204.607 180.504 204.628C180.112 204.679 179.745 204.762 179.404 204.877C179.068 204.988 178.795 205.156 178.586 205.382C178.381 205.604 178.279 205.906 178.279 206.29C178.279 206.814 178.473 207.21 178.861 207.479C179.253 207.743 179.749 207.875 180.35 207.875ZM187.813 212.682C187.558 212.682 187.33 212.661 187.13 212.618C186.929 212.58 186.791 212.541 186.714 212.503L187.098 211.173C187.464 211.267 187.788 211.301 188.069 211.276C188.35 211.25 188.6 211.124 188.817 210.898C189.039 210.677 189.241 210.317 189.424 209.818L189.706 209.051L186.075 199.182H187.711L190.421 207.006H190.524L193.234 199.182H194.87L190.703 210.432C190.515 210.939 190.283 211.359 190.006 211.691C189.729 212.028 189.407 212.277 189.041 212.439C188.679 212.601 188.269 212.682 187.813 212.682ZM200.318 209.205C199.432 209.205 198.654 208.994 197.985 208.572C197.321 208.15 196.801 207.56 196.426 206.801C196.055 206.043 195.87 205.156 195.87 204.142C195.87 203.119 196.055 202.227 196.426 201.464C196.801 200.701 197.321 200.109 197.985 199.687C198.654 199.265 199.432 199.054 200.318 199.054C201.205 199.054 201.98 199.265 202.645 199.687C203.314 200.109 203.834 200.701 204.205 201.464C204.58 202.227 204.767 203.119 204.767 204.142C204.767 205.156 204.58 206.043 204.205 206.801C203.834 207.56 203.314 208.15 202.645 208.572C201.98 208.994 201.205 209.205 200.318 209.205ZM200.318 207.849C200.992 207.849 201.546 207.677 201.98 207.332C202.415 206.987 202.737 206.533 202.946 205.97C203.154 205.408 203.259 204.798 203.259 204.142C203.259 203.486 203.154 202.874 202.946 202.308C202.737 201.741 202.415 201.283 201.98 200.933C201.546 200.584 200.992 200.409 200.318 200.409C199.645 200.409 199.091 200.584 198.657 200.933C198.222 201.283 197.9 201.741 197.691 202.308C197.483 202.874 197.378 203.486 197.378 204.142C197.378 204.798 197.483 205.408 197.691 205.97C197.9 206.533 198.222 206.987 198.657 207.332C199.091 207.677 199.645 207.849 200.318 207.849ZM213.078 204.986V199.182H214.586V209H213.078V207.338H212.975C212.745 207.837 212.387 208.261 211.901 208.61C211.416 208.955 210.802 209.128 210.061 209.128C209.447 209.128 208.901 208.994 208.424 208.725C207.947 208.452 207.572 208.043 207.299 207.498C207.026 206.948 206.89 206.256 206.89 205.42V199.182H208.399V205.318C208.399 206.034 208.599 206.605 208.999 207.031C209.404 207.457 209.92 207.67 210.546 207.67C210.921 207.67 211.303 207.575 211.691 207.383C212.083 207.191 212.411 206.897 212.675 206.501C212.943 206.104 213.078 205.599 213.078 204.986ZM221.439 199.182V200.46H216.351V199.182H221.439ZM217.834 196.83H219.342V206.188C219.342 206.614 219.404 206.933 219.528 207.146C219.656 207.355 219.818 207.496 220.014 207.568C220.214 207.636 220.425 207.67 220.646 207.67C220.813 207.67 220.949 207.662 221.055 207.645C221.162 207.624 221.247 207.607 221.311 207.594L221.618 208.949C221.516 208.987 221.373 209.026 221.19 209.064C221.006 209.107 220.774 209.128 220.493 209.128C220.067 209.128 219.649 209.036 219.24 208.853C218.835 208.67 218.499 208.391 218.23 208.016C217.966 207.641 217.834 207.168 217.834 206.597V196.83ZM224.628 209.102C224.312 209.102 224.042 208.989 223.816 208.763C223.59 208.538 223.477 208.267 223.477 207.952C223.477 207.636 223.59 207.366 223.816 207.14C224.042 206.914 224.312 206.801 224.628 206.801C224.943 206.801 225.214 206.914 225.439 207.14C225.665 207.366 225.778 207.636 225.778 207.952C225.778 208.161 225.725 208.352 225.618 208.527C225.516 208.702 225.378 208.842 225.203 208.949C225.032 209.051 224.841 209.102 224.628 209.102Z" fill="#969AA0"/>
<path d="M49.2508 138.977C49.2508 138.914 49.282 138.883 49.3445 138.883C49.493 138.875 49.6648 138.855 49.8602 138.824C50.0633 138.785 50.2664 138.711 50.4695 138.602C50.6805 138.484 50.8836 138.316 51.0789 138.098C51.2742 137.871 51.4383 137.562 51.5711 137.172L56.282 123.508C56.282 123.516 56.282 123.512 56.282 123.496C56.2898 123.48 56.2937 123.465 56.2937 123.449C56.2937 123.395 56.2703 123.328 56.2234 123.25C56.1844 123.164 56.1648 123.102 56.1648 123.062C56.1648 123.023 56.1805 123.004 56.2117 123.004H59.6102C59.6258 123.012 59.6453 123.02 59.6687 123.027C59.7 123.035 59.7234 123.059 59.7391 123.098L64.6961 137.008C64.7742 137.227 64.8484 137.414 64.9187 137.57C64.9891 137.727 65.0711 137.867 65.1648 137.992C65.2664 138.109 65.3914 138.219 65.5398 138.32C65.6883 138.414 65.8797 138.512 66.1141 138.613C66.2234 138.668 66.3719 138.727 66.5594 138.789C66.7469 138.852 66.9266 138.883 67.0984 138.883C67.1375 138.883 67.1609 138.895 67.1687 138.918C67.1844 138.941 67.1922 138.965 67.1922 138.988V139.434C67.1922 139.449 67.1844 139.469 67.1687 139.492C67.1609 139.516 67.1375 139.527 67.0984 139.527H58.8719C58.8328 139.527 58.8055 139.516 58.7898 139.492C58.782 139.469 58.7781 139.449 58.7781 139.434V138.977C58.7781 138.961 58.782 138.941 58.7898 138.918C58.8055 138.895 58.8328 138.883 58.8719 138.883C58.9031 138.883 58.9344 138.883 58.9656 138.883C58.9969 138.875 59.0203 138.871 59.0359 138.871C59.1219 138.863 59.243 138.855 59.3992 138.848C59.5633 138.84 59.7391 138.828 59.9266 138.812C60.1141 138.789 60.3016 138.758 60.4891 138.719C60.6844 138.672 60.8602 138.609 61.0164 138.531C61.1727 138.445 61.3016 138.336 61.4031 138.203C61.5047 138.07 61.5555 137.906 61.5555 137.711C61.5555 137.664 61.5477 137.609 61.532 137.547L59.9969 133.316C59.9891 133.301 59.9734 133.266 59.95 133.211C59.9344 133.156 59.9031 133.102 59.8562 133.047C59.8172 132.984 59.7625 132.93 59.6922 132.883C59.6297 132.836 59.5516 132.812 59.4578 132.812H55.2273C55.1258 132.812 55.0398 132.836 54.9695 132.883C54.8992 132.93 54.8406 132.98 54.7937 133.035C54.7469 133.09 54.7078 133.145 54.6766 133.199C54.6531 133.254 54.6414 133.285 54.6414 133.293C54.3914 134.027 54.1805 134.648 54.0086 135.156C53.8367 135.656 53.6922 136.07 53.575 136.398C53.4656 136.727 53.3797 136.98 53.3172 137.16C53.2547 137.34 53.2078 137.473 53.1766 137.559C53.1531 137.637 53.1375 137.688 53.1297 137.711C53.1297 137.727 53.1297 137.734 53.1297 137.734C53.1297 137.758 53.1336 137.785 53.1414 137.816C53.1492 137.84 53.157 137.863 53.1648 137.887C53.2273 138.082 53.3406 138.246 53.5047 138.379C53.6766 138.504 53.8719 138.605 54.0906 138.684C54.3094 138.754 54.532 138.805 54.7586 138.836C54.993 138.867 55.2 138.883 55.3797 138.883H55.6844C55.7234 138.883 55.7469 138.895 55.7547 138.918C55.7703 138.941 55.7781 138.961 55.7781 138.977V139.434C55.7781 139.449 55.7703 139.469 55.7547 139.492C55.7469 139.516 55.7234 139.527 55.6844 139.527H49.3445C49.282 139.527 49.2508 139.496 49.2508 139.434V138.977ZM55.3914 131.125C55.3758 131.164 55.3641 131.203 55.3562 131.242C55.3484 131.281 55.3445 131.32 55.3445 131.359C55.3445 131.406 55.3562 131.445 55.3797 131.477C55.4031 131.5 55.45 131.512 55.5203 131.512H59.0359C59.1219 131.512 59.1766 131.496 59.2 131.465C59.2312 131.426 59.2469 131.383 59.2469 131.336C59.2469 131.297 59.243 131.262 59.2352 131.23C59.2273 131.199 59.2156 131.164 59.2 131.125L57.6414 126.848C57.6023 126.738 57.5437 126.66 57.4656 126.613C57.3875 126.559 57.3172 126.531 57.2547 126.531C57.1922 126.531 57.1219 126.562 57.0437 126.625C56.9656 126.68 56.907 126.758 56.868 126.859L55.3914 131.125ZM71.6748 128.16C71.7061 128.145 71.7373 128.129 71.7686 128.113C71.8077 128.098 71.835 128.09 71.8506 128.09C71.9834 128.09 72.0498 128.184 72.0498 128.371V130.316C72.0577 130.363 72.0889 130.387 72.1436 130.387C72.1905 130.387 72.2452 130.371 72.3077 130.34C72.6592 130.152 73.003 129.961 73.3389 129.766C73.6748 129.562 74.0108 129.379 74.3467 129.215C74.6905 129.051 75.0342 128.918 75.378 128.816C75.7217 128.715 76.0694 128.664 76.4209 128.664C76.7725 128.664 77.0694 128.707 77.3116 128.793C77.5537 128.879 77.7569 128.992 77.9209 129.133C78.085 129.266 78.2178 129.414 78.3194 129.578C78.4287 129.734 78.5225 129.887 78.6006 130.035C78.6084 130.059 78.6241 130.09 78.6475 130.129C78.6709 130.16 78.6983 130.195 78.7295 130.234C78.7686 130.273 78.8037 130.309 78.835 130.34C78.8741 130.363 78.9131 130.375 78.9522 130.375C79.0616 130.367 79.1748 130.332 79.292 130.27C80.0498 129.887 80.667 129.59 81.1436 129.379C81.628 129.16 82.0303 129 82.3506 128.898C82.6787 128.789 82.9522 128.723 83.1709 128.699C83.3975 128.676 83.628 128.664 83.8623 128.664C84.3233 128.664 84.7178 128.746 85.0459 128.91C85.3819 129.074 85.6631 129.293 85.8897 129.566C86.1162 129.832 86.2959 130.141 86.4287 130.492C86.5694 130.836 86.6748 131.191 86.7452 131.559C86.8155 131.918 86.8623 132.277 86.8858 132.637C86.9092 132.988 86.9209 133.309 86.9209 133.598C86.9209 133.871 86.9131 134.125 86.8975 134.359C86.8897 134.594 86.878 134.852 86.8623 135.133C86.8545 135.406 86.8428 135.719 86.8272 136.07C86.8194 136.422 86.8155 136.848 86.8155 137.348C86.8155 137.582 86.8584 137.777 86.9444 137.934C87.0303 138.09 87.1397 138.219 87.2725 138.32C87.4131 138.422 87.5655 138.5 87.7295 138.555C87.8936 138.602 88.0537 138.641 88.21 138.672C88.3662 138.703 88.5069 138.73 88.6319 138.754C88.7647 138.77 88.8662 138.793 88.9366 138.824C88.9678 138.84 88.9952 138.891 89.0186 138.977C89.042 139.062 89.0537 139.125 89.0537 139.164C89.0537 139.211 89.0459 139.281 89.0303 139.375C89.0147 139.461 88.9834 139.512 88.9366 139.527H82.3975C82.3506 139.512 82.3194 139.461 82.3037 139.375C82.2881 139.281 82.2803 139.211 82.2803 139.164C82.2803 139.125 82.292 139.062 82.3155 138.977C82.3389 138.891 82.3662 138.84 82.3975 138.824C82.4991 138.777 82.6436 138.742 82.8311 138.719C83.0186 138.688 83.2061 138.629 83.3936 138.543C83.5811 138.449 83.7412 138.309 83.8741 138.121C84.0147 137.934 84.085 137.652 84.085 137.277V137.254C84.1241 137.012 84.1475 136.746 84.1553 136.457C84.1709 136.16 84.1787 135.836 84.1787 135.484C84.1787 135.312 84.1748 135.152 84.167 135.004C84.167 134.848 84.167 134.691 84.167 134.535C84.167 134.371 84.1631 134.195 84.1553 134.008C84.1553 133.82 84.1553 133.605 84.1553 133.363C84.1553 132.98 84.1358 132.598 84.0967 132.215C84.0655 131.832 83.9795 131.488 83.8389 131.184C83.7061 130.879 83.5069 130.633 83.2412 130.445C82.9756 130.25 82.6084 130.152 82.1397 130.152C82.0616 130.152 81.9756 130.164 81.8819 130.188C81.7881 130.203 81.6592 130.242 81.4952 130.305C81.3311 130.359 81.1123 130.445 80.8389 130.562C80.5655 130.68 80.2061 130.832 79.7608 131.02C79.6983 131.059 79.6319 131.105 79.5616 131.16C79.4991 131.207 79.4639 131.27 79.4561 131.348V137.348C79.4561 137.699 79.5264 137.969 79.667 138.156C79.8077 138.336 79.9717 138.469 80.1592 138.555C80.3467 138.633 80.5342 138.688 80.7217 138.719C80.9092 138.742 81.0537 138.777 81.1553 138.824C81.1866 138.84 81.2139 138.891 81.2373 138.977C81.2608 139.062 81.2725 139.125 81.2725 139.164C81.2725 139.211 81.2647 139.281 81.2491 139.375C81.2334 139.461 81.2022 139.512 81.1553 139.527H75.0381C74.9912 139.512 74.96 139.461 74.9444 139.375C74.9287 139.281 74.9209 139.211 74.9209 139.164C74.9209 139.125 74.9327 139.062 74.9561 138.977C74.9795 138.891 75.0069 138.84 75.0381 138.824C75.1397 138.777 75.2842 138.742 75.4717 138.719C75.6592 138.688 75.8467 138.633 76.0342 138.555C76.2217 138.469 76.3858 138.336 76.5264 138.156C76.667 137.969 76.7373 137.699 76.7373 137.348V132.238C76.7373 131.934 76.7139 131.656 76.667 131.406C76.6202 131.148 76.5303 130.93 76.3975 130.75C76.2647 130.562 76.0772 130.418 75.835 130.316C75.6006 130.215 75.292 130.164 74.9092 130.164C74.7295 130.164 74.503 130.215 74.2295 130.316C73.9561 130.41 73.6748 130.531 73.3858 130.68C73.1045 130.828 72.8389 130.984 72.5889 131.148C72.3467 131.312 72.167 131.465 72.0498 131.605V137.348C72.0498 137.699 72.1202 137.969 72.2608 138.156C72.4014 138.336 72.5655 138.469 72.753 138.555C72.9405 138.633 73.128 138.688 73.3155 138.719C73.503 138.742 73.6475 138.777 73.7491 138.824C73.7803 138.84 73.8077 138.891 73.8311 138.977C73.8545 139.062 73.8662 139.125 73.8662 139.164C73.8662 139.211 73.8584 139.281 73.8428 139.375C73.8272 139.461 73.7959 139.512 73.7491 139.527H67.6319C67.585 139.512 67.5537 139.461 67.5381 139.375C67.5225 139.281 67.5147 139.211 67.5147 139.164C67.5147 139.125 67.5264 139.062 67.5498 138.977C67.5733 138.891 67.6006 138.84 67.6319 138.824C67.7334 138.777 67.878 138.742 68.0655 138.719C68.253 138.688 68.4405 138.633 68.628 138.555C68.8155 138.469 68.9795 138.34 69.1202 138.168C69.2608 137.988 69.3311 137.723 69.3311 137.371V131.406C69.3311 131.219 69.2803 131.074 69.1787 130.973C69.0772 130.863 68.9483 130.781 68.792 130.727C68.6358 130.672 68.4678 130.629 68.2881 130.598C68.1084 130.559 67.9366 130.516 67.7725 130.469C67.7256 130.453 67.6866 130.434 67.6553 130.41C67.6319 130.379 67.6202 130.32 67.6202 130.234C67.6202 130.195 67.6319 130.156 67.6553 130.117C67.6787 130.078 67.7256 130.039 67.7959 130L71.6748 128.16ZM94.5677 139.293C94.3098 139.473 94.0052 139.613 93.6536 139.715C93.302 139.816 92.9505 139.867 92.5989 139.867C91.6458 139.867 90.9192 139.652 90.4192 139.223C89.927 138.793 89.6809 138.211 89.6809 137.477C89.6809 137.055 89.7747 136.691 89.9622 136.387C90.1575 136.082 90.4427 135.812 90.8177 135.578C91.1927 135.344 91.6536 135.133 92.2005 134.945C92.7552 134.75 93.3958 134.559 94.1223 134.371C94.513 134.27 94.8255 134.16 95.0598 134.043C95.302 133.926 95.5247 133.812 95.7278 133.703C95.8606 133.633 95.9348 133.57 95.9505 133.516C95.9739 133.461 95.9856 133.41 95.9856 133.363V131.324C95.9856 131.066 95.9466 130.828 95.8684 130.609C95.7981 130.383 95.6888 130.188 95.5403 130.023C95.3919 129.859 95.2122 129.73 95.0013 129.637C94.7903 129.543 94.552 129.496 94.2864 129.496C94.0598 129.496 93.8489 129.535 93.6536 129.613C93.4583 129.691 93.2903 129.805 93.1497 129.953C93.0091 130.102 92.8958 130.277 92.8098 130.48C92.7317 130.684 92.6927 130.914 92.6927 131.172C92.6927 131.195 92.6927 131.23 92.6927 131.277C92.7005 131.324 92.7083 131.375 92.7161 131.43C92.7239 131.477 92.7317 131.52 92.7395 131.559C92.7473 131.598 92.7513 131.621 92.7513 131.629C92.7434 131.645 92.677 131.676 92.552 131.723C92.4348 131.77 92.2864 131.824 92.1067 131.887C91.9348 131.941 91.7434 132 91.5325 132.062C91.3216 132.117 91.1184 132.172 90.9231 132.227C90.7356 132.281 90.5677 132.332 90.4192 132.379C90.2786 132.418 90.1809 132.441 90.1263 132.449C90.0403 132.449 89.9856 132.406 89.9622 132.32C89.9466 132.227 89.9388 132.137 89.9388 132.051C89.9388 131.598 90.0755 131.156 90.3489 130.727C90.6223 130.297 90.9856 129.918 91.4388 129.59C91.8997 129.254 92.427 128.984 93.0208 128.781C93.6145 128.578 94.2278 128.477 94.8606 128.477C95.4231 128.477 95.927 128.551 96.3723 128.699C96.8177 128.84 97.1966 129.039 97.5091 129.297C97.8216 129.547 98.0598 129.84 98.2239 130.176C98.388 130.504 98.47 130.855 98.47 131.23V136.82C98.47 137.023 98.5442 137.207 98.6927 137.371C98.8489 137.527 99.0481 137.605 99.2903 137.605C99.4309 137.605 99.5559 137.582 99.6653 137.535C99.7825 137.48 99.8841 137.422 99.97 137.359C100.064 137.289 100.142 137.23 100.204 137.184C100.267 137.129 100.322 137.102 100.368 137.102C100.431 137.102 100.466 137.129 100.474 137.184C100.482 137.23 100.486 137.273 100.486 137.312C100.486 137.445 100.466 137.582 100.427 137.723C100.396 137.855 100.337 137.953 100.251 138.016C99.8684 138.305 99.5286 138.566 99.2317 138.801C98.9348 139.027 98.6653 139.223 98.4231 139.387C98.1809 139.551 97.9622 139.676 97.7669 139.762C97.5716 139.848 97.388 139.891 97.2161 139.891C97.0598 139.891 96.9192 139.848 96.7942 139.762C96.677 139.676 96.5716 139.57 96.4778 139.445C96.3919 139.32 96.3177 139.188 96.2552 139.047C96.1927 138.898 96.138 138.762 96.0911 138.637C96.052 138.512 96.0208 138.41 95.9973 138.332C95.9739 138.254 95.9544 138.219 95.9388 138.227L94.5677 139.293ZM92.4114 137.195C92.4114 137.406 92.4505 137.578 92.5286 137.711C92.6145 137.844 92.7239 137.945 92.8567 138.016C92.9895 138.086 93.138 138.137 93.302 138.168C93.4739 138.191 93.6497 138.203 93.8294 138.203C93.9934 138.203 94.1966 138.164 94.4388 138.086C94.6809 138 94.9153 137.891 95.1419 137.758C95.3763 137.617 95.5755 137.461 95.7395 137.289C95.9036 137.109 95.9856 136.93 95.9856 136.75V134.816C95.9856 134.73 95.9544 134.688 95.8919 134.688C95.8763 134.688 95.8606 134.691 95.845 134.699L93.1263 135.965C93.0169 136.043 92.9153 136.117 92.8216 136.188C92.7356 136.25 92.6614 136.328 92.5989 136.422C92.5364 136.508 92.4895 136.613 92.4583 136.738C92.427 136.855 92.4114 137.008 92.4114 137.195ZM101.277 139.293C101.277 139.23 101.277 139.184 101.277 139.152C101.285 139.121 101.308 139.07 101.347 139L107.125 131.137C107.203 131.027 107.269 130.934 107.324 130.855C107.386 130.777 107.417 130.68 107.417 130.562C107.425 130.539 107.375 130.523 107.265 130.516C107.156 130.5 107.019 130.488 106.855 130.48C106.691 130.473 106.519 130.469 106.339 130.469C106.16 130.461 106.007 130.457 105.882 130.457H103.949C103.683 130.457 103.46 130.516 103.281 130.633C103.101 130.75 102.945 130.898 102.812 131.078C102.687 131.25 102.582 131.441 102.496 131.652C102.41 131.855 102.332 132.047 102.261 132.227C102.191 132.398 102.121 132.543 102.05 132.66C101.988 132.777 101.91 132.836 101.816 132.836C101.792 132.836 101.738 132.836 101.652 132.836C101.566 132.828 101.523 132.812 101.523 132.789L102.226 128.652C102.242 128.582 102.3 128.543 102.402 128.535C102.503 128.52 102.585 128.512 102.648 128.512C102.703 128.512 102.753 128.539 102.8 128.594C102.855 128.648 102.91 128.711 102.964 128.781C103.027 128.844 103.093 128.902 103.164 128.957C103.234 129.012 103.32 129.039 103.421 129.039C103.539 129.039 103.691 129.047 103.878 129.062C104.074 129.07 104.316 129.082 104.605 129.098C104.902 129.105 105.257 129.113 105.671 129.121C106.085 129.129 106.582 129.133 107.16 129.133C107.394 129.133 107.667 129.133 107.98 129.133C108.3 129.125 108.64 129.117 109 129.109C109.367 129.102 109.746 129.094 110.136 129.086C110.527 129.078 110.91 129.07 111.285 129.062C111.332 129.078 111.363 129.113 111.378 129.168C111.394 129.223 111.402 129.277 111.402 129.332C111.402 129.348 111.382 129.414 111.343 129.531C111.304 129.641 111.261 129.715 111.214 129.754L105.285 137.816C105.253 137.863 105.222 137.906 105.191 137.945C105.167 137.984 105.156 138.031 105.156 138.086C105.156 138.125 105.156 138.152 105.156 138.168C105.164 138.176 105.187 138.18 105.226 138.18H109.269C109.48 138.18 109.667 138.137 109.832 138.051C110.003 137.957 110.16 137.84 110.3 137.699C110.449 137.559 110.582 137.41 110.699 137.254C110.816 137.098 110.929 136.949 111.039 136.809C111.148 136.668 111.25 136.555 111.343 136.469C111.445 136.375 111.546 136.328 111.648 136.328C111.695 136.328 111.761 136.34 111.847 136.363C111.941 136.387 111.988 136.422 111.988 136.469L111.015 138.988C111 139.02 110.98 139.066 110.957 139.129C110.933 139.191 110.902 139.254 110.863 139.316C110.832 139.371 110.789 139.422 110.734 139.469C110.687 139.508 110.632 139.527 110.57 139.527H101.535C101.363 139.527 101.277 139.449 101.277 139.293ZM112.849 134.781C112.849 133.867 112.978 133.027 113.236 132.262C113.494 131.488 113.865 130.82 114.349 130.258C114.834 129.695 115.424 129.258 116.119 128.945C116.822 128.633 117.619 128.477 118.51 128.477C118.775 128.477 119.013 128.496 119.224 128.535C119.435 128.566 119.627 128.613 119.799 128.676C119.978 128.73 120.142 128.801 120.291 128.887C120.447 128.965 120.603 129.051 120.76 129.145C120.939 129.238 121.142 129.406 121.369 129.648C121.603 129.891 121.822 130.172 122.025 130.492C122.228 130.812 122.4 131.156 122.541 131.523C122.681 131.883 122.752 132.23 122.752 132.566C122.752 132.676 122.728 132.797 122.681 132.93C122.642 133.055 122.572 133.117 122.47 133.117H115.556C115.478 133.117 115.424 133.188 115.392 133.328C115.369 133.469 115.357 133.641 115.357 133.844C115.357 134.531 115.455 135.145 115.65 135.684C115.853 136.215 116.123 136.668 116.459 137.043C116.795 137.41 117.181 137.691 117.619 137.887C118.056 138.074 118.517 138.168 119.002 138.168C119.306 138.168 119.599 138.129 119.881 138.051C120.162 137.965 120.431 137.855 120.689 137.723C120.947 137.59 121.189 137.441 121.416 137.277C121.642 137.113 121.857 136.949 122.06 136.785C122.107 136.77 122.138 136.762 122.154 136.762C122.177 136.762 122.209 136.781 122.248 136.82C122.318 136.883 122.388 136.957 122.459 137.043C122.529 137.121 122.584 137.188 122.623 137.242C122.646 137.266 122.658 137.289 122.658 137.312C122.658 137.336 122.642 137.363 122.611 137.395C122.353 137.699 122.037 138 121.662 138.297C121.287 138.586 120.885 138.848 120.455 139.082C120.033 139.309 119.599 139.492 119.154 139.633C118.709 139.773 118.287 139.844 117.888 139.844C117.084 139.844 116.369 139.699 115.744 139.41C115.119 139.113 114.592 138.727 114.162 138.25C113.732 137.773 113.404 137.234 113.177 136.633C112.959 136.023 112.849 135.406 112.849 134.781ZM119.728 132.215C119.931 132.215 120.033 132.125 120.033 131.945C120.033 131.641 119.982 131.355 119.881 131.09C119.787 130.816 119.65 130.578 119.47 130.375C119.291 130.164 119.072 130 118.814 129.883C118.564 129.766 118.283 129.707 117.97 129.707C117.595 129.707 117.267 129.789 116.986 129.953C116.705 130.109 116.467 130.301 116.271 130.527C116.076 130.754 115.927 130.988 115.826 131.23C115.732 131.473 115.685 131.68 115.685 131.852C115.685 131.984 115.705 132.078 115.744 132.133C115.783 132.188 115.834 132.215 115.896 132.215H119.728ZM127.176 128.16C127.207 128.145 127.238 128.129 127.27 128.113C127.309 128.098 127.336 128.09 127.352 128.09C127.484 128.09 127.551 128.184 127.551 128.371V130.199C127.574 130.277 127.605 130.316 127.645 130.316C127.684 130.316 127.715 130.316 127.738 130.316C127.762 130.309 127.793 130.293 127.832 130.27C128.332 130.012 128.754 129.797 129.098 129.625C129.449 129.445 129.75 129.297 130 129.18C130.258 129.055 130.484 128.961 130.68 128.898C130.883 128.828 131.086 128.777 131.289 128.746C131.492 128.707 131.715 128.684 131.957 128.676C132.199 128.668 132.496 128.664 132.848 128.664C133.23 128.664 133.562 128.746 133.844 128.91C134.125 129.074 134.359 129.293 134.547 129.566C134.742 129.832 134.898 130.141 135.016 130.492C135.141 130.836 135.234 131.191 135.297 131.559C135.359 131.918 135.402 132.277 135.426 132.637C135.449 132.988 135.461 133.309 135.461 133.598C135.461 133.871 135.453 134.125 135.438 134.359C135.43 134.594 135.418 134.852 135.402 135.133C135.395 135.406 135.383 135.719 135.367 136.07C135.359 136.422 135.355 136.848 135.355 137.348C135.355 137.582 135.398 137.777 135.484 137.934C135.57 138.09 135.68 138.219 135.812 138.32C135.953 138.422 136.105 138.5 136.27 138.555C136.434 138.602 136.594 138.641 136.75 138.672C136.906 138.703 137.047 138.73 137.172 138.754C137.305 138.77 137.406 138.793 137.477 138.824C137.508 138.84 137.535 138.891 137.559 138.977C137.582 139.062 137.594 139.125 137.594 139.164C137.594 139.211 137.586 139.281 137.57 139.375C137.555 139.461 137.523 139.512 137.477 139.527H130.938C130.891 139.512 130.859 139.461 130.844 139.375C130.828 139.281 130.82 139.211 130.82 139.164C130.82 139.125 130.832 139.062 130.855 138.977C130.879 138.891 130.906 138.84 130.938 138.824C131.039 138.777 131.172 138.742 131.336 138.719C131.508 138.688 131.68 138.625 131.852 138.531C132.031 138.438 132.191 138.297 132.332 138.109C132.48 137.914 132.578 137.629 132.625 137.254C132.641 137.137 132.652 137.027 132.66 136.926C132.676 136.824 132.688 136.723 132.695 136.621C132.703 136.512 132.707 136.395 132.707 136.27C132.715 136.145 132.719 136 132.719 135.836C132.719 135.484 132.715 135.109 132.707 134.711C132.699 134.312 132.695 133.867 132.695 133.375C132.695 132.992 132.676 132.613 132.637 132.238C132.605 131.863 132.52 131.527 132.379 131.23C132.246 130.934 132.047 130.691 131.781 130.504C131.516 130.316 131.148 130.223 130.68 130.223C130.516 130.223 130.367 130.234 130.234 130.258C130.109 130.273 129.953 130.316 129.766 130.387C129.586 130.457 129.348 130.562 129.051 130.703C128.754 130.844 128.355 131.035 127.855 131.277C127.793 131.316 127.727 131.363 127.656 131.418C127.594 131.465 127.559 131.527 127.551 131.605V137.348C127.551 137.699 127.621 137.969 127.762 138.156C127.902 138.336 128.066 138.469 128.254 138.555C128.441 138.633 128.629 138.688 128.816 138.719C129.004 138.742 129.148 138.777 129.25 138.824C129.281 138.84 129.309 138.891 129.332 138.977C129.355 139.062 129.367 139.125 129.367 139.164C129.367 139.211 129.359 139.281 129.344 139.375C129.328 139.461 129.297 139.512 129.25 139.527H123.133C123.086 139.512 123.055 139.461 123.039 139.375C123.023 139.281 123.016 139.211 123.016 139.164C123.016 139.125 123.027 139.062 123.051 138.977C123.074 138.891 123.102 138.84 123.133 138.824C123.234 138.777 123.379 138.742 123.566 138.719C123.754 138.688 123.941 138.633 124.129 138.555C124.316 138.469 124.48 138.336 124.621 138.156C124.762 137.969 124.832 137.699 124.832 137.348V131.395C124.832 131.207 124.781 131.062 124.68 130.961C124.578 130.852 124.449 130.77 124.293 130.715C124.137 130.66 123.969 130.617 123.789 130.586C123.609 130.547 123.438 130.504 123.273 130.457C123.227 130.441 123.188 130.422 123.156 130.398C123.133 130.367 123.121 130.309 123.121 130.223C123.121 130.184 123.133 130.145 123.156 130.105C123.18 130.066 123.227 130.027 123.297 129.988L127.176 128.16ZM145.024 131.371C145.024 130.496 145.133 129.672 145.352 128.898C145.571 128.117 145.879 127.398 146.278 126.742C146.676 126.086 147.157 125.496 147.719 124.973C148.282 124.449 148.903 124.008 149.582 123.648C150.27 123.281 151.004 123 151.786 122.805C152.567 122.609 153.383 122.512 154.235 122.512C154.954 122.512 155.645 122.578 156.309 122.711C156.981 122.836 157.672 122.984 158.383 123.156C158.5 123.188 158.622 123.227 158.747 123.273C158.879 123.32 159 123.367 159.11 123.414C159.227 123.453 159.332 123.488 159.426 123.52C159.52 123.551 159.59 123.566 159.637 123.566C159.653 123.566 159.704 123.551 159.79 123.52C159.883 123.488 159.95 123.473 159.989 123.473H160.528C160.622 123.473 160.668 123.539 160.668 123.672V127.492C160.668 127.539 160.649 127.57 160.61 127.586C160.579 127.602 160.504 127.609 160.387 127.609C160.364 127.609 160.301 127.609 160.2 127.609C160.106 127.602 160.047 127.578 160.024 127.539C160.008 127.516 159.977 127.469 159.93 127.398C159.891 127.328 159.844 127.258 159.79 127.188C159.743 127.109 159.696 127.039 159.649 126.977C159.61 126.906 159.586 126.859 159.579 126.836C159.282 126.25 158.957 125.758 158.606 125.359C158.254 124.953 157.864 124.625 157.434 124.375C157.012 124.125 156.551 123.945 156.051 123.836C155.551 123.719 155.008 123.66 154.422 123.66C153.68 123.66 153.02 123.746 152.442 123.918C151.872 124.09 151.372 124.332 150.942 124.645C150.512 124.957 150.149 125.332 149.852 125.77C149.563 126.207 149.325 126.688 149.137 127.211C148.957 127.727 148.825 128.281 148.739 128.875C148.661 129.461 148.622 130.066 148.622 130.691C148.622 131.355 148.668 132.016 148.762 132.672C148.856 133.32 149.008 133.941 149.219 134.535C149.43 135.121 149.7 135.668 150.028 136.176C150.364 136.676 150.766 137.113 151.235 137.488C151.704 137.855 152.25 138.145 152.875 138.355C153.5 138.566 154.207 138.672 154.997 138.672C155.661 138.672 156.278 138.574 156.848 138.379C157.426 138.176 157.954 137.906 158.43 137.57C158.907 137.227 159.329 136.836 159.696 136.398C160.071 135.953 160.391 135.488 160.657 135.004C160.672 134.965 160.688 134.945 160.704 134.945C160.727 134.938 160.758 134.934 160.797 134.934H161.395C161.418 134.934 161.442 134.945 161.465 134.969C161.497 134.984 161.512 135.023 161.512 135.086C161.512 135.109 161.493 135.172 161.454 135.273C161.422 135.367 161.387 135.449 161.348 135.52L159.731 139.082C159.715 139.105 159.692 139.125 159.661 139.141C159.629 139.156 159.602 139.164 159.579 139.164C159.391 139.164 159.258 139.148 159.18 139.117C159.11 139.086 159.036 139.07 158.957 139.07C158.723 139.07 158.411 139.113 158.02 139.199C157.637 139.277 157.219 139.363 156.766 139.457C156.321 139.551 155.868 139.637 155.407 139.715C154.954 139.801 154.547 139.844 154.188 139.844C153.368 139.844 152.571 139.754 151.797 139.574C151.024 139.395 150.297 139.137 149.618 138.801C148.938 138.457 148.317 138.039 147.754 137.547C147.192 137.047 146.707 136.484 146.301 135.859C145.895 135.234 145.579 134.547 145.352 133.797C145.133 133.039 145.024 132.23 145.024 131.371ZM163.065 134.055C163.065 133.32 163.225 132.617 163.546 131.945C163.874 131.273 164.311 130.68 164.858 130.164C165.405 129.648 166.042 129.238 166.768 128.934C167.495 128.629 168.26 128.477 169.065 128.477C169.909 128.477 170.71 128.621 171.467 128.91C172.225 129.199 172.889 129.598 173.46 130.105C174.038 130.605 174.495 131.199 174.831 131.887C175.167 132.566 175.335 133.305 175.335 134.102C175.335 134.914 175.178 135.672 174.866 136.375C174.561 137.07 174.135 137.676 173.589 138.191C173.042 138.707 172.389 139.113 171.632 139.41C170.882 139.699 170.061 139.844 169.171 139.844C168.288 139.844 167.471 139.695 166.721 139.398C165.979 139.094 165.335 138.684 164.788 138.168C164.249 137.645 163.827 137.031 163.522 136.328C163.217 135.625 163.065 134.867 163.065 134.055ZM166.065 133.316C166.065 133.738 166.096 134.176 166.159 134.629C166.221 135.074 166.315 135.512 166.44 135.941C166.565 136.363 166.721 136.762 166.909 137.137C167.104 137.512 167.335 137.844 167.6 138.133C167.866 138.414 168.167 138.637 168.503 138.801C168.839 138.965 169.217 139.047 169.639 139.047C170.1 139.047 170.495 138.93 170.823 138.695C171.159 138.453 171.432 138.141 171.643 137.758C171.862 137.375 172.022 136.945 172.124 136.469C172.225 135.992 172.276 135.516 172.276 135.039C172.276 134.656 172.241 134.254 172.171 133.832C172.1 133.402 171.995 132.98 171.854 132.566C171.714 132.145 171.542 131.742 171.339 131.359C171.135 130.977 170.897 130.641 170.624 130.352C170.358 130.055 170.057 129.82 169.721 129.648C169.393 129.477 169.034 129.391 168.643 129.391C168.206 129.391 167.823 129.512 167.495 129.754C167.175 129.988 166.909 130.297 166.698 130.68C166.487 131.055 166.327 131.477 166.217 131.945C166.116 132.406 166.065 132.863 166.065 133.316ZM180.497 128.523C180.528 128.508 180.56 128.492 180.591 128.477C180.63 128.461 180.657 128.453 180.673 128.453C180.806 128.453 180.872 128.547 180.872 128.734V130.727C180.872 130.75 180.872 130.781 180.872 130.82C180.88 130.852 180.903 130.867 180.942 130.867C180.981 130.867 181.013 130.855 181.036 130.832C181.06 130.801 181.083 130.773 181.106 130.75C181.247 130.562 181.403 130.355 181.575 130.129C181.755 129.895 181.942 129.676 182.138 129.473C182.341 129.27 182.548 129.102 182.759 128.969C182.97 128.828 183.177 128.758 183.38 128.758C183.52 128.758 183.704 128.797 183.931 128.875C184.157 128.953 184.376 129.047 184.587 129.156C184.806 129.258 184.989 129.367 185.138 129.484C185.294 129.594 185.372 129.684 185.372 129.754C185.372 129.824 185.337 129.957 185.267 130.152C185.196 130.34 185.106 130.531 184.997 130.727C184.895 130.922 184.782 131.098 184.657 131.254C184.54 131.402 184.431 131.477 184.329 131.477H184.306C184.165 131.43 184.02 131.375 183.872 131.312C183.731 131.242 183.587 131.176 183.438 131.113C183.29 131.043 183.138 130.988 182.981 130.949C182.833 130.902 182.681 130.879 182.524 130.879C182.29 130.879 182.071 130.93 181.868 131.031C181.665 131.125 181.489 131.25 181.341 131.406C181.2 131.555 181.087 131.723 181.001 131.91C180.915 132.098 180.872 132.277 180.872 132.449V137.395C180.872 137.621 180.919 137.812 181.013 137.969C181.114 138.117 181.239 138.242 181.388 138.344C181.544 138.438 181.712 138.512 181.892 138.566C182.079 138.613 182.259 138.652 182.431 138.684C182.602 138.715 182.759 138.742 182.899 138.766C183.04 138.781 183.145 138.805 183.216 138.836C183.294 138.867 183.333 138.977 183.333 139.164C183.333 139.391 183.294 139.512 183.216 139.527H176.454C176.376 139.512 176.337 139.391 176.337 139.164C176.337 138.977 176.376 138.867 176.454 138.836C176.556 138.789 176.7 138.754 176.888 138.73C177.075 138.699 177.263 138.645 177.45 138.566C177.638 138.48 177.802 138.352 177.942 138.18C178.083 138 178.153 137.738 178.153 137.395V131.758C178.153 131.57 178.102 131.426 178.001 131.324C177.899 131.215 177.77 131.133 177.614 131.078C177.458 131.023 177.29 130.98 177.11 130.949C176.931 130.91 176.759 130.867 176.595 130.82C176.548 130.805 176.509 130.785 176.477 130.762C176.454 130.73 176.442 130.672 176.442 130.586C176.442 130.547 176.454 130.508 176.477 130.469C176.501 130.43 176.548 130.391 176.618 130.352L180.497 128.523ZM189.445 128.16C189.476 128.145 189.507 128.129 189.538 128.113C189.577 128.098 189.605 128.09 189.62 128.09C189.753 128.09 189.82 128.184 189.82 128.371V129.613C189.82 129.652 189.835 129.684 189.866 129.707C189.905 129.73 189.937 129.742 189.96 129.742C189.999 129.742 190.034 129.734 190.066 129.719C190.105 129.695 190.14 129.676 190.171 129.66C190.484 129.473 190.765 129.316 191.015 129.191C191.265 129.059 191.503 128.957 191.73 128.887C191.956 128.809 192.191 128.754 192.433 128.723C192.675 128.691 192.948 128.676 193.253 128.676C193.917 128.676 194.511 128.836 195.034 129.156C195.566 129.469 196.015 129.883 196.382 130.398C196.749 130.906 197.03 131.48 197.226 132.121C197.421 132.762 197.519 133.406 197.519 134.055C197.519 134.531 197.452 135.008 197.32 135.484C197.187 135.961 197.003 136.414 196.769 136.844C196.534 137.266 196.253 137.66 195.925 138.027C195.597 138.395 195.234 138.715 194.835 138.988C194.445 139.254 194.023 139.461 193.57 139.609C193.124 139.766 192.663 139.844 192.187 139.844C191.835 139.844 191.491 139.82 191.155 139.773C190.827 139.727 190.464 139.66 190.066 139.574C189.933 139.574 189.859 139.621 189.843 139.715C189.835 139.809 189.827 139.906 189.82 140.008V144.777C189.82 145.004 189.866 145.191 189.96 145.34C190.062 145.496 190.187 145.621 190.335 145.715C190.491 145.816 190.659 145.891 190.839 145.938C191.027 145.992 191.206 146.035 191.378 146.066C191.55 146.098 191.706 146.121 191.847 146.137C191.988 146.16 192.093 146.188 192.163 146.219C192.241 146.25 192.28 146.301 192.28 146.371C192.28 146.48 192.241 146.543 192.163 146.559H185.402C185.323 146.543 185.284 146.48 185.284 146.371C185.284 146.301 185.323 146.25 185.402 146.219C185.503 146.172 185.648 146.133 185.835 146.102C186.023 146.078 186.21 146.023 186.398 145.938C186.585 145.859 186.749 145.73 186.89 145.551C187.03 145.379 187.101 145.121 187.101 144.777V131.395C187.101 131.207 187.05 131.062 186.948 130.961C186.847 130.852 186.718 130.77 186.562 130.715C186.405 130.66 186.238 130.617 186.058 130.586C185.878 130.547 185.706 130.504 185.542 130.457C185.495 130.441 185.456 130.422 185.425 130.398C185.402 130.367 185.39 130.309 185.39 130.223C185.39 130.184 185.402 130.145 185.425 130.105C185.448 130.066 185.495 130.027 185.566 129.988L189.445 128.16ZM192.21 130C191.788 130 191.402 130.059 191.05 130.176C190.706 130.293 190.355 130.484 189.995 130.75C189.98 130.758 189.96 130.773 189.937 130.797C189.921 130.812 189.905 130.828 189.89 130.844L189.82 130.914V137.172C189.82 137.195 189.823 137.262 189.831 137.371C189.839 137.473 189.851 137.566 189.866 137.652C189.89 137.816 189.991 137.969 190.171 138.109C190.351 138.242 190.554 138.359 190.78 138.461C191.015 138.555 191.245 138.629 191.472 138.684C191.706 138.73 191.894 138.754 192.034 138.754C192.55 138.754 192.984 138.66 193.335 138.473C193.695 138.285 193.984 138.035 194.202 137.723C194.421 137.402 194.577 137.031 194.671 136.609C194.773 136.188 194.823 135.738 194.823 135.262C194.823 134.895 194.804 134.512 194.765 134.113C194.726 133.707 194.663 133.309 194.577 132.918C194.499 132.527 194.39 132.156 194.249 131.805C194.116 131.453 193.952 131.145 193.757 130.879C193.57 130.613 193.347 130.402 193.089 130.246C192.831 130.082 192.538 130 192.21 130Z" fill="#1B3764"/>
<path d="M94.0132 11.1732H96.1545L99.1105 19.7681H97.0783L96.4946 17.8451H93.6647L93.081 19.7681H91.0488L94.0132 11.1732ZM96.079 16.4763L95.0797 13.1718L94.0803 16.4763H96.079Z" fill="#1B3764"/>
<path d="M109.158 19.768V14.6455L107.306 18.374H106.215L104.363 14.6455V19.768H102.377V11.1731H104.531L106.756 15.6658L108.994 11.1731H111.136V19.768H109.158Z" fill="#1B3764"/>
<path d="M117.379 11.1731H119.521L122.477 19.768H120.444L119.861 17.845H117.031L116.447 19.768H114.415L117.379 11.1731ZM119.445 16.4762L118.446 13.1717L117.447 16.4762H119.445Z" fill="#1B3764"/>
<path d="M125.261 18.2816L129.644 12.9197H125.433V11.1772H132.029V12.6678L127.851 18.0297H132.075V19.7721H125.261V18.2816Z" fill="#1B3764"/>
<path d="M141.774 18.0255V19.768H135.732V11.1731H141.665V12.9156H137.718V14.5867H141.107V16.199H137.718V18.0255H141.774Z" fill="#1B3764"/>
<path d="M147.392 14.8554V19.7722H145.406V11.1731H146.981L150.965 16.2326V11.1731H152.951V19.768H151.331L147.392 14.8554Z" fill="#1B3764"/>
<path d="M100.315 29.9164C100.315 29.3916 100.412 28.8793 100.605 28.3713C100.798 27.8674 101.08 27.4098 101.453 26.9983C101.823 26.5868 102.276 26.2593 102.81 26.0116C103.343 25.7639 103.947 25.6421 104.623 25.6421C105.43 25.6421 106.131 25.8142 106.723 26.1627C107.315 26.5112 107.76 26.9605 108.05 27.5189L106.525 28.5854C106.395 28.2789 106.223 28.0396 106.009 27.8716C105.795 27.7037 105.56 27.5819 105.308 27.5147C105.052 27.4476 104.808 27.4098 104.577 27.4098C104.199 27.4098 103.868 27.4854 103.586 27.6323C103.305 27.7835 103.07 27.9808 102.885 28.2327C102.7 28.4847 102.562 28.7618 102.474 29.0683C102.385 29.3748 102.339 29.6813 102.339 29.9878C102.339 30.3279 102.39 30.6554 102.495 30.9703C102.6 31.2853 102.751 31.5624 102.948 31.8059C103.145 32.0494 103.385 32.2384 103.67 32.3811C103.952 32.5239 104.262 32.5911 104.602 32.5911C104.846 32.5911 105.089 32.5491 105.341 32.4693C105.593 32.3895 105.824 32.2594 106.038 32.0872C106.253 31.9151 106.416 31.6841 106.53 31.4028L108.15 32.3601C107.982 32.78 107.701 33.1369 107.315 33.4392C106.929 33.7373 106.488 33.9641 106.001 34.1236C105.514 34.279 105.031 34.3588 104.552 34.3588C103.931 34.3588 103.36 34.2328 102.839 33.9767C102.318 33.7205 101.869 33.3846 101.495 32.9606C101.122 32.5365 100.828 32.062 100.622 31.533C100.42 31.0039 100.315 30.4623 100.315 29.9164Z" fill="#1B3764"/>
<path d="M115.209 34.3582C114.562 34.3582 113.979 34.2365 113.458 33.9887C112.937 33.741 112.488 33.4135 112.115 32.9978C111.741 32.5821 111.451 32.1161 111.25 31.5954C111.048 31.0748 110.947 30.5373 110.947 29.9789C110.947 29.4079 111.052 28.862 111.266 28.3456C111.481 27.8291 111.779 27.3673 112.161 26.96C112.543 26.5527 112.996 26.2336 113.521 25.9984C114.046 25.7633 114.617 25.6458 115.238 25.6458C115.877 25.6458 116.456 25.7675 116.977 26.0152C117.497 26.263 117.947 26.5947 118.32 27.0146C118.694 27.4344 118.984 27.9047 119.185 28.4253C119.387 28.946 119.488 29.475 119.488 30.0167C119.488 30.5919 119.383 31.1336 119.173 31.65C118.963 32.1665 118.665 32.6283 118.278 33.0356C117.892 33.4429 117.439 33.7662 116.918 34.0055C116.401 34.2407 115.83 34.3582 115.209 34.3582ZM112.967 29.9999C112.967 30.3316 113.017 30.6507 113.114 30.9614C113.21 31.2721 113.353 31.5492 113.542 31.7886C113.731 32.0321 113.966 32.2252 114.252 32.368C114.533 32.515 114.856 32.5863 115.222 32.5863C115.6 32.5863 115.931 32.5108 116.213 32.3638C116.494 32.2168 116.729 32.0153 116.914 31.7634C117.098 31.5114 117.237 31.2343 117.329 30.9236C117.422 30.6129 117.468 30.298 117.468 29.9747C117.468 29.643 117.422 29.3239 117.321 29.0174C117.224 28.7109 117.077 28.4337 116.884 28.186C116.691 27.9383 116.452 27.7493 116.171 27.6108C115.889 27.4722 115.57 27.405 115.213 27.405C114.835 27.405 114.504 27.4764 114.227 27.6234C113.949 27.7703 113.714 27.9635 113.525 28.2112C113.336 28.4589 113.194 28.7361 113.101 29.0468C113.013 29.3617 112.967 29.6766 112.967 29.9999Z" fill="#1B3764"/>
<path d="M123.064 34.2953V25.7004H126.94C127.343 25.7004 127.717 25.7844 128.061 25.9482C128.405 26.1119 128.699 26.3345 128.951 26.6158C129.203 26.8929 129.396 27.2078 129.539 27.5563C129.682 27.9048 129.749 28.2533 129.749 28.6102C129.749 28.9671 129.694 29.303 129.581 29.6221C129.468 29.9412 129.308 30.2267 129.098 30.4828C128.888 30.739 128.636 30.9447 128.347 31.1043L130.236 34.2995H128.044L126.398 31.5283H125.055V34.2995H123.064V34.2953ZM125.05 29.7943H126.869C127.028 29.7943 127.175 29.7439 127.297 29.6431C127.423 29.5423 127.524 29.4038 127.603 29.2274C127.683 29.0511 127.725 28.8453 127.725 28.6102C127.725 28.3751 127.679 28.1735 127.587 27.9972C127.494 27.825 127.377 27.6865 127.242 27.5899C127.104 27.4933 126.961 27.4429 126.806 27.4429H125.05V29.7943Z" fill="#1B3764"/>
<path d="M133.6 34.2953V25.7004H137.269C137.681 25.7004 138.059 25.7844 138.403 25.9482C138.747 26.1119 139.041 26.3345 139.293 26.6158C139.545 26.8929 139.738 27.2078 139.873 27.5563C140.011 27.9048 140.078 28.2575 140.078 28.6228C140.078 29.114 139.965 29.5843 139.734 30.0252C139.503 30.4703 139.184 30.8313 138.777 31.1085C138.369 31.3856 137.887 31.5241 137.328 31.5241H135.586V34.2953H133.6ZM135.581 29.7943H137.202C137.353 29.7943 137.496 29.7481 137.626 29.6599C137.756 29.5717 137.861 29.4374 137.941 29.261C138.021 29.0847 138.063 28.8663 138.063 28.606C138.063 28.3415 138.017 28.1189 137.924 27.9468C137.832 27.7746 137.714 27.6445 137.572 27.5647C137.429 27.4849 137.282 27.4429 137.131 27.4429H135.581V29.7943Z" fill="#1B3764"/>
<path d="M142.567 34.2957V32.3223H144.155V34.2957H142.567Z" fill="#1B3764"/>
<path d="M94.911 70.0187V70.2034C94.7262 70.2412 94.5835 70.3042 94.4911 70.3966C94.3945 70.4889 94.3315 70.6317 94.3021 70.8248C94.2728 71.018 94.256 71.2909 94.256 71.6436V76.5688C94.1636 76.5562 94.0628 76.552 93.9536 76.552C93.8445 76.552 93.7311 76.5562 93.6051 76.5688L89.5071 72.0887V74.7549C89.5071 75.1664 89.5239 75.4855 89.5575 75.7038C89.5911 75.9222 89.6751 76.0817 89.8052 76.1741C89.9396 76.2707 90.1495 76.3378 90.4393 76.384V76.5688C90.3175 76.5562 90.1537 76.5478 89.9564 76.5436C89.7591 76.5394 89.5743 76.5394 89.4022 76.5394C89.2678 76.5394 89.1292 76.5394 88.9865 76.5436C88.8437 76.5478 88.7262 76.5562 88.6338 76.5688V76.384C88.8269 76.342 88.9655 76.2749 89.0579 76.1867C89.1502 76.0985 89.2132 75.9558 89.2426 75.7584C89.272 75.5611 89.2888 75.2882 89.2888 74.9439V71.0012C89.2888 70.7745 89.272 70.6065 89.2426 70.4973C89.2132 70.3882 89.1502 70.3168 89.0537 70.2748C88.9571 70.2328 88.8185 70.2118 88.6338 70.2034V70.0187C88.7262 70.0229 88.8437 70.0313 88.9865 70.0355C89.1292 70.0397 89.2678 70.0439 89.4022 70.0439C89.5575 70.0439 89.7087 70.0397 89.8556 70.0355C90.0026 70.0313 90.137 70.0229 90.2545 70.0187L94.0418 74.0159V71.8326C94.0418 71.4211 94.025 71.102 93.9914 70.8836C93.9578 70.6653 93.8739 70.5057 93.7479 70.4092C93.6177 70.3126 93.4036 70.2412 93.1097 70.2076V70.0229C93.2315 70.0271 93.3952 70.0355 93.5925 70.0397C93.7899 70.0439 93.9746 70.0481 94.1468 70.0481C94.2895 70.0481 94.4281 70.0439 94.5667 70.0397C94.701 70.0313 94.8186 70.0229 94.911 70.0187Z" fill="#1B3764"/>
<path d="M102.88 70.0187C102.855 70.3252 102.838 70.6233 102.83 70.913C102.821 71.1985 102.817 71.4211 102.817 71.5764C102.817 71.7066 102.821 71.8284 102.825 71.9459C102.83 72.0635 102.838 72.1601 102.842 72.244H102.628C102.552 71.7318 102.431 71.3287 102.259 71.0348C102.086 70.7409 101.885 70.5351 101.654 70.4134C101.423 70.2916 101.179 70.2328 100.927 70.2328H100.806C100.646 70.2328 100.524 70.2454 100.445 70.2748C100.365 70.3042 100.31 70.3546 100.281 70.4386C100.251 70.5183 100.239 70.6443 100.239 70.8164V75.7752C100.239 75.9432 100.251 76.0649 100.281 76.1489C100.31 76.2329 100.361 76.2875 100.445 76.3168C100.524 76.3462 100.646 76.3588 100.806 76.3588H101.112C101.314 76.3588 101.532 76.2917 101.755 76.1615C101.981 76.0271 102.187 75.8004 102.38 75.4813C102.573 75.1622 102.716 74.7213 102.817 74.1671H103.031C103.014 74.3896 103.002 74.6751 103.002 75.0194C103.002 75.1748 103.006 75.3931 103.01 75.6828C103.014 75.9684 103.035 76.2665 103.065 76.5772C102.75 76.5646 102.397 76.5562 102.002 76.552C101.608 76.5478 101.255 76.5478 100.948 76.5478C100.726 76.5478 100.428 76.5478 100.054 76.5478C99.6805 76.5478 99.2858 76.5478 98.8701 76.552C98.4544 76.5562 98.0681 76.5646 97.707 76.5772V76.3924C97.9002 76.3798 98.0387 76.3546 98.1311 76.3168C98.2235 76.2791 98.2865 76.2077 98.3159 76.0943C98.3452 75.9851 98.362 75.8172 98.362 75.5947V71.0012C98.362 70.7745 98.3452 70.6065 98.3159 70.4973C98.2865 70.3882 98.2235 70.3168 98.1269 70.2748C98.0303 70.2328 97.8918 70.2118 97.707 70.2034V70.0187C98.0639 70.0229 98.4502 70.0313 98.8701 70.0355C99.2858 70.0397 99.6805 70.0439 100.054 70.0439C100.428 70.0439 100.726 70.0439 100.948 70.0439C101.234 70.0439 101.553 70.0439 101.914 70.0397C102.271 70.0397 102.594 70.0313 102.88 70.0187ZM101.536 73.1846V73.3693H99.9618V73.1846H101.536ZM101.805 71.9627C101.78 72.3154 101.771 72.5841 101.771 72.7689C101.776 72.9536 101.776 73.1216 101.776 73.2769C101.776 73.4323 101.78 73.6002 101.784 73.785C101.788 73.9697 101.805 74.2385 101.83 74.5911H101.616C101.578 74.3644 101.503 74.1545 101.389 73.9697C101.276 73.785 101.129 73.638 100.948 73.5289C100.768 73.4197 100.562 73.3651 100.327 73.3651V73.1804C100.562 73.1804 100.764 73.1174 100.936 72.9872C101.108 72.8571 101.251 72.6975 101.36 72.5086C101.469 72.3196 101.545 72.1391 101.583 71.9585H101.805V71.9627Z" fill="#1B3764"/>
<path d="M108.377 70.0187V70.2034C108.272 70.2202 108.2 70.2748 108.167 70.3672C108.133 70.4554 108.125 70.5603 108.137 70.6737C108.154 70.7871 108.175 70.892 108.209 70.9844L109.607 74.9187L109.346 75.3175L110.455 72.3112L110.585 72.5799L109.17 76.5772C109.095 76.573 109.019 76.5646 108.935 76.5646C108.851 76.5646 108.767 76.5604 108.679 76.5604C108.599 76.5604 108.515 76.5604 108.435 76.5646C108.351 76.5688 108.272 76.573 108.2 76.5772L106.055 70.8039C105.975 70.5897 105.887 70.4386 105.786 70.3504C105.689 70.2622 105.593 70.216 105.509 70.2118V70.0271C105.731 70.0313 105.992 70.0397 106.29 70.0439C106.588 70.0481 106.873 70.0523 107.146 70.0523C107.419 70.0523 107.659 70.0481 107.869 70.0439C108.078 70.0313 108.246 70.0229 108.377 70.0187ZM115.069 70.0187V70.2034C114.927 70.2706 114.78 70.405 114.624 70.6023C114.469 70.7996 114.33 71.0978 114.209 71.5008L112.655 76.573C112.58 76.5688 112.504 76.5604 112.42 76.5604C112.336 76.5604 112.252 76.5562 112.164 76.5562C112.084 76.5562 112 76.5562 111.92 76.5604C111.836 76.5646 111.757 76.5688 111.685 76.573L109.741 70.6401C109.691 70.4805 109.628 70.3672 109.548 70.3084C109.468 70.2454 109.376 70.2118 109.271 70.2076V70.0229C109.481 70.0271 109.729 70.0355 110.01 70.0397C110.295 70.0439 110.581 70.0481 110.871 70.0481C111.16 70.0481 111.433 70.0439 111.689 70.0397C111.946 70.0355 112.151 70.0271 112.307 70.0229V70.2076C112.113 70.2118 111.967 70.237 111.862 70.279C111.757 70.321 111.698 70.3924 111.681 70.5015C111.664 70.6107 111.694 70.7703 111.769 70.9886L113.037 74.8389L112.768 75.4015L113.705 72.412C113.877 71.8619 113.961 71.4295 113.953 71.1104C113.948 70.7913 113.873 70.5645 113.73 70.426C113.587 70.2874 113.394 70.216 113.146 70.2076V70.0229C113.382 70.0271 113.587 70.0355 113.772 70.0397C113.953 70.0439 114.15 70.0481 114.36 70.0481C114.482 70.0481 114.608 70.0439 114.738 70.0397C114.864 70.0313 114.977 70.0229 115.069 70.0187Z" fill="#1B3764"/>
<path d="M127.212 70.0106V70.1954C127.069 70.2625 126.918 70.3927 126.758 70.5775C126.599 70.7622 126.423 71.0477 126.229 71.4256L124.562 74.73H123.941L121.774 70.7244C121.669 70.5271 121.573 70.3927 121.481 70.3171C121.388 70.2416 121.308 70.208 121.241 70.208V70.0148C121.434 70.0316 121.632 70.0484 121.837 70.0568C122.043 70.0652 122.27 70.0694 122.518 70.0694C122.833 70.0694 123.173 70.0652 123.542 70.0526C123.907 70.04 124.248 70.0274 124.554 70.0148V70.208C124.399 70.208 124.256 70.2122 124.13 70.2248C124 70.2374 123.907 70.2667 123.853 70.3129C123.798 70.3591 123.798 70.4389 123.853 70.5565L125.251 73.2395L124.814 73.8147L125.591 72.2612C125.851 71.7489 125.994 71.3458 126.019 71.0477C126.049 70.7538 125.994 70.5355 125.856 70.4053C125.721 70.2709 125.528 70.2038 125.28 70.1954V70.0106C125.516 70.0148 125.721 70.0232 125.906 70.0274C126.087 70.0316 126.284 70.0358 126.494 70.0358C126.616 70.0358 126.742 70.0316 126.872 70.0274C127.006 70.0232 127.12 70.0148 127.212 70.0106ZM125.369 72.933V75.5908C125.369 75.8133 125.385 75.9813 125.419 76.0905C125.453 76.1996 125.516 76.2752 125.608 76.313C125.7 76.3508 125.839 76.376 126.024 76.3886V76.5733C125.843 76.5607 125.608 76.5523 125.31 76.5481C125.016 76.5439 124.722 76.5439 124.432 76.5439C124.117 76.5439 123.815 76.5439 123.521 76.5481C123.227 76.5523 122.996 76.5607 122.833 76.5733V76.3886C123.026 76.376 123.164 76.3508 123.257 76.313C123.349 76.2752 123.412 76.2038 123.441 76.0905C123.471 75.9813 123.488 75.8133 123.488 75.5908V73.6929L124.495 74.2682L125.369 72.933Z" fill="#1B3764"/>
<path d="M132.968 69.8889C133.665 69.8889 134.278 70.0233 134.799 70.2878C135.324 70.5523 135.731 70.9344 136.021 71.4299C136.311 71.9253 136.457 72.5299 136.457 73.2395C136.457 73.9323 136.311 74.537 136.012 75.0534C135.714 75.5699 135.303 75.9771 134.778 76.2669C134.249 76.5566 133.644 76.7035 132.96 76.7035C132.263 76.7035 131.65 76.5692 131.129 76.3047C130.604 76.0401 130.197 75.658 129.907 75.1584C129.618 74.6587 129.471 74.0583 129.471 73.3529C129.471 72.6601 129.622 72.0555 129.92 71.539C130.218 71.0226 130.63 70.6153 131.154 70.3256C131.679 70.0359 132.284 69.8889 132.968 69.8889ZM132.93 70.0569C132.624 70.0569 132.355 70.1954 132.124 70.4725C131.898 70.7497 131.721 71.1318 131.595 71.6188C131.474 72.1059 131.411 72.6727 131.411 73.3109C131.411 73.9659 131.482 74.5328 131.625 75.0198C131.767 75.5027 131.956 75.8764 132.2 76.1409C132.439 76.4012 132.704 76.5356 132.998 76.5356C133.304 76.5356 133.573 76.397 133.804 76.1199C134.031 75.8428 134.207 75.4565 134.333 74.9694C134.455 74.4782 134.518 73.9155 134.518 73.2815C134.518 72.6223 134.446 72.0513 134.304 71.5684C134.161 71.0856 133.972 70.7161 133.728 70.4516C133.485 70.187 133.22 70.0569 132.93 70.0569Z" fill="#1B3764"/>
<path d="M139.288 70.0187C139.469 70.0229 139.704 70.0313 139.998 70.0355C140.292 70.0397 140.586 70.0439 140.884 70.0439C141.19 70.0439 141.488 70.0397 141.774 70.0355C142.059 70.0313 142.257 70.0271 142.374 70.0271C143.311 70.0271 144.012 70.1572 144.469 70.4218C144.927 70.6821 145.158 71.0894 145.158 71.6394C145.158 71.8661 145.112 72.0887 145.019 72.307C144.927 72.5212 144.772 72.7185 144.549 72.8948C144.327 73.0712 144.024 73.2098 143.638 73.3105C143.252 73.4113 142.765 73.4617 142.173 73.4617H141.283V73.2769H142.08C142.395 73.2769 142.635 73.2056 142.798 73.067C142.962 72.9284 143.071 72.7437 143.13 72.5128C143.189 72.2818 143.218 72.0257 143.218 71.7402C143.218 71.2531 143.151 70.8752 143.021 70.6065C142.886 70.3378 142.66 70.2034 142.332 70.2034C142.122 70.2034 141.988 70.2538 141.925 70.3588C141.862 70.4638 141.833 70.6779 141.833 70.997V75.5863C141.833 75.8088 141.849 75.9768 141.883 76.0859C141.917 76.1951 141.98 76.2707 142.072 76.3085C142.164 76.3462 142.303 76.3714 142.488 76.384V76.5688C142.307 76.5562 142.08 76.5478 141.799 76.5436C141.518 76.5394 141.232 76.5394 140.942 76.5394C140.611 76.5394 140.296 76.5394 140.002 76.5436C139.708 76.5478 139.473 76.5562 139.292 76.5688V76.384C139.485 76.3714 139.624 76.3462 139.716 76.3085C139.809 76.2707 139.872 76.1993 139.901 76.0859C139.931 75.9768 139.947 75.8088 139.947 75.5863V71.0012C139.947 70.7745 139.931 70.6065 139.901 70.4973C139.872 70.3882 139.809 70.3168 139.712 70.2748C139.616 70.2328 139.477 70.2118 139.292 70.2034V70.0187H139.288ZM141.224 73.3021C141.446 73.3063 141.656 73.3189 141.854 73.3399C142.051 73.3567 142.231 73.3735 142.399 73.3903C142.567 73.4071 142.706 73.4155 142.823 73.4239C143.483 73.4533 143.978 73.5708 144.31 73.7682C144.642 73.9655 144.843 74.2552 144.914 74.6373L145.108 75.5989C145.158 75.8256 145.213 75.9851 145.276 76.0691C145.339 76.1573 145.423 76.1993 145.527 76.1993C145.59 76.1993 145.641 76.1909 145.683 76.1699C145.725 76.1531 145.771 76.1195 145.813 76.0775L145.935 76.1993C145.742 76.3924 145.536 76.5226 145.309 76.594C145.082 76.6653 144.83 76.6989 144.545 76.6989C144.142 76.6989 143.819 76.6276 143.575 76.4806C143.327 76.3336 143.176 76.0733 143.122 75.6996L142.983 74.7759C142.945 74.524 142.899 74.2972 142.844 74.0999C142.79 73.9025 142.714 73.7472 142.622 73.6338C142.53 73.5205 142.404 73.4617 142.244 73.4617H141.245L141.224 73.3021Z" fill="#1B3764"/>
<path d="M151.469 70.0187V70.2034C151.284 70.2076 151.145 70.2328 151.049 70.2748C150.952 70.3168 150.889 70.3882 150.86 70.4973C150.83 70.6065 150.814 70.7745 150.814 71.0012V75.5905C150.814 75.813 150.83 75.9809 150.864 76.0901C150.898 76.1993 150.961 76.2749 151.053 76.3127C151.145 76.3504 151.284 76.3756 151.469 76.3882V76.573C151.288 76.5604 151.061 76.552 150.78 76.5478C150.499 76.5436 150.213 76.5436 149.924 76.5436C149.592 76.5436 149.277 76.5436 148.983 76.5478C148.689 76.552 148.454 76.5604 148.273 76.573V76.3882C148.467 76.3756 148.605 76.3504 148.698 76.3127C148.79 76.2749 148.853 76.2035 148.882 76.0901C148.912 75.9809 148.928 75.813 148.928 75.5905V71.0012C148.928 70.7745 148.912 70.6065 148.882 70.4973C148.853 70.3882 148.79 70.3168 148.693 70.2748C148.597 70.2328 148.458 70.2118 148.273 70.2034V70.0187C148.454 70.0229 148.689 70.0313 148.983 70.0355C149.277 70.0397 149.588 70.0439 149.924 70.0439C150.213 70.0439 150.499 70.0397 150.78 70.0355C151.061 70.0313 151.288 70.0229 151.469 70.0187ZM154.857 70.0187V70.195C154.647 70.2496 154.416 70.3504 154.16 70.5015C153.904 70.6485 153.631 70.8878 153.341 71.2153L151.637 73.151L152.388 72.1685L154.58 75.8256C154.66 75.9558 154.74 76.0649 154.819 76.1489C154.899 76.2371 155.008 76.3168 155.143 76.3882V76.573C154.882 76.5604 154.609 76.552 154.315 76.5478C154.022 76.5436 153.744 76.5436 153.48 76.5436C153.337 76.5436 153.161 76.5436 152.951 76.5478C152.741 76.552 152.476 76.5604 152.153 76.573V76.3882C152.443 76.3756 152.611 76.342 152.657 76.2875C152.703 76.2329 152.682 76.1279 152.586 75.9726L151.242 73.7052C151.179 73.596 151.124 73.5121 151.074 73.4575C151.024 73.4029 150.977 73.3609 150.931 73.3357C150.885 73.3105 150.826 73.2937 150.751 73.2895V73.0964C151.024 73.0838 151.28 72.9914 151.519 72.8235C151.758 72.6555 152.048 72.3784 152.388 71.9963L152.703 71.6436C152.963 71.3539 153.098 71.102 153.115 70.8878C153.131 70.6737 153.064 70.5099 152.921 70.3882C152.775 70.2664 152.586 70.2034 152.35 70.1992V70.0229C152.611 70.0271 152.85 70.0355 153.068 70.0397C153.287 70.0439 153.568 70.0481 153.917 70.0481C154.299 70.0481 154.609 70.0355 154.857 70.0187Z" fill="#1B3764"/>
<path d="M171.22 88.9847H76V0H171.22V88.9847ZM76.5123 88.4725H170.703V0.512251H76.5123V88.4725Z" fill="#1B3764"/>
<path d="M171.208 58.3673H76.0088V58.8922H171.208V58.3673Z" fill="#1B3764"/>
<path d="M123.161 49.336C115.557 49.336 110.199 45.5025 110.12 45.4437C109.775 45.1918 109.704 44.7089 109.952 44.3646C110.204 44.0203 110.687 43.949 111.031 44.1967C111.488 44.5284 122.351 52.2583 135.098 44.1673C135.459 43.9406 135.934 44.0455 136.165 44.4066C136.391 44.7677 136.286 45.2422 135.925 45.4731C131.361 48.3661 126.978 49.336 123.161 49.336Z" fill="#1B3764"/>
<path d="M110.64 45.2214C110.325 45.2214 110.027 45.024 109.913 44.7091C109.771 44.3102 109.976 43.8652 110.379 43.7224L115.326 41.9505C115.729 41.8078 116.17 42.0135 116.312 42.4166C116.455 42.8155 116.249 43.2605 115.846 43.4033L110.9 45.1752C110.816 45.2088 110.728 45.2214 110.64 45.2214Z" fill="#1B3764"/>
<path d="M112.761 50.9014C112.458 50.9014 112.173 50.725 112.051 50.4311L109.771 45.0273C109.607 44.6368 109.788 44.1833 110.183 44.0154C110.573 43.8516 111.027 44.0322 111.195 44.4268L113.475 49.8307C113.638 50.2212 113.458 50.6746 113.063 50.8426C112.962 50.8846 112.862 50.9014 112.761 50.9014Z" fill="#1B3764"/>
</svg>
