<svg width="250" height="200" viewBox="0 0 250 200" fill="none" xmlns="http://www.w3.org/2000/svg">
<path d="M5.26356 164L6.58032 160.293H11.8729L13.1897 164H14.8516L10.0448 150.909H8.40845L3.60163 164H5.26356ZM7.0789 158.886L9.17549 152.98H9.27777L11.3744 158.886H7.0789ZM22.8972 150.909H21.3886V164H22.8972V150.909ZM29.4688 164.205C32.1279 164.205 33.9176 162.185 33.9176 159.142C33.9176 156.074 32.1279 154.054 29.4688 154.054C26.8097 154.054 25.0199 156.074 25.0199 159.142C25.0199 162.185 26.8097 164.205 29.4688 164.205ZM29.4688 162.849C27.4489 162.849 26.5284 161.111 26.5284 159.142C26.5284 157.173 27.4489 155.409 29.4688 155.409C31.4887 155.409 32.4091 157.173 32.4091 159.142C32.4091 161.111 31.4887 162.849 29.4688 162.849ZM37.5489 158.094C37.5489 156.381 38.61 155.409 40.0546 155.409C41.4544 155.409 42.3046 156.323 42.3046 157.864V164H43.8131V157.761C43.8131 155.256 42.4772 154.054 40.4892 154.054C39.0063 154.054 38.0858 154.719 37.6256 155.716H37.4978V154.182H36.0404V164H37.5489V158.094ZM50.3527 167.886C52.705 167.886 54.597 166.812 54.597 164.281V154.182H53.1397V155.741H52.9863C52.6539 155.23 52.0402 154.054 50.1226 154.054C47.6425 154.054 45.9294 156.023 45.9294 159.04C45.9294 162.108 47.7192 163.847 50.097 163.847C52.0147 163.847 52.6283 162.722 52.9607 162.185H53.0885V164.179C53.0885 165.815 51.938 166.557 50.3527 166.557C48.5693 166.557 47.9429 165.617 47.5402 165.074L46.3385 165.918C46.9522 166.947 48.1603 167.886 50.3527 167.886ZM50.3016 162.491C48.4095 162.491 47.438 161.06 47.438 159.014C47.438 157.02 48.384 155.409 50.3016 155.409C52.1425 155.409 53.1141 156.892 53.1141 159.014C53.1141 161.188 52.1169 162.491 50.3016 162.491ZM66.1774 164.205C68.1717 164.205 69.6291 163.207 70.0893 161.724L68.6319 161.315C68.2484 162.338 67.3599 162.849 66.1774 162.849C64.4068 162.849 63.1859 161.705 63.1156 159.602H70.2427V158.963C70.2427 155.307 68.0694 154.054 66.024 154.054C63.3649 154.054 61.6007 156.151 61.6007 159.168C61.6007 162.185 63.3393 164.205 66.1774 164.205ZM63.1156 158.298C63.2179 156.771 64.2981 155.409 66.024 155.409C67.6603 155.409 68.7086 156.636 68.7086 158.298H63.1156ZM79.312 156.381C78.839 154.987 77.7779 154.054 75.8347 154.054C73.7637 154.054 72.2296 155.23 72.2296 156.892C72.2296 158.247 73.035 159.155 74.8376 159.577L76.474 159.96C77.4647 160.19 77.9313 160.663 77.9313 161.341C77.9313 162.185 77.0365 162.875 75.6302 162.875C74.3965 162.875 73.6231 162.344 73.3546 161.29L71.9228 161.648C72.2744 163.316 73.6487 164.205 75.6558 164.205C77.9377 164.205 79.491 162.958 79.491 161.264C79.491 159.896 78.6345 159.033 76.883 158.605L75.4257 158.247C74.2623 157.96 73.7382 157.57 73.7382 156.815C73.7382 155.972 74.633 155.358 75.8347 155.358C77.1515 155.358 77.6948 156.087 77.9569 156.764L79.312 156.381ZM85.8517 154.182H83.7551V151.83H82.2465V154.182H80.7636V155.46H82.2465V161.597C82.2465 163.31 83.6272 164.128 84.9056 164.128C85.4681 164.128 85.8261 164.026 86.0306 163.949L85.7238 162.594C85.596 162.619 85.3914 162.67 85.059 162.67C84.3943 162.67 83.7551 162.466 83.7551 161.188V155.46H85.8517V154.182ZM90.83 164.23C92.5431 164.23 93.438 163.31 93.7448 162.67H93.8215V164H95.33V157.531C95.33 154.412 92.9522 154.054 91.6994 154.054C90.2164 154.054 88.5289 154.565 87.7619 156.355L89.1937 156.866C89.5261 156.151 90.3123 155.384 91.7505 155.384C93.1376 155.384 93.8215 156.119 93.8215 157.378V157.429C93.8215 158.158 93.08 158.094 91.2903 158.324C89.4685 158.56 87.4806 158.963 87.4806 161.213C87.4806 163.131 88.9636 164.23 90.83 164.23ZM91.0602 162.875C89.8584 162.875 88.9891 162.338 88.9891 161.29C88.9891 160.139 90.0374 159.781 91.2136 159.628C91.8528 159.551 93.5658 159.372 93.8215 159.065V160.446C93.8215 161.673 92.8499 162.875 91.0602 162.875ZM98.108 164H99.5653V162.491H99.7443C100.077 163.028 100.716 164.205 102.608 164.205C105.063 164.205 106.776 162.236 106.776 159.116C106.776 156.023 105.063 154.054 102.582 154.054C100.665 154.054 100.077 155.23 99.7443 155.741H99.6165V150.909H98.108V164ZM99.5909 159.091C99.5909 156.892 100.563 155.409 102.403 155.409C104.321 155.409 105.267 157.02 105.267 159.091C105.267 161.188 104.295 162.849 102.403 162.849C100.588 162.849 99.5909 161.315 99.5909 159.091ZM110.412 150.909H108.903V164H110.412V150.909ZM112.995 164H114.503V154.182H112.995V164ZM113.762 152.545C114.35 152.545 114.835 152.085 114.835 151.523C114.835 150.96 114.35 150.5 113.762 150.5C113.174 150.5 112.688 150.96 112.688 151.523C112.688 152.085 113.174 152.545 113.762 152.545ZM124.041 156.381C123.568 154.987 122.507 154.054 120.563 154.054C118.492 154.054 116.958 155.23 116.958 156.892C116.958 158.247 117.764 159.155 119.566 159.577L121.203 159.96C122.193 160.19 122.66 160.663 122.66 161.341C122.66 162.185 121.765 162.875 120.359 162.875C119.125 162.875 118.352 162.344 118.083 161.29L116.651 161.648C117.003 163.316 118.377 164.205 120.384 164.205C122.666 164.205 124.22 162.958 124.22 161.264C124.22 159.896 123.363 159.033 121.612 158.605L120.154 158.247C118.991 157.96 118.467 157.57 118.467 156.815C118.467 155.972 119.362 155.358 120.563 155.358C121.88 155.358 122.423 156.087 122.686 156.764L124.041 156.381ZM127.819 158.094C127.819 156.381 128.912 155.409 130.401 155.409C131.82 155.409 132.677 156.304 132.677 157.864V164H134.185V157.761C134.185 155.237 132.843 154.054 130.836 154.054C129.289 154.054 128.407 154.7 127.947 155.716H127.819V150.909H126.31V164H127.819V158.094ZM140.882 164.205C142.876 164.205 144.333 163.207 144.794 161.724L143.336 161.315C142.953 162.338 142.064 162.849 140.882 162.849C139.111 162.849 137.89 161.705 137.82 159.602H144.947V158.963C144.947 155.307 142.774 154.054 140.728 154.054C138.069 154.054 136.305 156.151 136.305 159.168C136.305 162.185 138.044 164.205 140.882 164.205ZM137.82 158.298C137.922 156.771 139.002 155.409 140.728 155.409C142.365 155.409 143.413 156.636 143.413 158.298H137.82ZM150.769 164.205C152.661 164.205 153.3 163.028 153.633 162.491H153.812V164H155.269V150.909H153.761V155.741H153.633C153.3 155.23 152.712 154.054 150.795 154.054C148.315 154.054 146.601 156.023 146.601 159.116C146.601 162.236 148.315 164.205 150.769 164.205ZM150.974 162.849C149.082 162.849 148.11 161.188 148.11 159.091C148.11 157.02 149.056 155.409 150.974 155.409C152.815 155.409 153.786 156.892 153.786 159.091C153.786 161.315 152.789 162.849 150.974 162.849ZM167.316 154.182H165.117V153.185C165.117 152.213 165.526 151.702 166.523 151.702C166.958 151.702 167.214 151.804 167.367 151.855L167.802 150.551C167.572 150.449 167.111 150.295 166.37 150.295C164.964 150.295 163.609 151.139 163.609 152.827V154.182H162.023V155.46H163.609V164H165.117V155.46H167.316V154.182ZM171.858 164.23C173.571 164.23 174.466 163.31 174.773 162.67H174.85V164H176.358V157.531C176.358 154.412 173.98 154.054 172.727 154.054C171.245 154.054 169.557 154.565 168.79 156.355L170.222 156.866C170.554 156.151 171.34 155.384 172.779 155.384C174.166 155.384 174.85 156.119 174.85 157.378V157.429C174.85 158.158 174.108 158.094 172.318 158.324C170.497 158.56 168.509 158.963 168.509 161.213C168.509 163.131 169.992 164.23 171.858 164.23ZM172.088 162.875C170.887 162.875 170.017 162.338 170.017 161.29C170.017 160.139 171.066 159.781 172.242 159.628C172.881 159.551 174.594 159.372 174.85 159.065V160.446C174.85 161.673 173.878 162.875 172.088 162.875ZM182.92 164.205C185.093 164.205 186.525 162.875 186.781 161.136H185.272C184.991 162.21 184.096 162.849 182.92 162.849C181.13 162.849 179.98 161.366 179.98 159.091C179.98 156.866 181.156 155.409 182.92 155.409C184.25 155.409 185.042 156.227 185.272 157.122H186.781C186.525 155.281 184.966 154.054 182.895 154.054C180.236 154.054 178.471 156.151 178.471 159.142C178.471 162.082 180.159 164.205 182.92 164.205ZM193.076 154.182H190.98V151.83H189.471V154.182H187.988V155.46H189.471V161.597C189.471 163.31 190.852 164.128 192.13 164.128C192.693 164.128 193.051 164.026 193.255 163.949L192.948 162.594C192.82 162.619 192.616 162.67 192.283 162.67C191.619 162.67 190.98 162.466 190.98 161.188V155.46H193.076V154.182ZM204.318 154.182H202.221V151.83H200.713V154.182H199.23V155.46H200.713V161.597C200.713 163.31 202.093 164.128 203.372 164.128C203.934 164.128 204.292 164.026 204.497 163.949L204.19 162.594C204.062 162.619 203.857 162.67 203.525 162.67C202.86 162.67 202.221 162.466 202.221 161.188V155.46H204.318V154.182ZM208.126 158.094C208.126 156.381 209.219 155.409 210.709 155.409C212.128 155.409 212.984 156.304 212.984 157.864V164H214.493V157.761C214.493 155.237 213.15 154.054 211.143 154.054C209.596 154.054 208.714 154.7 208.254 155.716H208.126V150.909H206.618V164H208.126V158.094ZM219.962 164.23C221.675 164.23 222.57 163.31 222.877 162.67H222.953V164H224.462V157.531C224.462 154.412 222.084 154.054 220.831 154.054C219.348 154.054 217.661 154.565 216.894 156.355L218.325 156.866C218.658 156.151 219.444 155.384 220.882 155.384C222.269 155.384 222.953 156.119 222.953 157.378V157.429C222.953 158.158 222.212 158.094 220.422 158.324C218.6 158.56 216.612 158.963 216.612 161.213C216.612 163.131 218.095 164.23 219.962 164.23ZM220.192 162.875C218.99 162.875 218.121 162.338 218.121 161.29C218.121 160.139 219.169 159.781 220.345 159.628C220.984 159.551 222.698 159.372 222.953 159.065V160.446C222.953 161.673 221.982 162.875 220.192 162.875ZM231.305 154.182H229.208V151.83H227.7V154.182H226.217V155.46H227.7V161.597C227.7 163.31 229.081 164.128 230.359 164.128C230.921 164.128 231.279 164.026 231.484 163.949L231.177 162.594C231.049 162.619 230.845 162.67 230.512 162.67C229.848 162.67 229.208 162.466 229.208 161.188V155.46H231.305V154.182ZM241.166 164.23C242.879 164.23 243.774 163.31 244.081 162.67H244.157V164H245.666V157.531C245.666 154.412 243.288 154.054 242.035 154.054C240.552 154.054 238.865 154.565 238.098 156.355L239.53 156.866C239.862 156.151 240.648 155.384 242.086 155.384C243.473 155.384 244.157 156.119 244.157 157.378V157.429C244.157 158.158 243.416 158.094 241.626 158.324C239.804 158.56 237.816 158.963 237.816 161.213C237.816 163.131 239.299 164.23 241.166 164.23ZM241.396 162.875C240.194 162.875 239.325 162.338 239.325 161.29C239.325 160.139 240.373 159.781 241.549 159.628C242.189 159.551 243.902 159.372 244.157 159.065V160.446C244.157 161.673 243.186 162.875 241.396 162.875ZM25.4918 195H26.9748L29.1225 187.457H29.2759L31.4237 195H32.9066L35.8981 185.182H34.3129L32.1907 192.673H32.0884L30.0174 185.182H28.4066L26.31 192.699H26.2077L24.0856 185.182H22.5004L25.4918 195ZM39.2209 189.094C39.2209 187.381 40.314 186.409 41.8033 186.409C43.2223 186.409 44.0789 187.304 44.0789 188.864V195H45.5874V188.761C45.5874 186.237 44.2451 185.054 42.238 185.054C40.6911 185.054 39.809 185.7 39.3488 186.716H39.2209V181.909H37.7124V195H39.2209V189.094ZM52.1558 195.205C54.8149 195.205 56.6047 193.185 56.6047 190.142C56.6047 187.074 54.8149 185.054 52.1558 185.054C49.4967 185.054 47.7069 187.074 47.7069 190.142C47.7069 193.185 49.4967 195.205 52.1558 195.205ZM52.1558 193.849C50.1359 193.849 49.2155 192.111 49.2155 190.142C49.2155 188.173 50.1359 186.409 52.1558 186.409C54.1757 186.409 55.0961 188.173 55.0961 190.142C55.0961 192.111 54.1757 193.849 52.1558 193.849ZM65.1184 181.909H63.6099V195H65.1184V181.909ZM71.69 195.205C74.3491 195.205 76.1389 193.185 76.1389 190.142C76.1389 187.074 74.3491 185.054 71.69 185.054C69.0309 185.054 67.2412 187.074 67.2412 190.142C67.2412 193.185 69.0309 195.205 71.69 195.205ZM71.69 193.849C69.6701 193.849 68.7497 192.111 68.7497 190.142C68.7497 188.173 69.6701 186.409 71.69 186.409C73.7099 186.409 74.6304 188.173 74.6304 190.142C74.6304 192.111 73.7099 193.849 71.69 193.849ZM82.2503 195.205C84.9093 195.205 86.6991 193.185 86.6991 190.142C86.6991 187.074 84.9093 185.054 82.2503 185.054C79.5912 185.054 77.8014 187.074 77.8014 190.142C77.8014 193.185 79.5912 195.205 82.2503 195.205ZM82.2503 193.849C80.2304 193.849 79.3099 192.111 79.3099 190.142C79.3099 188.173 80.2304 186.409 82.2503 186.409C84.2701 186.409 85.1906 188.173 85.1906 190.142C85.1906 192.111 84.2701 193.849 82.2503 193.849ZM88.8219 195H90.3304V191.325L91.3851 190.347L95.0605 195H96.9781L92.5228 189.375L96.6713 185.182H94.8048L90.5094 189.554H90.3304V181.909H88.8219V195ZM98.4329 195H99.9414V185.182H98.4329V195ZM99.1999 183.545C99.788 183.545 100.274 183.085 100.274 182.523C100.274 181.96 99.788 181.5 99.1999 181.5C98.6118 181.5 98.126 181.96 98.126 182.523C98.126 183.085 98.6118 183.545 99.1999 183.545ZM104.033 189.094C104.033 187.381 105.094 186.409 106.539 186.409C107.938 186.409 108.789 187.323 108.789 188.864V195H110.297V188.761C110.297 186.256 108.961 185.054 106.973 185.054C105.49 185.054 104.57 185.719 104.11 186.716H103.982V185.182H102.524V195H104.033V189.094ZM116.837 198.886C119.189 198.886 121.081 197.812 121.081 195.281V185.182H119.624V186.741H119.47C119.138 186.23 118.524 185.054 116.607 185.054C114.126 185.054 112.413 187.023 112.413 190.04C112.413 193.108 114.203 194.847 116.581 194.847C118.499 194.847 119.112 193.722 119.445 193.185H119.573V195.179C119.573 196.815 118.422 197.557 116.837 197.557C115.053 197.557 114.427 196.617 114.024 196.074L112.823 196.918C113.436 197.947 114.644 198.886 116.837 198.886ZM116.786 193.491C114.894 193.491 113.922 192.06 113.922 190.014C113.922 188.02 114.868 186.409 116.786 186.409C118.626 186.409 119.598 187.892 119.598 190.014C119.598 192.188 118.601 193.491 116.786 193.491ZM131.434 195.23C133.147 195.23 134.042 194.31 134.349 193.67H134.426V195H135.934V188.531C135.934 185.412 133.556 185.054 132.303 185.054C130.82 185.054 129.133 185.565 128.366 187.355L129.798 187.866C130.13 187.151 130.916 186.384 132.355 186.384C133.742 186.384 134.426 187.119 134.426 188.378V188.429C134.426 189.158 133.684 189.094 131.894 189.324C130.073 189.56 128.085 189.963 128.085 192.213C128.085 194.131 129.568 195.23 131.434 195.23ZM131.664 193.875C130.463 193.875 129.593 193.338 129.593 192.29C129.593 191.139 130.641 190.781 131.818 190.628C132.457 190.551 134.17 190.372 134.426 190.065V191.446C134.426 192.673 133.454 193.875 131.664 193.875ZM142.777 185.182H140.681V182.83H139.172V185.182H137.689V186.46H139.172V192.597C139.172 194.31 140.553 195.128 141.831 195.128C142.394 195.128 142.752 195.026 142.956 194.949L142.65 193.594C142.522 193.619 142.317 193.67 141.985 193.67C141.32 193.67 140.681 193.466 140.681 192.188V186.46H142.777V185.182ZM149.749 195H151.258V185.182H149.749V195ZM150.516 183.545C151.104 183.545 151.59 183.085 151.59 182.523C151.59 181.96 151.104 181.5 150.516 181.5C149.928 181.5 149.442 181.96 149.442 182.523C149.442 183.085 149.928 183.545 150.516 183.545ZM158.11 185.182H156.014V182.83H154.505V185.182H153.022V186.46H154.505V192.597C154.505 194.31 155.886 195.128 157.164 195.128C157.727 195.128 158.085 195.026 158.289 194.949L157.983 193.594C157.855 193.619 157.65 193.67 157.318 193.67C156.653 193.67 156.014 193.466 156.014 192.188V186.46H158.11V185.182ZM166.978 187.381C166.505 185.987 165.444 185.054 163.501 185.054C161.43 185.054 159.896 186.23 159.896 187.892C159.896 189.247 160.701 190.155 162.504 190.577L164.14 190.96C165.131 191.19 165.598 191.663 165.598 192.341C165.598 193.185 164.703 193.875 163.297 193.875C162.063 193.875 161.289 193.344 161.021 192.29L159.589 192.648C159.941 194.316 161.315 195.205 163.322 195.205C165.604 195.205 167.157 193.958 167.157 192.264C167.157 190.896 166.301 190.033 164.549 189.605L163.092 189.247C161.929 188.96 161.404 188.57 161.404 187.815C161.404 186.972 162.299 186.358 163.501 186.358C164.818 186.358 165.361 187.087 165.623 187.764L166.978 187.381ZM175.639 181.909H174.131V195H175.639V181.909ZM181.111 195.23C182.824 195.23 183.719 194.31 184.026 193.67H184.103V195H185.611V188.531C185.611 185.412 183.233 185.054 181.981 185.054C180.498 185.054 178.81 185.565 178.043 187.355L179.475 187.866C179.807 187.151 180.594 186.384 182.032 186.384C183.419 186.384 184.103 187.119 184.103 188.378V188.429C184.103 189.158 183.361 189.094 181.572 189.324C179.75 189.56 177.762 189.963 177.762 192.213C177.762 194.131 179.245 195.23 181.111 195.23ZM181.341 193.875C180.14 193.875 179.27 193.338 179.27 192.29C179.27 191.139 180.319 190.781 181.495 190.628C182.134 190.551 183.847 190.372 184.103 190.065V191.446C184.103 192.673 183.131 193.875 181.341 193.875ZM188.805 198.682C190.166 198.682 191.125 197.96 191.694 196.432L195.874 185.207L194.225 185.182L191.515 193.006H191.413L188.702 185.182H187.066L190.697 195.051L190.415 195.818C189.866 197.314 189.188 197.455 188.089 197.173L187.705 198.503C187.859 198.58 188.293 198.682 188.805 198.682ZM201.327 195.205C203.986 195.205 205.776 193.185 205.776 190.142C205.776 187.074 203.986 185.054 201.327 185.054C198.668 185.054 196.878 187.074 196.878 190.142C196.878 193.185 198.668 195.205 201.327 195.205ZM201.327 193.849C199.307 193.849 198.387 192.111 198.387 190.142C198.387 188.173 199.307 186.409 201.327 186.409C203.347 186.409 204.268 188.173 204.268 190.142C204.268 192.111 203.347 193.849 201.327 193.849ZM214.086 190.986C214.086 192.827 212.68 193.67 211.555 193.67C210.302 193.67 209.407 192.75 209.407 191.318V185.182H207.899V191.42C207.899 193.926 209.228 195.128 211.069 195.128C212.552 195.128 213.524 194.335 213.984 193.338H214.086V195H215.595V185.182H214.086V190.986ZM222.448 185.182H220.351V182.83H218.843V185.182H217.36V186.46H218.843V192.597C218.843 194.31 220.223 195.128 221.502 195.128C222.064 195.128 222.422 195.026 222.627 194.949L222.32 193.594C222.192 193.619 221.988 193.67 221.655 193.67C220.99 193.67 220.351 193.466 220.351 192.188V186.46H222.448V185.182ZM225.636 195.102C226.269 195.102 226.787 194.585 226.787 193.952C226.787 193.319 226.269 192.801 225.636 192.801C225.004 192.801 224.486 193.319 224.486 193.952C224.486 194.585 225.004 195.102 225.636 195.102Z" fill="#969AA0"/>
<path d="M50.5203 125.541C50.5203 125.525 50.5242 125.506 50.532 125.482C50.5477 125.459 50.575 125.447 50.6141 125.447C51.1297 125.447 51.5281 125.389 51.8094 125.271C52.0984 125.146 52.3094 124.979 52.4422 124.768C52.5828 124.549 52.6687 124.291 52.7 123.994C52.7312 123.697 52.7547 123.377 52.7703 123.033C52.8172 122.025 52.8719 121.049 52.9344 120.104C53.0047 119.15 53.0711 118.217 53.1336 117.303C53.1961 116.381 53.2508 115.471 53.2977 114.572C53.3445 113.674 53.368 112.771 53.368 111.865V111.432C53.368 111.252 53.3094 111.096 53.1922 110.963C53.075 110.822 52.9344 110.705 52.7703 110.611C52.6141 110.518 52.4539 110.447 52.2898 110.4C52.1258 110.354 51.9969 110.33 51.9031 110.33C51.8406 110.33 51.8094 110.299 51.8094 110.236V109.721C51.8094 109.705 51.8133 109.686 51.8211 109.662C51.8289 109.639 51.8562 109.627 51.9031 109.627H56.0516C56.1375 109.643 56.2078 109.674 56.2625 109.721C56.3172 109.76 56.368 109.814 56.4148 109.885L61.5125 121.252C61.5672 121.385 61.6375 121.451 61.7234 121.451C61.8094 121.451 61.8719 121.432 61.9109 121.393C61.95 121.354 61.9812 121.303 62.0047 121.24L67.0437 110.096C67.1219 109.947 67.2 109.834 67.2781 109.756C67.3562 109.67 67.4344 109.627 67.5125 109.627H71.6375C71.6844 109.627 71.7117 109.639 71.7195 109.662C71.7273 109.686 71.7312 109.705 71.7312 109.721V110.236C71.7312 110.252 71.7234 110.271 71.7078 110.295C71.7 110.318 71.6766 110.33 71.6375 110.33C71.6219 110.33 71.5281 110.346 71.3562 110.377C71.1922 110.408 71.0086 110.471 70.8055 110.564C70.6102 110.65 70.4305 110.779 70.2664 110.951C70.1023 111.115 70.0203 111.334 70.0203 111.607L70.7 124.088C70.7078 124.314 70.7664 124.506 70.8758 124.662C70.993 124.818 71.1336 124.947 71.2977 125.049C71.4617 125.15 71.6336 125.229 71.8133 125.283C72.0008 125.33 72.1727 125.369 72.3289 125.4C72.493 125.424 72.6297 125.439 72.7391 125.447C72.8562 125.447 72.9187 125.447 72.9266 125.447C72.9656 125.447 72.9891 125.459 72.9969 125.482C73.0125 125.506 73.0203 125.525 73.0203 125.541V126.057C73.0203 126.072 73.0125 126.092 72.9969 126.115C72.9891 126.139 72.9656 126.15 72.9266 126.15H65.2156C65.1531 126.15 65.1219 126.119 65.1219 126.057V125.541C65.1219 125.479 65.1531 125.447 65.2156 125.447C65.4031 125.447 65.6141 125.439 65.8484 125.424C66.0906 125.4 66.3211 125.354 66.5398 125.283C66.7586 125.213 66.9422 125.111 67.0906 124.979C67.2391 124.838 67.3133 124.654 67.3133 124.428L66.7742 114.854C66.7664 114.775 66.7469 114.736 66.7156 114.736C66.6844 114.736 66.6531 114.771 66.6219 114.842L61.4891 125.951C61.45 126.037 61.3953 126.092 61.325 126.115C61.2625 126.139 61.1492 126.15 60.9852 126.15C60.7039 126.15 60.493 126.143 60.3523 126.127C60.2195 126.111 60.1297 126.049 60.0828 125.939L55.0906 114.936C55.0672 114.881 55.0477 114.842 55.032 114.818C55.0242 114.787 55.0047 114.771 54.9734 114.771C54.9187 114.771 54.8914 114.822 54.8914 114.924C54.8914 115.158 54.8797 115.502 54.8562 115.955C54.8328 116.408 54.8016 116.92 54.7625 117.49C54.7234 118.053 54.6844 118.65 54.6453 119.283C54.6062 119.916 54.5672 120.529 54.5281 121.123C54.4891 121.717 54.4578 122.271 54.4344 122.787C54.4109 123.295 54.3992 123.713 54.3992 124.041V124.521C54.4305 124.67 54.5086 124.803 54.6336 124.92C54.7586 125.037 54.9148 125.135 55.1023 125.213C55.2898 125.291 55.4969 125.35 55.7234 125.389C55.95 125.428 56.1883 125.447 56.4383 125.447C56.4773 125.447 56.4969 125.459 56.4969 125.482C56.5047 125.506 56.5086 125.525 56.5086 125.541V126.057C56.5086 126.119 56.4852 126.15 56.4383 126.15H50.6141C50.5516 126.15 50.5203 126.119 50.5203 126.057V125.541ZM74.0928 121.404C74.0928 120.49 74.2217 119.65 74.4795 118.885C74.7373 118.111 75.1084 117.443 75.5928 116.881C76.0772 116.318 76.667 115.881 77.3623 115.568C78.0655 115.256 78.8623 115.1 79.753 115.1C80.0186 115.1 80.2569 115.119 80.4678 115.158C80.6787 115.189 80.8702 115.236 81.042 115.299C81.2217 115.354 81.3858 115.424 81.5342 115.51C81.6905 115.588 81.8467 115.674 82.003 115.768C82.1827 115.861 82.3858 116.029 82.6123 116.271C82.8467 116.514 83.0655 116.795 83.2686 117.115C83.4717 117.436 83.6436 117.779 83.7842 118.146C83.9248 118.506 83.9952 118.854 83.9952 119.189C83.9952 119.299 83.9717 119.42 83.9248 119.553C83.8858 119.678 83.8155 119.74 83.7139 119.74H76.7998C76.7217 119.74 76.667 119.811 76.6358 119.951C76.6123 120.092 76.6006 120.264 76.6006 120.467C76.6006 121.154 76.6983 121.768 76.8936 122.307C77.0967 122.838 77.3662 123.291 77.7022 123.666C78.0381 124.033 78.4248 124.314 78.8623 124.51C79.2998 124.697 79.7608 124.791 80.2452 124.791C80.5498 124.791 80.8428 124.752 81.1241 124.674C81.4053 124.588 81.6748 124.479 81.9327 124.346C82.1905 124.213 82.4327 124.064 82.6592 123.9C82.8858 123.736 83.1006 123.572 83.3037 123.408C83.3506 123.393 83.3819 123.385 83.3975 123.385C83.4209 123.385 83.4522 123.404 83.4912 123.443C83.5616 123.506 83.6319 123.58 83.7022 123.666C83.7725 123.744 83.8272 123.811 83.8662 123.865C83.8897 123.889 83.9014 123.912 83.9014 123.936C83.9014 123.959 83.8858 123.986 83.8545 124.018C83.5967 124.322 83.2803 124.623 82.9053 124.92C82.5303 125.209 82.128 125.471 81.6983 125.705C81.2764 125.932 80.8428 126.115 80.3975 126.256C79.9522 126.396 79.5303 126.467 79.1319 126.467C78.3272 126.467 77.6123 126.322 76.9873 126.033C76.3623 125.736 75.835 125.35 75.4053 124.873C74.9756 124.396 74.6475 123.857 74.4209 123.256C74.2022 122.646 74.0928 122.029 74.0928 121.404ZM80.9717 118.838C81.1748 118.838 81.2764 118.748 81.2764 118.568C81.2764 118.264 81.2256 117.979 81.1241 117.713C81.0303 117.439 80.8936 117.201 80.7139 116.998C80.5342 116.787 80.3155 116.623 80.0577 116.506C79.8077 116.389 79.5264 116.33 79.2139 116.33C78.8389 116.33 78.5108 116.412 78.2295 116.576C77.9483 116.732 77.71 116.924 77.5147 117.15C77.3194 117.377 77.1709 117.611 77.0694 117.854C76.9756 118.096 76.9287 118.303 76.9287 118.475C76.9287 118.607 76.9483 118.701 76.9873 118.756C77.0264 118.811 77.0772 118.838 77.1397 118.838H80.9717ZM91.0794 115.1C91.8294 115.1 92.5012 115.197 93.095 115.393C93.6887 115.588 94.1848 115.873 94.5833 116.248C95.0755 116.232 95.5442 116.205 95.9895 116.166C96.4427 116.127 96.927 116.107 97.4427 116.107C97.6223 116.107 97.7669 116.115 97.8762 116.131C97.9934 116.139 98.0833 116.158 98.1458 116.189C98.2083 116.213 98.2552 116.248 98.2864 116.295C98.3177 116.334 98.3411 116.385 98.3567 116.447C98.4114 116.643 98.4505 116.818 98.4739 116.975C98.4973 117.131 98.5091 117.291 98.5091 117.455C98.5091 117.588 98.4583 117.678 98.3567 117.725C98.263 117.764 98.0677 117.783 97.7708 117.783H95.6262C95.7356 117.963 95.8411 118.174 95.9427 118.416C96.052 118.658 96.1067 118.967 96.1067 119.342C96.1067 119.881 95.9856 120.408 95.7434 120.924C95.5012 121.432 95.1458 121.881 94.677 122.271C94.2083 122.662 93.6341 122.979 92.9544 123.221C92.2825 123.455 91.513 123.572 90.6458 123.572C90.3802 123.572 90.1653 123.564 90.0012 123.549C89.8372 123.525 89.6653 123.49 89.4856 123.443C89.3762 123.537 89.2395 123.623 89.0755 123.701C88.9114 123.771 88.7512 123.854 88.595 123.947C88.4387 124.041 88.3059 124.15 88.1966 124.275C88.0872 124.393 88.0325 124.545 88.0325 124.732C88.0325 125.061 88.3177 125.299 88.888 125.447C89.4661 125.588 90.3958 125.662 91.677 125.67C92.6536 125.678 93.5403 125.705 94.3372 125.752C95.1419 125.799 95.8294 125.924 96.3997 126.127C96.97 126.322 97.4114 126.627 97.7239 127.041C98.0364 127.463 98.1927 128.049 98.1927 128.799C98.1927 129.111 98.1184 129.447 97.97 129.807C97.8216 130.174 97.595 130.537 97.2903 130.896C96.9934 131.256 96.6184 131.6 96.1653 131.928C95.7122 132.264 95.177 132.557 94.5598 132.807C93.9505 133.064 93.2591 133.268 92.4856 133.416C91.7122 133.572 90.8606 133.65 89.9309 133.65C89.1106 133.65 88.3958 133.568 87.7864 133.404C87.177 133.248 86.6731 133.037 86.2747 132.771C85.8762 132.506 85.5755 132.201 85.3723 131.857C85.177 131.521 85.0794 131.174 85.0794 130.814C85.0794 130.541 85.1341 130.295 85.2434 130.076C85.3528 129.857 85.4973 129.654 85.677 129.467C85.8567 129.287 86.0559 129.115 86.2747 128.951C86.5012 128.795 86.7278 128.631 86.9544 128.459C87.1809 128.295 87.3997 128.119 87.6106 127.932C87.8216 127.752 88.0052 127.545 88.1614 127.311C87.7473 127.256 87.3684 127.158 87.0247 127.018C86.6887 126.877 86.3997 126.713 86.1575 126.525C85.9231 126.338 85.7395 126.135 85.6067 125.916C85.4739 125.689 85.4075 125.463 85.4075 125.236C85.4075 125.025 85.4622 124.842 85.5716 124.686C85.6887 124.529 85.8372 124.393 86.0169 124.275C86.2044 124.15 86.4153 124.037 86.6497 123.936C86.8841 123.834 87.1262 123.736 87.3762 123.643C87.5325 123.58 87.6966 123.514 87.8684 123.443C88.0481 123.365 88.2317 123.26 88.4192 123.127C87.4895 122.752 86.7864 122.264 86.3098 121.662C85.8333 121.061 85.595 120.365 85.595 119.576C85.595 118.951 85.7356 118.365 86.0169 117.818C86.2981 117.271 86.6848 116.799 87.177 116.4C87.6692 115.994 88.2473 115.678 88.9114 115.451C89.5833 115.217 90.3059 115.1 91.0794 115.1ZM87.7512 129.854C87.7512 130.182 87.8489 130.51 88.0442 130.838C88.2473 131.174 88.5169 131.475 88.8528 131.74C89.1966 132.006 89.5989 132.221 90.0598 132.385C90.5208 132.557 91.013 132.643 91.5364 132.643C92.0833 132.643 92.6145 132.549 93.1302 132.361C93.6458 132.182 94.1028 131.939 94.5012 131.635C94.8997 131.33 95.22 130.975 95.4622 130.568C95.7044 130.17 95.8255 129.752 95.8255 129.314C95.8255 129.057 95.7825 128.83 95.6966 128.635C95.6184 128.439 95.5091 128.275 95.3684 128.143C95.2278 128.01 95.0637 127.904 94.8762 127.826C94.6887 127.748 94.4934 127.701 94.2903 127.686C94.1262 127.67 93.8528 127.654 93.47 127.639C93.0872 127.631 92.6575 127.619 92.1809 127.604C91.8919 127.596 91.6067 127.588 91.3255 127.58C91.0442 127.58 90.7825 127.576 90.5403 127.568C90.3059 127.561 90.0911 127.553 89.8958 127.545C89.7083 127.537 89.5598 127.525 89.4505 127.51C89.302 127.682 89.1302 127.842 88.9348 127.99C88.7395 128.146 88.552 128.311 88.3723 128.482C88.2005 128.662 88.052 128.861 87.927 129.08C87.8098 129.299 87.7512 129.557 87.7512 129.854ZM93.2942 119.6C93.2942 118.998 93.2317 118.463 93.1067 117.994C92.9817 117.518 92.802 117.119 92.5677 116.799C92.3411 116.471 92.0716 116.225 91.7591 116.061C91.4466 115.889 91.1028 115.803 90.7278 115.803C90.5012 115.803 90.2512 115.85 89.9778 115.943C89.7122 116.029 89.4622 116.193 89.2278 116.436C88.9934 116.67 88.7981 116.994 88.6419 117.408C88.4856 117.822 88.4075 118.354 88.4075 119.002C88.4075 119.416 88.4544 119.85 88.5481 120.303C88.6419 120.756 88.7903 121.174 88.9934 121.557C89.2044 121.939 89.4739 122.256 89.802 122.506C90.1302 122.748 90.5286 122.869 90.9973 122.869C91.3489 122.869 91.6653 122.791 91.9466 122.635C92.2278 122.471 92.4661 122.248 92.6614 121.967C92.8645 121.678 93.0208 121.334 93.1302 120.936C93.2395 120.529 93.2942 120.084 93.2942 119.6ZM104.07 125.916C103.812 126.096 103.507 126.236 103.156 126.338C102.804 126.439 102.453 126.49 102.101 126.49C101.148 126.49 100.421 126.275 99.9214 125.846C99.4292 125.416 99.1831 124.834 99.1831 124.1C99.1831 123.678 99.2769 123.314 99.4644 123.01C99.6597 122.705 99.9448 122.436 100.32 122.201C100.695 121.967 101.156 121.756 101.703 121.568C102.257 121.373 102.898 121.182 103.625 120.994C104.015 120.893 104.328 120.783 104.562 120.666C104.804 120.549 105.027 120.436 105.23 120.326C105.363 120.256 105.437 120.193 105.453 120.139C105.476 120.084 105.488 120.033 105.488 119.986V117.947C105.488 117.689 105.449 117.451 105.371 117.232C105.3 117.006 105.191 116.811 105.042 116.646C104.894 116.482 104.714 116.354 104.503 116.26C104.292 116.166 104.054 116.119 103.789 116.119C103.562 116.119 103.351 116.158 103.156 116.236C102.96 116.314 102.792 116.428 102.652 116.576C102.511 116.725 102.398 116.9 102.312 117.104C102.234 117.307 102.195 117.537 102.195 117.795C102.195 117.818 102.195 117.854 102.195 117.9C102.203 117.947 102.21 117.998 102.218 118.053C102.226 118.1 102.234 118.143 102.242 118.182C102.25 118.221 102.253 118.244 102.253 118.252C102.246 118.268 102.179 118.299 102.054 118.346C101.937 118.393 101.789 118.447 101.609 118.51C101.437 118.564 101.246 118.623 101.035 118.686C100.824 118.74 100.621 118.795 100.425 118.85C100.238 118.904 100.07 118.955 99.9214 119.002C99.7808 119.041 99.6831 119.064 99.6284 119.072C99.5425 119.072 99.4878 119.029 99.4644 118.943C99.4487 118.85 99.4409 118.76 99.4409 118.674C99.4409 118.221 99.5777 117.779 99.8511 117.35C100.125 116.92 100.488 116.541 100.941 116.213C101.402 115.877 101.929 115.607 102.523 115.404C103.117 115.201 103.73 115.1 104.363 115.1C104.925 115.1 105.429 115.174 105.875 115.322C106.32 115.463 106.699 115.662 107.011 115.92C107.324 116.17 107.562 116.463 107.726 116.799C107.89 117.127 107.972 117.479 107.972 117.854V123.443C107.972 123.646 108.046 123.83 108.195 123.994C108.351 124.15 108.55 124.229 108.792 124.229C108.933 124.229 109.058 124.205 109.167 124.158C109.285 124.104 109.386 124.045 109.472 123.982C109.566 123.912 109.644 123.854 109.707 123.807C109.769 123.752 109.824 123.725 109.871 123.725C109.933 123.725 109.968 123.752 109.976 123.807C109.984 123.854 109.988 123.896 109.988 123.936C109.988 124.068 109.968 124.205 109.929 124.346C109.898 124.479 109.839 124.576 109.753 124.639C109.371 124.928 109.031 125.189 108.734 125.424C108.437 125.65 108.167 125.846 107.925 126.01C107.683 126.174 107.464 126.299 107.269 126.385C107.074 126.471 106.89 126.514 106.718 126.514C106.562 126.514 106.421 126.471 106.296 126.385C106.179 126.299 106.074 126.193 105.98 126.068C105.894 125.943 105.82 125.811 105.757 125.67C105.695 125.521 105.64 125.385 105.593 125.26C105.554 125.135 105.523 125.033 105.5 124.955C105.476 124.877 105.457 124.842 105.441 124.85L104.07 125.916ZM101.914 123.818C101.914 124.029 101.953 124.201 102.031 124.334C102.117 124.467 102.226 124.568 102.359 124.639C102.492 124.709 102.64 124.76 102.804 124.791C102.976 124.814 103.152 124.826 103.332 124.826C103.496 124.826 103.699 124.787 103.941 124.709C104.183 124.623 104.417 124.514 104.644 124.381C104.878 124.24 105.078 124.084 105.242 123.912C105.406 123.732 105.488 123.553 105.488 123.373V121.439C105.488 121.354 105.457 121.311 105.394 121.311C105.378 121.311 105.363 121.314 105.347 121.322L102.628 122.588C102.519 122.666 102.417 122.74 102.324 122.811C102.238 122.873 102.164 122.951 102.101 123.045C102.039 123.131 101.992 123.236 101.96 123.361C101.929 123.479 101.914 123.631 101.914 123.818ZM114.822 114.783C114.853 114.768 114.885 114.752 114.916 114.736C114.955 114.721 114.982 114.713 114.998 114.713C115.131 114.713 115.197 114.807 115.197 114.994V116.822C115.22 116.9 115.252 116.939 115.291 116.939C115.33 116.939 115.361 116.939 115.385 116.939C115.408 116.932 115.439 116.916 115.478 116.893C115.978 116.635 116.4 116.42 116.744 116.248C117.095 116.068 117.396 115.92 117.646 115.803C117.904 115.678 118.131 115.584 118.326 115.521C118.529 115.451 118.732 115.4 118.935 115.369C119.138 115.33 119.361 115.307 119.603 115.299C119.845 115.291 120.142 115.287 120.494 115.287C120.877 115.287 121.209 115.369 121.49 115.533C121.771 115.697 122.006 115.916 122.193 116.189C122.388 116.455 122.545 116.764 122.662 117.115C122.787 117.459 122.881 117.814 122.943 118.182C123.006 118.541 123.049 118.9 123.072 119.26C123.095 119.611 123.107 119.932 123.107 120.221C123.107 120.494 123.099 120.748 123.084 120.982C123.076 121.217 123.064 121.475 123.049 121.756C123.041 122.029 123.029 122.342 123.013 122.693C123.006 123.045 123.002 123.471 123.002 123.971C123.002 124.205 123.045 124.4 123.131 124.557C123.217 124.713 123.326 124.842 123.459 124.943C123.599 125.045 123.752 125.123 123.916 125.178C124.08 125.225 124.24 125.264 124.396 125.295C124.552 125.326 124.693 125.354 124.818 125.377C124.951 125.393 125.052 125.416 125.123 125.447C125.154 125.463 125.181 125.514 125.205 125.6C125.228 125.686 125.24 125.748 125.24 125.787C125.24 125.834 125.232 125.904 125.217 125.998C125.201 126.084 125.17 126.135 125.123 126.15H118.584C118.537 126.135 118.506 126.084 118.49 125.998C118.474 125.904 118.467 125.834 118.467 125.787C118.467 125.748 118.478 125.686 118.502 125.6C118.525 125.514 118.552 125.463 118.584 125.447C118.685 125.4 118.818 125.365 118.982 125.342C119.154 125.311 119.326 125.248 119.498 125.154C119.677 125.061 119.838 124.92 119.978 124.732C120.127 124.537 120.224 124.252 120.271 123.877C120.287 123.76 120.299 123.65 120.306 123.549C120.322 123.447 120.334 123.346 120.342 123.244C120.349 123.135 120.353 123.018 120.353 122.893C120.361 122.768 120.365 122.623 120.365 122.459C120.365 122.107 120.361 121.732 120.353 121.334C120.345 120.936 120.342 120.49 120.342 119.998C120.342 119.615 120.322 119.236 120.283 118.861C120.252 118.486 120.166 118.15 120.025 117.854C119.892 117.557 119.693 117.314 119.427 117.127C119.162 116.939 118.795 116.846 118.326 116.846C118.162 116.846 118.013 116.857 117.881 116.881C117.756 116.896 117.599 116.939 117.412 117.01C117.232 117.08 116.994 117.186 116.697 117.326C116.4 117.467 116.002 117.658 115.502 117.9C115.439 117.939 115.373 117.986 115.302 118.041C115.24 118.088 115.205 118.15 115.197 118.229V123.971C115.197 124.322 115.267 124.592 115.408 124.779C115.549 124.959 115.713 125.092 115.9 125.178C116.088 125.256 116.275 125.311 116.463 125.342C116.65 125.365 116.795 125.4 116.896 125.447C116.927 125.463 116.955 125.514 116.978 125.6C117.002 125.686 117.013 125.748 117.013 125.787C117.013 125.834 117.006 125.904 116.99 125.998C116.974 126.084 116.943 126.135 116.896 126.15H110.779C110.732 126.135 110.701 126.084 110.685 125.998C110.67 125.904 110.662 125.834 110.662 125.787C110.662 125.748 110.674 125.686 110.697 125.6C110.72 125.514 110.748 125.463 110.779 125.447C110.881 125.4 111.025 125.365 111.213 125.342C111.4 125.311 111.588 125.256 111.775 125.178C111.963 125.092 112.127 124.959 112.267 124.779C112.408 124.592 112.478 124.322 112.478 123.971V118.018C112.478 117.83 112.427 117.686 112.326 117.584C112.224 117.475 112.095 117.393 111.939 117.338C111.783 117.283 111.615 117.24 111.435 117.209C111.256 117.17 111.084 117.127 110.92 117.08C110.873 117.064 110.834 117.045 110.802 117.021C110.779 116.99 110.767 116.932 110.767 116.846C110.767 116.807 110.779 116.768 110.802 116.729C110.826 116.689 110.873 116.65 110.943 116.611L114.822 114.783ZM131.557 125.6C131.557 125.584 131.561 125.564 131.569 125.541C131.584 125.518 131.612 125.506 131.651 125.506C131.799 125.506 131.987 125.498 132.213 125.482C132.44 125.467 132.678 125.439 132.928 125.4C133.186 125.354 133.444 125.291 133.701 125.213C133.959 125.135 134.19 125.037 134.393 124.92C134.596 124.803 134.76 124.662 134.885 124.498C135.018 124.334 135.084 124.139 135.084 123.912V111.9C135.084 111.502 135.026 111.193 134.908 110.975C134.791 110.748 134.631 110.58 134.428 110.471C134.233 110.361 134.002 110.295 133.737 110.271C133.471 110.24 133.186 110.225 132.881 110.225H132.213C132.174 110.225 132.147 110.213 132.131 110.189C132.123 110.166 132.119 110.146 132.119 110.131V109.662C132.119 109.646 132.123 109.627 132.131 109.604C132.147 109.58 132.174 109.568 132.213 109.568C132.221 109.568 132.26 109.568 132.33 109.568C132.408 109.561 132.541 109.557 132.729 109.557C132.916 109.557 133.17 109.557 133.49 109.557C133.811 109.549 134.229 109.545 134.744 109.545C134.854 109.545 135.041 109.541 135.307 109.533C135.58 109.525 135.889 109.518 136.233 109.51C136.584 109.502 136.951 109.494 137.334 109.486C137.725 109.471 138.092 109.459 138.436 109.451C138.787 109.443 139.1 109.436 139.373 109.428C139.647 109.42 139.846 109.416 139.971 109.416C140.369 109.416 140.811 109.432 141.295 109.463C141.787 109.486 142.28 109.545 142.772 109.639C143.272 109.732 143.756 109.869 144.225 110.049C144.694 110.221 145.108 110.455 145.467 110.752C145.834 111.041 146.127 111.4 146.346 111.83C146.565 112.26 146.674 112.775 146.674 113.377C146.674 113.736 146.615 114.064 146.498 114.361C146.389 114.658 146.244 114.924 146.065 115.158C145.893 115.385 145.705 115.584 145.502 115.756C145.299 115.92 145.108 116.061 144.928 116.178C144.756 116.287 144.604 116.369 144.471 116.424C144.346 116.479 144.276 116.51 144.26 116.518C144.705 116.768 145.127 117.041 145.526 117.338C145.932 117.635 146.287 117.971 146.592 118.346C146.897 118.713 147.135 119.119 147.307 119.564C147.487 120.01 147.576 120.502 147.576 121.041C147.576 121.674 147.49 122.232 147.319 122.717C147.147 123.201 146.92 123.623 146.639 123.982C146.358 124.342 146.033 124.646 145.666 124.896C145.307 125.139 144.936 125.342 144.553 125.506C144.17 125.662 143.787 125.787 143.405 125.881C143.03 125.967 142.686 126.029 142.373 126.068C142.061 126.107 141.795 126.131 141.576 126.139C141.365 126.146 141.229 126.15 141.166 126.15H131.651C131.612 126.15 131.584 126.139 131.569 126.115C131.561 126.092 131.557 126.072 131.557 126.057V125.6ZM138.483 123.033C138.483 123.338 138.561 123.615 138.717 123.865C138.873 124.107 139.072 124.318 139.315 124.498C139.557 124.67 139.826 124.807 140.123 124.908C140.428 125.002 140.729 125.049 141.026 125.049C141.526 125.049 141.967 124.955 142.35 124.768C142.733 124.58 143.049 124.318 143.299 123.982C143.549 123.646 143.737 123.248 143.862 122.787C143.994 122.318 144.061 121.807 144.061 121.252C144.061 120.588 143.959 120.006 143.756 119.506C143.553 119.006 143.268 118.588 142.901 118.252C142.533 117.916 142.096 117.666 141.588 117.502C141.08 117.33 140.522 117.244 139.912 117.244H138.635C138.557 117.244 138.51 117.26 138.494 117.291C138.487 117.314 138.483 117.342 138.483 117.373V123.033ZM140.557 116.166C140.932 116.166 141.28 116.1 141.6 115.967C141.928 115.826 142.209 115.635 142.444 115.393C142.686 115.15 142.873 114.865 143.006 114.537C143.147 114.201 143.217 113.838 143.217 113.447C143.217 112.854 143.143 112.365 142.994 111.982C142.854 111.592 142.643 111.283 142.362 111.057C142.08 110.83 141.729 110.674 141.307 110.588C140.893 110.494 140.412 110.447 139.865 110.447C139.748 110.447 139.608 110.455 139.444 110.471C139.287 110.486 139.135 110.518 138.987 110.564C138.838 110.604 138.713 110.662 138.612 110.74C138.51 110.818 138.459 110.92 138.459 111.045V115.943C138.459 115.967 138.471 116.01 138.494 116.072C138.518 116.135 138.596 116.166 138.729 116.166H140.557ZM149.446 120.678C149.446 119.943 149.606 119.24 149.926 118.568C150.254 117.896 150.692 117.303 151.239 116.787C151.786 116.271 152.422 115.861 153.149 115.557C153.875 115.252 154.641 115.1 155.446 115.1C156.29 115.1 157.09 115.244 157.848 115.533C158.606 115.822 159.27 116.221 159.84 116.729C160.418 117.229 160.875 117.822 161.211 118.51C161.547 119.189 161.715 119.928 161.715 120.725C161.715 121.537 161.559 122.295 161.247 122.998C160.942 123.693 160.516 124.299 159.969 124.814C159.422 125.33 158.77 125.736 158.012 126.033C157.262 126.322 156.442 126.467 155.551 126.467C154.668 126.467 153.852 126.318 153.102 126.021C152.36 125.717 151.715 125.307 151.168 124.791C150.629 124.268 150.207 123.654 149.903 122.951C149.598 122.248 149.446 121.49 149.446 120.678ZM152.446 119.939C152.446 120.361 152.477 120.799 152.54 121.252C152.602 121.697 152.696 122.135 152.821 122.564C152.946 122.986 153.102 123.385 153.29 123.76C153.485 124.135 153.715 124.467 153.981 124.756C154.247 125.037 154.547 125.26 154.883 125.424C155.219 125.588 155.598 125.67 156.02 125.67C156.481 125.67 156.875 125.553 157.204 125.318C157.54 125.076 157.813 124.764 158.024 124.381C158.243 123.998 158.403 123.568 158.504 123.092C158.606 122.615 158.657 122.139 158.657 121.662C158.657 121.279 158.622 120.877 158.551 120.455C158.481 120.025 158.375 119.604 158.235 119.189C158.094 118.768 157.922 118.365 157.719 117.982C157.516 117.6 157.278 117.264 157.004 116.975C156.739 116.678 156.438 116.443 156.102 116.271C155.774 116.1 155.415 116.014 155.024 116.014C154.586 116.014 154.204 116.135 153.875 116.377C153.555 116.611 153.29 116.92 153.079 117.303C152.868 117.678 152.707 118.1 152.598 118.568C152.497 119.029 152.446 119.486 152.446 119.939ZM163.245 120.678C163.245 119.943 163.405 119.24 163.725 118.568C164.053 117.896 164.491 117.303 165.038 116.787C165.585 116.271 166.221 115.861 166.948 115.557C167.675 115.252 168.44 115.1 169.245 115.1C170.089 115.1 170.889 115.244 171.647 115.533C172.405 115.822 173.069 116.221 173.639 116.729C174.217 117.229 174.675 117.822 175.01 118.51C175.346 119.189 175.514 119.928 175.514 120.725C175.514 121.537 175.358 122.295 175.046 122.998C174.741 123.693 174.315 124.299 173.768 124.814C173.221 125.33 172.569 125.736 171.811 126.033C171.061 126.322 170.241 126.467 169.35 126.467C168.467 126.467 167.651 126.318 166.901 126.021C166.159 125.717 165.514 125.307 164.967 124.791C164.428 124.268 164.007 123.654 163.702 122.951C163.397 122.248 163.245 121.49 163.245 120.678ZM166.245 119.939C166.245 120.361 166.276 120.799 166.339 121.252C166.401 121.697 166.495 122.135 166.62 122.564C166.745 122.986 166.901 123.385 167.089 123.76C167.284 124.135 167.514 124.467 167.78 124.756C168.046 125.037 168.346 125.26 168.682 125.424C169.018 125.588 169.397 125.67 169.819 125.67C170.28 125.67 170.675 125.553 171.003 125.318C171.339 125.076 171.612 124.764 171.823 124.381C172.042 123.998 172.202 123.568 172.303 123.092C172.405 122.615 172.456 122.139 172.456 121.662C172.456 121.279 172.421 120.877 172.35 120.455C172.28 120.025 172.175 119.604 172.034 119.189C171.893 118.768 171.721 118.365 171.518 117.982C171.315 117.6 171.077 117.264 170.803 116.975C170.538 116.678 170.237 116.443 169.901 116.271C169.573 116.1 169.214 116.014 168.823 116.014C168.385 116.014 168.003 116.135 167.675 116.377C167.354 116.611 167.089 116.92 166.878 117.303C166.667 117.678 166.507 118.1 166.397 118.568C166.296 119.029 166.245 119.486 166.245 119.939ZM183.032 125.799C183.032 125.908 183.024 125.994 183.009 126.057C182.993 126.119 182.962 126.15 182.915 126.15H176.798C176.72 126.135 176.681 126.018 176.681 125.799C176.681 125.596 176.72 125.479 176.798 125.447C176.899 125.4 177.044 125.365 177.231 125.342C177.419 125.311 177.606 125.256 177.794 125.178C177.981 125.092 178.145 124.963 178.286 124.791C178.427 124.611 178.497 124.35 178.497 124.006V110.178C178.497 109.99 178.446 109.846 178.345 109.744C178.243 109.635 178.114 109.553 177.958 109.498C177.802 109.443 177.634 109.4 177.454 109.369C177.274 109.33 177.102 109.287 176.938 109.24C176.892 109.225 176.852 109.205 176.821 109.182C176.798 109.15 176.786 109.092 176.786 109.006C176.786 108.967 176.798 108.928 176.821 108.889C176.845 108.85 176.892 108.811 176.962 108.771L180.841 106.943C180.872 106.928 180.903 106.912 180.935 106.896C180.974 106.881 181.001 106.873 181.017 106.873C181.149 106.873 181.216 106.967 181.216 107.154V118.791C181.216 119.025 181.259 119.17 181.345 119.225C181.438 119.279 181.552 119.307 181.685 119.307C181.856 119.307 182.071 119.256 182.329 119.154C182.587 119.045 182.86 118.908 183.149 118.744C183.446 118.58 183.739 118.396 184.028 118.193C184.325 117.99 184.587 117.791 184.813 117.596C185.048 117.393 185.239 117.209 185.388 117.045C185.536 116.873 185.61 116.74 185.61 116.646C185.61 116.49 185.536 116.385 185.388 116.33C185.239 116.275 185.071 116.232 184.884 116.201C184.704 116.162 184.54 116.115 184.392 116.061C184.243 116.006 184.169 115.904 184.169 115.756C184.169 115.646 184.22 115.557 184.321 115.486C184.423 115.408 184.532 115.369 184.649 115.369H189.583C189.935 115.369 190.11 115.459 190.11 115.639C190.11 115.764 190.02 115.869 189.841 115.955C189.661 116.033 189.438 116.111 189.173 116.189C188.907 116.268 188.626 116.361 188.329 116.471C188.04 116.572 187.786 116.709 187.567 116.881L184.204 119.506C184.204 119.568 184.231 119.639 184.286 119.717C184.341 119.787 184.388 119.842 184.427 119.881L188.892 124.592C189.095 124.803 189.317 124.967 189.56 125.084C189.81 125.201 190.044 125.299 190.263 125.377C190.481 125.455 190.661 125.521 190.802 125.576C190.95 125.631 191.024 125.705 191.024 125.799C191.024 125.893 191.017 125.975 191.001 126.045C190.985 126.115 190.931 126.15 190.837 126.15H184.45C184.395 126.15 184.36 126.119 184.345 126.057C184.337 125.994 184.333 125.908 184.333 125.799C184.333 125.604 184.372 125.486 184.45 125.447C184.528 125.408 184.61 125.377 184.696 125.354C184.782 125.33 184.856 125.299 184.919 125.26C184.989 125.213 185.044 125.154 185.083 125.084C185.13 125.014 185.153 124.912 185.153 124.779C185.153 124.693 185.099 124.58 184.989 124.439C184.88 124.291 184.767 124.154 184.649 124.029L181.38 120.561C181.38 120.553 181.376 120.545 181.368 120.537H181.356C181.31 120.537 181.274 120.596 181.251 120.713C181.227 120.83 181.216 120.963 181.216 121.111V124.006C181.216 124.35 181.286 124.611 181.427 124.791C181.567 124.963 181.731 125.092 181.919 125.178C182.106 125.256 182.294 125.311 182.481 125.342C182.669 125.365 182.813 125.4 182.915 125.447C182.993 125.479 183.032 125.596 183.032 125.799ZM193.21 126.08C193.14 126.08 193.077 126.1 193.023 126.139C192.968 126.178 192.913 126.221 192.859 126.268C192.812 126.322 192.765 126.369 192.718 126.408C192.671 126.447 192.616 126.467 192.554 126.467H192.132C192.116 126.467 192.093 126.354 192.062 126.127C192.03 125.9 191.995 125.631 191.956 125.318C191.925 124.998 191.898 124.67 191.874 124.334C191.851 123.99 191.839 123.705 191.839 123.479C191.839 123.354 191.882 123.275 191.968 123.244C192.062 123.205 192.159 123.186 192.261 123.186C192.316 123.186 192.374 123.205 192.437 123.244C192.507 123.283 192.57 123.334 192.624 123.396C192.687 123.451 192.741 123.51 192.788 123.572C192.835 123.635 192.87 123.689 192.894 123.736C193.027 124.025 193.159 124.287 193.292 124.521C193.425 124.756 193.577 124.955 193.749 125.119C193.921 125.283 194.124 125.412 194.359 125.506C194.593 125.592 194.874 125.635 195.202 125.635C195.452 125.635 195.655 125.592 195.812 125.506C195.968 125.42 196.089 125.307 196.175 125.166C196.261 125.025 196.316 124.865 196.339 124.686C196.37 124.506 196.386 124.318 196.386 124.123C196.386 123.732 196.269 123.404 196.034 123.139C195.8 122.865 195.507 122.611 195.155 122.377C194.812 122.143 194.433 121.904 194.019 121.662C193.613 121.42 193.234 121.139 192.882 120.818C192.538 120.498 192.249 120.119 192.015 119.682C191.78 119.236 191.663 118.689 191.663 118.041C191.663 117.666 191.78 117.303 192.015 116.951C192.249 116.592 192.554 116.275 192.929 116.002C193.304 115.729 193.722 115.51 194.183 115.346C194.652 115.182 195.116 115.1 195.577 115.1C195.82 115.1 196.062 115.123 196.304 115.17C196.554 115.209 196.78 115.256 196.984 115.311C197.195 115.365 197.37 115.42 197.511 115.475C197.659 115.529 197.753 115.568 197.792 115.592C197.847 115.631 197.89 115.693 197.921 115.779C197.96 115.857 197.984 115.986 197.991 116.166C198.007 116.346 198.015 116.588 198.015 116.893C198.023 117.189 198.027 117.58 198.027 118.064C198.027 118.197 197.976 118.295 197.874 118.357C197.78 118.412 197.687 118.439 197.593 118.439C197.507 118.439 197.421 118.424 197.335 118.393C197.257 118.361 197.206 118.311 197.183 118.24C197.089 117.998 196.984 117.756 196.866 117.514C196.749 117.264 196.613 117.041 196.456 116.846C196.308 116.643 196.132 116.482 195.929 116.365C195.726 116.24 195.491 116.178 195.226 116.178C195.07 116.178 194.913 116.197 194.757 116.236C194.601 116.275 194.46 116.354 194.335 116.471C194.21 116.58 194.109 116.732 194.03 116.928C193.96 117.123 193.925 117.373 193.925 117.678C193.925 117.943 194.046 118.189 194.288 118.416C194.538 118.643 194.847 118.873 195.214 119.107C195.581 119.334 195.98 119.58 196.409 119.846C196.847 120.111 197.249 120.416 197.616 120.76C197.984 121.104 198.288 121.502 198.53 121.955C198.78 122.4 198.905 122.928 198.905 123.537C198.905 123.99 198.788 124.4 198.554 124.768C198.32 125.127 198.019 125.432 197.652 125.682C197.284 125.932 196.874 126.123 196.421 126.256C195.976 126.396 195.538 126.467 195.109 126.467C194.89 126.467 194.671 126.447 194.452 126.408C194.234 126.369 194.034 126.322 193.855 126.268C193.675 126.221 193.527 126.178 193.409 126.139C193.292 126.1 193.226 126.08 193.21 126.08Z" fill="#1B3764"/>
<path d="M47.073 30.1515V30.5049C46.7196 30.5149 46.4521 30.5604 46.2653 30.6361C46.0836 30.7118 45.9624 30.8532 45.9018 31.0601C45.8412 31.2671 45.811 31.5902 45.811 32.0243V40.813C45.811 41.237 45.8412 41.555 45.9069 41.7721C45.9725 41.9841 46.0936 42.1254 46.2703 42.1961C46.447 42.2668 46.7146 42.3122 47.0679 42.3375V42.6908C46.6994 42.6656 46.235 42.6504 45.6696 42.6454C45.1042 42.6403 44.5237 42.6353 43.9331 42.6353C43.297 42.6353 42.6963 42.6403 42.136 42.6454C41.5757 42.6504 41.1213 42.6656 40.7781 42.6908V42.3375C41.1819 42.3122 41.4848 42.2668 41.6918 42.1961C41.8987 42.1254 42.035 41.9841 42.1107 41.7721C42.1814 41.5601 42.2168 41.242 42.2168 40.813V31.3378L42.3934 31.3024L37.9461 42.6807H37.6634L32.6659 31.3024V39.2279C32.6659 40.0204 32.6961 40.6262 32.7618 41.0452C32.8274 41.4642 32.9839 41.767 33.2413 41.9488C33.4937 42.1305 33.8976 42.2668 34.4529 42.3476V42.7009C34.2156 42.6757 33.9077 42.6605 33.5291 42.6555C33.1505 42.6504 32.7971 42.6454 32.4639 42.6454C32.2014 42.6454 31.9389 42.6504 31.6663 42.6555C31.4038 42.6605 31.1767 42.6757 31 42.7009V42.3476C31.3685 42.2668 31.6361 42.1355 31.8127 41.969C31.9894 41.7973 32.1055 41.5247 32.1661 41.1461C32.2267 40.7675 32.257 40.2476 32.257 39.5863V32.0294C32.257 31.5902 32.2267 31.2722 32.1661 31.0652C32.1055 30.8582 31.9844 30.7169 31.8026 30.6411C31.6209 30.5654 31.3534 30.52 31 30.5049V30.1515C31.1767 30.1616 31.4038 30.1767 31.6714 30.1868C31.944 30.1969 32.2065 30.207 32.469 30.207C33.1555 30.207 33.8118 30.202 34.4377 30.1868C35.0637 30.1767 35.6291 30.1616 36.1389 30.1515L39.6473 38.0567L39.1173 38.6423L42.3934 30.207C42.6307 30.207 42.8831 30.207 43.1557 30.207C43.4283 30.207 43.6857 30.207 43.9331 30.207C44.5237 30.207 45.1042 30.202 45.6696 30.1868C46.24 30.1767 46.7095 30.1616 47.073 30.1515Z" fill="#1B3764"/>
<path d="M59.7431 30.1515C59.6977 30.7421 59.6624 31.3125 59.6472 31.8628C59.627 32.413 59.622 32.837 59.622 33.1298C59.622 33.3772 59.627 33.6144 59.6371 33.8366C59.6472 34.0637 59.6624 34.2505 59.6725 34.4019H59.2686C59.1273 33.4226 58.89 32.6503 58.5619 32.0899C58.2287 31.5296 57.8451 31.1308 57.4008 30.9036C56.9566 30.6714 56.4922 30.5604 56.0076 30.5604H55.7754C55.4674 30.5604 55.2403 30.5856 55.0838 30.6411C54.9323 30.6916 54.8263 30.7976 54.7759 30.9491C54.7254 31.1005 54.6951 31.3428 54.6951 31.676V41.1764C54.6951 41.4944 54.7203 41.7367 54.7759 41.8932C54.8314 42.0548 54.9323 42.1608 55.0838 42.2113C55.2352 42.2668 55.4674 42.292 55.7754 42.292H56.3609C56.7496 42.292 57.1636 42.1658 57.5927 41.9134C58.0217 41.661 58.4205 41.2269 58.789 40.611C59.1576 39.9952 59.4352 39.1572 59.622 38.0921H60.0309C59.9955 38.5161 59.9804 39.0613 59.9804 39.7226C59.9804 40.0204 59.9854 40.4394 59.9955 40.9896C60.0056 41.5399 60.041 42.1103 60.1015 42.7009C59.5008 42.6757 58.8193 42.6605 58.0621 42.6555C57.3049 42.6504 56.6335 42.6454 56.0429 42.6454C55.6189 42.6454 55.0484 42.6454 54.3316 42.6454C53.6148 42.6454 52.8626 42.6504 52.0651 42.6555C51.2675 42.6605 50.5254 42.6757 49.8389 42.7009V42.3476C50.2074 42.3223 50.4749 42.2769 50.6566 42.2062C50.8333 42.1355 50.9494 41.9942 51.01 41.7822C51.0706 41.5702 51.1009 41.2521 51.1009 40.8231V32.0294C51.1009 31.5902 51.0706 31.2722 51.01 31.0652C50.9494 30.8582 50.8283 30.7169 50.6466 30.6411C50.4648 30.5654 50.1922 30.52 49.8389 30.5099V30.1565C50.5254 30.1666 51.2675 30.1818 52.0651 30.1919C52.8626 30.202 53.6199 30.2121 54.3316 30.2121C55.0484 30.2121 55.6138 30.2121 56.0429 30.2121C56.5881 30.2121 57.204 30.207 57.8955 30.202C58.5821 30.1919 59.203 30.1767 59.7431 30.1515ZM57.1737 36.2142V36.5676H54.16V36.2142H57.1737ZM57.6886 33.8719C57.6431 34.5433 57.6179 35.0582 57.628 35.4115C57.633 35.7649 57.6381 36.093 57.6381 36.3858C57.6381 36.6837 57.6431 37.0067 57.6583 37.3601C57.6684 37.7135 57.6987 38.2284 57.7492 38.8997H57.3403C57.2696 38.4606 57.1232 38.0668 56.9061 37.7135C56.6891 37.3601 56.4064 37.0774 56.0631 36.8704C55.7198 36.6635 55.3261 36.5625 54.8768 36.5625V36.2091C55.3261 36.2091 55.7148 36.0829 56.048 35.8356C56.3761 35.5882 56.6487 35.2853 56.8607 34.9219C57.0727 34.5635 57.2141 34.2101 57.2847 33.8668H57.6886V33.8719Z" fill="#1B3764"/>
<path d="M70.1481 29.9043C70.9759 29.9043 71.6524 30.0154 72.1875 30.2425C72.7175 30.4646 73.187 30.7372 73.5858 31.0553C73.717 31.1613 73.8331 31.2168 73.9391 31.2168C74.1613 31.2168 74.3127 30.8634 74.3834 30.1517H74.7923C74.767 30.6262 74.7519 31.2016 74.7367 31.8781C74.7266 32.5596 74.7165 33.4581 74.7165 34.5788H74.3127C74.2319 33.7257 74.0855 33.0189 73.8786 32.4435C73.6716 31.873 73.2728 31.3834 72.6822 30.9795C72.4348 30.8129 72.142 30.6867 71.8139 30.5908C71.4807 30.4949 71.1627 30.4495 70.8548 30.4495C70.1683 30.4495 69.6029 30.6363 69.1536 31.0098C68.7043 31.3834 68.3459 31.868 68.0834 32.4637C67.8159 33.0593 67.6291 33.7105 67.518 34.4122C67.4019 35.1189 67.3464 35.8004 67.3464 36.4617C67.3464 38.5869 67.6038 40.1417 68.1238 41.121C68.6437 42.1004 69.3353 42.59 70.1985 42.59C70.3853 42.59 70.5519 42.5698 70.6932 42.5345C70.8346 42.4992 70.9608 42.4487 71.0668 42.373C71.1981 42.2771 71.2889 42.1609 71.3495 42.0196C71.4101 41.8783 71.4404 41.7016 71.4404 41.4896V39.7177C71.4404 39.1372 71.3949 38.7081 71.3091 38.4254C71.2182 38.1427 71.0466 37.9458 70.7841 37.8398C70.5216 37.7338 70.1481 37.6732 69.6483 37.6631V37.3098C69.9209 37.3199 70.249 37.33 70.6428 37.335C71.0315 37.3401 71.4404 37.3451 71.8644 37.3552C72.2884 37.3603 72.6822 37.3653 73.0355 37.3653C73.6009 37.3653 74.1259 37.3603 74.6055 37.3451C75.085 37.335 75.4687 37.3199 75.7665 37.3098V37.6631C75.4737 37.6884 75.2769 37.7792 75.181 37.9458C75.085 38.1124 75.0396 38.5264 75.0396 39.1876V42.696H74.6863C74.6762 42.4941 74.6257 42.277 74.5449 42.0398C74.4641 41.8025 74.3278 41.6864 74.136 41.6864C74.0401 41.6864 73.9089 41.7117 73.7372 41.7571C73.5656 41.8025 73.298 41.9186 72.9295 42.0953C72.4702 42.3174 71.9805 42.5194 71.4656 42.691C70.9507 42.8626 70.4408 42.9484 69.931 42.9484C67.7099 42.9484 66.044 42.3831 64.9334 41.2573C63.8229 40.1316 63.2676 38.5566 63.2676 36.5324C63.2676 35.2098 63.5604 34.0487 64.1459 33.0593C64.7315 32.0649 65.5392 31.2925 66.574 30.7372C67.6089 30.1819 68.8002 29.9043 70.1481 29.9043Z" fill="#1B3764"/>
<path d="M84.6452 30.1515L88.9361 41.2117C89.1027 41.6156 89.2793 41.8983 89.4661 42.0699C89.6529 42.2416 89.8245 42.3324 89.981 42.3425V42.6959C89.557 42.6706 89.0572 42.6555 88.4918 42.6504C87.9265 42.6454 87.3459 42.6403 86.7553 42.6403C86.1546 42.6403 85.5842 42.6454 85.0541 42.6504C84.5241 42.6555 84.095 42.6706 83.777 42.6959V42.3425C84.3777 42.3173 84.7613 42.2163 84.9178 42.0346C85.0794 41.8529 85.039 41.4591 84.8017 40.8584L81.9647 33.0087L82.3181 32.3878L79.8748 38.7483C79.4861 39.763 79.2943 40.5252 79.2994 41.0351C79.3044 41.5449 79.4558 41.8831 79.7537 42.0548C80.0465 42.2264 80.4352 42.3223 80.9046 42.3476V42.7009C80.4655 42.6757 80.0768 42.6605 79.7284 42.6555C79.3801 42.6504 78.9965 42.6454 78.5876 42.6454C78.3655 42.6454 78.1232 42.6504 77.8708 42.6555C77.6184 42.6605 77.4013 42.6757 77.2246 42.7009V42.3476C77.4972 42.3021 77.7647 42.1254 78.0323 41.8226C78.2998 41.5197 78.5724 41.0048 78.8551 40.2728L82.7876 30.1515C83.0702 30.1767 83.3832 30.1868 83.7164 30.1868C84.0496 30.1868 84.3625 30.1767 84.6452 30.1515ZM85.2661 37.5974V37.9507H79.9859L80.1626 37.5974H85.2661Z" fill="#1B3764"/>
<path d="M103.819 30.1515V30.5049C103.465 30.5755 103.198 30.7017 103.011 30.8784C102.829 31.0551 102.708 31.3327 102.647 31.7012C102.587 32.0748 102.557 32.5947 102.557 33.2712V42.7009C102.38 42.6757 102.188 42.6656 101.981 42.6656C101.774 42.6656 101.552 42.6757 101.315 42.7009L93.465 34.1243V39.2279C93.465 40.0204 93.4953 40.6262 93.5609 41.0452C93.6266 41.4642 93.783 41.767 94.0405 41.9488C94.2929 42.1305 94.6967 42.2668 95.252 42.3476V42.7009C95.0148 42.6757 94.7068 42.6605 94.3282 42.6555C93.9496 42.6504 93.5963 42.6454 93.2631 42.6454C93.0006 42.6454 92.7381 42.6504 92.4655 42.6555C92.1929 42.6605 91.9708 42.6757 91.7941 42.7009V42.3476C92.1626 42.2668 92.4302 42.1355 92.6068 41.969C92.7835 41.7973 92.8996 41.5247 92.9602 41.1461C93.0208 40.7675 93.0511 40.2476 93.0511 39.5863V32.0294C93.0511 31.5902 93.0208 31.2722 92.9602 31.0652C92.8996 30.8582 92.7785 30.7169 92.5967 30.6411C92.415 30.5654 92.1424 30.52 91.7891 30.5099V30.1565C91.9657 30.1666 92.1929 30.1818 92.4605 30.1919C92.733 30.202 92.9955 30.2121 93.258 30.2121C93.5508 30.2121 93.8436 30.207 94.1263 30.1919C94.409 30.1818 94.6614 30.1666 94.8886 30.1565L102.138 37.8144V33.6245C102.138 32.832 102.107 32.2262 102.042 31.8072C101.976 31.3883 101.82 31.0854 101.572 30.8936C101.325 30.7068 100.916 30.5755 100.351 30.5049V30.1515C100.588 30.1616 100.896 30.1767 101.274 30.1868C101.653 30.1969 102.006 30.207 102.339 30.207C102.612 30.207 102.88 30.202 103.147 30.1868C103.42 30.1767 103.642 30.1616 103.819 30.1515Z" fill="#1B3764"/>
<path d="M147.998 30.1515C148.342 30.1616 148.791 30.1767 149.356 30.1868C149.917 30.1969 150.482 30.207 151.047 30.207C151.638 30.207 152.203 30.202 152.749 30.1868C153.294 30.1767 153.677 30.1666 153.9 30.1666C155.52 30.1666 156.721 30.4291 157.514 30.944C158.306 31.464 158.7 32.1303 158.7 32.9481C158.7 33.362 158.554 33.7911 158.256 34.2354C157.963 34.6796 157.514 35.0683 156.908 35.4065C156.307 35.7447 155.54 35.9719 154.606 36.088V36.1233C155.823 36.1839 156.797 36.3707 157.529 36.6887C158.261 37.0067 158.791 37.3954 159.124 37.8498C159.457 38.3041 159.619 38.7735 159.619 39.2582C159.619 40.4394 159.144 41.3077 158.2 41.8629C157.256 42.4182 155.954 42.6959 154.303 42.6959C154.021 42.6959 153.602 42.6858 153.051 42.6706C152.501 42.6504 151.845 42.6454 151.078 42.6454C150.487 42.6454 149.912 42.6504 149.351 42.6555C148.791 42.6605 148.337 42.6757 147.993 42.7009V42.3476C148.357 42.3223 148.629 42.2769 148.806 42.2062C148.983 42.1355 149.099 41.9942 149.159 41.7822C149.22 41.5702 149.25 41.2521 149.25 40.8231V32.0294C149.25 31.5902 149.22 31.2722 149.159 31.0652C149.099 30.8582 148.978 30.7169 148.796 30.6411C148.614 30.5654 148.347 30.52 147.988 30.5099V30.1515H147.998ZM153.814 30.5049C153.41 30.5049 153.152 30.6058 153.036 30.8077C152.92 31.0097 152.86 31.4185 152.86 32.0294V40.818C152.86 41.4339 152.935 41.8327 153.082 42.0144C153.228 42.1961 153.541 42.287 154.011 42.287C154.672 42.287 155.151 42.0194 155.454 41.4793C155.757 40.9442 155.909 40.1769 155.909 39.1824C155.909 38.2738 155.692 37.5721 155.263 37.0724C154.833 36.5776 154.112 36.3303 153.107 36.3303H151.815V36.0274H153.339C153.799 36.0274 154.157 35.8962 154.404 35.6286C154.652 35.3611 154.823 35.0077 154.919 34.5635C155.015 34.1192 155.061 33.6447 155.061 33.1349C155.061 32.2616 154.965 31.6003 154.778 31.1611C154.581 30.727 154.263 30.5049 153.814 30.5049Z" fill="#1B3764"/>
<path d="M169.089 29.9043C170.422 29.9043 171.593 30.1567 172.598 30.6666C173.602 31.1764 174.38 31.9033 174.935 32.8574C175.49 33.8064 175.768 34.9624 175.768 36.3204C175.768 37.6429 175.485 38.804 174.92 39.7934C174.354 40.7879 173.562 41.5602 172.552 42.1155C171.543 42.6708 170.382 42.9484 169.069 42.9484C167.737 42.9484 166.565 42.696 165.561 42.1862C164.556 41.6763 163.779 40.9444 163.224 39.9903C162.668 39.0312 162.391 37.8802 162.391 36.5324C162.391 35.2098 162.678 34.0487 163.249 33.0593C163.819 32.0649 164.612 31.2925 165.616 30.7372C166.621 30.1819 167.777 29.9043 169.089 29.9043ZM169.019 30.2223C168.428 30.2223 167.913 30.4899 167.479 31.0199C167.04 31.55 166.707 32.2819 166.469 33.2158C166.232 34.1497 166.116 35.23 166.116 36.4567C166.116 37.7086 166.252 38.799 166.525 39.7278C166.798 40.6566 167.161 41.3684 167.625 41.8732C168.085 42.378 168.595 42.6254 169.15 42.6254C169.741 42.6254 170.255 42.3578 170.69 41.8278C171.129 41.2977 171.462 40.5607 171.699 39.6218C171.936 38.6828 172.053 37.6026 172.053 36.386C172.053 35.124 171.916 34.0285 171.644 33.1098C171.371 32.186 171.008 31.4742 170.543 30.9745C170.084 30.4747 169.574 30.2223 169.019 30.2223Z" fill="#1B3764"/>
<path d="M185.52 29.9043C186.853 29.9043 188.024 30.1567 189.028 30.6666C190.033 31.1764 190.81 31.9033 191.366 32.8574C191.921 33.8064 192.199 34.9624 192.199 36.3204C192.199 37.6429 191.916 38.804 191.351 39.7934C190.785 40.7879 189.993 41.5602 188.983 42.1155C187.973 42.6708 186.812 42.9484 185.5 42.9484C184.167 42.9484 182.996 42.696 181.991 42.1862C180.987 41.6763 180.21 40.9444 179.654 39.9903C179.099 39.0312 178.821 37.8802 178.821 36.5324C178.821 35.2098 179.109 34.0487 179.679 33.0593C180.25 32.0649 181.042 31.2925 182.047 30.7372C183.047 30.1819 184.208 29.9043 185.52 29.9043ZM185.444 30.2223C184.854 30.2223 184.339 30.4899 183.905 31.0199C183.465 31.55 183.132 32.2819 182.895 33.2158C182.658 34.1497 182.542 35.23 182.542 36.4567C182.542 37.7086 182.678 38.799 182.951 39.7278C183.223 40.6566 183.587 41.3684 184.051 41.8732C184.51 42.378 185.02 42.6254 185.576 42.6254C186.166 42.6254 186.681 42.3578 187.115 41.8278C187.554 41.2977 187.888 40.5607 188.125 39.6218C188.362 38.6828 188.478 37.6026 188.478 36.386C188.478 35.124 188.342 34.0285 188.069 33.1098C187.797 32.186 187.433 31.4742 186.969 30.9745C186.509 30.4747 186.005 30.2223 185.444 30.2223Z" fill="#1B3764"/>
<path d="M201.079 30.1515V30.5049C200.725 30.515 200.458 30.5604 200.271 30.6361C200.089 30.7119 199.968 30.8532 199.907 31.0602C199.847 31.2672 199.817 31.5902 199.817 32.0244V40.813C199.817 41.237 199.847 41.5551 199.912 41.7721C199.978 41.9841 200.099 42.1255 200.276 42.1962C200.453 42.2668 200.72 42.3123 201.073 42.3375V42.6909C200.73 42.6656 200.291 42.6505 199.751 42.6454C199.211 42.6404 198.666 42.6353 198.11 42.6353C197.474 42.6353 196.874 42.6404 196.313 42.6454C195.753 42.6505 195.299 42.6656 194.955 42.6909V42.3375C195.319 42.3123 195.591 42.2668 195.768 42.1962C195.945 42.1255 196.061 41.9841 196.121 41.7721C196.182 41.5601 196.212 41.2421 196.212 40.813V32.0294C196.212 31.5902 196.182 31.2722 196.121 31.0652C196.061 30.8583 195.94 30.7169 195.758 30.6412C195.576 30.5655 195.309 30.52 194.95 30.5099V30.1566C195.293 30.1667 195.743 30.1818 196.308 30.1919C196.868 30.202 197.469 30.2121 198.105 30.2121C198.661 30.2121 199.206 30.2071 199.746 30.1919C200.296 30.1768 200.735 30.1616 201.079 30.1515ZM207.565 30.1515V30.4898C207.161 30.5958 206.717 30.7926 206.228 31.0753C205.738 31.358 205.213 31.8123 204.658 32.4383L201.397 36.1436L202.83 34.2657L207.03 41.2673C207.182 41.5147 207.338 41.7216 207.49 41.8882C207.641 42.0548 207.848 42.2063 208.11 42.3476V42.701C207.616 42.6757 207.086 42.6606 206.525 42.6555C205.965 42.6505 205.43 42.6454 204.92 42.6454C204.647 42.6454 204.309 42.6505 203.91 42.6555C203.512 42.6606 203.002 42.6757 202.386 42.701V42.3476C202.941 42.3224 203.264 42.2567 203.35 42.1507C203.436 42.0447 203.396 41.8428 203.219 41.55L200.649 37.2087C200.533 36.9967 200.427 36.8351 200.331 36.7291C200.235 36.6231 200.145 36.5474 200.059 36.4969C199.968 36.4515 199.857 36.4212 199.716 36.4061V36.0325C200.235 36.0073 200.725 35.8356 201.185 35.5075C201.644 35.1844 202.199 34.6544 202.85 33.9224L203.451 33.251C203.946 32.6957 204.208 32.2162 204.239 31.8073C204.269 31.3984 204.143 31.0804 203.865 30.8482C203.587 30.616 203.224 30.4948 202.775 30.4847V30.1465C203.269 30.1566 203.729 30.1717 204.148 30.1818C204.567 30.1919 205.107 30.202 205.768 30.202C206.495 30.2071 207.091 30.1869 207.565 30.1515Z" fill="#1B3764"/>
<path d="M214.956 29.9043C215.723 29.9043 216.319 29.98 216.748 30.1365C217.172 30.2879 217.535 30.4495 217.828 30.6161C217.969 30.6968 218.085 30.7625 218.171 30.8028C218.257 30.8432 218.343 30.8634 218.429 30.8634C218.615 30.8634 218.747 30.606 218.817 30.086H219.226C219.216 30.3334 219.201 30.6211 219.181 30.9543C219.161 31.2875 219.151 31.7216 219.146 32.2668C219.14 32.812 219.135 33.5237 219.135 34.4122H218.727C218.681 33.761 218.53 33.13 218.272 32.5141C218.02 31.8983 217.671 31.3935 217.227 30.9896C216.783 30.5858 216.258 30.3889 215.642 30.3889C215.122 30.3889 214.693 30.5303 214.35 30.8129C214.007 31.0956 213.835 31.5045 213.835 32.0346C213.835 32.4738 213.941 32.8473 214.153 33.1603C214.365 33.4733 214.698 33.8014 215.153 34.1447C215.607 34.4879 216.208 34.917 216.95 35.437C217.48 35.8055 217.964 36.1689 218.393 36.5374C218.822 36.9059 219.171 37.3148 219.428 37.7792C219.686 38.2437 219.817 38.7939 219.817 39.4451C219.817 40.2376 219.595 40.8939 219.151 41.4138C218.706 41.9338 218.121 42.3225 217.389 42.5749C216.657 42.8273 215.859 42.9535 214.996 42.9535C214.193 42.9535 213.552 42.8828 213.073 42.7415C212.593 42.6001 212.189 42.4537 211.861 42.2972C211.599 42.1307 211.402 42.0499 211.26 42.0499C211.074 42.0499 210.942 42.3073 210.872 42.8273H210.463C210.488 42.5194 210.503 42.1609 210.508 41.7571C210.513 41.3533 210.518 40.8232 210.529 40.172C210.534 39.5208 210.539 38.698 210.539 37.6884H210.947C210.993 38.5163 211.129 39.2886 211.346 40.0105C211.563 40.7323 211.902 41.3129 212.356 41.7571C212.81 42.2013 213.416 42.4234 214.173 42.4234C214.824 42.4234 215.339 42.272 215.723 41.9641C216.107 41.6561 216.298 41.2321 216.298 40.6869C216.298 39.9549 216.056 39.3441 215.572 38.8545C215.087 38.3648 214.466 37.8651 213.709 37.3552C213.153 36.9766 212.634 36.598 212.149 36.2194C211.664 35.8408 211.276 35.4168 210.988 34.9422C210.7 34.4677 210.554 33.9074 210.554 33.2612C210.554 32.4838 210.761 31.8478 211.175 31.3581C211.589 30.8685 212.134 30.505 212.805 30.2678C213.477 30.0305 214.198 29.9043 214.956 29.9043Z" fill="#1B3764"/>
<path d="M72.0205 4.53293V3.4375H74.7616V4.53293H72.0205Z" fill="#1B3764"/>
<path d="M81.7285 6.46684V0.0507812H84.4494C84.7422 0.0507812 85.0148 0.111358 85.2621 0.232511C85.5095 0.353664 85.7266 0.515201 85.9083 0.722171C86.09 0.929141 86.2364 1.1563 86.3374 1.4087C86.4383 1.66111 86.4888 1.91856 86.4888 2.1861C86.4888 2.54956 86.403 2.89283 86.2364 3.2159C86.0698 3.53898 85.8376 3.80653 85.5398 4.01349C85.242 4.22046 84.8936 4.32143 84.4898 4.32143H82.9703V6.47189H81.7285V6.46684ZM82.9754 3.22095H84.4191C84.5706 3.22095 84.7069 3.18057 84.828 3.09475C84.9492 3.00893 85.0451 2.88778 85.1158 2.72624C85.1864 2.56471 85.2268 2.38298 85.2268 2.18106C85.2268 1.95894 85.1864 1.76712 85.1057 1.61063C85.0249 1.45414 84.9189 1.33803 84.7876 1.25726C84.6564 1.17649 84.5201 1.14116 84.3686 1.14116H82.9754V3.22095Z" fill="#1B3764"/>
<path d="M93.6264 5.37647V6.47189H89.1689V0.0507812H93.5456V1.14621H90.4158V2.69091H93.1165V3.70556H90.4158V5.37647H93.6264Z" fill="#1B3764"/>
<path d="M96.4072 6.46684V0.0507812H99.2442C99.5421 0.0507812 99.8096 0.111358 100.062 0.232511C100.309 0.353664 100.526 0.515201 100.713 0.722171C100.895 0.929141 101.036 1.1563 101.137 1.4087C101.238 1.66111 101.289 1.91856 101.289 2.1861C101.289 2.4587 101.243 2.71615 101.147 2.96855C101.051 3.22095 100.92 3.43802 100.743 3.6248C100.567 3.81157 100.365 3.95797 100.128 4.05893L101.592 6.47189H100.218L98.901 4.32143H97.6541V6.47189H96.4072V6.46684ZM97.6541 3.22095H99.219C99.3755 3.22095 99.5118 3.17552 99.6329 3.07961C99.7541 2.98874 99.85 2.86254 99.9207 2.70605C99.9913 2.54956 100.032 2.37288 100.032 2.18106C100.032 1.97409 99.9913 1.7974 99.9055 1.64091C99.8197 1.48947 99.7137 1.36327 99.5824 1.27241C99.4512 1.18154 99.3149 1.13611 99.1635 1.13611H97.6541V3.22095Z" fill="#1B3764"/>
<path d="M104.227 6.46684V0.0507812H108.538V1.14621H105.473V2.80196H108.023V3.81662H105.473V6.47189H104.227V6.46684Z" fill="#1B3764"/>
<path d="M115.681 5.37647V6.47189H111.224V0.0507812H115.6V1.14621H112.471V2.69091H115.171V3.70556H112.471V5.37647H115.681Z" fill="#1B3764"/>
<path d="M117.958 3.20546C117.958 2.81172 118.029 2.42807 118.17 2.05451C118.311 1.67591 118.518 1.33264 118.791 1.02471C119.064 0.716779 119.392 0.469425 119.785 0.282647C120.179 0.100918 120.623 0.00500488 121.123 0.00500488C121.714 0.00500488 122.224 0.136254 122.658 0.393704C123.087 0.651154 123.41 0.989373 123.622 1.40836L122.663 2.06965C122.552 1.82735 122.41 1.63552 122.239 1.49418C122.062 1.35283 121.875 1.25187 121.678 1.19634C121.482 1.14081 121.285 1.11053 121.093 1.11053C120.78 1.11053 120.507 1.17615 120.275 1.30235C120.043 1.42855 119.851 1.59514 119.695 1.80211C119.538 2.00908 119.422 2.23624 119.346 2.48864C119.27 2.74104 119.235 2.99345 119.235 3.24585C119.235 3.52854 119.281 3.80113 119.371 4.06363C119.462 4.32613 119.589 4.55834 119.755 4.76026C119.922 4.96218 120.119 5.12372 120.351 5.23983C120.583 5.35593 120.835 5.41651 121.113 5.41651C121.31 5.41651 121.512 5.38117 121.719 5.31555C121.926 5.24992 122.113 5.14391 122.289 4.99752C122.466 4.85113 122.597 4.66435 122.698 4.43719L123.718 5.02276C123.592 5.34079 123.385 5.61338 123.097 5.83549C122.809 6.05761 122.491 6.22924 122.133 6.3403C121.779 6.4564 121.426 6.51193 121.078 6.51193C120.618 6.51193 120.199 6.41602 119.821 6.22924C119.442 6.03742 119.114 5.78501 118.841 5.47204C118.569 5.15401 118.352 4.80065 118.2 4.4069C118.034 4.0081 117.958 3.60931 117.958 3.20546Z" fill="#1B3764"/>
<path d="M131.153 1.14621H129.099V6.46684H127.862V1.14621H125.808V0.0507812H131.148V1.14621H131.153Z" fill="#1B3764"/>
<path d="M141.295 1.73148C141.255 1.69109 141.174 1.63052 141.063 1.55985C140.952 1.48917 140.816 1.4185 140.654 1.35288C140.492 1.28725 140.321 1.22667 140.134 1.17619C139.947 1.12571 139.755 1.10047 139.564 1.10047C139.225 1.10047 138.973 1.16105 138.801 1.28725C138.63 1.41345 138.544 1.59013 138.544 1.8173C138.544 1.99398 138.599 2.13027 138.705 2.23124C138.816 2.3322 138.978 2.41801 139.195 2.49373C139.412 2.56441 139.685 2.64517 140.008 2.72594C140.432 2.8269 140.795 2.95311 141.108 3.0995C141.416 3.24589 141.659 3.43772 141.82 3.67498C141.987 3.91223 142.067 4.22521 142.067 4.61391C142.067 4.95718 142.002 5.24996 141.876 5.49227C141.749 5.73458 141.573 5.93145 141.351 6.08289C141.128 6.23433 140.876 6.34034 140.593 6.41101C140.311 6.48169 140.008 6.51702 139.69 6.51702C139.372 6.51702 139.049 6.48169 138.731 6.41606C138.413 6.35044 138.105 6.25453 137.807 6.13337C137.509 6.01222 137.241 5.86078 136.994 5.6841L137.544 4.60886C137.6 4.66439 137.696 4.73506 137.832 4.82088C137.968 4.9067 138.14 4.99756 138.337 5.08338C138.534 5.1692 138.751 5.24492 138.988 5.30549C139.225 5.36607 139.463 5.39636 139.7 5.39636C140.038 5.39636 140.296 5.34083 140.467 5.22472C140.644 5.11367 140.73 4.95213 140.73 4.74011C140.73 4.54829 140.659 4.39685 140.523 4.29084C140.386 4.18483 140.19 4.08891 139.942 4.00815C139.695 3.92738 139.402 3.83651 139.064 3.7406C138.66 3.6245 138.322 3.49829 138.049 3.35695C137.777 3.2156 137.575 3.03892 137.443 2.82186C137.312 2.60479 137.247 2.33724 137.247 2.00912C137.247 1.56994 137.353 1.20143 137.56 0.908648C137.766 0.610813 138.049 0.388699 138.403 0.23221C138.756 0.0807687 139.155 0 139.589 0C139.892 0 140.174 0.0353363 140.442 0.100961C140.71 0.166585 140.962 0.252402 141.199 0.363459C141.436 0.474516 141.643 0.590621 141.83 0.716822L141.295 1.73148Z" fill="#1B3764"/>
<path d="M149.619 1.14621H147.565V6.46684H146.328V1.14621H144.273V0.0507812H149.614V1.14621H149.619Z" fill="#1B3764"/>
<path d="M154.818 6.51198C154.349 6.51198 153.92 6.42111 153.541 6.23938C153.157 6.05765 152.829 5.81535 152.557 5.50237C152.284 5.19444 152.072 4.84107 151.921 4.45237C151.769 4.06367 151.693 3.66488 151.693 3.25599C151.693 2.8269 151.774 2.41801 151.931 2.02931C152.092 1.64061 152.309 1.2923 152.592 0.989416C152.875 0.686534 153.203 0.444228 153.586 0.267546C153.97 0.0908648 154.389 0 154.848 0C155.313 0 155.737 0.0959128 156.12 0.28269C156.504 0.469468 156.832 0.72187 157.1 1.03485C157.372 1.34783 157.579 1.69614 157.731 2.08484C157.882 2.47354 157.958 2.86729 157.958 3.27618C157.958 3.70022 157.877 4.10406 157.721 4.49276C157.564 4.88146 157.347 5.22977 157.064 5.53266C156.787 5.83554 156.454 6.07784 156.07 6.24948C155.686 6.42616 155.267 6.51198 154.818 6.51198ZM152.955 3.26104C152.955 3.53868 152.996 3.80622 153.082 4.06367C153.167 4.32113 153.289 4.55333 153.45 4.75526C153.612 4.95718 153.803 5.11872 154.036 5.23482C154.268 5.35093 154.53 5.4115 154.828 5.4115C155.131 5.4115 155.399 5.35093 155.631 5.22472C155.868 5.10357 156.06 4.93699 156.216 4.72497C156.373 4.518 156.494 4.28579 156.575 4.02834C156.656 3.77089 156.696 3.51344 156.696 3.25599C156.696 2.97835 156.651 2.7108 156.565 2.4584C156.479 2.20095 156.353 1.97378 156.196 1.77186C156.04 1.56994 155.843 1.4084 155.611 1.2923C155.378 1.17619 155.116 1.11562 154.828 1.11562C154.52 1.11562 154.253 1.17619 154.021 1.3024C153.788 1.42355 153.596 1.59013 153.435 1.7971C153.278 2.00407 153.157 2.23124 153.077 2.48364C152.996 2.73604 152.955 2.99349 152.955 3.26104Z" fill="#1B3764"/>
<path d="M160.72 6.46684V0.0507812H163.557C163.855 0.0507812 164.122 0.111358 164.375 0.232511C164.622 0.353664 164.839 0.515201 165.026 0.722171C165.207 0.929141 165.349 1.1563 165.45 1.4087C165.551 1.66111 165.601 1.91856 165.601 2.1861C165.601 2.4587 165.556 2.71615 165.46 2.96855C165.364 3.22095 165.233 3.43802 165.056 3.6248C164.879 3.81157 164.677 3.95797 164.44 4.05893L165.904 6.47189H164.531L163.213 4.32143H161.967V6.47189H160.72V6.46684ZM161.967 3.22095H163.531C163.688 3.22095 163.824 3.17552 163.945 3.07961C164.067 2.98874 164.162 2.86254 164.233 2.70605C164.304 2.54956 164.344 2.37288 164.344 2.18106C164.344 1.97409 164.304 1.7974 164.218 1.64091C164.132 1.48947 164.026 1.36327 163.895 1.27241C163.764 1.18154 163.627 1.13611 163.476 1.13611H161.967V3.22095Z" fill="#1B3764"/>
<path d="M172.996 5.37647V6.47189H168.539V0.0507812H172.916V1.14621H169.791V2.69091H172.492V3.70556H169.791V5.37647H172.996Z" fill="#1B3764"/>
<path d="M179.609 4.53293V3.4375H182.35V4.53293H179.609Z" fill="#1B3764"/>
<path d="M128.569 28.6071C128.614 28.5365 128.675 28.4708 128.74 28.4254L128.745 28.4102C129.538 27.6783 130.472 27.1937 131.522 26.6788C132.602 26.1538 133.647 25.6187 134.616 24.8312C136.272 23.4884 137.731 21.5802 139.215 18.8341C139.932 17.5014 140.568 16.1385 141.158 14.8613C141.224 14.72 141.194 14.5635 141.078 14.4877C140.967 14.412 140.729 14.4019 140.598 14.5736C139.311 16.2748 137.544 17.35 135.823 18.4C135.404 18.6574 134.97 18.9199 134.551 19.1875C133.647 19.768 132.486 20.5706 131.507 21.6307C130.502 22.7211 129.684 24.1043 128.937 25.9771C128.675 26.6384 128.417 27.3401 128.18 28.0518C128.165 28.0771 128.15 28.1023 128.135 28.1276C128.129 28.1326 128.129 28.1326 128.124 28.1377C128.079 28.1831 128.049 28.2437 128.034 28.3042C127.524 29.1977 127.069 30.1215 126.65 31.0605C126.655 30.9848 126.666 30.904 126.671 30.8283C126.837 28.8494 126.736 27.2997 126.358 25.9519C125.989 24.6394 125.363 23.5036 124.858 22.6555C124.626 22.2617 124.374 21.873 124.131 21.4843C123.147 19.9346 122.132 18.3293 121.779 16.3252C121.744 16.1233 121.537 16.0425 121.405 16.0779C121.274 16.1132 121.183 16.2394 121.178 16.3959C121.133 17.774 121.087 19.2481 121.128 20.717C121.204 23.7509 121.618 26.0074 122.43 27.8146C122.905 28.8696 123.546 29.7278 124.222 30.5809C124.879 31.4138 125.454 32.1862 125.802 33.1352L125.792 33.2109C125.444 34.1499 125.131 35.0989 124.843 36.053C124.571 36.9616 124.318 37.8804 124.081 38.7991C124.051 38.6325 124.02 38.4609 123.99 38.2994C123.682 36.6991 123.213 35.4876 122.511 34.4881C121.83 33.5189 120.921 32.7415 120.209 32.171C119.881 31.9085 119.533 31.646 119.194 31.3835C117.831 30.3487 116.423 29.2785 115.585 27.7591C115.504 27.6076 115.287 27.5874 115.166 27.6379C115.1 27.6631 115.05 27.7136 115.02 27.7792C114.989 27.8398 114.984 27.9105 115 27.9761C115.282 29.0766 115.59 30.2528 115.979 31.4088C116.781 33.8016 117.741 35.5078 118.987 36.7799C119.714 37.522 120.573 38.0722 121.456 38.6224C122.319 39.1525 123.081 39.6522 123.662 40.3337L123.672 40.4448C123.314 41.9441 122.975 43.4484 122.627 44.9527C122.45 45.7149 122.274 46.4772 122.087 47.2344C122.082 47.2193 122.082 47.2041 122.077 47.189C121.835 45.8361 121.456 44.8164 120.881 43.9835C120.325 43.1707 119.578 42.5195 118.998 42.045C118.73 41.8279 118.447 41.6109 118.175 41.3989L118.165 41.3888C117.049 40.5306 115.898 39.6371 115.222 38.37C115.146 38.2287 114.954 38.2186 114.853 38.264C114.737 38.3145 114.671 38.4458 114.702 38.572C114.924 39.5008 115.171 40.4852 115.484 41.4594C116.13 43.4686 116.908 44.9022 117.927 45.9673C118.523 46.5883 119.225 47.0476 119.957 47.5019C120.628 47.9209 121.219 48.3147 121.683 48.8397C121.244 50.5106 120.744 52.1663 120.143 53.7918C119.639 55.1497 119.048 56.4774 118.372 57.7545C118.473 58.0019 118.574 58.2543 118.675 58.5067C119.265 57.4516 119.795 56.3562 120.26 55.2305C121.436 52.3784 122.243 49.395 122.955 46.4116C123.051 46.0077 123.147 45.5988 123.243 45.1899C124.081 45.1193 124.899 45.296 125.802 45.5231C126.761 45.7654 127.7 45.9774 128.71 45.9472C130.436 45.8967 132.314 45.296 134.606 44.0541C135.717 43.4534 136.792 42.777 137.791 42.1409C137.908 42.0652 137.963 41.9188 137.928 41.7876C137.892 41.6513 137.731 41.4998 137.559 41.5554C135.903 42.1005 134.228 41.8734 132.602 41.6563C132.203 41.6008 131.794 41.5453 131.396 41.5049C130.527 41.414 129.381 41.3383 128.23 41.5705C127.049 41.8128 125.848 42.3933 124.449 43.3979C124.131 43.6301 123.803 43.8724 123.48 44.1299C123.945 42.1005 124.404 40.0662 124.944 38.052L125.025 37.9359C125.923 37.4715 126.867 37.2898 127.912 37.1131C128.988 36.9364 130.043 36.7345 131.103 36.2751C132.92 35.4876 134.742 34.0994 136.847 31.9085C137.867 30.8485 138.826 29.7328 139.72 28.6828C139.821 28.5667 139.836 28.4052 139.765 28.2941C139.69 28.178 139.483 28.0973 139.321 28.2235C137.706 29.4703 135.873 29.965 134.096 30.4547C133.662 30.5708 133.213 30.697 132.774 30.8283C131.83 31.111 130.598 31.5299 129.442 32.2518C128.256 32.9939 127.135 34.0742 125.923 35.6441C125.762 35.8561 125.6 36.0732 125.439 36.2902C126.196 33.746 127.135 31.2472 128.407 28.9201C128.453 28.804 128.508 28.7081 128.569 28.6071ZM136.923 21.3783C136.161 22.4586 135.353 23.3774 134.525 24.0992C133.541 24.9574 132.466 25.5329 131.542 25.9872L131.375 26.068C130.866 26.3153 130.305 26.5879 129.76 26.911C130.825 25.6187 132.133 24.6242 133.4 23.7105C133.531 23.6146 133.657 23.5237 133.788 23.4329L133.819 23.4127C134.566 22.8776 135.338 22.3223 136.07 21.7115C136.736 21.1562 137.322 20.5858 137.847 19.98C137.534 20.4747 137.231 20.9391 136.923 21.3783ZM131.729 22.3173C132.991 20.8331 134.616 19.8488 136.186 18.8896C136.741 18.5514 137.317 18.2031 137.867 17.8346C138.387 17.4863 138.852 17.1481 139.265 16.8098C138.912 17.4106 138.559 17.9608 138.2 18.4757C137.544 19.4146 136.767 20.2728 135.888 21.03C135.106 21.7064 134.258 22.3173 133.44 22.9028C132.516 23.5641 131.562 24.2507 130.684 25.0432C130.26 25.4269 129.876 25.8105 129.528 26.2043C129.992 25.0331 130.689 23.5338 131.729 22.3173ZM121.724 38.0873L121.587 38.0015C120.825 37.5321 119.952 36.9414 119.225 36.1388C118.609 35.4573 118.054 34.6294 117.574 33.6703C117.402 33.3321 117.241 32.9737 117.084 32.6001C117.423 33.1049 117.821 33.5946 118.286 34.0792C118.831 34.6547 119.432 35.1898 120.012 35.7097L120.335 36.0025C121.284 36.8556 122.259 37.7794 122.965 38.9001C122.551 38.5972 122.122 38.3297 121.724 38.0873ZM122.567 37.3402C121.915 36.6032 121.178 35.9369 120.467 35.2958C119.831 34.7254 119.179 34.1398 118.594 33.5037C117.943 32.792 117.402 32.0095 116.988 31.1816C116.776 30.7525 116.575 30.2982 116.383 29.8086C116.686 30.1165 117.024 30.4244 117.412 30.7475C117.847 31.1059 118.301 31.4542 118.745 31.7874C119.997 32.7364 121.294 33.7208 122.153 35.0585C122.839 36.1287 123.172 37.3756 123.364 38.3599C123.132 38.0217 122.869 37.6835 122.567 37.3402ZM120.204 47.0123L120.093 46.9416C119.472 46.5529 118.755 46.0633 118.16 45.3969C117.66 44.8315 117.206 44.1349 116.817 43.3323C116.706 43.1001 116.6 42.8577 116.494 42.6053C116.746 42.9739 117.039 43.3323 117.372 43.6907C117.821 44.1702 118.311 44.6195 118.786 45.0536L119.048 45.296C119.8 45.9875 120.568 46.7296 121.138 47.6281C120.825 47.401 120.502 47.1991 120.204 47.0123ZM120.906 46.3762C120.376 45.7553 119.77 45.2051 119.184 44.67C118.664 44.1955 118.129 43.7058 117.655 43.1758C117.125 42.5852 116.686 41.9289 116.352 41.2323C116.191 40.8991 116.044 40.5457 115.898 40.1671C116.13 40.3993 116.388 40.6417 116.675 40.884C117.029 41.1818 117.407 41.4746 117.766 41.7522C118.791 42.5397 119.851 43.3575 120.547 44.4782C121.082 45.3363 121.35 46.3409 121.501 47.1536C121.33 46.8962 121.128 46.6387 120.906 46.3762ZM128.034 42.2469C129.568 41.8532 131.103 42.0652 132.592 42.2671C133.117 42.3378 133.662 42.4135 134.197 42.459C134.682 42.4993 135.126 42.5145 135.545 42.5044C135.045 42.7467 134.571 42.9537 134.106 43.1303C133.228 43.4635 132.304 43.6604 131.37 43.721C130.532 43.7765 129.689 43.7412 128.867 43.7058C127.943 43.6654 126.994 43.6251 126.035 43.7109C125.595 43.7513 125.181 43.8118 124.783 43.9027C125.646 43.2818 126.802 42.565 128.034 42.2469ZM128.442 44.3267C128.579 44.3318 128.715 44.3368 128.851 44.3419H128.867C129.614 44.3722 130.381 44.4075 131.153 44.3722C131.81 44.3419 132.425 44.2611 133.021 44.1248C132.627 44.3065 132.244 44.4681 131.87 44.6044C130.85 44.983 129.886 45.2101 128.993 45.2758C127.938 45.3515 126.958 45.1496 126.141 44.9476L125.994 44.9123C125.56 44.8012 125.086 44.6851 124.596 44.6044C125.893 44.2611 127.201 44.2762 128.442 44.3267ZM129.427 32.9737C130.951 31.9338 132.632 31.4744 134.263 31.0302C134.838 30.8737 135.434 30.7122 136.015 30.5254C136.545 30.3588 137.019 30.1771 137.463 29.9852C136.989 30.4446 136.534 30.8535 136.08 31.2321C135.232 31.9338 134.308 32.5244 133.334 32.9838C132.461 33.3977 131.557 33.7258 130.679 34.0439C129.694 34.4023 128.675 34.7708 127.685 35.2655C127.226 35.4927 126.802 35.735 126.403 35.9975C127.15 35.0282 128.19 33.8217 129.427 32.9737ZM130.406 34.8112L130.855 34.6496C131.653 34.3619 132.481 34.059 133.284 33.6955C133.98 33.3826 134.621 33.0292 135.222 32.6355C134.838 32.9939 134.465 33.327 134.091 33.635C133.112 34.4427 132.143 35.0787 131.219 35.5229C130.123 36.0479 129.033 36.2751 128.109 36.4316L127.943 36.4568C127.448 36.5376 126.908 36.6285 126.363 36.7648C127.66 35.8612 129.068 35.3059 130.406 34.8112ZM124.616 30.0711L124.515 29.9398C123.94 29.2028 123.283 28.2992 122.829 27.1735C122.445 26.2194 122.158 25.0987 121.976 23.8418C121.91 23.3673 121.855 22.8675 121.814 22.3425C121.991 23.0391 122.228 23.7307 122.531 24.4324C122.885 25.2451 123.288 26.0225 123.687 26.7747L123.909 27.1987C124.571 28.4658 125.232 29.8237 125.575 31.3634C125.267 30.8939 124.924 30.4648 124.616 30.0711ZM126.07 30.7778C125.949 30.3134 125.797 29.854 125.616 29.3744C125.217 28.3396 124.712 27.3804 124.227 26.4516C123.793 25.6288 123.349 24.7757 122.98 23.8822C122.572 22.8826 122.284 21.8226 122.132 20.7372C122.052 20.1517 121.991 19.5408 121.951 18.8846C122.148 19.3238 122.385 19.7781 122.657 20.2577C122.96 20.7827 123.293 21.3077 123.611 21.8074C124.515 23.231 125.449 24.6999 125.873 26.5021C126.211 27.9559 126.171 29.5511 126.07 30.7778Z" fill="#1B3764"/>
<path d="M83.1008 64.786H84.6202L83.232 71.3283H86.9978L86.7202 72.6711H81.4248L83.1008 64.786Z" fill="#1B3764"/>
<path d="M92.8179 72.7819C92.2576 72.7819 91.7932 72.6709 91.4348 72.4538C91.0763 72.2317 90.8088 71.9389 90.6422 71.5704C90.4756 71.2019 90.3848 70.793 90.3848 70.3437C90.3848 69.8743 90.4706 69.43 90.6473 69.006C90.8189 68.582 91.0663 68.2034 91.3843 67.8752C91.7023 67.5471 92.0809 67.2897 92.51 67.1029C92.9441 66.9161 93.4186 66.8202 93.9386 66.8202C94.4989 66.8202 94.9633 66.9312 95.3218 67.1483C95.6802 67.3704 95.9477 67.6632 96.1143 68.0267C96.2859 68.3952 96.3717 68.8041 96.3717 69.2584C96.3717 69.7279 96.2859 70.1721 96.1092 70.5961C95.9326 71.0202 95.6903 71.3988 95.3722 71.7269C95.0542 72.055 94.6756 72.3125 94.2465 72.4992C93.8124 72.6911 93.3379 72.7819 92.8179 72.7819ZM93.04 71.5149C93.2672 71.5149 93.4893 71.4644 93.7064 71.3634C93.9184 71.2625 94.1102 71.1161 94.2768 70.9293C94.4434 70.7425 94.5746 70.5204 94.6756 70.263C94.7766 70.0105 94.827 69.7329 94.827 69.4351C94.827 69.1675 94.7867 68.9303 94.7008 68.7284C94.615 68.5264 94.4888 68.3649 94.3222 68.2538C94.1557 68.1428 93.9537 68.0872 93.7165 68.0872C93.4843 68.0872 93.2672 68.1377 93.0552 68.2387C92.8432 68.3397 92.6513 68.486 92.4848 68.6728C92.3182 68.8596 92.1819 69.0868 92.0809 69.3442C91.9799 69.6017 91.9295 69.8793 91.9295 70.1771C91.9295 70.4396 91.9698 70.6718 92.0557 70.8738C92.1415 71.0757 92.2677 71.2372 92.4343 71.3483C92.6009 71.4593 92.8028 71.5149 93.04 71.5149Z" fill="#1B3764"/>
<path d="M101.572 72.7827C101.097 72.7827 100.653 72.707 100.234 72.5505C99.8151 72.394 99.4819 72.1719 99.2295 71.8842L99.9716 70.9503C100.254 71.1926 100.542 71.3794 100.84 71.5106C101.138 71.6419 101.435 71.7025 101.738 71.7025C101.945 71.7025 102.122 71.6722 102.273 71.6116C102.42 71.551 102.536 71.4703 102.617 71.3642C102.697 71.2582 102.738 71.1421 102.738 71.0058C102.738 70.8241 102.657 70.6878 102.496 70.602C102.334 70.5162 102.077 70.4203 101.728 70.3193C101.345 70.1931 101.027 70.077 100.779 69.9609C100.532 69.8498 100.35 69.7135 100.229 69.557C100.113 69.4006 100.052 69.1986 100.052 68.9614C100.052 68.5525 100.168 68.189 100.401 67.8659C100.633 67.5429 100.951 67.2905 101.345 67.1037C101.738 66.9169 102.183 66.826 102.672 66.826C103.096 66.826 103.47 66.8917 103.803 67.0229C104.136 67.1542 104.434 67.3561 104.691 67.6287L103.904 68.5272C103.667 68.3051 103.44 68.1436 103.222 68.0426C103.005 67.9417 102.763 67.8912 102.506 67.8912C102.314 67.8912 102.142 67.9164 101.991 67.972C101.839 68.0275 101.718 68.1083 101.632 68.2143C101.541 68.3203 101.501 68.4515 101.501 68.603C101.501 68.7695 101.572 68.8907 101.708 68.9664C101.844 69.0421 102.082 69.133 102.425 69.234C102.839 69.3501 103.182 69.4712 103.445 69.6025C103.712 69.7287 103.909 69.8801 104.045 70.0568C104.177 70.2335 104.247 70.4556 104.247 70.7231C104.247 71.127 104.136 71.4803 103.914 71.7883C103.692 72.0962 103.379 72.3385 102.98 72.5152C102.571 72.6919 102.102 72.7827 101.572 72.7827Z" fill="#1B3764"/>
<path d="M116.62 64.786H117.988L119.133 72.6711H117.558L117.362 70.7074H114.742L113.707 72.6711H112.132L116.62 64.786ZM117.24 69.6271L116.927 66.5276L115.297 69.6271H117.24Z" fill="#1B3764"/>
<path d="M123.838 66.906H125.181L124.949 67.9812C125.141 67.7339 125.363 67.5219 125.62 67.3502C125.878 67.1786 126.155 67.0474 126.453 66.9565C126.751 66.8656 127.064 66.8202 127.382 66.8202C127.72 66.8202 127.988 66.8808 128.17 66.9969C128.356 67.113 128.488 67.2745 128.563 67.4764C128.639 67.6784 128.679 67.9005 128.679 68.1529C128.679 68.3043 128.669 68.4608 128.644 68.6122C128.624 68.7637 128.594 68.9252 128.568 69.0868L127.801 72.6759H126.312L126.998 69.4603C127.029 69.3493 127.049 69.2483 127.059 69.1524C127.069 69.0565 127.074 68.9656 127.074 68.8798C127.074 68.6223 127.019 68.4356 126.902 68.3144C126.786 68.1933 126.635 68.1327 126.443 68.1327C126.266 68.1327 126.075 68.1832 125.868 68.2841C125.661 68.3851 125.464 68.5264 125.277 68.7031C125.09 68.8798 124.939 69.0868 124.813 69.3139L124.091 72.6759H122.602L123.838 66.906Z" fill="#1B3764"/>
<path d="M133.688 75.1495C133.082 75.1495 132.592 75.0435 132.213 74.8314C131.84 74.6194 131.547 74.3216 131.33 73.9379L132.309 73.1504C132.456 73.423 132.673 73.6401 132.956 73.7966C133.238 73.9531 133.561 74.0288 133.92 74.0288C134.207 74.0288 134.485 73.9733 134.753 73.8572C135.02 73.7461 135.252 73.5694 135.459 73.3322C135.661 73.0949 135.803 72.792 135.873 72.4185L136.03 71.6915C135.777 72.0399 135.469 72.3125 135.101 72.4992C134.732 72.6911 134.364 72.7819 133.995 72.7819C133.587 72.7819 133.238 72.6759 132.945 72.469C132.653 72.262 132.431 71.9793 132.284 71.631C132.138 71.2827 132.062 70.8889 132.062 70.4548C132.062 69.9752 132.148 69.5108 132.325 69.0767C132.496 68.6375 132.738 68.2538 133.046 67.9156C133.354 67.5774 133.708 67.3099 134.101 67.113C134.495 66.9161 134.914 66.8202 135.348 66.8202C135.777 66.8202 136.131 66.9212 136.408 67.1231C136.686 67.325 136.893 67.5976 137.024 67.9308L137.236 66.906H138.549L137.362 72.4134C137.246 72.9839 137.009 73.4786 136.651 73.8824C136.292 74.2862 135.863 74.6043 135.353 74.8213C134.844 75.0384 134.288 75.1495 133.688 75.1495ZM134.768 71.5956C134.914 71.5956 135.061 71.5704 135.207 71.5149C135.353 71.4593 135.49 71.3887 135.626 71.2928C135.757 71.2019 135.883 71.0908 135.994 70.9646C136.106 70.8384 136.201 70.7072 136.282 70.5759L136.57 69.1978C136.54 68.9707 136.469 68.7738 136.358 68.6072C136.247 68.4406 136.111 68.3094 135.954 68.2185C135.798 68.1276 135.621 68.0822 135.429 68.0822C135.187 68.0822 134.955 68.1478 134.743 68.274C134.525 68.4002 134.334 68.5668 134.167 68.7687C134 68.9707 133.864 69.2029 133.768 69.4553C133.672 69.7077 133.622 69.9702 133.622 70.2327C133.622 70.48 133.672 70.7072 133.768 70.9192C133.864 71.1312 134 71.2978 134.172 71.4139C134.334 71.5351 134.536 71.5956 134.768 71.5956Z" fill="#1B3764"/>
<path d="M144.006 72.7821C143.516 72.7821 143.092 72.6761 142.733 72.4691C142.375 72.2621 142.102 71.9694 141.911 71.6009C141.719 71.2323 141.628 70.8134 141.628 70.3439C141.628 69.8694 141.719 69.4201 141.906 68.991C142.092 68.5619 142.35 68.1934 142.683 67.8653C143.016 67.5372 143.405 67.2848 143.849 67.098C144.293 66.9112 144.773 66.8153 145.293 66.8153C145.717 66.8153 146.08 66.8759 146.393 67.0021C146.706 67.1283 146.944 67.31 147.115 67.5473C147.287 67.7845 147.373 68.0773 147.373 68.4206C147.373 69.0314 147.095 69.4908 146.535 69.8088C145.974 70.1268 145.136 70.2833 144.021 70.2833C143.799 70.2833 143.556 70.2783 143.299 70.2682C143.041 70.2581 142.759 70.2379 142.456 70.2076L142.643 69.2737C142.91 69.2939 143.152 69.3141 143.375 69.3242C143.597 69.3343 143.814 69.3393 144.031 69.3393C144.51 69.3393 144.894 69.309 145.167 69.2434C145.444 69.1778 145.646 69.0819 145.772 68.9607C145.899 68.8396 145.959 68.6932 145.959 68.5266C145.959 68.3802 145.924 68.2641 145.848 68.1732C145.772 68.0824 145.671 68.0117 145.545 67.9663C145.414 67.9208 145.263 67.8956 145.086 67.8956C144.798 67.8956 144.531 67.9612 144.293 68.0975C144.051 68.2338 143.844 68.4155 143.667 68.6477C143.491 68.88 143.354 69.1475 143.258 69.4453C143.163 69.7432 143.112 70.0612 143.112 70.3944C143.112 70.6417 143.152 70.8638 143.238 71.0658C143.324 71.2677 143.45 71.4191 143.622 71.5302C143.794 71.6412 144.011 71.6917 144.278 71.6917C144.576 71.6917 144.854 71.621 145.116 71.4797C145.379 71.3383 145.591 71.1415 145.742 70.8891L146.918 71.2576C146.726 71.5554 146.474 71.8179 146.161 72.0451C145.848 72.2722 145.51 72.454 145.141 72.5852C144.768 72.7165 144.389 72.7821 144.006 72.7821Z" fill="#1B3764"/>
<path d="M151.689 72.7825C151.32 72.7825 151.032 72.6967 150.825 72.52C150.623 72.3434 150.522 72.096 150.522 71.7679C150.522 71.7023 150.528 71.6316 150.538 71.5609C150.548 71.4902 150.558 71.4196 150.568 71.3439L152.012 64.5643H153.491L152.168 70.8239C152.163 70.8592 152.153 70.8996 152.153 70.935C152.148 70.9703 152.148 71.0107 152.148 71.046C152.148 71.3489 152.299 71.5003 152.602 71.5003C152.683 71.5003 152.779 71.4852 152.885 71.4549C152.991 71.4246 153.092 71.3893 153.188 71.3439L153.142 72.4746C152.935 72.5705 152.693 72.6462 152.421 72.6967C152.148 72.7472 151.906 72.7825 151.689 72.7825Z" fill="#1B3764"/>
<path d="M158.62 72.7827C158.145 72.7827 157.701 72.707 157.282 72.5505C156.863 72.394 156.53 72.1719 156.277 71.8842L157.019 70.9503C157.302 71.1926 157.59 71.3794 157.888 71.5106C158.186 71.6419 158.483 71.7025 158.786 71.7025C158.993 71.7025 159.17 71.6722 159.321 71.6116C159.468 71.551 159.584 71.4703 159.665 71.3642C159.745 71.2582 159.786 71.1421 159.786 71.0058C159.786 70.8241 159.705 70.6878 159.543 70.602C159.382 70.5162 159.124 70.4203 158.776 70.3193C158.392 70.1931 158.074 70.077 157.827 69.9609C157.58 69.8498 157.398 69.7135 157.277 69.557C157.161 69.4006 157.1 69.1986 157.1 68.9614C157.1 68.5525 157.216 68.189 157.448 67.8659C157.681 67.5429 157.999 67.2905 158.392 67.1037C158.786 66.9169 159.23 66.826 159.72 66.826C160.144 66.826 160.518 66.8917 160.851 67.0229C161.184 67.1542 161.482 67.3561 161.739 67.6287L160.952 68.5272C160.715 68.3051 160.487 68.1436 160.27 68.0426C160.053 67.9417 159.811 67.8912 159.554 67.8912C159.362 67.8912 159.19 67.9164 159.039 67.972C158.887 68.0275 158.766 68.1083 158.68 68.2143C158.589 68.3203 158.549 68.4515 158.549 68.603C158.549 68.7695 158.62 68.8907 158.756 68.9664C158.892 69.0421 159.129 69.133 159.473 69.234C159.887 69.3501 160.23 69.4712 160.492 69.6025C160.76 69.7287 160.957 69.8801 161.093 70.0568C161.224 70.2335 161.295 70.4556 161.295 70.7231C161.295 71.127 161.184 71.4803 160.962 71.7883C160.74 72.0962 160.427 72.3385 160.028 72.5152C159.619 72.6919 159.155 72.7827 158.62 72.7827Z" fill="#1B3764"/>
<path d="M164.597 72.6713L164.94 71.071H166.162L165.818 72.6713H164.597Z" fill="#1B3764"/>
</svg>
