<svg width="252" height="209" viewBox="0 0 252 209" fill="none" xmlns="http://www.w3.org/2000/svg">
<path d="M6.26356 173H4.60163L9.40845 159.909H11.0448L15.8516 173H14.1897L10.2778 161.98H10.1755L6.26356 173ZM6.8772 167.886H13.5761V169.293H6.8772V167.886ZM23.8972 159.909V173H22.3886V159.909H23.8972ZM30.4688 173.205C29.5824 173.205 28.8047 172.994 28.1357 172.572C27.4709 172.15 26.951 171.56 26.576 170.801C26.2053 170.043 26.0199 169.156 26.0199 168.142C26.0199 167.119 26.2053 166.227 26.576 165.464C26.951 164.701 27.4709 164.109 28.1357 163.687C28.8047 163.265 29.5824 163.054 30.4688 163.054C31.3551 163.054 32.1307 163.265 32.7955 163.687C33.4645 164.109 33.9844 164.701 34.3551 165.464C34.7301 166.227 34.9176 167.119 34.9176 168.142C34.9176 169.156 34.7301 170.043 34.3551 170.801C33.9844 171.56 33.4645 172.15 32.7955 172.572C32.1307 172.994 31.3551 173.205 30.4688 173.205ZM30.4688 171.849C31.1421 171.849 31.696 171.677 32.1307 171.332C32.5654 170.987 32.8871 170.533 33.0959 169.97C33.3047 169.408 33.4091 168.798 33.4091 168.142C33.4091 167.486 33.3047 166.874 33.0959 166.308C32.8871 165.741 32.5654 165.283 32.1307 164.933C31.696 164.584 31.1421 164.409 30.4688 164.409C29.7955 164.409 29.2415 164.584 28.8068 164.933C28.3722 165.283 28.0504 165.741 27.8416 166.308C27.6328 166.874 27.5284 167.486 27.5284 168.142C27.5284 168.798 27.6328 169.408 27.8416 169.97C28.0504 170.533 28.3722 170.987 28.8068 171.332C29.2415 171.677 29.7955 171.849 30.4688 171.849ZM38.5489 167.094V173H37.0404V163.182H38.4978V164.716H38.6256C38.8557 164.217 39.2051 163.817 39.6739 163.514C40.1426 163.207 40.7478 163.054 41.4892 163.054C42.154 163.054 42.7357 163.19 43.2343 163.463C43.7328 163.732 44.1206 164.141 44.3976 164.69C44.6746 165.236 44.8131 165.926 44.8131 166.761V173H43.3046V166.864C43.3046 166.092 43.1043 165.491 42.7037 165.061C42.3031 164.626 41.7534 164.409 41.0546 164.409C40.573 164.409 40.1426 164.513 39.7634 164.722C39.3884 164.931 39.0922 165.236 38.8749 165.636C38.6576 166.037 38.5489 166.523 38.5489 167.094ZM51.3527 176.886C50.624 176.886 49.9976 176.793 49.4735 176.605C48.9493 176.422 48.5125 176.179 48.1631 175.876C47.8179 175.578 47.5431 175.259 47.3385 174.918L48.5402 174.074C48.6766 174.253 48.8492 174.457 49.058 174.688C49.2668 174.922 49.5523 175.124 49.9145 175.295C50.281 175.469 50.7604 175.557 51.3527 175.557C52.1453 175.557 52.7995 175.365 53.3151 174.982C53.8307 174.598 54.0885 173.997 54.0885 173.179V171.185H53.9607C53.8499 171.364 53.6922 171.585 53.4877 171.849C53.2874 172.109 52.9976 172.342 52.6184 172.546C52.2434 172.746 51.7363 172.847 51.097 172.847C50.3044 172.847 49.5928 172.659 48.9621 172.284C48.3357 171.909 47.8392 171.364 47.4728 170.648C47.1105 169.932 46.9294 169.062 46.9294 168.04C46.9294 167.034 47.1063 166.158 47.46 165.413C47.8137 164.663 48.3059 164.083 48.9365 163.674C49.5672 163.261 50.2959 163.054 51.1226 163.054C51.7618 163.054 52.2689 163.161 52.6439 163.374C53.0232 163.582 53.313 163.821 53.5132 164.089C53.7178 164.354 53.8755 164.571 53.9863 164.741H54.1397V163.182H55.597V173.281C55.597 174.125 55.4053 174.811 55.0218 175.339C54.6425 175.872 54.1311 176.262 53.4877 176.509C52.8485 176.761 52.1368 176.886 51.3527 176.886ZM51.3016 171.491C51.9067 171.491 52.4181 171.353 52.8357 171.076C53.2533 170.799 53.5708 170.401 53.7881 169.881C54.0054 169.361 54.1141 168.739 54.1141 168.014C54.1141 167.307 54.0076 166.683 53.7945 166.141C53.5814 165.6 53.2661 165.176 52.8485 164.869C52.4309 164.562 51.9152 164.409 51.3016 164.409C50.6624 164.409 50.1297 164.571 49.7036 164.895C49.2817 165.219 48.9642 165.653 48.7512 166.199C48.5424 166.744 48.438 167.349 48.438 168.014C48.438 168.696 48.5445 169.299 48.7576 169.823C48.9749 170.343 49.2945 170.752 49.7164 171.05C50.1425 171.344 50.6709 171.491 51.3016 171.491ZM67.1774 173.205C66.2314 173.205 65.4153 172.996 64.7292 172.578C64.0474 172.156 63.5211 171.568 63.1504 170.814C62.7839 170.055 62.6007 169.173 62.6007 168.168C62.6007 167.162 62.7839 166.276 63.1504 165.509C63.5211 164.737 64.0368 164.136 64.6973 163.706C65.3621 163.271 66.1376 163.054 67.024 163.054C67.5353 163.054 68.0403 163.139 68.5389 163.31C69.0375 163.48 69.4913 163.757 69.9004 164.141C70.3095 164.52 70.6355 165.023 70.8784 165.649C71.1213 166.276 71.2427 167.047 71.2427 167.963V168.602H63.6746V167.298H69.7086C69.7086 166.744 69.5978 166.25 69.3763 165.815C69.1589 165.381 68.8478 165.038 68.443 164.786C68.0424 164.535 67.5694 164.409 67.024 164.409C66.4231 164.409 65.9032 164.558 65.4643 164.857C65.0297 165.151 64.6951 165.534 64.4608 166.007C64.2264 166.48 64.1092 166.987 64.1092 167.528V168.398C64.1092 169.139 64.2371 169.768 64.4927 170.283C64.7527 170.795 65.1128 171.185 65.573 171.453C66.0332 171.717 66.568 171.849 67.1774 171.849C67.5737 171.849 67.9317 171.794 68.2513 171.683C68.5751 171.568 68.8542 171.398 69.0886 171.172C69.323 170.942 69.5041 170.656 69.6319 170.315L71.0893 170.724C70.9359 171.219 70.6781 171.653 70.3159 172.028C69.9537 172.399 69.5062 172.689 68.9736 172.898C68.4409 173.102 67.8422 173.205 67.1774 173.205ZM80.312 165.381L78.9569 165.764C78.8717 165.538 78.746 165.319 78.5798 165.106C78.4178 164.888 78.1963 164.71 77.915 164.569C77.6338 164.428 77.2737 164.358 76.8347 164.358C76.2339 164.358 75.7332 164.496 75.3326 164.773C74.9363 165.046 74.7382 165.393 74.7382 165.815C74.7382 166.19 74.8745 166.487 75.1472 166.704C75.42 166.921 75.8461 167.102 76.4257 167.247L77.883 167.605C78.7609 167.818 79.415 168.144 79.8454 168.583C80.2758 169.018 80.491 169.578 80.491 170.264C80.491 170.827 80.3291 171.33 80.0052 171.773C79.6856 172.216 79.2382 172.565 78.6629 172.821C78.0876 173.077 77.4186 173.205 76.6558 173.205C75.6543 173.205 74.8255 172.987 74.1693 172.553C73.513 172.118 73.0975 171.483 72.9228 170.648L74.3546 170.29C74.491 170.818 74.7488 171.214 75.1281 171.479C75.5116 171.743 76.0123 171.875 76.6302 171.875C77.3333 171.875 77.8916 171.726 78.3049 171.428C78.7225 171.125 78.9313 170.763 78.9313 170.341C78.9313 170 78.812 169.714 78.5734 169.484C78.3347 169.25 77.9683 169.075 77.474 168.96L75.8376 168.577C74.9384 168.364 74.2779 168.033 73.8561 167.586C73.4384 167.134 73.2296 166.57 73.2296 165.892C73.2296 165.338 73.3852 164.848 73.6963 164.422C74.0116 163.996 74.4399 163.661 74.9811 163.418C75.5265 163.175 76.1444 163.054 76.8347 163.054C77.8063 163.054 78.5691 163.267 79.1231 163.693C79.6813 164.119 80.0776 164.682 80.312 165.381ZM86.8517 163.182V164.46H81.7636V163.182H86.8517ZM83.2465 160.83H84.7551V170.188C84.7551 170.614 84.8169 170.933 84.9404 171.146C85.0683 171.355 85.2302 171.496 85.4262 171.568C85.6265 171.636 85.8375 171.67 86.059 171.67C86.2252 171.67 86.3616 171.662 86.4681 171.645C86.5747 171.624 86.6599 171.607 86.7238 171.594L87.0306 172.949C86.9284 172.987 86.7856 173.026 86.6024 173.064C86.4191 173.107 86.1869 173.128 85.9056 173.128C85.4795 173.128 85.0619 173.036 84.6528 172.853C84.248 172.67 83.9113 172.391 83.6428 172.016C83.3786 171.641 83.2465 171.168 83.2465 170.597V160.83ZM91.83 173.23C91.2079 173.23 90.6432 173.113 90.1361 172.879C89.629 172.64 89.2263 172.297 88.928 171.849C88.6298 171.398 88.4806 170.852 88.4806 170.213C88.4806 169.651 88.5914 169.195 88.813 168.845C89.0346 168.491 89.3307 168.214 89.7015 168.014C90.0722 167.814 90.4813 167.665 90.9288 167.567C91.3805 167.464 91.8343 167.384 92.2903 167.324C92.8869 167.247 93.3705 167.19 93.7413 167.151C94.1163 167.109 94.389 167.038 94.5594 166.94C94.7342 166.842 94.8215 166.672 94.8215 166.429V166.378C94.8215 165.747 94.6489 165.257 94.3038 164.908C93.9628 164.558 93.4451 164.384 92.7505 164.384C92.0303 164.384 91.4657 164.541 91.0566 164.857C90.6475 165.172 90.3599 165.509 90.1937 165.866L88.7619 165.355C89.0175 164.759 89.3584 164.294 89.7846 163.962C90.215 163.625 90.6837 163.391 91.1908 163.259C91.7022 163.122 92.205 163.054 92.6994 163.054C93.0147 163.054 93.3769 163.092 93.786 163.169C94.1994 163.241 94.5978 163.393 94.9813 163.623C95.3691 163.853 95.6908 164.2 95.9465 164.665C96.2022 165.129 96.33 165.751 96.33 166.531V173H94.8215V171.67H94.7448C94.6425 171.884 94.4721 172.112 94.2334 172.354C93.9948 172.597 93.6773 172.804 93.281 172.974C92.8847 173.145 92.4011 173.23 91.83 173.23ZM92.0602 171.875C92.6567 171.875 93.1596 171.758 93.5687 171.523C93.982 171.289 94.2931 170.987 94.5019 170.616C94.715 170.245 94.8215 169.855 94.8215 169.446V168.065C94.7576 168.142 94.617 168.212 94.3996 168.276C94.1866 168.336 93.9394 168.389 93.6582 168.436C93.3812 168.479 93.1106 168.517 92.8464 168.551C92.5864 168.581 92.3755 168.607 92.2136 168.628C91.8215 168.679 91.455 168.762 91.1141 168.877C90.7775 168.988 90.5048 169.156 90.2959 169.382C90.0914 169.604 89.9891 169.906 89.9891 170.29C89.9891 170.814 90.183 171.21 90.5708 171.479C90.9628 171.743 91.4593 171.875 92.0602 171.875ZM99.108 173V159.909H100.616V164.741H100.744C100.855 164.571 101.009 164.354 101.205 164.089C101.405 163.821 101.69 163.582 102.061 163.374C102.436 163.161 102.943 163.054 103.582 163.054C104.409 163.054 105.138 163.261 105.768 163.674C106.399 164.087 106.891 164.673 107.245 165.432C107.599 166.19 107.776 167.085 107.776 168.116C107.776 169.156 107.599 170.058 107.245 170.82C106.891 171.579 106.401 172.167 105.775 172.585C105.148 172.998 104.426 173.205 103.608 173.205C102.977 173.205 102.472 173.1 102.093 172.891C101.714 172.678 101.422 172.437 101.217 172.169C101.013 171.896 100.855 171.67 100.744 171.491H100.565V173H99.108ZM100.591 168.091C100.591 168.832 100.7 169.487 100.917 170.053C101.134 170.616 101.452 171.057 101.869 171.376C102.287 171.692 102.798 171.849 103.403 171.849C104.034 171.849 104.56 171.683 104.982 171.351C105.408 171.014 105.728 170.562 105.941 169.996C106.158 169.425 106.267 168.79 106.267 168.091C106.267 167.401 106.161 166.778 105.947 166.224C105.739 165.666 105.421 165.225 104.995 164.901C104.573 164.573 104.043 164.409 103.403 164.409C102.79 164.409 102.274 164.565 101.857 164.876C101.439 165.183 101.124 165.613 100.911 166.167C100.697 166.717 100.591 167.358 100.591 168.091ZM111.412 159.909V173H109.903V159.909H111.412ZM113.995 173V163.182H115.503V173H113.995ZM114.762 161.545C114.468 161.545 114.214 161.445 114.001 161.245C113.792 161.045 113.688 160.804 113.688 160.523C113.688 160.241 113.792 160.001 114.001 159.8C114.214 159.6 114.468 159.5 114.762 159.5C115.056 159.5 115.307 159.6 115.516 159.8C115.729 160.001 115.835 160.241 115.835 160.523C115.835 160.804 115.729 161.045 115.516 161.245C115.307 161.445 115.056 161.545 114.762 161.545ZM125.041 165.381L123.686 165.764C123.6 165.538 123.475 165.319 123.308 165.106C123.146 164.888 122.925 164.71 122.644 164.569C122.362 164.428 122.002 164.358 121.563 164.358C120.962 164.358 120.462 164.496 120.061 164.773C119.665 165.046 119.467 165.393 119.467 165.815C119.467 166.19 119.603 166.487 119.876 166.704C120.149 166.921 120.575 167.102 121.154 167.247L122.612 167.605C123.489 167.818 124.144 168.144 124.574 168.583C125.004 169.018 125.22 169.578 125.22 170.264C125.22 170.827 125.058 171.33 124.734 171.773C124.414 172.216 123.967 172.565 123.391 172.821C122.816 173.077 122.147 173.205 121.384 173.205C120.383 173.205 119.554 172.987 118.898 172.553C118.242 172.118 117.826 171.483 117.651 170.648L119.083 170.29C119.22 170.818 119.477 171.214 119.857 171.479C120.24 171.743 120.741 171.875 121.359 171.875C122.062 171.875 122.62 171.726 123.034 171.428C123.451 171.125 123.66 170.763 123.66 170.341C123.66 170 123.541 169.714 123.302 169.484C123.063 169.25 122.697 169.075 122.203 168.96L120.566 168.577C119.667 168.364 119.007 168.033 118.585 167.586C118.167 167.134 117.958 166.57 117.958 165.892C117.958 165.338 118.114 164.848 118.425 164.422C118.74 163.996 119.168 163.661 119.71 163.418C120.255 163.175 120.873 163.054 121.563 163.054C122.535 163.054 123.298 163.267 123.852 163.693C124.41 164.119 124.806 164.682 125.041 165.381ZM128.819 167.094V173H127.31V159.909H128.819V164.716H128.947C129.177 164.209 129.522 163.806 129.982 163.508C130.447 163.205 131.065 163.054 131.836 163.054C132.505 163.054 133.091 163.188 133.594 163.457C134.097 163.721 134.487 164.128 134.763 164.678C135.045 165.223 135.185 165.918 135.185 166.761V173H133.677V166.864C133.677 166.084 133.474 165.481 133.07 165.055C132.669 164.624 132.113 164.409 131.401 164.409C130.907 164.409 130.464 164.513 130.072 164.722C129.684 164.931 129.377 165.236 129.151 165.636C128.93 166.037 128.819 166.523 128.819 167.094ZM141.882 173.205C140.936 173.205 140.12 172.996 139.433 172.578C138.752 172.156 138.225 171.568 137.855 170.814C137.488 170.055 137.305 169.173 137.305 168.168C137.305 167.162 137.488 166.276 137.855 165.509C138.225 164.737 138.741 164.136 139.401 163.706C140.066 163.271 140.842 163.054 141.728 163.054C142.24 163.054 142.745 163.139 143.243 163.31C143.742 163.48 144.196 163.757 144.605 164.141C145.014 164.52 145.34 165.023 145.583 165.649C145.825 166.276 145.947 167.047 145.947 167.963V168.602H138.379V167.298H144.413C144.413 166.744 144.302 166.25 144.08 165.815C143.863 165.381 143.552 165.038 143.147 164.786C142.747 164.535 142.274 164.409 141.728 164.409C141.127 164.409 140.607 164.558 140.169 164.857C139.734 165.151 139.399 165.534 139.165 166.007C138.931 166.48 138.813 166.987 138.813 167.528V168.398C138.813 169.139 138.941 169.768 139.197 170.283C139.457 170.795 139.817 171.185 140.277 171.453C140.737 171.717 141.272 171.849 141.882 171.849C142.278 171.849 142.636 171.794 142.955 171.683C143.279 171.568 143.558 171.398 143.793 171.172C144.027 170.942 144.208 170.656 144.336 170.315L145.794 170.724C145.64 171.219 145.382 171.653 145.02 172.028C144.658 172.399 144.21 172.689 143.678 172.898C143.145 173.102 142.546 173.205 141.882 173.205ZM151.769 173.205C150.951 173.205 150.229 172.998 149.602 172.585C148.976 172.167 148.486 171.579 148.132 170.82C147.778 170.058 147.601 169.156 147.601 168.116C147.601 167.085 147.778 166.19 148.132 165.432C148.486 164.673 148.978 164.087 149.609 163.674C150.239 163.261 150.968 163.054 151.795 163.054C152.434 163.054 152.939 163.161 153.31 163.374C153.685 163.582 153.97 163.821 154.166 164.089C154.366 164.354 154.522 164.571 154.633 164.741H154.761V159.909H156.269V173H154.812V171.491H154.633C154.522 171.67 154.364 171.896 154.16 172.169C153.955 172.437 153.663 172.678 153.284 172.891C152.905 173.1 152.4 173.205 151.769 173.205ZM151.974 171.849C152.579 171.849 153.09 171.692 153.508 171.376C153.925 171.057 154.243 170.616 154.46 170.053C154.677 169.487 154.786 168.832 154.786 168.091C154.786 167.358 154.68 166.717 154.467 166.167C154.253 165.613 153.938 165.183 153.521 164.876C153.103 164.565 152.587 164.409 151.974 164.409C151.334 164.409 150.802 164.573 150.376 164.901C149.954 165.225 149.636 165.666 149.423 166.224C149.214 166.778 149.11 167.401 149.11 168.091C149.11 168.79 149.217 169.425 149.43 169.996C149.647 170.562 149.967 171.014 150.388 171.351C150.815 171.683 151.343 171.849 151.974 171.849ZM168.316 163.182V164.46H163.023V163.182H168.316ZM164.609 173V161.827C164.609 161.264 164.741 160.795 165.005 160.42C165.269 160.045 165.612 159.764 166.034 159.577C166.456 159.389 166.901 159.295 167.37 159.295C167.741 159.295 168.043 159.325 168.278 159.385C168.512 159.445 168.687 159.5 168.802 159.551L168.367 160.855C168.29 160.83 168.184 160.798 168.048 160.759C167.915 160.721 167.741 160.702 167.523 160.702C167.025 160.702 166.665 160.827 166.443 161.079C166.226 161.33 166.117 161.699 166.117 162.185V173H164.609ZM172.858 173.23C172.236 173.23 171.671 173.113 171.164 172.879C170.657 172.64 170.254 172.297 169.956 171.849C169.658 171.398 169.509 170.852 169.509 170.213C169.509 169.651 169.62 169.195 169.841 168.845C170.063 168.491 170.359 168.214 170.73 168.014C171.1 167.814 171.509 167.665 171.957 167.567C172.409 167.464 172.862 167.384 173.318 167.324C173.915 167.247 174.399 167.19 174.769 167.151C175.144 167.109 175.417 167.038 175.588 166.94C175.762 166.842 175.85 166.672 175.85 166.429V166.378C175.85 165.747 175.677 165.257 175.332 164.908C174.991 164.558 174.473 164.384 173.779 164.384C173.058 164.384 172.494 164.541 172.085 164.857C171.676 165.172 171.388 165.509 171.222 165.866L169.79 165.355C170.046 164.759 170.387 164.294 170.813 163.962C171.243 163.625 171.712 163.391 172.219 163.259C172.73 163.122 173.233 163.054 173.727 163.054C174.043 163.054 174.405 163.092 174.814 163.169C175.227 163.241 175.626 163.393 176.009 163.623C176.397 163.853 176.719 164.2 176.975 164.665C177.23 165.129 177.358 165.751 177.358 166.531V173H175.85V171.67H175.773C175.671 171.884 175.5 172.112 175.262 172.354C175.023 172.597 174.705 172.804 174.309 172.974C173.913 173.145 173.429 173.23 172.858 173.23ZM173.088 171.875C173.685 171.875 174.188 171.758 174.597 171.523C175.01 171.289 175.321 170.987 175.53 170.616C175.743 170.245 175.85 169.855 175.85 169.446V168.065C175.786 168.142 175.645 168.212 175.428 168.276C175.215 168.336 174.968 168.389 174.686 168.436C174.409 168.479 174.139 168.517 173.874 168.551C173.615 168.581 173.404 168.607 173.242 168.628C172.85 168.679 172.483 168.762 172.142 168.877C171.806 168.988 171.533 169.156 171.324 169.382C171.12 169.604 171.017 169.906 171.017 170.29C171.017 170.814 171.211 171.21 171.599 171.479C171.991 171.743 172.487 171.875 173.088 171.875ZM183.92 173.205C183 173.205 182.207 172.987 181.542 172.553C180.878 172.118 180.366 171.519 180.008 170.756C179.65 169.994 179.471 169.122 179.471 168.142C179.471 167.145 179.655 166.265 180.021 165.502C180.392 164.735 180.907 164.136 181.568 163.706C182.233 163.271 183.008 163.054 183.895 163.054C184.585 163.054 185.207 163.182 185.761 163.438C186.315 163.693 186.769 164.051 187.123 164.511C187.476 164.972 187.696 165.509 187.781 166.122H186.272C186.157 165.675 185.902 165.278 185.505 164.933C185.113 164.584 184.585 164.409 183.92 164.409C183.332 164.409 182.816 164.562 182.373 164.869C181.934 165.172 181.591 165.6 181.344 166.154C181.101 166.704 180.98 167.349 180.98 168.091C180.98 168.849 181.099 169.51 181.338 170.072C181.581 170.635 181.922 171.072 182.361 171.383C182.804 171.694 183.324 171.849 183.92 171.849C184.312 171.849 184.668 171.781 184.988 171.645C185.307 171.509 185.578 171.312 185.799 171.057C186.021 170.801 186.179 170.494 186.272 170.136H187.781C187.696 170.716 187.485 171.238 187.148 171.702C186.816 172.163 186.375 172.529 185.825 172.802C185.28 173.07 184.645 173.205 183.92 173.205ZM194.076 163.182V164.46H188.988V163.182H194.076ZM190.471 160.83H191.98V170.188C191.98 170.614 192.041 170.933 192.165 171.146C192.293 171.355 192.455 171.496 192.651 171.568C192.851 171.636 193.062 171.67 193.283 171.67C193.45 171.67 193.586 171.662 193.693 171.645C193.799 171.624 193.884 171.607 193.948 171.594L194.255 172.949C194.153 172.987 194.01 173.026 193.827 173.064C193.644 173.107 193.411 173.128 193.13 173.128C192.704 173.128 192.286 173.036 191.877 172.853C191.472 172.67 191.136 172.391 190.867 172.016C190.603 171.641 190.471 171.168 190.471 170.597V160.83ZM205.318 163.182V164.46H200.23V163.182H205.318ZM201.713 160.83H203.221V170.188C203.221 170.614 203.283 170.933 203.406 171.146C203.534 171.355 203.696 171.496 203.892 171.568C204.093 171.636 204.303 171.67 204.525 171.67C204.691 171.67 204.828 171.662 204.934 171.645C205.041 171.624 205.126 171.607 205.19 171.594L205.497 172.949C205.394 172.987 205.252 173.026 205.068 173.064C204.885 173.107 204.653 173.128 204.372 173.128C203.946 173.128 203.528 173.036 203.119 172.853C202.714 172.67 202.377 172.391 202.109 172.016C201.845 171.641 201.713 171.168 201.713 170.597V160.83ZM209.126 167.094V173H207.618V159.909H209.126V164.716H209.254C209.484 164.209 209.829 163.806 210.29 163.508C210.754 163.205 211.372 163.054 212.143 163.054C212.812 163.054 213.398 163.188 213.901 163.457C214.404 163.721 214.794 164.128 215.071 164.678C215.352 165.223 215.493 165.918 215.493 166.761V173H213.984V166.864C213.984 166.084 213.782 165.481 213.377 165.055C212.976 164.624 212.42 164.409 211.709 164.409C211.214 164.409 210.771 164.513 210.379 164.722C209.991 164.931 209.685 165.236 209.459 165.636C209.237 166.037 209.126 166.523 209.126 167.094ZM220.962 173.23C220.34 173.23 219.775 173.113 219.268 172.879C218.761 172.64 218.358 172.297 218.06 171.849C217.761 171.398 217.612 170.852 217.612 170.213C217.612 169.651 217.723 169.195 217.945 168.845C218.166 168.491 218.462 168.214 218.833 168.014C219.204 167.814 219.613 167.665 220.06 167.567C220.512 167.464 220.966 167.384 221.422 167.324C222.019 167.247 222.502 167.19 222.873 167.151C223.248 167.109 223.521 167.038 223.691 166.94C223.866 166.842 223.953 166.672 223.953 166.429V166.378C223.953 165.747 223.781 165.257 223.435 164.908C223.095 164.558 222.577 164.384 221.882 164.384C221.162 164.384 220.597 164.541 220.188 164.857C219.779 165.172 219.492 165.509 219.325 165.866L217.894 165.355C218.149 164.759 218.49 164.294 218.916 163.962C219.347 163.625 219.815 163.391 220.323 163.259C220.834 163.122 221.337 163.054 221.831 163.054C222.146 163.054 222.509 163.092 222.918 163.169C223.331 163.241 223.73 163.393 224.113 163.623C224.501 163.853 224.823 164.2 225.078 164.665C225.334 165.129 225.462 165.751 225.462 166.531V173H223.953V171.67H223.877C223.774 171.884 223.604 172.112 223.365 172.354C223.127 172.597 222.809 172.804 222.413 172.974C222.016 173.145 221.533 173.23 220.962 173.23ZM221.192 171.875C221.788 171.875 222.291 171.758 222.7 171.523C223.114 171.289 223.425 170.987 223.634 170.616C223.847 170.245 223.953 169.855 223.953 169.446V168.065C223.889 168.142 223.749 168.212 223.531 168.276C223.318 168.336 223.071 168.389 222.79 168.436C222.513 168.479 222.242 168.517 221.978 168.551C221.718 168.581 221.507 168.607 221.345 168.628C220.953 168.679 220.587 168.762 220.246 168.877C219.909 168.988 219.636 169.156 219.428 169.382C219.223 169.604 219.121 169.906 219.121 170.29C219.121 170.814 219.315 171.21 219.703 171.479C220.095 171.743 220.591 171.875 221.192 171.875ZM232.305 163.182V164.46H227.217V163.182H232.305ZM228.7 160.83H230.208V170.188C230.208 170.614 230.27 170.933 230.394 171.146C230.522 171.355 230.684 171.496 230.88 171.568C231.08 171.636 231.291 171.67 231.512 171.67C231.679 171.67 231.815 171.662 231.921 171.645C232.028 171.624 232.113 171.607 232.177 171.594L232.484 172.949C232.382 172.987 232.239 173.026 232.056 173.064C231.872 173.107 231.64 173.128 231.359 173.128C230.933 173.128 230.515 173.036 230.106 172.853C229.701 172.67 229.365 172.391 229.096 172.016C228.832 171.641 228.7 171.168 228.7 170.597V160.83ZM242.166 173.23C241.544 173.23 240.979 173.113 240.472 172.879C239.965 172.64 239.562 172.297 239.264 171.849C238.966 171.398 238.816 170.852 238.816 170.213C238.816 169.651 238.927 169.195 239.149 168.845C239.37 168.491 239.667 168.214 240.037 168.014C240.408 167.814 240.817 167.665 241.265 167.567C241.716 167.464 242.17 167.384 242.626 167.324C243.223 167.247 243.706 167.19 244.077 167.151C244.452 167.109 244.725 167.038 244.895 166.94C245.07 166.842 245.157 166.672 245.157 166.429V166.378C245.157 165.747 244.985 165.257 244.64 164.908C244.299 164.558 243.781 164.384 243.086 164.384C242.366 164.384 241.802 164.541 241.392 164.857C240.983 165.172 240.696 165.509 240.53 165.866L239.098 165.355C239.353 164.759 239.694 164.294 240.12 163.962C240.551 163.625 241.02 163.391 241.527 163.259C242.038 163.122 242.541 163.054 243.035 163.054C243.351 163.054 243.713 163.092 244.122 163.169C244.535 163.241 244.934 163.393 245.317 163.623C245.705 163.853 246.027 164.2 246.282 164.665C246.538 165.129 246.666 165.751 246.666 166.531V173H245.157V171.67H245.081C244.978 171.884 244.808 172.112 244.569 172.354C244.331 172.597 244.013 172.804 243.617 172.974C243.221 173.145 242.737 173.23 242.166 173.23ZM242.396 171.875C242.993 171.875 243.495 171.758 243.905 171.523C244.318 171.289 244.629 170.987 244.838 170.616C245.051 170.245 245.157 169.855 245.157 169.446V168.065C245.093 168.142 244.953 168.212 244.736 168.276C244.522 168.336 244.275 168.389 243.994 168.436C243.717 168.479 243.446 168.517 243.182 168.551C242.922 168.581 242.711 168.607 242.549 168.628C242.157 168.679 241.791 168.762 241.45 168.877C241.113 168.988 240.841 169.156 240.632 169.382C240.427 169.604 240.325 169.906 240.325 170.29C240.325 170.814 240.519 171.21 240.907 171.479C241.299 171.743 241.795 171.875 242.396 171.875ZM26.5006 204L23.5091 194.182H25.0944L27.2165 201.699H27.3188L29.4154 194.182H31.0262L33.0972 201.673H33.1995L35.3216 194.182H36.9069L33.9154 204H32.4324L30.2847 196.457H30.1313L27.9836 204H26.5006ZM40.2297 198.094V204H38.7212V190.909H40.2297V195.716H40.3576C40.5877 195.209 40.9328 194.806 41.3931 194.508C41.8576 194.205 42.4755 194.054 43.2468 194.054C43.9158 194.054 44.5017 194.188 45.0046 194.457C45.5074 194.721 45.8973 195.128 46.1743 195.678C46.4556 196.223 46.5962 196.918 46.5962 197.761V204H45.0877V197.864C45.0877 197.084 44.8853 196.481 44.4804 196.055C44.0799 195.624 43.5237 195.409 42.8121 195.409C42.3178 195.409 41.8746 195.513 41.4826 195.722C41.0948 195.931 40.788 196.236 40.5621 196.636C40.3405 197.037 40.2297 197.523 40.2297 198.094ZM53.1646 204.205C52.2782 204.205 51.5005 203.994 50.8315 203.572C50.1667 203.15 49.6468 202.56 49.2718 201.801C48.9011 201.043 48.7157 200.156 48.7157 199.142C48.7157 198.119 48.9011 197.227 49.2718 196.464C49.6468 195.701 50.1667 195.109 50.8315 194.687C51.5005 194.265 52.2782 194.054 53.1646 194.054C54.051 194.054 54.8265 194.265 55.4913 194.687C56.1603 195.109 56.6802 195.701 57.051 196.464C57.426 197.227 57.6135 198.119 57.6135 199.142C57.6135 200.156 57.426 201.043 57.051 201.801C56.6802 202.56 56.1603 203.15 55.4913 203.572C54.8265 203.994 54.051 204.205 53.1646 204.205ZM53.1646 202.849C53.8379 202.849 54.3919 202.677 54.8265 202.332C55.2612 201.987 55.5829 201.533 55.7917 200.97C56.0005 200.408 56.1049 199.798 56.1049 199.142C56.1049 198.486 56.0005 197.874 55.7917 197.308C55.5829 196.741 55.2612 196.283 54.8265 195.933C54.3919 195.584 53.8379 195.409 53.1646 195.409C52.4913 195.409 51.9373 195.584 51.5027 195.933C51.068 196.283 50.7463 196.741 50.5375 197.308C50.3287 197.874 50.2243 198.486 50.2243 199.142C50.2243 199.798 50.3287 200.408 50.5375 200.97C50.7463 201.533 51.068 201.987 51.5027 202.332C51.9373 202.677 52.4913 202.849 53.1646 202.849ZM66.1272 190.909V204H64.6187V190.909H66.1272ZM72.6988 204.205C71.8124 204.205 71.0347 203.994 70.3657 203.572C69.7009 203.15 69.1811 202.56 68.8061 201.801C68.4353 201.043 68.2499 200.156 68.2499 199.142C68.2499 198.119 68.4353 197.227 68.8061 196.464C69.1811 195.701 69.7009 195.109 70.3657 194.687C71.0347 194.265 71.8124 194.054 72.6988 194.054C73.5852 194.054 74.3607 194.265 75.0255 194.687C75.6945 195.109 76.2144 195.701 76.5852 196.464C76.9602 197.227 77.1477 198.119 77.1477 199.142C77.1477 200.156 76.9602 201.043 76.5852 201.801C76.2144 202.56 75.6945 203.15 75.0255 203.572C74.3607 203.994 73.5852 204.205 72.6988 204.205ZM72.6988 202.849C73.3721 202.849 73.9261 202.677 74.3607 202.332C74.7954 201.987 75.1171 201.533 75.3259 200.97C75.5347 200.408 75.6392 199.798 75.6392 199.142C75.6392 198.486 75.5347 197.874 75.3259 197.308C75.1171 196.741 74.7954 196.283 74.3607 195.933C73.9261 195.584 73.3721 195.409 72.6988 195.409C72.0255 195.409 71.4715 195.584 71.0369 195.933C70.6022 196.283 70.2805 196.741 70.0717 197.308C69.8629 197.874 69.7585 198.486 69.7585 199.142C69.7585 199.798 69.8629 200.408 70.0717 200.97C70.2805 201.533 70.6022 201.987 71.0369 202.332C71.4715 202.677 72.0255 202.849 72.6988 202.849ZM83.259 204.205C82.3727 204.205 81.595 203.994 80.9259 203.572C80.2612 203.15 79.7413 202.56 79.3663 201.801C78.9955 201.043 78.8102 200.156 78.8102 199.142C78.8102 198.119 78.9955 197.227 79.3663 196.464C79.7413 195.701 80.2612 195.109 80.9259 194.687C81.595 194.265 82.3727 194.054 83.259 194.054C84.1454 194.054 84.921 194.265 85.5857 194.687C86.2548 195.109 86.7747 195.701 87.1454 196.464C87.5204 197.227 87.7079 198.119 87.7079 199.142C87.7079 200.156 87.5204 201.043 87.1454 201.801C86.7747 202.56 86.2548 203.15 85.5857 203.572C84.921 203.994 84.1454 204.205 83.259 204.205ZM83.259 202.849C83.9323 202.849 84.4863 202.677 84.921 202.332C85.3556 201.987 85.6774 201.533 85.8862 200.97C86.095 200.408 86.1994 199.798 86.1994 199.142C86.1994 198.486 86.095 197.874 85.8862 197.308C85.6774 196.741 85.3556 196.283 84.921 195.933C84.4863 195.584 83.9323 195.409 83.259 195.409C82.5857 195.409 82.0318 195.584 81.5971 195.933C81.1625 196.283 80.8407 196.741 80.6319 197.308C80.4231 197.874 80.3187 198.486 80.3187 199.142C80.3187 199.798 80.4231 200.408 80.6319 200.97C80.8407 201.533 81.1625 201.987 81.5971 202.332C82.0318 202.677 82.5857 202.849 83.259 202.849ZM91.2369 200.42L91.2113 198.554H91.5181L95.8136 194.182H97.6801L93.1034 198.81H92.9755L91.2369 200.42ZM89.8306 204V190.909H91.3392V204H89.8306ZM96.0693 204L92.234 199.142L93.3079 198.094L97.9869 204H96.0693ZM99.4417 204V194.182H100.95V204H99.4417ZM100.209 192.545C99.9147 192.545 99.6611 192.445 99.448 192.245C99.2392 192.045 99.1348 191.804 99.1348 191.523C99.1348 191.241 99.2392 191.001 99.448 190.8C99.6611 190.6 99.9147 190.5 100.209 190.5C100.503 190.5 100.754 190.6 100.963 190.8C101.176 191.001 101.283 191.241 101.283 191.523C101.283 191.804 101.176 192.045 100.963 192.245C100.754 192.445 100.503 192.545 100.209 192.545ZM105.042 198.094V204H103.533V194.182H104.991V195.716H105.118C105.348 195.217 105.698 194.817 106.167 194.514C106.635 194.207 107.241 194.054 107.982 194.054C108.647 194.054 109.228 194.19 109.727 194.463C110.226 194.732 110.613 195.141 110.89 195.69C111.167 196.236 111.306 196.926 111.306 197.761V204H109.797V197.864C109.797 197.092 109.597 196.491 109.196 196.061C108.796 195.626 108.246 195.409 107.547 195.409C107.066 195.409 106.635 195.513 106.256 195.722C105.881 195.931 105.585 196.236 105.368 196.636C105.15 197.037 105.042 197.523 105.042 198.094ZM117.846 207.886C117.117 207.886 116.49 207.793 115.966 207.605C115.442 207.422 115.005 207.179 114.656 206.876C114.311 206.578 114.036 206.259 113.831 205.918L115.033 205.074C115.169 205.253 115.342 205.457 115.551 205.688C115.76 205.922 116.045 206.124 116.407 206.295C116.774 206.469 117.253 206.557 117.846 206.557C118.638 206.557 119.292 206.365 119.808 205.982C120.323 205.598 120.581 204.997 120.581 204.179V202.185H120.453C120.343 202.364 120.185 202.585 119.98 202.849C119.78 203.109 119.49 203.342 119.111 203.546C118.736 203.746 118.229 203.847 117.59 203.847C116.797 203.847 116.086 203.659 115.455 203.284C114.828 202.909 114.332 202.364 113.966 201.648C113.603 200.932 113.422 200.062 113.422 199.04C113.422 198.034 113.599 197.158 113.953 196.413C114.306 195.663 114.799 195.083 115.429 194.674C116.06 194.261 116.789 194.054 117.615 194.054C118.255 194.054 118.762 194.161 119.137 194.374C119.516 194.582 119.806 194.821 120.006 195.089C120.211 195.354 120.368 195.571 120.479 195.741H120.632V194.182H122.09V204.281C122.09 205.125 121.898 205.811 121.515 206.339C121.135 206.872 120.624 207.262 119.98 207.509C119.341 207.761 118.63 207.886 117.846 207.886ZM117.794 202.491C118.399 202.491 118.911 202.353 119.328 202.076C119.746 201.799 120.064 201.401 120.281 200.881C120.498 200.361 120.607 199.739 120.607 199.014C120.607 198.307 120.5 197.683 120.287 197.141C120.074 196.6 119.759 196.176 119.341 195.869C118.924 195.562 118.408 195.409 117.794 195.409C117.155 195.409 116.622 195.571 116.196 195.895C115.774 196.219 115.457 196.653 115.244 197.199C115.035 197.744 114.931 198.349 114.931 199.014C114.931 199.696 115.037 200.299 115.25 200.823C115.468 201.343 115.787 201.752 116.209 202.05C116.635 202.344 117.164 202.491 117.794 202.491ZM132.443 204.23C131.821 204.23 131.256 204.113 130.749 203.879C130.242 203.64 129.839 203.297 129.541 202.849C129.243 202.398 129.093 201.852 129.093 201.213C129.093 200.651 129.204 200.195 129.426 199.845C129.647 199.491 129.944 199.214 130.314 199.014C130.685 198.814 131.094 198.665 131.542 198.567C131.993 198.464 132.447 198.384 132.903 198.324C133.5 198.247 133.983 198.19 134.354 198.151C134.729 198.109 135.002 198.038 135.172 197.94C135.347 197.842 135.434 197.672 135.434 197.429V197.378C135.434 196.747 135.262 196.257 134.917 195.908C134.576 195.558 134.058 195.384 133.363 195.384C132.643 195.384 132.079 195.541 131.669 195.857C131.26 196.172 130.973 196.509 130.807 196.866L129.375 196.355C129.63 195.759 129.971 195.294 130.397 194.962C130.828 194.625 131.297 194.391 131.804 194.259C132.315 194.122 132.818 194.054 133.312 194.054C133.628 194.054 133.99 194.092 134.399 194.169C134.812 194.241 135.211 194.393 135.594 194.623C135.982 194.853 136.304 195.2 136.559 195.665C136.815 196.129 136.943 196.751 136.943 197.531V204H135.434V202.67H135.358C135.255 202.884 135.085 203.112 134.846 203.354C134.608 203.597 134.29 203.804 133.894 203.974C133.498 204.145 133.014 204.23 132.443 204.23ZM132.673 202.875C133.27 202.875 133.772 202.758 134.182 202.523C134.595 202.289 134.906 201.987 135.115 201.616C135.328 201.245 135.434 200.855 135.434 200.446V199.065C135.37 199.142 135.23 199.212 135.012 199.276C134.799 199.336 134.552 199.389 134.271 199.436C133.994 199.479 133.723 199.517 133.459 199.551C133.199 199.581 132.988 199.607 132.826 199.628C132.434 199.679 132.068 199.762 131.727 199.877C131.39 199.988 131.118 200.156 130.909 200.382C130.704 200.604 130.602 200.906 130.602 201.29C130.602 201.814 130.796 202.21 131.184 202.479C131.576 202.743 132.072 202.875 132.673 202.875ZM143.786 194.182V195.46H138.698V194.182H143.786ZM140.181 191.83H141.69V201.188C141.69 201.614 141.751 201.933 141.875 202.146C142.003 202.355 142.165 202.496 142.361 202.568C142.561 202.636 142.772 202.67 142.994 202.67C143.16 202.67 143.296 202.662 143.403 202.645C143.509 202.624 143.594 202.607 143.658 202.594L143.965 203.949C143.863 203.987 143.72 204.026 143.537 204.064C143.354 204.107 143.121 204.128 142.84 204.128C142.414 204.128 141.996 204.036 141.587 203.853C141.182 203.67 140.846 203.391 140.577 203.016C140.313 202.641 140.181 202.168 140.181 201.597V191.83ZM150.758 204V194.182H152.266V204H150.758ZM151.525 192.545C151.231 192.545 150.977 192.445 150.764 192.245C150.555 192.045 150.451 191.804 150.451 191.523C150.451 191.241 150.555 191.001 150.764 190.8C150.977 190.6 151.231 190.5 151.525 190.5C151.819 190.5 152.07 190.6 152.279 190.8C152.492 191.001 152.599 191.241 152.599 191.523C152.599 191.804 152.492 192.045 152.279 192.245C152.07 192.445 151.819 192.545 151.525 192.545ZM159.119 194.182V195.46H154.031V194.182H159.119ZM155.514 191.83H157.023V201.188C157.023 201.614 157.084 201.933 157.208 202.146C157.336 202.355 157.498 202.496 157.694 202.568C157.894 202.636 158.105 202.67 158.327 202.67C158.493 202.67 158.629 202.662 158.736 202.645C158.842 202.624 158.927 202.607 158.991 202.594L159.298 203.949C159.196 203.987 159.053 204.026 158.87 204.064C158.687 204.107 158.454 204.128 158.173 204.128C157.747 204.128 157.329 204.036 156.92 203.853C156.516 203.67 156.179 203.391 155.91 203.016C155.646 202.641 155.514 202.168 155.514 201.597V191.83ZM167.987 196.381L166.632 196.764C166.547 196.538 166.421 196.319 166.255 196.106C166.093 195.888 165.871 195.71 165.59 195.569C165.309 195.428 164.949 195.358 164.51 195.358C163.909 195.358 163.408 195.496 163.008 195.773C162.611 196.046 162.413 196.393 162.413 196.815C162.413 197.19 162.55 197.487 162.822 197.704C163.095 197.921 163.521 198.102 164.101 198.247L165.558 198.605C166.436 198.818 167.09 199.144 167.521 199.583C167.951 200.018 168.166 200.578 168.166 201.264C168.166 201.827 168.004 202.33 167.68 202.773C167.361 203.216 166.913 203.565 166.338 203.821C165.763 204.077 165.094 204.205 164.331 204.205C163.329 204.205 162.501 203.987 161.844 203.553C161.188 203.118 160.773 202.483 160.598 201.648L162.03 201.29C162.166 201.818 162.424 202.214 162.803 202.479C163.187 202.743 163.687 202.875 164.305 202.875C165.008 202.875 165.567 202.726 165.98 202.428C166.398 202.125 166.606 201.763 166.606 201.341C166.606 201 166.487 200.714 166.249 200.484C166.01 200.25 165.643 200.075 165.149 199.96L163.513 199.577C162.614 199.364 161.953 199.033 161.531 198.586C161.114 198.134 160.905 197.57 160.905 196.892C160.905 196.338 161.06 195.848 161.371 195.422C161.687 194.996 162.115 194.661 162.656 194.418C163.202 194.175 163.82 194.054 164.51 194.054C165.481 194.054 166.244 194.267 166.798 194.693C167.356 195.119 167.753 195.682 167.987 196.381ZM176.648 190.909V204H175.139V190.909H176.648ZM182.12 204.23C181.498 204.23 180.933 204.113 180.426 203.879C179.919 203.64 179.516 203.297 179.218 202.849C178.92 202.398 178.771 201.852 178.771 201.213C178.771 200.651 178.881 200.195 179.103 199.845C179.325 199.491 179.621 199.214 179.992 199.014C180.362 198.814 180.771 198.665 181.219 198.567C181.671 198.464 182.124 198.384 182.58 198.324C183.177 198.247 183.661 198.19 184.031 198.151C184.406 198.109 184.679 198.038 184.849 197.94C185.024 197.842 185.112 197.672 185.112 197.429V197.378C185.112 196.747 184.939 196.257 184.594 195.908C184.253 195.558 183.735 195.384 183.041 195.384C182.32 195.384 181.756 195.541 181.347 195.857C180.938 196.172 180.65 196.509 180.484 196.866L179.052 196.355C179.308 195.759 179.648 195.294 180.075 194.962C180.505 194.625 180.974 194.391 181.481 194.259C181.992 194.122 182.495 194.054 182.989 194.054C183.305 194.054 183.667 194.092 184.076 194.169C184.489 194.241 184.888 194.393 185.271 194.623C185.659 194.853 185.981 195.2 186.237 195.665C186.492 196.129 186.62 196.751 186.62 197.531V204H185.112V202.67H185.035C184.933 202.884 184.762 203.112 184.523 203.354C184.285 203.597 183.967 203.804 183.571 203.974C183.175 204.145 182.691 204.23 182.12 204.23ZM182.35 202.875C182.947 202.875 183.45 202.758 183.859 202.523C184.272 202.289 184.583 201.987 184.792 201.616C185.005 201.245 185.112 200.855 185.112 200.446V199.065C185.048 199.142 184.907 199.212 184.69 199.276C184.477 199.336 184.229 199.389 183.948 199.436C183.671 199.479 183.401 199.517 183.136 199.551C182.876 199.581 182.666 199.607 182.504 199.628C182.112 199.679 181.745 199.762 181.404 199.877C181.068 199.988 180.795 200.156 180.586 200.382C180.381 200.604 180.279 200.906 180.279 201.29C180.279 201.814 180.473 202.21 180.861 202.479C181.253 202.743 181.749 202.875 182.35 202.875ZM189.813 207.682C189.558 207.682 189.33 207.661 189.13 207.618C188.929 207.58 188.791 207.541 188.714 207.503L189.098 206.173C189.464 206.267 189.788 206.301 190.069 206.276C190.35 206.25 190.6 206.124 190.817 205.898C191.039 205.677 191.241 205.317 191.424 204.818L191.706 204.051L188.075 194.182H189.711L192.421 202.006H192.524L195.234 194.182H196.87L192.703 205.432C192.515 205.939 192.283 206.359 192.006 206.691C191.729 207.028 191.407 207.277 191.041 207.439C190.679 207.601 190.269 207.682 189.813 207.682ZM202.318 204.205C201.432 204.205 200.654 203.994 199.985 203.572C199.321 203.15 198.801 202.56 198.426 201.801C198.055 201.043 197.87 200.156 197.87 199.142C197.87 198.119 198.055 197.227 198.426 196.464C198.801 195.701 199.321 195.109 199.985 194.687C200.654 194.265 201.432 194.054 202.318 194.054C203.205 194.054 203.98 194.265 204.645 194.687C205.314 195.109 205.834 195.701 206.205 196.464C206.58 197.227 206.767 198.119 206.767 199.142C206.767 200.156 206.58 201.043 206.205 201.801C205.834 202.56 205.314 203.15 204.645 203.572C203.98 203.994 203.205 204.205 202.318 204.205ZM202.318 202.849C202.992 202.849 203.546 202.677 203.98 202.332C204.415 201.987 204.737 201.533 204.946 200.97C205.154 200.408 205.259 199.798 205.259 199.142C205.259 198.486 205.154 197.874 204.946 197.308C204.737 196.741 204.415 196.283 203.98 195.933C203.546 195.584 202.992 195.409 202.318 195.409C201.645 195.409 201.091 195.584 200.657 195.933C200.222 196.283 199.9 196.741 199.691 197.308C199.483 197.874 199.378 198.486 199.378 199.142C199.378 199.798 199.483 200.408 199.691 200.97C199.9 201.533 200.222 201.987 200.657 202.332C201.091 202.677 201.645 202.849 202.318 202.849ZM215.078 199.986V194.182H216.586V204H215.078V202.338H214.975C214.745 202.837 214.387 203.261 213.901 203.61C213.416 203.955 212.802 204.128 212.061 204.128C211.447 204.128 210.901 203.994 210.424 203.725C209.947 203.452 209.572 203.043 209.299 202.498C209.026 201.948 208.89 201.256 208.89 200.42V194.182H210.399V200.318C210.399 201.034 210.599 201.605 210.999 202.031C211.404 202.457 211.92 202.67 212.546 202.67C212.921 202.67 213.303 202.575 213.691 202.383C214.083 202.191 214.411 201.897 214.675 201.501C214.943 201.104 215.078 200.599 215.078 199.986ZM223.439 194.182V195.46H218.351V194.182H223.439ZM219.834 191.83H221.342V201.188C221.342 201.614 221.404 201.933 221.528 202.146C221.656 202.355 221.818 202.496 222.014 202.568C222.214 202.636 222.425 202.67 222.646 202.67C222.813 202.67 222.949 202.662 223.055 202.645C223.162 202.624 223.247 202.607 223.311 202.594L223.618 203.949C223.516 203.987 223.373 204.026 223.19 204.064C223.006 204.107 222.774 204.128 222.493 204.128C222.067 204.128 221.649 204.036 221.24 203.853C220.835 203.67 220.499 203.391 220.23 203.016C219.966 202.641 219.834 202.168 219.834 201.597V191.83ZM226.628 204.102C226.312 204.102 226.042 203.989 225.816 203.763C225.59 203.538 225.477 203.267 225.477 202.952C225.477 202.636 225.59 202.366 225.816 202.14C226.042 201.914 226.312 201.801 226.628 201.801C226.943 201.801 227.214 201.914 227.439 202.14C227.665 202.366 227.778 202.636 227.778 202.952C227.778 203.161 227.725 203.352 227.618 203.527C227.516 203.702 227.378 203.842 227.203 203.949C227.032 204.051 226.841 204.102 226.628 204.102Z" fill="#969AA0"/>
<path d="M70.5694 134.863C70.5303 134.863 70.503 134.852 70.4873 134.828C70.4795 134.805 70.4756 134.785 70.4756 134.77V134.137C70.4756 134.121 70.4795 134.102 70.4873 134.078C70.4952 134.055 70.5225 134.043 70.5694 134.043H70.8506C70.8741 134.043 70.9483 134.039 71.0733 134.031C71.2061 134.016 71.3545 133.996 71.5186 133.973C71.6905 133.941 71.8662 133.902 72.0459 133.855C72.2256 133.809 72.378 133.75 72.503 133.68C72.7764 133.523 72.9795 133.324 73.1123 133.082C73.2452 132.832 73.3116 132.555 73.3116 132.25V120.555C73.3116 120.273 73.2178 120.043 73.0303 119.863C72.8506 119.684 72.6319 119.543 72.3741 119.441C72.1241 119.332 71.8662 119.258 71.6006 119.219C71.3428 119.18 71.1358 119.16 70.9795 119.16H70.7217C70.6827 119.16 70.6553 119.148 70.6397 119.125C70.6319 119.094 70.628 119.074 70.628 119.066V118.434C70.628 118.418 70.6319 118.398 70.6397 118.375C70.6553 118.352 70.6827 118.34 70.7217 118.34H79.71C79.7491 118.34 79.7725 118.352 79.7803 118.375C79.7959 118.398 79.8037 118.418 79.8037 118.434V119.066C79.8037 119.082 79.7959 119.102 79.7803 119.125C79.7725 119.148 79.7491 119.16 79.71 119.16H79.2061C78.7686 119.16 78.3623 119.195 77.9873 119.266C77.6123 119.336 77.3077 119.414 77.0733 119.5C76.8936 119.562 76.7764 119.668 76.7217 119.816C76.6748 119.957 76.6514 120.203 76.6514 120.555V132.848C76.667 132.98 76.7373 133.105 76.8623 133.223C76.9873 133.34 77.128 133.398 77.2842 133.398H81.3858C81.6592 133.398 81.917 133.34 82.1592 133.223C82.4092 133.105 82.6397 132.957 82.8506 132.777C83.0616 132.59 83.2569 132.387 83.4366 132.168C83.6162 131.949 83.7803 131.738 83.9287 131.535C84.0772 131.332 84.21 131.152 84.3272 130.996C84.4444 130.832 84.5459 130.715 84.6319 130.645C84.6709 130.621 84.7139 130.598 84.7608 130.574C84.8155 130.551 84.878 130.539 84.9483 130.539C85.0811 130.539 85.1475 130.59 85.1475 130.691C85.1475 130.738 85.1358 130.785 85.1123 130.832L83.167 134.652C83.1358 134.715 83.1006 134.766 83.0616 134.805C83.0225 134.844 82.9756 134.863 82.9209 134.863H70.5694ZM85.8802 129.391C85.8802 128.656 86.0403 127.953 86.3606 127.281C86.6888 126.609 87.1263 126.016 87.6731 125.5C88.22 124.984 88.8567 124.574 89.5833 124.27C90.3098 123.965 91.0755 123.812 91.8802 123.812C92.7239 123.812 93.5247 123.957 94.2825 124.246C95.0403 124.535 95.7044 124.934 96.2747 125.441C96.8528 125.941 97.3098 126.535 97.6458 127.223C97.9817 127.902 98.1497 128.641 98.1497 129.438C98.1497 130.25 97.9934 131.008 97.6809 131.711C97.3763 132.406 96.9505 133.012 96.4036 133.527C95.8567 134.043 95.2044 134.449 94.4466 134.746C93.6966 135.035 92.8763 135.18 91.9856 135.18C91.1028 135.18 90.2864 135.031 89.5364 134.734C88.7942 134.43 88.1497 134.02 87.6028 133.504C87.0638 132.98 86.6419 132.367 86.3372 131.664C86.0325 130.961 85.8802 130.203 85.8802 129.391ZM88.8802 128.652C88.8802 129.074 88.9114 129.512 88.9739 129.965C89.0364 130.41 89.1302 130.848 89.2552 131.277C89.3802 131.699 89.5364 132.098 89.7239 132.473C89.9192 132.848 90.1497 133.18 90.4153 133.469C90.6809 133.75 90.9817 133.973 91.3177 134.137C91.6536 134.301 92.0325 134.383 92.4544 134.383C92.9153 134.383 93.3098 134.266 93.638 134.031C93.9739 133.789 94.2473 133.477 94.4583 133.094C94.677 132.711 94.8372 132.281 94.9388 131.805C95.0403 131.328 95.0911 130.852 95.0911 130.375C95.0911 129.992 95.0559 129.59 94.9856 129.168C94.9153 128.738 94.8098 128.316 94.6692 127.902C94.5286 127.48 94.3567 127.078 94.1536 126.695C93.9505 126.312 93.7122 125.977 93.4388 125.688C93.1731 125.391 92.8723 125.156 92.5364 124.984C92.2083 124.812 91.8489 124.727 91.4583 124.727C91.0208 124.727 90.638 124.848 90.3098 125.09C89.9895 125.324 89.7239 125.633 89.513 126.016C89.302 126.391 89.1419 126.812 89.0325 127.281C88.9309 127.742 88.8802 128.199 88.8802 128.652ZM101.109 134.793C101.039 134.793 100.976 134.812 100.921 134.852C100.867 134.891 100.812 134.934 100.757 134.98C100.71 135.035 100.664 135.082 100.617 135.121C100.57 135.16 100.515 135.18 100.453 135.18H100.031C100.015 135.18 99.9917 135.066 99.9605 134.84C99.9292 134.613 99.8941 134.344 99.855 134.031C99.8237 133.711 99.7964 133.383 99.773 133.047C99.7495 132.703 99.7378 132.418 99.7378 132.191C99.7378 132.066 99.7808 131.988 99.8667 131.957C99.9605 131.918 100.058 131.898 100.16 131.898C100.214 131.898 100.273 131.918 100.335 131.957C100.406 131.996 100.468 132.047 100.523 132.109C100.585 132.164 100.64 132.223 100.687 132.285C100.734 132.348 100.769 132.402 100.792 132.449C100.925 132.738 101.058 133 101.191 133.234C101.324 133.469 101.476 133.668 101.648 133.832C101.82 133.996 102.023 134.125 102.257 134.219C102.492 134.305 102.773 134.348 103.101 134.348C103.351 134.348 103.554 134.305 103.71 134.219C103.867 134.133 103.988 134.02 104.074 133.879C104.16 133.738 104.214 133.578 104.238 133.398C104.269 133.219 104.285 133.031 104.285 132.836C104.285 132.445 104.167 132.117 103.933 131.852C103.699 131.578 103.406 131.324 103.054 131.09C102.71 130.855 102.332 130.617 101.917 130.375C101.511 130.133 101.132 129.852 100.781 129.531C100.437 129.211 100.148 128.832 99.9136 128.395C99.6792 127.949 99.562 127.402 99.562 126.754C99.562 126.379 99.6792 126.016 99.9136 125.664C100.148 125.305 100.453 124.988 100.828 124.715C101.203 124.441 101.621 124.223 102.082 124.059C102.55 123.895 103.015 123.812 103.476 123.812C103.718 123.812 103.96 123.836 104.203 123.883C104.453 123.922 104.679 123.969 104.882 124.023C105.093 124.078 105.269 124.133 105.41 124.188C105.558 124.242 105.652 124.281 105.691 124.305C105.746 124.344 105.789 124.406 105.82 124.492C105.859 124.57 105.882 124.699 105.89 124.879C105.906 125.059 105.914 125.301 105.914 125.605C105.921 125.902 105.925 126.293 105.925 126.777C105.925 126.91 105.875 127.008 105.773 127.07C105.679 127.125 105.585 127.152 105.492 127.152C105.406 127.152 105.32 127.137 105.234 127.105C105.156 127.074 105.105 127.023 105.082 126.953C104.988 126.711 104.882 126.469 104.765 126.227C104.648 125.977 104.511 125.754 104.355 125.559C104.207 125.355 104.031 125.195 103.828 125.078C103.625 124.953 103.39 124.891 103.125 124.891C102.968 124.891 102.812 124.91 102.656 124.949C102.5 124.988 102.359 125.066 102.234 125.184C102.109 125.293 102.007 125.445 101.929 125.641C101.859 125.836 101.824 126.086 101.824 126.391C101.824 126.656 101.945 126.902 102.187 127.129C102.437 127.355 102.746 127.586 103.113 127.82C103.48 128.047 103.878 128.293 104.308 128.559C104.746 128.824 105.148 129.129 105.515 129.473C105.882 129.816 106.187 130.215 106.429 130.668C106.679 131.113 106.804 131.641 106.804 132.25C106.804 132.703 106.687 133.113 106.453 133.48C106.218 133.84 105.917 134.145 105.55 134.395C105.183 134.645 104.773 134.836 104.32 134.969C103.875 135.109 103.437 135.18 103.007 135.18C102.789 135.18 102.57 135.16 102.351 135.121C102.132 135.082 101.933 135.035 101.753 134.98C101.574 134.934 101.425 134.891 101.308 134.852C101.191 134.812 101.125 134.793 101.109 134.793ZM113.766 134.312C113.766 134.297 113.77 134.277 113.777 134.254C113.793 134.23 113.82 134.219 113.859 134.219C114.008 134.219 114.195 134.211 114.422 134.195C114.648 134.18 114.887 134.152 115.137 134.113C115.395 134.066 115.652 134.004 115.91 133.926C116.168 133.848 116.398 133.75 116.602 133.633C116.805 133.516 116.969 133.375 117.094 133.211C117.227 133.047 117.293 132.852 117.293 132.625V120.613C117.293 120.215 117.234 119.906 117.117 119.688C117 119.461 116.84 119.293 116.637 119.184C116.441 119.074 116.211 119.008 115.945 118.984C115.68 118.953 115.395 118.938 115.09 118.938H114.422C114.383 118.938 114.355 118.926 114.34 118.902C114.332 118.879 114.328 118.859 114.328 118.844V118.375C114.328 118.359 114.332 118.34 114.34 118.316C114.355 118.293 114.383 118.281 114.422 118.281C114.43 118.281 114.469 118.281 114.539 118.281C114.617 118.273 114.75 118.27 114.938 118.27C115.125 118.27 115.379 118.27 115.699 118.27C116.02 118.262 116.438 118.258 116.953 118.258C117.062 118.258 117.25 118.254 117.516 118.246C117.789 118.238 118.098 118.23 118.441 118.223C118.793 118.215 119.16 118.207 119.543 118.199C119.934 118.184 120.301 118.172 120.645 118.164C120.996 118.156 121.309 118.148 121.582 118.141C121.855 118.133 122.055 118.129 122.18 118.129C122.578 118.129 123.02 118.145 123.504 118.176C123.996 118.199 124.488 118.258 124.98 118.352C125.48 118.445 125.965 118.582 126.434 118.762C126.902 118.934 127.316 119.168 127.676 119.465C128.043 119.754 128.336 120.113 128.555 120.543C128.773 120.973 128.883 121.488 128.883 122.09C128.883 122.449 128.824 122.777 128.707 123.074C128.598 123.371 128.453 123.637 128.273 123.871C128.102 124.098 127.914 124.297 127.711 124.469C127.508 124.633 127.316 124.773 127.137 124.891C126.965 125 126.812 125.082 126.68 125.137C126.555 125.191 126.484 125.223 126.469 125.23C126.914 125.48 127.336 125.754 127.734 126.051C128.141 126.348 128.496 126.684 128.801 127.059C129.105 127.426 129.344 127.832 129.516 128.277C129.695 128.723 129.785 129.215 129.785 129.754C129.785 130.387 129.699 130.945 129.527 131.43C129.355 131.914 129.129 132.336 128.848 132.695C128.566 133.055 128.242 133.359 127.875 133.609C127.516 133.852 127.145 134.055 126.762 134.219C126.379 134.375 125.996 134.5 125.613 134.594C125.238 134.68 124.895 134.742 124.582 134.781C124.27 134.82 124.004 134.844 123.785 134.852C123.574 134.859 123.438 134.863 123.375 134.863H113.859C113.82 134.863 113.793 134.852 113.777 134.828C113.77 134.805 113.766 134.785 113.766 134.77V134.312ZM120.691 131.746C120.691 132.051 120.77 132.328 120.926 132.578C121.082 132.82 121.281 133.031 121.523 133.211C121.766 133.383 122.035 133.52 122.332 133.621C122.637 133.715 122.938 133.762 123.234 133.762C123.734 133.762 124.176 133.668 124.559 133.48C124.941 133.293 125.258 133.031 125.508 132.695C125.758 132.359 125.945 131.961 126.07 131.5C126.203 131.031 126.27 130.52 126.27 129.965C126.27 129.301 126.168 128.719 125.965 128.219C125.762 127.719 125.477 127.301 125.109 126.965C124.742 126.629 124.305 126.379 123.797 126.215C123.289 126.043 122.73 125.957 122.121 125.957H120.844C120.766 125.957 120.719 125.973 120.703 126.004C120.695 126.027 120.691 126.055 120.691 126.086V131.746ZM122.766 124.879C123.141 124.879 123.488 124.812 123.809 124.68C124.137 124.539 124.418 124.348 124.652 124.105C124.895 123.863 125.082 123.578 125.215 123.25C125.355 122.914 125.426 122.551 125.426 122.16C125.426 121.566 125.352 121.078 125.203 120.695C125.062 120.305 124.852 119.996 124.57 119.77C124.289 119.543 123.938 119.387 123.516 119.301C123.102 119.207 122.621 119.16 122.074 119.16C121.957 119.16 121.816 119.168 121.652 119.184C121.496 119.199 121.344 119.23 121.195 119.277C121.047 119.316 120.922 119.375 120.82 119.453C120.719 119.531 120.668 119.633 120.668 119.758V124.656C120.668 124.68 120.68 124.723 120.703 124.785C120.727 124.848 120.805 124.879 120.938 124.879H122.766ZM131.655 129.391C131.655 128.656 131.815 127.953 132.135 127.281C132.463 126.609 132.901 126.016 133.447 125.5C133.994 124.984 134.631 124.574 135.358 124.27C136.084 123.965 136.85 123.812 137.655 123.812C138.498 123.812 139.299 123.957 140.057 124.246C140.815 124.535 141.479 124.934 142.049 125.441C142.627 125.941 143.084 126.535 143.42 127.223C143.756 127.902 143.924 128.641 143.924 129.438C143.924 130.25 143.768 131.008 143.455 131.711C143.151 132.406 142.725 133.012 142.178 133.527C141.631 134.043 140.979 134.449 140.221 134.746C139.471 135.035 138.651 135.18 137.76 135.18C136.877 135.18 136.061 135.031 135.311 134.734C134.569 134.43 133.924 134.02 133.377 133.504C132.838 132.98 132.416 132.367 132.112 131.664C131.807 130.961 131.655 130.203 131.655 129.391ZM134.655 128.652C134.655 129.074 134.686 129.512 134.748 129.965C134.811 130.41 134.905 130.848 135.03 131.277C135.155 131.699 135.311 132.098 135.498 132.473C135.694 132.848 135.924 133.18 136.19 133.469C136.455 133.75 136.756 133.973 137.092 134.137C137.428 134.301 137.807 134.383 138.229 134.383C138.69 134.383 139.084 134.266 139.412 134.031C139.748 133.789 140.022 133.477 140.233 133.094C140.451 132.711 140.612 132.281 140.713 131.805C140.815 131.328 140.865 130.852 140.865 130.375C140.865 129.992 140.83 129.59 140.76 129.168C140.69 128.738 140.584 128.316 140.444 127.902C140.303 127.48 140.131 127.078 139.928 126.695C139.725 126.312 139.487 125.977 139.213 125.688C138.947 125.391 138.647 125.156 138.311 124.984C137.983 124.812 137.623 124.727 137.233 124.727C136.795 124.727 136.412 124.848 136.084 125.09C135.764 125.324 135.498 125.633 135.287 126.016C135.076 126.391 134.916 126.812 134.807 127.281C134.705 127.742 134.655 128.199 134.655 128.652ZM145.454 129.391C145.454 128.656 145.614 127.953 145.934 127.281C146.262 126.609 146.7 126.016 147.247 125.5C147.793 124.984 148.43 124.574 149.157 124.27C149.883 123.965 150.649 123.812 151.454 123.812C152.297 123.812 153.098 123.957 153.856 124.246C154.614 124.535 155.278 124.934 155.848 125.441C156.426 125.941 156.883 126.535 157.219 127.223C157.555 127.902 157.723 128.641 157.723 129.438C157.723 130.25 157.567 131.008 157.254 131.711C156.95 132.406 156.524 133.012 155.977 133.527C155.43 134.043 154.778 134.449 154.02 134.746C153.27 135.035 152.45 135.18 151.559 135.18C150.676 135.18 149.86 135.031 149.11 134.734C148.368 134.43 147.723 134.02 147.176 133.504C146.637 132.98 146.215 132.367 145.911 131.664C145.606 130.961 145.454 130.203 145.454 129.391ZM148.454 128.652C148.454 129.074 148.485 129.512 148.547 129.965C148.61 130.41 148.704 130.848 148.829 131.277C148.954 131.699 149.11 132.098 149.297 132.473C149.493 132.848 149.723 133.18 149.989 133.469C150.254 133.75 150.555 133.973 150.891 134.137C151.227 134.301 151.606 134.383 152.028 134.383C152.489 134.383 152.883 134.266 153.211 134.031C153.547 133.789 153.821 133.477 154.032 133.094C154.25 132.711 154.411 132.281 154.512 131.805C154.614 131.328 154.665 130.852 154.665 130.375C154.665 129.992 154.629 129.59 154.559 129.168C154.489 128.738 154.383 128.316 154.243 127.902C154.102 127.48 153.93 127.078 153.727 126.695C153.524 126.312 153.286 125.977 153.012 125.688C152.747 125.391 152.446 125.156 152.11 124.984C151.782 124.812 151.422 124.727 151.032 124.727C150.594 124.727 150.211 124.848 149.883 125.09C149.563 125.324 149.297 125.633 149.086 126.016C148.875 126.391 148.715 126.812 148.606 127.281C148.504 127.742 148.454 128.199 148.454 128.652ZM165.241 134.512C165.241 134.621 165.233 134.707 165.217 134.77C165.202 134.832 165.171 134.863 165.124 134.863H159.007C158.928 134.848 158.889 134.73 158.889 134.512C158.889 134.309 158.928 134.191 159.007 134.16C159.108 134.113 159.253 134.078 159.44 134.055C159.628 134.023 159.815 133.969 160.003 133.891C160.19 133.805 160.354 133.676 160.495 133.504C160.635 133.324 160.706 133.062 160.706 132.719V118.891C160.706 118.703 160.655 118.559 160.553 118.457C160.452 118.348 160.323 118.266 160.167 118.211C160.01 118.156 159.842 118.113 159.663 118.082C159.483 118.043 159.311 118 159.147 117.953C159.1 117.938 159.061 117.918 159.03 117.895C159.007 117.863 158.995 117.805 158.995 117.719C158.995 117.68 159.007 117.641 159.03 117.602C159.053 117.562 159.1 117.523 159.171 117.484L163.05 115.656C163.081 115.641 163.112 115.625 163.143 115.609C163.182 115.594 163.21 115.586 163.225 115.586C163.358 115.586 163.425 115.68 163.425 115.867V127.504C163.425 127.738 163.467 127.883 163.553 127.938C163.647 127.992 163.76 128.02 163.893 128.02C164.065 128.02 164.28 127.969 164.538 127.867C164.796 127.758 165.069 127.621 165.358 127.457C165.655 127.293 165.948 127.109 166.237 126.906C166.534 126.703 166.796 126.504 167.022 126.309C167.257 126.105 167.448 125.922 167.596 125.758C167.745 125.586 167.819 125.453 167.819 125.359C167.819 125.203 167.745 125.098 167.596 125.043C167.448 124.988 167.28 124.945 167.092 124.914C166.913 124.875 166.749 124.828 166.6 124.773C166.452 124.719 166.378 124.617 166.378 124.469C166.378 124.359 166.428 124.27 166.53 124.199C166.632 124.121 166.741 124.082 166.858 124.082H171.792C172.143 124.082 172.319 124.172 172.319 124.352C172.319 124.477 172.229 124.582 172.05 124.668C171.87 124.746 171.647 124.824 171.382 124.902C171.116 124.98 170.835 125.074 170.538 125.184C170.249 125.285 169.995 125.422 169.776 125.594L166.413 128.219C166.413 128.281 166.44 128.352 166.495 128.43C166.55 128.5 166.596 128.555 166.635 128.594L171.1 133.305C171.303 133.516 171.526 133.68 171.768 133.797C172.018 133.914 172.253 134.012 172.471 134.09C172.69 134.168 172.87 134.234 173.01 134.289C173.159 134.344 173.233 134.418 173.233 134.512C173.233 134.605 173.225 134.688 173.21 134.758C173.194 134.828 173.139 134.863 173.046 134.863H166.659C166.604 134.863 166.569 134.832 166.553 134.77C166.546 134.707 166.542 134.621 166.542 134.512C166.542 134.316 166.581 134.199 166.659 134.16C166.737 134.121 166.819 134.09 166.905 134.066C166.991 134.043 167.065 134.012 167.128 133.973C167.198 133.926 167.253 133.867 167.292 133.797C167.339 133.727 167.362 133.625 167.362 133.492C167.362 133.406 167.307 133.293 167.198 133.152C167.089 133.004 166.975 132.867 166.858 132.742L163.589 129.273C163.589 129.266 163.585 129.258 163.577 129.25H163.565C163.518 129.25 163.483 129.309 163.46 129.426C163.436 129.543 163.425 129.676 163.425 129.824V132.719C163.425 133.062 163.495 133.324 163.635 133.504C163.776 133.676 163.94 133.805 164.128 133.891C164.315 133.969 164.503 134.023 164.69 134.055C164.878 134.078 165.022 134.113 165.124 134.16C165.202 134.191 165.241 134.309 165.241 134.512ZM175.419 134.793C175.349 134.793 175.286 134.812 175.231 134.852C175.177 134.891 175.122 134.934 175.067 134.98C175.02 135.035 174.974 135.082 174.927 135.121C174.88 135.16 174.825 135.18 174.763 135.18H174.341C174.325 135.18 174.302 135.066 174.27 134.84C174.239 134.613 174.204 134.344 174.165 134.031C174.134 133.711 174.106 133.383 174.083 133.047C174.06 132.703 174.048 132.418 174.048 132.191C174.048 132.066 174.091 131.988 174.177 131.957C174.27 131.918 174.368 131.898 174.47 131.898C174.524 131.898 174.583 131.918 174.645 131.957C174.716 131.996 174.778 132.047 174.833 132.109C174.895 132.164 174.95 132.223 174.997 132.285C175.044 132.348 175.079 132.402 175.103 132.449C175.235 132.738 175.368 133 175.501 133.234C175.634 133.469 175.786 133.668 175.958 133.832C176.13 133.996 176.333 134.125 176.567 134.219C176.802 134.305 177.083 134.348 177.411 134.348C177.661 134.348 177.864 134.305 178.02 134.219C178.177 134.133 178.298 134.02 178.384 133.879C178.47 133.738 178.524 133.578 178.548 133.398C178.579 133.219 178.595 133.031 178.595 132.836C178.595 132.445 178.478 132.117 178.243 131.852C178.009 131.578 177.716 131.324 177.364 131.09C177.02 130.855 176.642 130.617 176.228 130.375C175.821 130.133 175.442 129.852 175.091 129.531C174.747 129.211 174.458 128.832 174.224 128.395C173.989 127.949 173.872 127.402 173.872 126.754C173.872 126.379 173.989 126.016 174.224 125.664C174.458 125.305 174.763 124.988 175.138 124.715C175.513 124.441 175.931 124.223 176.392 124.059C176.86 123.895 177.325 123.812 177.786 123.812C178.028 123.812 178.27 123.836 178.513 123.883C178.763 123.922 178.989 123.969 179.192 124.023C179.403 124.078 179.579 124.133 179.72 124.188C179.868 124.242 179.962 124.281 180.001 124.305C180.056 124.344 180.099 124.406 180.13 124.492C180.169 124.57 180.192 124.699 180.2 124.879C180.216 125.059 180.224 125.301 180.224 125.605C180.231 125.902 180.235 126.293 180.235 126.777C180.235 126.91 180.185 127.008 180.083 127.07C179.989 127.125 179.895 127.152 179.802 127.152C179.716 127.152 179.63 127.137 179.544 127.105C179.466 127.074 179.415 127.023 179.392 126.953C179.298 126.711 179.192 126.469 179.075 126.227C178.958 125.977 178.821 125.754 178.665 125.559C178.517 125.355 178.341 125.195 178.138 125.078C177.935 124.953 177.7 124.891 177.435 124.891C177.278 124.891 177.122 124.91 176.966 124.949C176.81 124.988 176.669 125.066 176.544 125.184C176.419 125.293 176.317 125.445 176.239 125.641C176.169 125.836 176.134 126.086 176.134 126.391C176.134 126.656 176.255 126.902 176.497 127.129C176.747 127.355 177.056 127.586 177.423 127.82C177.79 128.047 178.188 128.293 178.618 128.559C179.056 128.824 179.458 129.129 179.825 129.473C180.192 129.816 180.497 130.215 180.739 130.668C180.989 131.113 181.114 131.641 181.114 132.25C181.114 132.703 180.997 133.113 180.763 133.48C180.528 133.84 180.228 134.145 179.86 134.395C179.493 134.645 179.083 134.836 178.63 134.969C178.185 135.109 177.747 135.18 177.317 135.18C177.099 135.18 176.88 135.16 176.661 135.121C176.442 135.082 176.243 135.035 176.063 134.98C175.884 134.934 175.735 134.891 175.618 134.852C175.501 134.812 175.435 134.793 175.419 134.793Z" fill="#1B3764"/>
<path d="M56 49.9366V44.8936H57.1664V48.9105H59.6105V49.9317H56V49.9366Z" fill="#1B3764"/>
<path d="M63.6857 49.9701C63.3082 49.9701 62.9646 49.8975 62.6597 49.7523C62.3548 49.6071 62.0935 49.4135 61.8708 49.1716C61.6482 48.9296 61.4837 48.6537 61.3627 48.3488C61.2465 48.0439 61.1836 47.7293 61.1836 47.4002C61.1836 47.0663 61.2465 46.7468 61.3723 46.4419C61.4982 46.137 61.6724 45.866 61.895 45.6289C62.1177 45.3917 62.3839 45.203 62.6936 45.0626C62.9985 44.9271 63.3373 44.8545 63.7003 44.8545C64.0729 44.8545 64.4117 44.9271 64.7215 45.0723C65.0264 45.2175 65.2877 45.4111 65.5103 45.6579C65.7281 45.9047 65.8975 46.1806 66.0185 46.4855C66.1347 46.7904 66.1976 47.1001 66.1976 47.4196C66.1976 47.7535 66.1347 48.0729 66.0137 48.3778C65.8927 48.6827 65.7136 48.9538 65.4861 49.1909C65.2587 49.4281 64.9925 49.6216 64.6876 49.7572C64.3875 49.9024 64.0536 49.9701 63.6857 49.9701ZM62.3742 47.4147C62.3742 47.6083 62.4032 47.7971 62.4613 47.981C62.5194 48.1649 62.6016 48.3246 62.713 48.4649C62.8243 48.6053 62.9646 48.7215 63.1292 48.8037C63.2937 48.8908 63.4825 48.9296 63.6954 48.9296C63.9181 48.9296 64.1116 48.886 64.2762 48.7989C64.4407 48.7118 64.5811 48.5956 64.6876 48.4456C64.794 48.2956 64.8763 48.1358 64.9344 47.9519C64.9876 47.768 65.0167 47.5841 65.0167 47.3954C65.0167 47.2018 64.9876 47.013 64.9296 46.8339C64.8715 46.6549 64.7892 46.4903 64.6731 46.35C64.5569 46.2096 64.4214 46.0935 64.252 46.0112C64.0874 45.9289 63.8987 45.8902 63.6906 45.8902C63.468 45.8902 63.2744 45.9338 63.1098 46.016C62.9453 46.1031 62.8098 46.2145 62.6984 46.3597C62.5871 46.5048 62.5048 46.6694 62.4516 46.8485C62.4032 47.0372 62.3742 47.226 62.3742 47.4147Z" fill="#1B3764"/>
<path d="M71.2883 46.379C71.2738 46.3548 71.2254 46.3161 71.1383 46.2677C71.0512 46.2193 70.9447 46.1661 70.8189 46.108C70.6931 46.0499 70.5527 46.0015 70.3978 45.958C70.2478 45.9144 70.0929 45.895 69.9429 45.895C69.7445 45.895 69.5896 45.9289 69.4831 45.9967C69.3718 46.0644 69.3186 46.1709 69.3186 46.3113C69.3186 46.4226 69.3621 46.5145 69.4444 46.5774C69.5267 46.6452 69.6477 46.6984 69.8025 46.7517C69.9574 46.8001 70.151 46.8581 70.3785 46.9259C70.7027 47.0082 70.9786 47.1147 71.2157 47.2308C71.4529 47.3518 71.632 47.5067 71.7578 47.6906C71.8836 47.8745 71.9466 48.1262 71.9466 48.4359C71.9466 48.7166 71.8933 48.9586 71.7917 49.1522C71.69 49.3458 71.5449 49.5055 71.3706 49.6265C71.1916 49.7475 70.9931 49.8346 70.7657 49.8878C70.5382 49.9411 70.3059 49.9701 70.0639 49.9701C69.8171 49.9701 69.5654 49.9459 69.3089 49.8975C69.0524 49.8491 68.8056 49.7765 68.5684 49.6846C68.3313 49.5926 68.1135 49.4813 67.915 49.3458L68.4281 48.3294C68.4474 48.3536 68.5103 48.3972 68.612 48.4601C68.7136 48.523 68.8443 48.5908 68.9991 48.6585C69.154 48.7263 69.3234 48.7892 69.5122 48.8376C69.7009 48.8908 69.8945 48.915 70.0881 48.915C70.2962 48.915 70.4511 48.8812 70.5527 48.8183C70.6543 48.7553 70.7076 48.6634 70.7076 48.5472C70.7076 48.4214 70.6543 48.3198 70.5479 48.252C70.4414 48.1794 70.2962 48.1165 70.1171 48.0632C69.9332 48.0052 69.7251 47.9423 69.488 47.8745C69.1782 47.7825 68.9265 47.6761 68.7233 47.5551C68.52 47.4389 68.3748 47.2937 68.278 47.1243C68.1812 46.9549 68.1328 46.742 68.1328 46.4903C68.1328 46.137 68.2151 45.8418 68.3845 45.595C68.5539 45.353 68.7765 45.1691 69.0621 45.0432C69.3476 44.9174 69.6573 44.8545 69.9913 44.8545C70.2284 44.8545 70.4559 44.8835 70.6785 44.9416C70.9012 44.9997 71.1044 45.0674 71.298 45.1546C71.4916 45.2417 71.661 45.3239 71.811 45.4111L71.2883 46.379Z" fill="#1B3764"/>
<path d="M181.147 46.0365V48.921H179.98V43.8779H180.905L183.242 46.8447V43.8779H184.409V48.9161H183.46L181.147 46.0365Z" fill="#1B3764"/>
<path d="M187.569 43.8779L188.653 46.1091L189.752 43.8779H191.029L189.234 47.198V48.9161H188.077V47.1883L186.311 43.8828H187.569V43.8779Z" fill="#1B3764"/>
<path d="M192.298 46.3506C192.298 46.0409 192.356 45.7408 192.467 45.4456C192.579 45.1504 192.748 44.8793 192.966 44.6422C193.184 44.4002 193.45 44.2066 193.759 44.0614C194.074 43.9162 194.427 43.8436 194.824 43.8436C195.298 43.8436 195.71 43.9453 196.054 44.1485C196.397 44.3518 196.658 44.618 196.833 44.9423L195.937 45.5666C195.86 45.3875 195.763 45.2472 195.637 45.1455C195.511 45.0439 195.376 44.9761 195.226 44.9374C195.076 44.8987 194.936 44.8793 194.795 44.8793C194.573 44.8793 194.379 44.9229 194.214 45.01C194.05 45.0971 193.909 45.2133 193.803 45.3633C193.692 45.5085 193.614 45.6731 193.561 45.8521C193.508 46.0312 193.484 46.2103 193.484 46.3893C193.484 46.5878 193.513 46.7814 193.576 46.9653C193.638 47.1492 193.726 47.3137 193.842 47.4541C193.958 47.5944 194.098 47.7106 194.263 47.7929C194.427 47.8751 194.611 47.9187 194.81 47.9187C194.95 47.9187 195.095 47.8945 195.245 47.8461C195.39 47.7977 195.526 47.7251 195.652 47.6235C195.778 47.5218 195.874 47.3863 195.937 47.2218L196.891 47.7832C196.789 48.03 196.629 48.2381 196.402 48.4172C196.174 48.5914 195.918 48.7269 195.632 48.8189C195.347 48.9109 195.061 48.9592 194.785 48.9592C194.423 48.9592 194.089 48.8866 193.779 48.7366C193.469 48.5866 193.213 48.3882 192.99 48.1413C192.767 47.8945 192.598 47.6138 192.477 47.3041C192.361 46.9895 192.298 46.67 192.298 46.3506Z" fill="#1B3764"/>
<path d="M122.455 0V0.425898C122.029 0.440417 121.705 0.493655 121.482 0.58561C121.259 0.677565 121.114 0.846957 121.046 1.09862C120.974 1.34545 120.94 1.73747 120.94 2.26016V12.8399C120.94 13.3529 120.979 13.7352 121.056 13.9917C121.134 14.2482 121.279 14.4176 121.492 14.5047C121.705 14.5919 122.024 14.6451 122.45 14.6741V15.1C122.01 15.071 121.448 15.0516 120.766 15.0468C120.083 15.0419 119.386 15.0371 118.675 15.0371C117.905 15.0371 117.184 15.0419 116.512 15.0468C115.834 15.0565 115.292 15.071 114.881 15.1V14.6741C115.365 14.6451 115.732 14.587 115.979 14.5047C116.226 14.4176 116.395 14.2482 116.483 13.9917C116.57 13.7352 116.608 13.3529 116.608 12.8399V1.42773L116.821 1.38417L111.469 15.0807H111.125L105.109 1.38417V10.9185C105.109 11.8719 105.148 12.6027 105.225 13.106C105.303 13.6094 105.496 13.9724 105.801 14.195C106.106 14.4176 106.595 14.5773 107.263 14.6741V15.1C106.977 15.071 106.609 15.0516 106.155 15.0468C105.7 15.0419 105.274 15.0371 104.877 15.0371C104.562 15.0371 104.243 15.0419 103.919 15.0468C103.589 15.0565 103.323 15.071 103.11 15.1V14.6741C103.551 14.5725 103.88 14.4225 104.093 14.2144C104.306 14.0062 104.446 13.6771 104.519 13.2222C104.591 12.7673 104.625 12.1429 104.625 11.3444V2.26016C104.625 1.73263 104.591 1.34545 104.519 1.09862C104.446 0.851796 104.301 0.677565 104.083 0.58561C103.861 0.493655 103.541 0.440417 103.11 0.425898V0C103.323 0.0145193 103.594 0.0290385 103.919 0.0435578C104.248 0.058077 104.567 0.0629168 104.877 0.0629168C105.7 0.0629168 106.488 0.058077 107.244 0.0435578C107.999 0.0290385 108.681 0.0145193 109.291 0L113.516 9.51495L112.877 10.2167L116.821 0.0629168C117.107 0.0629168 117.412 0.0629168 117.741 0.0629168C118.07 0.0629168 118.38 0.0629168 118.68 0.0629168C119.391 0.0629168 120.088 0.058077 120.771 0.0435578C121.453 0.0290385 122.014 0.0145193 122.455 0Z" fill="#1B3764"/>
<path d="M146.238 0C146.18 0.711444 146.141 1.39869 146.121 2.05689C146.102 2.71994 146.088 3.22811 146.088 3.58142C146.088 3.88148 146.092 4.16703 146.107 4.43321C146.121 4.70424 146.136 4.93171 146.15 5.11562H145.662C145.492 3.93472 145.207 3.00549 144.81 2.33276C144.413 1.6552 143.944 1.1809 143.411 0.905034C142.879 0.629168 142.317 0.488815 141.737 0.488815H141.461C141.093 0.488815 140.812 0.522693 140.628 0.58561C140.444 0.648527 140.319 0.77436 140.256 0.958271C140.193 1.14218 140.159 1.43257 140.159 1.83427V13.2706C140.159 13.6529 140.193 13.9433 140.256 14.1369C140.319 14.3305 140.444 14.4563 140.628 14.5193C140.812 14.5822 141.088 14.6161 141.461 14.6161H142.167C142.637 14.6161 143.13 14.4612 143.648 14.1563C144.166 13.8514 144.645 13.3287 145.086 12.5882C145.526 11.8477 145.86 10.841 146.088 9.55851H146.576C146.533 10.0715 146.513 10.7249 146.513 11.5234C146.513 11.8768 146.518 12.3898 146.533 13.048C146.547 13.711 146.591 14.3934 146.659 15.1049C145.933 15.0758 145.115 15.0565 144.205 15.0516C143.295 15.0468 142.482 15.0419 141.771 15.0419C141.258 15.0419 140.57 15.0419 139.714 15.0419C138.852 15.0419 137.942 15.0468 136.984 15.0516C136.026 15.0613 135.13 15.0758 134.308 15.1049V14.679C134.748 14.6499 135.077 14.5919 135.29 14.5096C135.503 14.4273 135.643 14.2531 135.716 13.9966C135.789 13.7401 135.822 13.3577 135.822 12.8447V2.26016C135.822 1.73263 135.789 1.34545 135.716 1.09862C135.643 0.851796 135.498 0.677565 135.28 0.58561C135.058 0.493655 134.738 0.440417 134.312 0.425898V0C135.135 0.0145193 136.031 0.0290385 136.989 0.0435578C137.947 0.058077 138.857 0.0629168 139.718 0.0629168C140.58 0.0629168 141.267 0.0629168 141.775 0.0629168C142.429 0.0629168 143.174 0.058077 144.006 0.0532373C144.844 0.0483975 145.584 0.0290385 146.238 0ZM143.145 7.29351V7.7194H139.52V7.29351H143.145ZM143.764 4.48161C143.706 5.28985 143.682 5.90934 143.692 6.33524C143.697 6.76113 143.702 7.15315 143.702 7.50646C143.702 7.85976 143.706 8.25178 143.721 8.67768C143.735 9.10357 143.769 9.72306 143.827 10.5313H143.339C143.251 10.0038 143.077 9.52947 142.816 9.10357C142.555 8.67768 142.216 8.33889 141.804 8.09206C141.393 7.84524 140.914 7.7194 140.377 7.7194V7.29351C140.919 7.29351 141.388 7.14347 141.785 6.84341C142.182 6.54334 142.511 6.18036 142.768 5.74479C143.024 5.30921 143.193 4.88815 143.281 4.47677H143.764V4.48161Z" fill="#1B3764"/>
<path d="M100.492 36.2063C101.489 36.2063 102.307 36.3418 102.946 36.6128C103.584 36.8839 104.146 37.2081 104.63 37.5953C104.785 37.7211 104.93 37.7889 105.056 37.7889C105.327 37.7889 105.501 37.363 105.588 36.5112H106.077C106.048 37.0823 106.029 37.7744 106.014 38.5923C105.999 39.4102 105.995 40.4943 105.995 41.8446H105.506C105.404 40.8186 105.23 39.9619 104.983 39.2747C104.736 38.5875 104.252 37.997 103.541 37.513C103.241 37.3146 102.892 37.1597 102.495 37.0436C102.099 36.9323 101.711 36.8742 101.344 36.8742C100.516 36.8742 99.8336 37.0968 99.2964 37.5469C98.7544 37.997 98.3236 38.5778 98.0042 39.2941C97.6848 40.0103 97.4573 40.7944 97.3218 41.6413C97.1863 42.4883 97.1185 43.3111 97.1185 44.1048C97.1185 46.665 97.4331 48.5331 98.0574 49.714C98.6818 50.8949 99.5142 51.4854 100.555 51.4854C100.782 51.4854 100.981 51.466 101.15 51.4225C101.319 51.3789 101.469 51.316 101.6 51.2289C101.755 51.1176 101.871 50.9724 101.944 50.803C102.016 50.6336 102.05 50.4207 102.05 50.1641V48.0298C102.05 47.3329 101.997 46.815 101.891 46.4714C101.784 46.1278 101.576 45.8955 101.261 45.7696C100.947 45.6438 100.492 45.5712 99.8966 45.5567V45.1308C100.226 45.1453 100.623 45.155 101.092 45.1647C101.561 45.1744 102.05 45.1792 102.563 45.184C103.076 45.1937 103.546 45.1937 103.972 45.1937C104.654 45.1937 105.283 45.1889 105.859 45.1744C106.435 45.1598 106.9 45.1453 107.258 45.1308V45.5567C106.9 45.5857 106.667 45.6971 106.551 45.9003C106.435 46.0988 106.382 46.5972 106.382 47.3958V51.6209H105.956C105.941 51.3789 105.883 51.1176 105.787 50.832C105.685 50.5465 105.525 50.4061 105.298 50.4061C105.182 50.4061 105.022 50.4352 104.819 50.4932C104.61 50.5513 104.286 50.6868 103.846 50.8998C103.289 51.1708 102.704 51.408 102.084 51.6161C101.465 51.8242 100.85 51.9258 100.24 51.9258C97.5638 51.9258 95.5601 51.2483 94.2244 49.8883C92.8886 48.5283 92.2207 46.636 92.2207 44.2016C92.2207 42.6093 92.574 41.2154 93.2758 40.02C93.9824 38.8246 94.9552 37.8954 96.199 37.2275C97.438 36.5402 98.8705 36.2063 100.492 36.2063Z" fill="#1B3764"/>
<path d="M126.476 36.5058L131.64 49.8151C131.839 50.2991 132.052 50.6427 132.279 50.8508C132.506 51.059 132.715 51.1654 132.898 51.1799V51.6058C132.385 51.5768 131.79 51.5574 131.108 51.5526C130.425 51.5478 129.728 51.5429 129.017 51.5429C128.291 51.5429 127.609 51.5478 126.97 51.5526C126.331 51.5623 125.818 51.5768 125.436 51.6058V51.1799C126.162 51.1509 126.621 51.0251 126.81 50.8073C127.004 50.5847 126.955 50.1152 126.67 49.3892L123.258 39.9372L123.684 39.1919L120.741 46.8484C120.272 48.0728 120.039 48.9875 120.049 49.6022C120.054 50.212 120.238 50.6234 120.591 50.8266C120.944 51.0348 121.409 51.1509 121.975 51.1799V51.6058C121.448 51.5768 120.978 51.5574 120.557 51.5526C120.136 51.5478 119.681 51.5429 119.183 51.5429C118.912 51.5429 118.626 51.5478 118.316 51.5526C118.011 51.5623 117.75 51.5768 117.537 51.6058V51.1799C117.866 51.1219 118.186 50.9138 118.51 50.5508C118.829 50.1878 119.158 49.5683 119.502 48.6826L124.24 36.501C124.584 36.53 124.956 36.5445 125.358 36.5445C125.76 36.5494 126.133 36.5349 126.476 36.5058ZM127.221 45.4642V45.8901H120.862L121.075 45.4642H127.221Z" fill="#1B3764"/>
<path d="M158.089 36.5059V36.9318C157.663 37.0189 157.339 37.1641 157.116 37.3819C156.894 37.5948 156.749 37.9239 156.681 38.374C156.608 38.8241 156.574 39.4533 156.574 40.2615V51.6107C156.361 51.5817 156.129 51.5672 155.882 51.5672C155.635 51.5672 155.364 51.5817 155.084 51.6107L145.632 41.2827V47.4292C145.632 48.3826 145.67 49.1134 145.748 49.6167C145.825 50.1201 146.019 50.4831 146.324 50.7057C146.629 50.9283 147.117 51.088 147.785 51.1848V51.6107C147.5 51.5817 147.132 51.5623 146.677 51.5575C146.222 51.5526 145.796 51.5478 145.399 51.5478C145.085 51.5478 144.765 51.5526 144.441 51.5575C144.112 51.5672 143.846 51.5817 143.633 51.6107V51.1848C144.073 51.0832 144.402 50.9332 144.615 50.725C144.828 50.5169 144.969 50.1878 145.041 49.7329C145.114 49.278 145.148 48.6536 145.148 47.8551V38.766C145.148 38.2385 145.114 37.8513 145.041 37.6045C144.969 37.3577 144.823 37.1834 144.606 37.0915C144.383 36.9995 144.064 36.9463 143.633 36.9318V36.5059C143.846 36.5204 144.117 36.5349 144.441 36.5494C144.77 36.5639 145.09 36.5688 145.399 36.5688C145.753 36.5688 146.106 36.5639 146.445 36.5494C146.788 36.5349 147.093 36.5204 147.364 36.5059L156.09 45.7207V40.6874C156.09 39.734 156.052 39.008 155.974 38.4998C155.897 37.9965 155.708 37.6287 155.408 37.4012C155.108 37.1737 154.619 37.0189 153.937 36.9318V36.5059C154.222 36.5204 154.59 36.5349 155.045 36.5494C155.5 36.5639 155.926 36.5688 156.323 36.5688C156.652 36.5688 156.971 36.5639 157.291 36.5494C157.61 36.5349 157.876 36.5204 158.089 36.5059Z" fill="#1B3764"/>
<path d="M103.308 84.749C103.976 84.749 104.494 84.9039 104.867 85.2088C105.235 85.5137 105.423 85.9735 105.423 86.5833C105.423 87.1931 105.239 87.6529 104.867 87.9578C104.499 88.2627 103.976 88.4176 103.308 88.4176C102.626 88.4176 102.103 88.2627 101.74 87.9578C101.377 87.6529 101.198 87.1931 101.198 86.5833C101.198 85.9735 101.377 85.5137 101.74 85.2088C102.103 84.8991 102.626 84.749 103.308 84.749Z" fill="#1B3764"/>
<path d="M124.937 73.0126V73.4385C124.512 73.453 124.187 73.5062 123.965 73.5982C123.742 73.6901 123.597 73.8595 123.529 74.1112C123.456 74.358 123.423 74.75 123.423 75.2727V85.8524C123.423 86.3654 123.461 86.7478 123.539 87.0043C123.616 87.2608 123.761 87.4302 123.974 87.5173C124.187 87.6044 124.507 87.6577 124.933 87.6867V88.1126C124.521 88.0836 123.989 88.0642 123.345 88.0594C122.697 88.0545 122.038 88.0497 121.371 88.0497C120.601 88.0497 119.88 88.0545 119.207 88.0594C118.53 88.069 117.988 88.0836 117.576 88.1126V87.6867C118.017 87.6577 118.346 87.5996 118.559 87.5173C118.772 87.435 118.912 87.2608 118.985 87.0043C119.057 86.7478 119.091 86.3654 119.091 85.8524V75.2727C119.091 74.7452 119.057 74.358 118.985 74.1112C118.912 73.8644 118.767 73.6901 118.549 73.5982C118.326 73.5062 118.007 73.453 117.581 73.4385V73.0126C117.992 73.0271 118.539 73.0416 119.212 73.0561C119.89 73.0706 120.611 73.0755 121.375 73.0755C122.043 73.0755 122.701 73.0706 123.35 73.0561C123.999 73.0416 124.526 73.0271 124.937 73.0126ZM132.744 73.0126V73.4191C132.26 73.5449 131.723 73.7821 131.132 74.1209C130.542 74.4645 129.913 75.0114 129.245 75.7615L125.32 80.219L127.048 77.9588L132.105 86.3848C132.289 86.6849 132.473 86.9317 132.662 87.1301C132.846 87.3286 133.097 87.5125 133.407 87.6867V88.1126C132.812 88.0836 132.173 88.0642 131.5 88.0594C130.823 88.0545 130.179 88.0497 129.569 88.0497C129.24 88.0497 128.838 88.0545 128.354 88.0594C127.87 88.069 127.261 88.0836 126.52 88.1126V87.6867C127.188 87.6577 127.575 87.5802 127.682 87.4544C127.788 87.3286 127.735 87.0866 127.522 86.7284L124.429 81.5015C124.289 81.245 124.158 81.0514 124.047 80.9256C123.931 80.7997 123.824 80.7029 123.718 80.6497C123.611 80.5916 123.471 80.5577 123.302 80.5432V80.0931C123.926 80.0641 124.516 79.856 125.073 79.464C125.63 79.0719 126.297 78.4379 127.077 77.5571L127.803 76.744C128.398 76.0761 128.717 75.4954 128.751 75.0065C128.785 74.5177 128.635 74.1306 128.301 73.8547C127.967 73.5788 127.532 73.4336 126.989 73.4191V73.0126C127.585 73.0271 128.137 73.0416 128.645 73.0561C129.148 73.0706 129.801 73.0755 130.595 73.0755C131.461 73.0803 132.178 73.0561 132.744 73.0126Z" fill="#1B3764"/>
<path d="M146.741 84.749C147.409 84.749 147.927 84.9039 148.299 85.2088C148.667 85.5137 148.856 85.9735 148.856 86.5833C148.856 87.1931 148.672 87.6529 148.299 87.9578C147.932 88.2627 147.409 88.4176 146.741 88.4176C146.059 88.4176 145.536 88.2627 145.173 87.9578C144.81 87.6529 144.631 87.1931 144.631 86.5833C144.631 85.9735 144.81 85.5137 145.173 85.2088C145.536 84.8991 146.059 84.749 146.741 84.749Z" fill="#1B3764"/>
<path d="M92.7634 11.5642L66.8613 34.9336L67.834 36.0116L93.736 12.6422L92.7634 11.5642Z" fill="#1B3764"/>
<path d="M157.738 11.5613L156.766 12.6395L182.671 36.0055L183.644 34.9273L157.738 11.5613Z" fill="#1B3764"/>
<path d="M68.3416 57.7872L67.3691 58.8654L93.2747 82.2313L94.2472 81.1531L68.3416 57.7872Z" fill="#1B3764"/>
<path d="M183.177 57.7829L157.275 81.1523L158.248 82.2304L184.15 58.861L183.177 57.7829Z" fill="#1B3764"/>
</svg>
