<svg width="23" height="24" viewBox="0 0 23 24" fill="none" xmlns="http://www.w3.org/2000/svg">
<g id="edit">
<path id="Vector" d="M10.542 4.33301H3.83366C3.32533 4.33301 2.83782 4.53494 2.47837 4.89439C2.11893 5.25383 1.91699 5.74134 1.91699 6.24967V19.6663C1.91699 20.1747 2.11893 20.6622 2.47837 21.0216C2.83782 21.3811 3.32533 21.583 3.83366 21.583H17.2503C17.7587 21.583 18.2462 21.3811 18.6056 21.0216C18.9651 20.6622 19.167 20.1747 19.167 19.6663V12.958" stroke="#FFCA42" stroke-width="2" stroke-linecap="round" stroke-linejoin="round"/>
<path id="Vector_2" d="M17.7295 2.89621C18.1107 2.51496 18.6278 2.30078 19.167 2.30078C19.7062 2.30078 20.2232 2.51496 20.6045 2.89621C20.9857 3.27746 21.1999 3.79455 21.1999 4.33371C21.1999 4.87288 20.9857 5.38996 20.6045 5.77121L11.5003 14.8754L7.66699 15.8337L8.62533 12.0004L17.7295 2.89621Z" stroke="#FFCA42" stroke-width="2" stroke-linecap="round" stroke-linejoin="round"/>
</g>
</svg>
