<svg width="471" height="217" viewBox="0 0 471 217" fill="none" xmlns="http://www.w3.org/2000/svg">
<path d="M10.1592 155.139C10.1592 154.748 10.1592 154.26 10.1592 153.674C10.1592 152.99 10.1592 152.307 10.1592 151.623C10.2568 150.939 10.3057 150.354 10.3057 149.865C10.4033 149.279 10.5498 148.889 10.7451 148.693L98.6357 14.3672C99.2217 13.4883 99.9053 12.8535 100.687 12.4629C101.468 11.9746 102.298 11.6328 103.177 11.4375C104.056 11.2422 104.886 11.1445 105.667 11.1445C106.546 11.0469 107.278 10.998 107.864 10.998C108.646 10.998 109.671 11.0469 110.94 11.1445C112.308 11.1445 113.577 11.291 114.749 11.584C116.019 11.7793 117.093 12.1211 117.972 12.6094C118.948 13.0977 119.437 13.8301 119.437 14.8066V129.357C119.437 131.213 119.534 132.287 119.729 132.58C120.022 132.873 120.853 133.02 122.22 133.02H146.683C147.757 133.02 148.782 133.117 149.759 133.312C150.735 133.508 151.224 134.289 151.224 135.656V157.336C151.224 159.68 150.247 160.852 148.294 160.852H121.634C120.56 160.852 119.925 160.998 119.729 161.291C119.534 161.486 119.437 162.316 119.437 163.781V211.389C119.437 211.877 119.241 212.658 118.851 213.732C118.558 214.807 117.435 215.344 115.481 215.344H89.4072C88.04 215.344 87.21 214.904 86.917 214.025C86.624 213.146 86.4775 212.463 86.4775 211.975V165.246C86.4775 164.172 86.4287 163.342 86.3311 162.756C86.3311 162.17 86.1357 161.73 85.7451 161.438C85.3545 161.145 84.7686 160.998 83.9873 160.998C83.2061 160.9 82.083 160.852 80.6182 160.852H16.6045C14.749 160.852 13.1865 160.266 11.917 159.094C10.7451 157.824 10.1592 156.506 10.1592 155.139ZM37.8447 131.262C37.8447 132.043 38.1377 132.531 38.7236 132.727C39.4072 132.922 40.6768 133.02 42.5322 133.02H83.2549C84.5244 133.02 85.3057 132.727 85.5986 132.141C85.9893 131.555 86.2822 130.871 86.4775 130.09V71.3496C86.4775 69.9824 86.2822 68.7129 85.8916 67.541C85.5986 66.2715 84.915 65.6367 83.8408 65.6367C83.0596 65.6367 82.2783 66.0273 81.4971 66.8086C80.8135 67.4922 80.1787 68.127 79.5928 68.7129L39.4561 128.771C39.2607 128.967 39.0654 129.211 38.8701 129.504C38.7725 129.699 38.626 129.943 38.4307 130.236C38.2354 130.627 38.04 130.969 37.8447 131.262Z" fill="#FFCA42"/>
<path d="M241.013 216.809C229.88 216.809 220.065 214.318 211.569 209.338C203.073 204.26 195.944 197.229 190.183 188.244C184.519 179.162 180.222 168.322 177.292 155.725C174.362 143.127 172.897 129.26 172.897 114.123C172.897 106.115 173.532 98.0098 174.802 89.8066C176.169 81.5059 178.122 73.5469 180.661 65.9297C183.2 58.2148 186.374 51.0371 190.183 44.3965C194.089 37.6582 198.532 31.8477 203.513 26.9648C208.591 21.9844 214.255 18.0781 220.505 15.2461C226.755 12.3164 233.591 10.8516 241.013 10.8516C248.435 10.8516 255.222 12.2676 261.374 15.0996C267.624 17.9316 273.19 21.8379 278.073 26.8184C282.956 31.7988 287.204 37.6582 290.817 44.3965C294.528 51.0371 297.556 58.2148 299.899 65.9297C302.341 73.5469 304.147 81.5059 305.319 89.8066C306.589 98.0098 307.224 106.164 307.224 114.27C307.224 129.406 305.856 143.273 303.122 155.871C300.388 168.469 296.237 179.309 290.671 188.391C285.202 197.375 278.317 204.357 270.017 209.338C261.813 214.318 252.146 216.809 241.013 216.809ZM207.468 114.27C207.468 121.887 207.614 129.455 207.907 136.975C208.2 144.396 208.786 151.525 209.665 158.361C210.544 165.1 211.716 171.35 213.181 177.111C214.743 182.873 216.745 187.854 219.187 192.053C221.726 196.252 224.753 199.572 228.269 202.014C231.882 204.357 236.13 205.529 241.013 205.529C245.896 205.529 250.095 204.309 253.61 201.867C257.126 199.426 260.056 196.105 262.399 191.906C264.743 187.609 266.599 182.531 267.966 176.672C269.333 170.812 270.358 164.514 271.042 157.775C271.726 150.939 272.165 143.811 272.36 136.389C272.556 128.967 272.653 121.496 272.653 113.977C272.653 107.824 272.458 101.281 272.067 94.3477C271.774 87.3164 271.188 80.4316 270.31 73.6934C269.528 66.8574 268.405 60.3633 266.94 54.2109C265.476 47.9609 263.571 42.4922 261.228 37.8047C258.884 33.0195 256.052 29.2109 252.731 26.3789C249.411 23.5469 245.554 22.1309 241.159 22.1309C236.276 22.1309 232.028 23.5469 228.415 26.3789C224.802 29.2109 221.726 33.0195 219.187 37.8047C216.745 42.5898 214.743 48.1074 213.181 54.3574C211.618 60.6074 210.397 67.1504 209.519 73.9863C208.737 80.8223 208.2 87.707 207.907 94.6406C207.614 101.574 207.468 108.117 207.468 114.27Z" fill="#FFCA42"/>
<path d="M329.776 155.139C329.776 154.748 329.776 154.26 329.776 153.674C329.776 152.99 329.776 152.307 329.776 151.623C329.874 150.939 329.923 150.354 329.923 149.865C330.021 149.279 330.167 148.889 330.362 148.693L418.253 14.3672C418.839 13.4883 419.522 12.8535 420.304 12.4629C421.085 11.9746 421.915 11.6328 422.794 11.4375C423.673 11.2422 424.503 11.1445 425.284 11.1445C426.163 11.0469 426.896 10.998 427.481 10.998C428.263 10.998 429.288 11.0469 430.558 11.1445C431.925 11.1445 433.194 11.291 434.366 11.584C435.636 11.7793 436.71 12.1211 437.589 12.6094C438.565 13.0977 439.054 13.8301 439.054 14.8066V129.357C439.054 131.213 439.151 132.287 439.347 132.58C439.64 132.873 440.47 133.02 441.837 133.02H466.3C467.374 133.02 468.399 133.117 469.376 133.312C470.353 133.508 470.841 134.289 470.841 135.656V157.336C470.841 159.68 469.864 160.852 467.911 160.852H441.251C440.177 160.852 439.542 160.998 439.347 161.291C439.151 161.486 439.054 162.316 439.054 163.781V211.389C439.054 211.877 438.858 212.658 438.468 213.732C438.175 214.807 437.052 215.344 435.099 215.344H409.024C407.657 215.344 406.827 214.904 406.534 214.025C406.241 213.146 406.095 212.463 406.095 211.975V165.246C406.095 164.172 406.046 163.342 405.948 162.756C405.948 162.17 405.753 161.73 405.362 161.438C404.972 161.145 404.386 160.998 403.604 160.998C402.823 160.9 401.7 160.852 400.235 160.852H336.222C334.366 160.852 332.804 160.266 331.534 159.094C330.362 157.824 329.776 156.506 329.776 155.139ZM357.462 131.262C357.462 132.043 357.755 132.531 358.341 132.727C359.024 132.922 360.294 133.02 362.149 133.02H402.872C404.142 133.02 404.923 132.727 405.216 132.141C405.606 131.555 405.899 130.871 406.095 130.09V71.3496C406.095 69.9824 405.899 68.7129 405.509 67.541C405.216 66.2715 404.532 65.6367 403.458 65.6367C402.677 65.6367 401.896 66.0273 401.114 66.8086C400.431 67.4922 399.796 68.127 399.21 68.7129L359.073 128.771C358.878 128.967 358.683 129.211 358.487 129.504C358.39 129.699 358.243 129.943 358.048 130.236C357.853 130.627 357.657 130.969 357.462 131.262Z" fill="#FFCA42"/>
<path d="M0.15918 145.139C0.15918 144.748 0.15918 144.26 0.15918 143.674C0.15918 142.99 0.15918 142.307 0.15918 141.623C0.256836 140.939 0.305664 140.354 0.305664 139.865C0.40332 139.279 0.549805 138.889 0.745117 138.693L88.6357 4.36719C89.2217 3.48828 89.9053 2.85352 90.6865 2.46289C91.4678 1.97461 92.2979 1.63281 93.1768 1.4375C94.0557 1.24219 94.8857 1.14453 95.667 1.14453C96.5459 1.04688 97.2783 0.998047 97.8643 0.998047C98.6455 0.998047 99.6709 1.04688 100.94 1.14453C102.308 1.14453 103.577 1.29102 104.749 1.58398C106.019 1.7793 107.093 2.12109 107.972 2.60938C108.948 3.09766 109.437 3.83008 109.437 4.80664V119.357C109.437 121.213 109.534 122.287 109.729 122.58C110.022 122.873 110.853 123.02 112.22 123.02H136.683C137.757 123.02 138.782 123.117 139.759 123.312C140.735 123.508 141.224 124.289 141.224 125.656V147.336C141.224 149.68 140.247 150.852 138.294 150.852H111.634C110.56 150.852 109.925 150.998 109.729 151.291C109.534 151.486 109.437 152.316 109.437 153.781V201.389C109.437 201.877 109.241 202.658 108.851 203.732C108.558 204.807 107.435 205.344 105.481 205.344H79.4072C78.04 205.344 77.21 204.904 76.917 204.025C76.624 203.146 76.4775 202.463 76.4775 201.975V155.246C76.4775 154.172 76.4287 153.342 76.3311 152.756C76.3311 152.17 76.1357 151.73 75.7451 151.438C75.3545 151.145 74.7686 150.998 73.9873 150.998C73.2061 150.9 72.083 150.852 70.6182 150.852H6.60449C4.74902 150.852 3.18652 150.266 1.91699 149.094C0.745117 147.824 0.15918 146.506 0.15918 145.139ZM27.8447 121.262C27.8447 122.043 28.1377 122.531 28.7236 122.727C29.4072 122.922 30.6768 123.02 32.5322 123.02H73.2549C74.5244 123.02 75.3057 122.727 75.5986 122.141C75.9893 121.555 76.2822 120.871 76.4775 120.09V61.3496C76.4775 59.9824 76.2822 58.7129 75.8916 57.541C75.5986 56.2715 74.915 55.6367 73.8408 55.6367C73.0596 55.6367 72.2783 56.0273 71.4971 56.8086C70.8135 57.4922 70.1787 58.127 69.5928 58.7129L29.4561 118.771C29.2607 118.967 29.0654 119.211 28.8701 119.504C28.7725 119.699 28.626 119.943 28.4307 120.236C28.2354 120.627 28.04 120.969 27.8447 121.262Z" fill="#1B3764"/>
<path d="M231.013 206.809C219.88 206.809 210.065 204.318 201.569 199.338C193.073 194.26 185.944 187.229 180.183 178.244C174.519 169.162 170.222 158.322 167.292 145.725C164.362 133.127 162.897 119.26 162.897 104.123C162.897 96.1152 163.532 88.0098 164.802 79.8066C166.169 71.5059 168.122 63.5469 170.661 55.9297C173.2 48.2148 176.374 41.0371 180.183 34.3965C184.089 27.6582 188.532 21.8477 193.513 16.9648C198.591 11.9844 204.255 8.07812 210.505 5.24609C216.755 2.31641 223.591 0.851562 231.013 0.851562C238.435 0.851562 245.222 2.26758 251.374 5.09961C257.624 7.93164 263.19 11.8379 268.073 16.8184C272.956 21.7988 277.204 27.6582 280.817 34.3965C284.528 41.0371 287.556 48.2148 289.899 55.9297C292.341 63.5469 294.147 71.5059 295.319 79.8066C296.589 88.0098 297.224 96.1641 297.224 104.27C297.224 119.406 295.856 133.273 293.122 145.871C290.388 158.469 286.237 169.309 280.671 178.391C275.202 187.375 268.317 194.357 260.017 199.338C251.813 204.318 242.146 206.809 231.013 206.809ZM197.468 104.27C197.468 111.887 197.614 119.455 197.907 126.975C198.2 134.396 198.786 141.525 199.665 148.361C200.544 155.1 201.716 161.35 203.181 167.111C204.743 172.873 206.745 177.854 209.187 182.053C211.726 186.252 214.753 189.572 218.269 192.014C221.882 194.357 226.13 195.529 231.013 195.529C235.896 195.529 240.095 194.309 243.61 191.867C247.126 189.426 250.056 186.105 252.399 181.906C254.743 177.609 256.599 172.531 257.966 166.672C259.333 160.812 260.358 154.514 261.042 147.775C261.726 140.939 262.165 133.811 262.36 126.389C262.556 118.967 262.653 111.496 262.653 103.977C262.653 97.8242 262.458 91.2812 262.067 84.3477C261.774 77.3164 261.188 70.4316 260.31 63.6934C259.528 56.8574 258.405 50.3633 256.94 44.2109C255.476 37.9609 253.571 32.4922 251.228 27.8047C248.884 23.0195 246.052 19.2109 242.731 16.3789C239.411 13.5469 235.554 12.1309 231.159 12.1309C226.276 12.1309 222.028 13.5469 218.415 16.3789C214.802 19.2109 211.726 23.0195 209.187 27.8047C206.745 32.5898 204.743 38.1074 203.181 44.3574C201.618 50.6074 200.397 57.1504 199.519 63.9863C198.737 70.8223 198.2 77.707 197.907 84.6406C197.614 91.5742 197.468 98.1172 197.468 104.27Z" fill="#1B3764"/>
<path d="M319.776 145.139C319.776 144.748 319.776 144.26 319.776 143.674C319.776 142.99 319.776 142.307 319.776 141.623C319.874 140.939 319.923 140.354 319.923 139.865C320.021 139.279 320.167 138.889 320.362 138.693L408.253 4.36719C408.839 3.48828 409.522 2.85352 410.304 2.46289C411.085 1.97461 411.915 1.63281 412.794 1.4375C413.673 1.24219 414.503 1.14453 415.284 1.14453C416.163 1.04688 416.896 0.998047 417.481 0.998047C418.263 0.998047 419.288 1.04688 420.558 1.14453C421.925 1.14453 423.194 1.29102 424.366 1.58398C425.636 1.7793 426.71 2.12109 427.589 2.60938C428.565 3.09766 429.054 3.83008 429.054 4.80664V119.357C429.054 121.213 429.151 122.287 429.347 122.58C429.64 122.873 430.47 123.02 431.837 123.02H456.3C457.374 123.02 458.399 123.117 459.376 123.312C460.353 123.508 460.841 124.289 460.841 125.656V147.336C460.841 149.68 459.864 150.852 457.911 150.852H431.251C430.177 150.852 429.542 150.998 429.347 151.291C429.151 151.486 429.054 152.316 429.054 153.781V201.389C429.054 201.877 428.858 202.658 428.468 203.732C428.175 204.807 427.052 205.344 425.099 205.344H399.024C397.657 205.344 396.827 204.904 396.534 204.025C396.241 203.146 396.095 202.463 396.095 201.975V155.246C396.095 154.172 396.046 153.342 395.948 152.756C395.948 152.17 395.753 151.73 395.362 151.438C394.972 151.145 394.386 150.998 393.604 150.998C392.823 150.9 391.7 150.852 390.235 150.852H326.222C324.366 150.852 322.804 150.266 321.534 149.094C320.362 147.824 319.776 146.506 319.776 145.139ZM347.462 121.262C347.462 122.043 347.755 122.531 348.341 122.727C349.024 122.922 350.294 123.02 352.149 123.02H392.872C394.142 123.02 394.923 122.727 395.216 122.141C395.606 121.555 395.899 120.871 396.095 120.09V61.3496C396.095 59.9824 395.899 58.7129 395.509 57.541C395.216 56.2715 394.532 55.6367 393.458 55.6367C392.677 55.6367 391.896 56.0273 391.114 56.8086C390.431 57.4922 389.796 58.127 389.21 58.7129L349.073 118.771C348.878 118.967 348.683 119.211 348.487 119.504C348.39 119.699 348.243 119.943 348.048 120.236C347.853 120.627 347.657 120.969 347.462 121.262Z" fill="#1B3764"/>
</svg>
