<svg width="120" height="21" viewBox="0 0 120 21" fill="none" xmlns="http://www.w3.org/2000/svg">
<path d="M110 20.5C108.687 20.5 107.386 20.2413 106.173 19.7388C104.96 19.2362 103.858 18.4997 102.929 17.5711C102 16.6425 101.264 15.5401 100.761 14.3268C100.259 13.1136 100 11.8132 100 10.5C100 9.18678 100.259 7.88642 100.761 6.67316C101.264 5.45991 102 4.35752 102.929 3.42893C103.858 2.50035 104.96 1.76375 106.173 1.2612C107.386 0.758657 108.687 0.499999 110 0.5L110 10.5L110 20.5Z" fill="#FFCA42"/>
<circle cx="85" cy="10.5" r="10" fill="#FFCA42"/>
<circle cx="60" cy="10.5" r="10" fill="#FFCA42"/>
<circle cx="35" cy="10.5" r="10" fill="#FFCA42"/>
<circle cx="10" cy="10.5" r="10" fill="#FFCA42"/>
</svg>
