<svg width="130" height="130" viewBox="0 0 130 130" fill="none" xmlns="http://www.w3.org/2000/svg">
<path d="M130 0H0V130H130V0Z" fill="white"/>
<path d="M19.92 16H16V19.92H19.92V16Z" fill="black"/>
<path d="M23.84 16H19.92V19.92H23.84V16Z" fill="black"/>
<path d="M27.76 16H23.84V19.92H27.76V16Z" fill="black"/>
<path d="M31.68 16H27.76V19.92H31.68V16Z" fill="black"/>
<path d="M35.6 16H31.68V19.92H35.6V16Z" fill="black"/>
<path d="M39.52 16H35.6V19.92H39.52V16Z" fill="black"/>
<path d="M43.44 16H39.52V19.92H43.44V16Z" fill="black"/>
<path d="M51.28 16H47.36V19.92H51.28V16Z" fill="black"/>
<path d="M55.2 16H51.28V19.92H55.2V16Z" fill="black"/>
<path d="M63.04 16H59.12V19.92H63.04V16Z" fill="black"/>
<path d="M66.96 16H63.04V19.92H66.96V16Z" fill="black"/>
<path d="M70.88 16H66.96V19.92H70.88V16Z" fill="black"/>
<path d="M82.64 16H78.72V19.92H82.64V16Z" fill="black"/>
<path d="M90.48 16H86.56V19.92H90.48V16Z" fill="black"/>
<path d="M94.4 16H90.48V19.92H94.4V16Z" fill="black"/>
<path d="M98.32 16H94.4V19.92H98.32V16Z" fill="black"/>
<path d="M102.24 16H98.32V19.92H102.24V16Z" fill="black"/>
<path d="M106.16 16H102.24V19.92H106.16V16Z" fill="black"/>
<path d="M110.08 16H106.16V19.92H110.08V16Z" fill="black"/>
<path d="M114 16H110.08V19.92H114V16Z" fill="black"/>
<path d="M19.92 19.92H16V23.84H19.92V19.92Z" fill="black"/>
<path d="M43.44 19.92H39.52L39.52 23.84H43.44V19.92Z" fill="black"/>
<path d="M55.2 19.92H51.28V23.84H55.2V19.92Z" fill="black"/>
<path d="M63.04 19.92H59.12V23.84H63.04V19.92Z" fill="black"/>
<path d="M66.96 19.92H63.04V23.84H66.96V19.92Z" fill="black"/>
<path d="M82.64 19.92H78.72V23.84H82.64V19.92Z" fill="black"/>
<path d="M90.48 19.92H86.56V23.84H90.48V19.92Z" fill="black"/>
<path d="M114 19.92H110.08V23.84H114V19.92Z" fill="black"/>
<path d="M19.92 23.84H16V27.76H19.92V23.84Z" fill="black"/>
<path d="M27.76 23.84H23.84V27.76H27.76V23.84Z" fill="black"/>
<path d="M31.68 23.84H27.76V27.76H31.68V23.84Z" fill="black"/>
<path d="M35.6 23.84H31.68V27.76H35.6V23.84Z" fill="black"/>
<path d="M43.44 23.84H39.52V27.76H43.44V23.84Z" fill="black"/>
<path d="M55.2 23.84H51.28V27.76H55.2V23.84Z" fill="black"/>
<path d="M63.04 23.84H59.12V27.76H63.04V23.84Z" fill="black"/>
<path d="M70.88 23.84H66.96V27.76H70.88V23.84Z" fill="black"/>
<path d="M74.8 23.84H70.88V27.76H74.8V23.84Z" fill="black"/>
<path d="M78.72 23.84H74.8V27.76H78.72V23.84Z" fill="black"/>
<path d="M82.64 23.84H78.72V27.76H82.64V23.84Z" fill="black"/>
<path d="M90.48 23.84H86.56V27.76H90.48V23.84Z" fill="black"/>
<path d="M98.32 23.84H94.4V27.76H98.32V23.84Z" fill="black"/>
<path d="M102.24 23.84H98.32V27.76H102.24V23.84Z" fill="black"/>
<path d="M106.16 23.84H102.24V27.76H106.16V23.84Z" fill="black"/>
<path d="M114 23.84H110.08V27.76H114V23.84Z" fill="black"/>
<path d="M19.92 27.76H16V31.68H19.92V27.76Z" fill="black"/>
<path d="M27.76 27.76H23.84V31.68H27.76V27.76Z" fill="black"/>
<path d="M31.68 27.76H27.76V31.68H31.68V27.76Z" fill="black"/>
<path d="M35.6 27.76H31.68V31.68H35.6V27.76Z" fill="black"/>
<path d="M43.44 27.76H39.52V31.68H43.44V27.76Z" fill="black"/>
<path d="M63.04 27.76H59.12V31.68H63.04V27.76Z" fill="black"/>
<path d="M74.8 27.76H70.88V31.68H74.8V27.76Z" fill="black"/>
<path d="M82.64 27.76H78.72V31.68H82.64V27.76Z" fill="black"/>
<path d="M90.48 27.76H86.56V31.68H90.48V27.76Z" fill="black"/>
<path d="M98.32 27.76H94.4V31.68H98.32V27.76Z" fill="black"/>
<path d="M102.24 27.76H98.32V31.68H102.24V27.76Z" fill="black"/>
<path d="M106.16 27.76H102.24V31.68H106.16V27.76Z" fill="black"/>
<path d="M114 27.76H110.08V31.68H114V27.76Z" fill="black"/>
<path d="M19.92 31.68H16V35.6H19.92V31.68Z" fill="black"/>
<path d="M27.76 31.68H23.84V35.6H27.76V31.68Z" fill="black"/>
<path d="M31.68 31.68H27.76V35.6H31.68V31.68Z" fill="black"/>
<path d="M35.6 31.68H31.68V35.6H35.6V31.68Z" fill="black"/>
<path d="M43.44 31.68H39.52V35.6H43.44V31.68Z" fill="black"/>
<path d="M51.28 31.68H47.36V35.6H51.28V31.68Z" fill="black"/>
<path d="M66.96 31.68H63.04V35.6H66.96V31.68Z" fill="black"/>
<path d="M70.88 31.68H66.96V35.6H70.88V31.68Z" fill="black"/>
<path d="M74.8 31.68H70.88V35.6H74.8V31.68Z" fill="black"/>
<path d="M78.72 31.68H74.8V35.6H78.72V31.68Z" fill="black"/>
<path d="M82.64 31.68H78.72V35.6H82.64V31.68Z" fill="black"/>
<path d="M90.48 31.68H86.56V35.6H90.48V31.68Z" fill="black"/>
<path d="M98.32 31.68H94.4V35.6H98.32V31.68Z" fill="black"/>
<path d="M102.24 31.68H98.32V35.6H102.24V31.68Z" fill="black"/>
<path d="M106.16 31.68H102.24V35.6H106.16V31.68Z" fill="black"/>
<path d="M114 31.68H110.08V35.6H114V31.68Z" fill="black"/>
<path d="M19.92 35.6H16V39.52H19.92V35.6Z" fill="black"/>
<path d="M43.44 35.6H39.52V39.52H43.44V35.6Z" fill="black"/>
<path d="M66.96 35.6H63.04V39.52H66.96V35.6Z" fill="black"/>
<path d="M78.72 35.6H74.8L74.8 39.52H78.72V35.6Z" fill="black"/>
<path d="M90.48 35.6H86.56V39.52H90.48V35.6Z" fill="black"/>
<path d="M114 35.6H110.08V39.52H114V35.6Z" fill="black"/>
<path d="M19.92 39.52H16V43.44H19.92V39.52Z" fill="black"/>
<path d="M23.84 39.52L19.92 39.52V43.44H23.84V39.52Z" fill="black"/>
<path d="M27.76 39.52H23.84V43.44H27.76V39.52Z" fill="black"/>
<path d="M31.68 39.52H27.76V43.44H31.68V39.52Z" fill="black"/>
<path d="M35.6 39.52H31.68V43.44H35.6V39.52Z" fill="black"/>
<path d="M39.52 39.52L35.6 39.52V43.44H39.52L39.52 39.52Z" fill="black"/>
<path d="M43.44 39.52H39.52L39.52 43.44H43.44V39.52Z" fill="black"/>
<path d="M51.28 39.52H47.36V43.44H51.28V39.52Z" fill="black"/>
<path d="M59.12 39.52H55.2V43.44H59.12V39.52Z" fill="black"/>
<path d="M66.96 39.52H63.04V43.44H66.96V39.52Z" fill="black"/>
<path d="M74.8 39.52L70.88 39.52V43.44H74.8L74.8 39.52Z" fill="black"/>
<path d="M82.64 39.52L78.72 39.52V43.44H82.64V39.52Z" fill="black"/>
<path d="M90.48 39.52H86.56V43.44H90.48V39.52Z" fill="black"/>
<path d="M94.4 39.52L90.48 39.52V43.44H94.4V39.52Z" fill="black"/>
<path d="M98.32 39.52H94.4V43.44H98.32V39.52Z" fill="black"/>
<path d="M102.24 39.52H98.32V43.44H102.24V39.52Z" fill="black"/>
<path d="M106.16 39.52H102.24V43.44H106.16V39.52Z" fill="black"/>
<path d="M110.08 39.52L106.16 39.52V43.44H110.08V39.52Z" fill="black"/>
<path d="M114 39.52H110.08V43.44H114V39.52Z" fill="black"/>
<path d="M51.28 43.44H47.36V47.36H51.28V43.44Z" fill="black"/>
<path d="M63.04 43.44H59.12V47.36H63.04V43.44Z" fill="black"/>
<path d="M66.96 43.44H63.04V47.36H66.96V43.44Z" fill="black"/>
<path d="M74.8 43.44H70.88V47.36H74.8V43.44Z" fill="black"/>
<path d="M78.72 43.44H74.8V47.36H78.72V43.44Z" fill="black"/>
<path d="M82.64 43.44H78.72V47.36H82.64V43.44Z" fill="black"/>
<path d="M19.92 47.36H16V51.28H19.92V47.36Z" fill="black"/>
<path d="M31.68 47.36H27.76V51.28H31.68V47.36Z" fill="black"/>
<path d="M35.6 47.36H31.68V51.28H35.6V47.36Z" fill="black"/>
<path d="M39.52 47.36H35.6V51.28H39.52V47.36Z" fill="black"/>
<path d="M43.44 47.36H39.52V51.28H43.44V47.36Z" fill="black"/>
<path d="M47.36 47.36H43.44V51.28H47.36V47.36Z" fill="black"/>
<path d="M51.28 47.36H47.36V51.28H51.28V47.36Z" fill="black"/>
<path d="M74.8 47.36H70.88V51.28H74.8V47.36Z" fill="black"/>
<path d="M82.64 47.36H78.72V51.28H82.64V47.36Z" fill="black"/>
<path d="M86.56 47.36H82.64V51.28H86.56V47.36Z" fill="black"/>
<path d="M90.48 47.36H86.56V51.28H90.48V47.36Z" fill="black"/>
<path d="M98.32 47.36H94.4V51.28H98.32V47.36Z" fill="black"/>
<path d="M114 47.36H110.08V51.28H114V47.36Z" fill="black"/>
<path d="M23.84 51.28H19.92V55.2H23.84V51.28Z" fill="black"/>
<path d="M27.76 51.28H23.84V55.2H27.76V51.28Z" fill="black"/>
<path d="M51.28 51.28H47.36V55.2H51.28V51.28Z" fill="black"/>
<path d="M55.2 51.28H51.28V55.2H55.2V51.28Z" fill="black"/>
<path d="M59.12 51.28H55.2V55.2H59.12V51.28Z" fill="black"/>
<path d="M63.04 51.28H59.12V55.2H63.04V51.28Z" fill="black"/>
<path d="M66.96 51.28H63.04V55.2H66.96V51.28Z" fill="black"/>
<path d="M70.88 51.28H66.96V55.2H70.88V51.28Z" fill="black"/>
<path d="M74.8 51.28H70.88V55.2H74.8V51.28Z" fill="black"/>
<path d="M98.32 51.28H94.4V55.2H98.32V51.28Z" fill="black"/>
<path d="M110.08 51.28H106.16V55.2H110.08V51.28Z" fill="black"/>
<path d="M114 51.28H110.08V55.2H114V51.28Z" fill="black"/>
<path d="M27.76 55.2H23.84V59.12H27.76V55.2Z" fill="black"/>
<path d="M31.68 55.2H27.76V59.12H31.68V55.2Z" fill="black"/>
<path d="M35.6 55.2H31.68V59.12H35.6V55.2Z" fill="black"/>
<path d="M39.52 55.2H35.6V59.12H39.52V55.2Z" fill="black"/>
<path d="M43.44 55.2H39.52V59.12H43.44V55.2Z" fill="black"/>
<path d="M47.36 55.2H43.44V59.12H47.36V55.2Z" fill="black"/>
<path d="M55.2 55.2H51.28V59.12H55.2V55.2Z" fill="black"/>
<path d="M63.04 55.2H59.12V59.12H63.04V55.2Z" fill="black"/>
<path d="M66.96 55.2H63.04V59.12H66.96V55.2Z" fill="black"/>
<path d="M90.48 55.2H86.56V59.12H90.48V55.2Z" fill="black"/>
<path d="M98.32 55.2H94.4V59.12H98.32V55.2Z" fill="black"/>
<path d="M114 55.2H110.08V59.12H114V55.2Z" fill="black"/>
<path d="M19.92 59.12H16V63.04H19.92V59.12Z" fill="black"/>
<path d="M35.6 59.12H31.68V63.04H35.6V59.12Z" fill="black"/>
<path d="M39.52 59.12H35.6V63.04H39.52V59.12Z" fill="black"/>
<path d="M51.28 59.12H47.36V63.04H51.28V59.12Z" fill="black"/>
<path d="M63.04 59.12H59.12V63.04H63.04V59.12Z" fill="black"/>
<path d="M82.64 59.12H78.72V63.04H82.64V59.12Z" fill="black"/>
<path d="M90.48 59.12H86.56V63.04H90.48V59.12Z" fill="black"/>
<path d="M94.4 59.12H90.48V63.04H94.4V59.12Z" fill="black"/>
<path d="M114 59.12H110.08V63.04H114V59.12Z" fill="black"/>
<path d="M19.92 63.04H16V66.96H19.92V63.04Z" fill="black"/>
<path d="M23.84 63.04H19.92V66.96H23.84V63.04Z" fill="black"/>
<path d="M43.44 63.04H39.52L39.52 66.96H43.44V63.04Z" fill="black"/>
<path d="M51.28 63.04H47.36V66.96H51.28V63.04Z" fill="black"/>
<path d="M63.04 63.04H59.12V66.96H63.04V63.04Z" fill="black"/>
<path d="M66.96 63.04H63.04V66.96H66.96V63.04Z" fill="black"/>
<path d="M78.72 63.04H74.8V66.96H78.72V63.04Z" fill="black"/>
<path d="M86.56 63.04H82.64V66.96H86.56V63.04Z" fill="black"/>
<path d="M90.48 63.04H86.56V66.96H90.48V63.04Z" fill="black"/>
<path d="M98.32 63.04H94.4V66.96H98.32V63.04Z" fill="black"/>
<path d="M110.08 63.04H106.16V66.96H110.08V63.04Z" fill="black"/>
<path d="M27.76 66.96H23.84V70.88H27.76V66.96Z" fill="black"/>
<path d="M35.6 66.96H31.68V70.88H35.6V66.96Z" fill="black"/>
<path d="M39.52 66.96H35.6V70.88H39.52L39.52 66.96Z" fill="black"/>
<path d="M51.28 66.96H47.36V70.88H51.28V66.96Z" fill="black"/>
<path d="M59.12 66.96H55.2V70.88H59.12V66.96Z" fill="black"/>
<path d="M63.04 66.96H59.12V70.88H63.04V66.96Z" fill="black"/>
<path d="M66.96 66.96H63.04V70.88H66.96V66.96Z" fill="black"/>
<path d="M70.88 66.96H66.96V70.88H70.88V66.96Z" fill="black"/>
<path d="M82.64 66.96H78.72V70.88H82.64V66.96Z" fill="black"/>
<path d="M90.48 66.96H86.56V70.88H90.48V66.96Z" fill="black"/>
<path d="M94.4 66.96H90.48V70.88H94.4V66.96Z" fill="black"/>
<path d="M98.32 66.96H94.4V70.88H98.32V66.96Z" fill="black"/>
<path d="M102.24 66.96H98.32V70.88H102.24V66.96Z" fill="black"/>
<path d="M114 66.96H110.08V70.88H114V66.96Z" fill="black"/>
<path d="M31.68 70.88H27.76V74.8H31.68V70.88Z" fill="black"/>
<path d="M35.6 70.88H31.68V74.8H35.6V70.88Z" fill="black"/>
<path d="M39.52 70.88H35.6V74.8H39.52V70.88Z" fill="black"/>
<path d="M43.44 70.88H39.52V74.8H43.44V70.88Z" fill="black"/>
<path d="M47.36 70.88H43.44V74.8H47.36V70.88Z" fill="black"/>
<path d="M51.28 70.88H47.36V74.8H51.28V70.88Z" fill="black"/>
<path d="M59.12 70.88H55.2V74.8H59.12V70.88Z" fill="black"/>
<path d="M70.88 70.88H66.96V74.8H70.88V70.88Z" fill="black"/>
<path d="M78.72 70.88H74.8V74.8H78.72V70.88Z" fill="black"/>
<path d="M82.64 70.88H78.72V74.8H82.64V70.88Z" fill="black"/>
<path d="M90.48 70.88H86.56V74.8H90.48V70.88Z" fill="black"/>
<path d="M102.24 70.88H98.32V74.8H102.24V70.88Z" fill="black"/>
<path d="M110.08 70.88H106.16V74.8H110.08V70.88Z" fill="black"/>
<path d="M114 70.88H110.08V74.8H114V70.88Z" fill="black"/>
<path d="M27.76 74.8L23.84 74.8V78.72H27.76V74.8Z" fill="black"/>
<path d="M31.68 74.8H27.76V78.72H31.68V74.8Z" fill="black"/>
<path d="M39.52 74.8H35.6V78.72H39.52V74.8Z" fill="black"/>
<path d="M51.28 74.8H47.36V78.72H51.28V74.8Z" fill="black"/>
<path d="M59.12 74.8H55.2V78.72H59.12V74.8Z" fill="black"/>
<path d="M63.04 74.8L59.12 74.8V78.72H63.04V74.8Z" fill="black"/>
<path d="M82.64 74.8H78.72V78.72H82.64V74.8Z" fill="black"/>
<path d="M90.48 74.8H86.56V78.72H90.48V74.8Z" fill="black"/>
<path d="M94.4 74.8L90.48 74.8V78.72H94.4V74.8Z" fill="black"/>
<path d="M106.16 74.8H102.24V78.72H106.16V74.8Z" fill="black"/>
<path d="M110.08 74.8H106.16V78.72H110.08V74.8Z" fill="black"/>
<path d="M23.84 78.72H19.92V82.64H23.84V78.72Z" fill="black"/>
<path d="M27.76 78.72H23.84V82.64H27.76V78.72Z" fill="black"/>
<path d="M31.68 78.72H27.76V82.64H31.68V78.72Z" fill="black"/>
<path d="M35.6 78.72H31.68V82.64H35.6V78.72Z" fill="black"/>
<path d="M43.44 78.72H39.52L39.52 82.64H43.44V78.72Z" fill="black"/>
<path d="M51.28 78.72H47.36V82.64H51.28V78.72Z" fill="black"/>
<path d="M63.04 78.72H59.12V82.64H63.04V78.72Z" fill="black"/>
<path d="M70.88 78.72H66.96V82.64H70.88V78.72Z" fill="black"/>
<path d="M74.8 78.72H70.88V82.64H74.8V78.72Z" fill="black"/>
<path d="M82.64 78.72H78.72V82.64H82.64V78.72Z" fill="black"/>
<path d="M86.56 78.72H82.64V82.64H86.56V78.72Z" fill="black"/>
<path d="M90.48 78.72H86.56V82.64H90.48V78.72Z" fill="black"/>
<path d="M94.4 78.72H90.48V82.64H94.4V78.72Z" fill="black"/>
<path d="M98.32 78.72H94.4V82.64H98.32V78.72Z" fill="black"/>
<path d="M106.16 78.72H102.24V82.64H106.16V78.72Z" fill="black"/>
<path d="M51.28 82.64H47.36V86.56H51.28V82.64Z" fill="black"/>
<path d="M59.12 82.64H55.2V86.56H59.12V82.64Z" fill="black"/>
<path d="M63.04 82.64H59.12V86.56H63.04V82.64Z" fill="black"/>
<path d="M66.96 82.64H63.04V86.56H66.96V82.64Z" fill="black"/>
<path d="M74.8 82.64H70.88V86.56H74.8V82.64Z" fill="black"/>
<path d="M82.64 82.64H78.72V86.56H82.64V82.64Z" fill="black"/>
<path d="M98.32 82.64H94.4V86.56H98.32V82.64Z" fill="black"/>
<path d="M102.24 82.64H98.32V86.56H102.24V82.64Z" fill="black"/>
<path d="M106.16 82.64H102.24V86.56H106.16V82.64Z" fill="black"/>
<path d="M114 82.64H110.08V86.56H114V82.64Z" fill="black"/>
<path d="M19.92 86.56H16V90.48H19.92V86.56Z" fill="black"/>
<path d="M23.84 86.56H19.92V90.48H23.84V86.56Z" fill="black"/>
<path d="M27.76 86.56H23.84V90.48H27.76V86.56Z" fill="black"/>
<path d="M31.68 86.56H27.76V90.48H31.68V86.56Z" fill="black"/>
<path d="M35.6 86.56H31.68V90.48H35.6V86.56Z" fill="black"/>
<path d="M39.52 86.56H35.6V90.48H39.52V86.56Z" fill="black"/>
<path d="M43.44 86.56H39.52V90.48H43.44V86.56Z" fill="black"/>
<path d="M51.28 86.56H47.36V90.48H51.28V86.56Z" fill="black"/>
<path d="M59.12 86.56H55.2V90.48H59.12V86.56Z" fill="black"/>
<path d="M66.96 86.56H63.04V90.48H66.96V86.56Z" fill="black"/>
<path d="M82.64 86.56H78.72V90.48H82.64V86.56Z" fill="black"/>
<path d="M90.48 86.56H86.56V90.48H90.48V86.56Z" fill="black"/>
<path d="M98.32 86.56H94.4V90.48H98.32V86.56Z" fill="black"/>
<path d="M102.24 86.56H98.32V90.48H102.24V86.56Z" fill="black"/>
<path d="M106.16 86.56H102.24V90.48H106.16V86.56Z" fill="black"/>
<path d="M110.08 86.56H106.16V90.48H110.08V86.56Z" fill="black"/>
<path d="M114 86.56H110.08V90.48H114V86.56Z" fill="black"/>
<path d="M19.92 90.48H16V94.4H19.92V90.48Z" fill="black"/>
<path d="M43.44 90.48H39.52L39.52 94.4H43.44V90.48Z" fill="black"/>
<path d="M51.28 90.48H47.36V94.4H51.28V90.48Z" fill="black"/>
<path d="M59.12 90.48H55.2V94.4H59.12V90.48Z" fill="black"/>
<path d="M66.96 90.48H63.04V94.4H66.96V90.48Z" fill="black"/>
<path d="M82.64 90.48H78.72V94.4H82.64V90.48Z" fill="black"/>
<path d="M98.32 90.48H94.4V94.4H98.32V90.48Z" fill="black"/>
<path d="M106.16 90.48H102.24V94.4H106.16V90.48Z" fill="black"/>
<path d="M114 90.48H110.08V94.4H114V90.48Z" fill="black"/>
<path d="M19.92 94.4H16V98.32H19.92V94.4Z" fill="black"/>
<path d="M27.76 94.4H23.84V98.32H27.76V94.4Z" fill="black"/>
<path d="M31.68 94.4H27.76V98.32H31.68V94.4Z" fill="black"/>
<path d="M35.6 94.4H31.68V98.32H35.6V94.4Z" fill="black"/>
<path d="M43.44 94.4H39.52V98.32H43.44V94.4Z" fill="black"/>
<path d="M51.28 94.4H47.36V98.32H51.28V94.4Z" fill="black"/>
<path d="M55.2 94.4H51.28V98.32H55.2V94.4Z" fill="black"/>
<path d="M70.88 94.4H66.96V98.32H70.88V94.4Z" fill="black"/>
<path d="M74.8 94.4H70.88V98.32H74.8V94.4Z" fill="black"/>
<path d="M82.64 94.4H78.72V98.32H82.64V94.4Z" fill="black"/>
<path d="M86.56 94.4H82.64V98.32H86.56V94.4Z" fill="black"/>
<path d="M90.48 94.4H86.56V98.32H90.48V94.4Z" fill="black"/>
<path d="M94.4 94.4H90.48V98.32H94.4V94.4Z" fill="black"/>
<path d="M98.32 94.4H94.4V98.32H98.32V94.4Z" fill="black"/>
<path d="M110.08 94.4H106.16V98.32H110.08V94.4Z" fill="black"/>
<path d="M114 94.4H110.08V98.32H114V94.4Z" fill="black"/>
<path d="M19.92 98.32H16V102.24H19.92V98.32Z" fill="black"/>
<path d="M27.76 98.32H23.84V102.24H27.76V98.32Z" fill="black"/>
<path d="M31.68 98.32H27.76V102.24H31.68V98.32Z" fill="black"/>
<path d="M35.6 98.32H31.68V102.24H35.6V98.32Z" fill="black"/>
<path d="M43.44 98.32H39.52V102.24H43.44V98.32Z" fill="black"/>
<path d="M51.28 98.32H47.36V102.24H51.28V98.32Z" fill="black"/>
<path d="M59.12 98.32H55.2V102.24H59.12V98.32Z" fill="black"/>
<path d="M70.88 98.32H66.96V102.24H70.88V98.32Z" fill="black"/>
<path d="M74.8 98.32H70.88V102.24H74.8V98.32Z" fill="black"/>
<path d="M78.72 98.32H74.8V102.24H78.72V98.32Z" fill="black"/>
<path d="M90.48 98.32H86.56V102.24H90.48V98.32Z" fill="black"/>
<path d="M19.92 102.24H16V106.16H19.92V102.24Z" fill="black"/>
<path d="M27.76 102.24H23.84V106.16H27.76V102.24Z" fill="black"/>
<path d="M31.68 102.24H27.76V106.16H31.68V102.24Z" fill="black"/>
<path d="M35.6 102.24H31.68V106.16H35.6V102.24Z" fill="black"/>
<path d="M43.44 102.24H39.52V106.16H43.44V102.24Z" fill="black"/>
<path d="M55.2 102.24H51.28V106.16H55.2V102.24Z" fill="black"/>
<path d="M59.12 102.24H55.2V106.16H59.12V102.24Z" fill="black"/>
<path d="M63.04 102.24H59.12V106.16H63.04V102.24Z" fill="black"/>
<path d="M66.96 102.24H63.04V106.16H66.96V102.24Z" fill="black"/>
<path d="M70.88 102.24H66.96V106.16H70.88V102.24Z" fill="black"/>
<path d="M78.72 102.24H74.8L74.8 106.16H78.72V102.24Z" fill="black"/>
<path d="M82.64 102.24H78.72V106.16H82.64V102.24Z" fill="black"/>
<path d="M90.48 102.24H86.56V106.16H90.48V102.24Z" fill="black"/>
<path d="M94.4 102.24H90.48V106.16H94.4V102.24Z" fill="black"/>
<path d="M106.16 102.24H102.24V106.16H106.16V102.24Z" fill="black"/>
<path d="M110.08 102.24H106.16V106.16H110.08V102.24Z" fill="black"/>
<path d="M114 102.24H110.08V106.16H114V102.24Z" fill="black"/>
<path d="M19.92 106.16H16V110.08H19.92V106.16Z" fill="black"/>
<path d="M43.44 106.16H39.52V110.08H43.44V106.16Z" fill="black"/>
<path d="M66.96 106.16H63.04V110.08H66.96V106.16Z" fill="black"/>
<path d="M78.72 106.16H74.8V110.08H78.72V106.16Z" fill="black"/>
<path d="M98.32 106.16H94.4V110.08H98.32V106.16Z" fill="black"/>
<path d="M106.16 106.16H102.24V110.08H106.16V106.16Z" fill="black"/>
<path d="M110.08 106.16H106.16V110.08H110.08V106.16Z" fill="black"/>
<path d="M114 106.16H110.08V110.08H114V106.16Z" fill="black"/>
<path d="M19.92 110.08H16V114H19.92V110.08Z" fill="black"/>
<path d="M23.84 110.08H19.92V114H23.84V110.08Z" fill="black"/>
<path d="M27.76 110.08H23.84V114H27.76V110.08Z" fill="black"/>
<path d="M31.68 110.08H27.76V114H31.68V110.08Z" fill="black"/>
<path d="M35.6 110.08H31.68V114H35.6V110.08Z" fill="black"/>
<path d="M39.52 110.08H35.6V114H39.52L39.52 110.08Z" fill="black"/>
<path d="M43.44 110.08H39.52L39.52 114H43.44V110.08Z" fill="black"/>
<path d="M51.28 110.08H47.36V114H51.28V110.08Z" fill="black"/>
<path d="M63.04 110.08H59.12V114H63.04V110.08Z" fill="black"/>
<path d="M78.72 110.08H74.8V114H78.72V110.08Z" fill="black"/>
<path d="M86.56 110.08H82.64V114H86.56V110.08Z" fill="black"/>
<path d="M102.24 110.08H98.32V114H102.24V110.08Z" fill="black"/>
<path d="M114 110.08H110.08V114H114V110.08Z" fill="black"/>
</svg>
