<svg width="1299" height="138" viewBox="0 0 1299 138" fill="none" xmlns="http://www.w3.org/2000/svg">
<rect width="1299" height="138" rx="5" fill="#1B3764"/>
<path d="M206.408 67V65.7727C206.408 65.4105 206.476 65.0291 206.612 64.6286C206.749 64.228 206.938 63.8445 207.181 63.478C207.424 63.1115 207.71 62.7983 208.038 62.5384L208.984 63.2159C208.724 63.5952 208.502 63.9915 208.319 64.4048C208.136 64.8182 208.044 65.2678 208.044 65.7536V67H206.408ZM209.668 67V65.7727C209.668 65.4105 209.736 65.0291 209.872 64.6286C210.009 64.228 210.198 63.8445 210.441 63.478C210.684 63.1115 210.969 62.7983 211.298 62.5384L212.244 63.2159C211.984 63.5952 211.762 63.9915 211.579 64.4048C211.396 64.8182 211.304 65.2678 211.304 65.7536V67H209.668ZM224.733 67.1662H222.738C222.662 66.7401 222.519 66.3651 222.31 66.0412C222.101 65.7173 221.846 65.4425 221.543 65.2166C221.24 64.9908 220.902 64.8203 220.527 64.7053C220.156 64.5902 219.762 64.5327 219.344 64.5327C218.59 64.5327 217.914 64.7223 217.318 65.1016C216.726 65.4808 216.257 66.0369 215.912 66.7699C215.571 67.5028 215.4 68.3977 215.4 69.4545C215.4 70.5199 215.571 71.419 215.912 72.152C216.257 72.8849 216.728 73.4389 217.324 73.8139C217.921 74.1889 218.592 74.3764 219.338 74.3764C219.751 74.3764 220.143 74.321 220.514 74.2102C220.889 74.0952 221.228 73.9268 221.53 73.7053C221.833 73.4837 222.088 73.2131 222.297 72.8935C222.51 72.5696 222.657 72.1989 222.738 71.7812L224.733 71.7876C224.626 72.4311 224.419 73.0234 224.113 73.5646C223.81 74.1016 223.42 74.5661 222.943 74.9581C222.47 75.3459 221.929 75.6463 221.319 75.8594C220.71 76.0724 220.045 76.179 219.325 76.179C218.191 76.179 217.182 75.9105 216.295 75.3736C215.409 74.8324 214.71 74.0589 214.199 73.0533C213.691 72.0476 213.438 70.848 213.438 69.4545C213.438 68.0568 213.694 66.8572 214.205 65.8558C214.716 64.8501 215.415 64.0788 216.302 63.5419C217.188 63.0007 218.196 62.7301 219.325 62.7301C220.02 62.7301 220.667 62.8303 221.268 63.0305C221.873 63.2266 222.417 63.5163 222.898 63.8999C223.38 64.2791 223.778 64.7436 224.093 65.2933C224.409 65.8388 224.622 66.4631 224.733 67.1662ZM226.763 76V66.1818H228.61V67.7415H228.712C228.891 67.2131 229.207 66.7976 229.658 66.495C230.114 66.1882 230.63 66.0348 231.205 66.0348C231.324 66.0348 231.465 66.0391 231.627 66.0476C231.793 66.0561 231.923 66.0668 232.017 66.0795V67.9077C231.94 67.8864 231.804 67.8629 231.608 67.8374C231.412 67.8075 231.216 67.7926 231.02 67.7926C230.568 67.7926 230.165 67.8885 229.812 68.0803C229.462 68.2678 229.185 68.5298 228.981 68.8665C228.776 69.1989 228.674 69.5781 228.674 70.0043V76H226.763ZM237.275 76.1982C236.355 76.1982 235.551 75.9872 234.865 75.5653C234.179 75.1435 233.646 74.5533 233.267 73.7947C232.888 73.0362 232.698 72.1499 232.698 71.1357C232.698 70.1172 232.888 69.2266 233.267 68.4638C233.646 67.701 234.179 67.1087 234.865 66.6868C235.551 66.2649 236.355 66.054 237.275 66.054C238.195 66.054 238.999 66.2649 239.685 66.6868C240.371 67.1087 240.904 67.701 241.283 68.4638C241.662 69.2266 241.852 70.1172 241.852 71.1357C241.852 72.1499 241.662 73.0362 241.283 73.7947C240.904 74.5533 240.371 75.1435 239.685 75.5653C238.999 75.9872 238.195 76.1982 237.275 76.1982ZM237.281 74.5938C237.878 74.5938 238.372 74.4361 238.764 74.1207C239.156 73.8054 239.446 73.3857 239.634 72.8615C239.825 72.3374 239.921 71.7599 239.921 71.1293C239.921 70.5028 239.825 69.9276 239.634 69.4034C239.446 68.875 239.156 68.451 238.764 68.1314C238.372 67.8118 237.878 67.652 237.281 67.652C236.681 67.652 236.182 67.8118 235.786 68.1314C235.394 68.451 235.102 68.875 234.91 69.4034C234.722 69.9276 234.629 70.5028 234.629 71.1293C234.629 71.7599 234.722 72.3374 234.91 72.8615C235.102 73.3857 235.394 73.8054 235.786 74.1207C236.182 74.4361 236.681 74.5938 237.281 74.5938ZM245.635 76L242.746 66.1818H244.721L246.645 73.392H246.741L248.671 66.1818H250.646L252.564 73.3601H252.66L254.571 66.1818H256.546L253.663 76H251.714L249.719 68.9112H249.572L247.578 76H245.635ZM261.556 76.1918C260.764 76.1918 260.056 75.9893 259.434 75.5845C258.816 75.1754 258.33 74.5937 257.977 73.8395C257.627 73.081 257.453 72.1712 257.453 71.1101C257.453 70.049 257.629 69.1413 257.983 68.3871C258.341 67.6328 258.831 67.0554 259.453 66.6548C260.075 66.2543 260.781 66.054 261.569 66.054C262.178 66.054 262.669 66.1562 263.039 66.3608C263.414 66.5611 263.704 66.7955 263.909 67.0639C264.117 67.3324 264.279 67.5689 264.394 67.7734H264.509V62.9091H266.421V76H264.554V74.4723H264.394C264.279 74.6811 264.113 74.9197 263.896 75.1882C263.683 75.4567 263.389 75.6911 263.014 75.8913C262.639 76.0916 262.153 76.1918 261.556 76.1918ZM261.978 74.5618C262.528 74.5618 262.992 74.4169 263.372 74.1271C263.755 73.8331 264.045 73.4261 264.241 72.9062C264.441 72.3864 264.541 71.7812 264.541 71.0909C264.541 70.4091 264.443 69.8125 264.247 69.3011C264.051 68.7898 263.764 68.3913 263.384 68.1058C263.005 67.8203 262.536 67.6776 261.978 67.6776C261.403 67.6776 260.924 67.8267 260.54 68.125C260.156 68.4233 259.867 68.8303 259.671 69.3459C259.479 69.8615 259.383 70.4432 259.383 71.0909C259.383 71.7472 259.481 72.3374 259.677 72.8615C259.873 73.3857 260.163 73.8011 260.546 74.108C260.934 74.4105 261.411 74.5618 261.978 74.5618ZM276.326 68.5788L274.593 68.8857C274.521 68.6641 274.406 68.4531 274.248 68.2528C274.095 68.0526 273.886 67.8885 273.622 67.7607C273.358 67.6328 273.027 67.5689 272.631 67.5689C272.09 67.5689 271.638 67.6903 271.276 67.9332C270.914 68.1719 270.733 68.4808 270.733 68.8601C270.733 69.1882 270.854 69.4524 271.097 69.6527C271.34 69.853 271.732 70.017 272.273 70.1449L273.833 70.5028C274.736 70.7116 275.41 71.0334 275.853 71.468C276.296 71.9027 276.517 72.4673 276.517 73.1619C276.517 73.75 276.347 74.2741 276.006 74.7344C275.669 75.1903 275.199 75.5483 274.593 75.8082C273.993 76.0682 273.296 76.1982 272.503 76.1982C271.404 76.1982 270.507 75.9638 269.812 75.495C269.118 75.022 268.691 74.3509 268.534 73.4815L270.381 73.2003C270.496 73.6818 270.733 74.0462 271.091 74.2933C271.449 74.5362 271.915 74.6577 272.49 74.6577C273.117 74.6577 273.618 74.5277 273.993 74.2678C274.368 74.0036 274.555 73.6818 274.555 73.3026C274.555 72.9957 274.44 72.7379 274.21 72.5291C273.984 72.3203 273.637 72.1626 273.168 72.0561L271.506 71.6918C270.59 71.483 269.912 71.1506 269.473 70.6946C269.039 70.2386 268.821 69.6612 268.821 68.9624C268.821 68.3828 268.983 67.8757 269.307 67.4411C269.631 67.0064 270.079 66.6676 270.65 66.4247C271.221 66.1776 271.875 66.054 272.612 66.054C273.673 66.054 274.508 66.2841 275.118 66.7443C275.727 67.2003 276.13 67.8118 276.326 68.5788ZM282.575 76.1982C281.654 76.1982 280.851 75.9872 280.165 75.5653C279.479 75.1435 278.946 74.5533 278.567 73.7947C278.187 73.0362 277.998 72.1499 277.998 71.1357C277.998 70.1172 278.187 69.2266 278.567 68.4638C278.946 67.701 279.479 67.1087 280.165 66.6868C280.851 66.2649 281.654 66.054 282.575 66.054C283.495 66.054 284.298 66.2649 284.984 66.6868C285.67 67.1087 286.203 67.701 286.582 68.4638C286.962 69.2266 287.151 70.1172 287.151 71.1357C287.151 72.1499 286.962 73.0362 286.582 73.7947C286.203 74.5533 285.67 75.1435 284.984 75.5653C284.298 75.9872 283.495 76.1982 282.575 76.1982ZM282.581 74.5938C283.177 74.5938 283.672 74.4361 284.064 74.1207C284.456 73.8054 284.746 73.3857 284.933 72.8615C285.125 72.3374 285.221 71.7599 285.221 71.1293C285.221 70.5028 285.125 69.9276 284.933 69.4034C284.746 68.875 284.456 68.451 284.064 68.1314C283.672 67.8118 283.177 67.652 282.581 67.652C281.98 67.652 281.481 67.8118 281.085 68.1314C280.693 68.451 280.401 68.875 280.209 69.4034C280.022 69.9276 279.928 70.5028 279.928 71.1293C279.928 71.7599 280.022 72.3374 280.209 72.8615C280.401 73.3857 280.693 73.8054 281.085 74.1207C281.481 74.4361 281.98 74.5938 282.581 74.5938ZM295.324 71.9283V66.1818H297.242V76H295.362V74.2997H295.26C295.034 74.8239 294.672 75.2607 294.173 75.6101C293.679 75.9553 293.063 76.1278 292.326 76.1278C291.695 76.1278 291.137 75.9893 290.651 75.7124C290.17 75.4311 289.791 75.0156 289.514 74.4659C289.241 73.9162 289.105 73.2365 289.105 72.4268V66.1818H291.016V72.1967C291.016 72.8658 291.201 73.3984 291.572 73.7947C291.943 74.1911 292.424 74.3892 293.016 74.3892C293.374 74.3892 293.73 74.2997 294.084 74.1207C294.442 73.9418 294.738 73.6712 294.972 73.3089C295.211 72.9467 295.328 72.4865 295.324 71.9283ZM299.63 76V66.1818H301.477V67.7415H301.579C301.758 67.2131 302.074 66.7976 302.525 66.495C302.981 66.1882 303.497 66.0348 304.072 66.0348C304.191 66.0348 304.332 66.0391 304.494 66.0476C304.66 66.0561 304.79 66.0668 304.884 66.0795V67.9077C304.807 67.8864 304.671 67.8629 304.475 67.8374C304.279 67.8075 304.083 67.7926 303.887 67.7926C303.435 67.7926 303.032 67.8885 302.679 68.0803C302.329 68.2678 302.052 68.5298 301.848 68.8665C301.643 69.1989 301.541 69.5781 301.541 70.0043V76H299.63ZM310.142 76.1982C309.192 76.1982 308.373 75.983 307.687 75.5526C307.006 75.1179 306.481 74.5192 306.115 73.7564C305.748 72.9936 305.565 72.12 305.565 71.1357C305.565 70.1385 305.753 69.2585 306.128 68.4957C306.503 67.7287 307.031 67.13 307.713 66.6996C308.395 66.2692 309.198 66.054 310.123 66.054C310.868 66.054 311.533 66.1925 312.117 66.4695C312.701 66.7422 313.172 67.1257 313.53 67.62C313.892 68.1143 314.107 68.6918 314.175 69.3523H312.315C312.213 68.892 311.979 68.4957 311.612 68.1634C311.25 67.831 310.764 67.6648 310.155 67.6648C309.622 67.6648 309.155 67.8054 308.755 68.0866C308.359 68.3636 308.05 68.7599 307.828 69.2756C307.606 69.7869 307.496 70.392 307.496 71.0909C307.496 71.8068 307.604 72.4247 307.822 72.9446C308.039 73.4645 308.346 73.8672 308.742 74.1527C309.143 74.4382 309.614 74.581 310.155 74.581C310.517 74.581 310.845 74.5149 311.139 74.3828C311.437 74.2464 311.687 74.0526 311.887 73.8011C312.092 73.5497 312.234 73.2472 312.315 72.8935H314.175C314.107 73.5284 313.9 74.0952 313.555 74.5938C313.21 75.0923 312.748 75.4844 312.168 75.7699C311.593 76.0554 310.918 76.1982 310.142 76.1982ZM320.271 76.1982C319.303 76.1982 318.47 75.9915 317.771 75.5781C317.077 75.1605 316.54 74.5746 316.161 73.8203C315.786 73.0618 315.598 72.1733 315.598 71.1548C315.598 70.1491 315.786 69.2628 316.161 68.4957C316.54 67.7287 317.068 67.13 317.746 66.6996C318.428 66.2692 319.225 66.054 320.136 66.054C320.69 66.054 321.227 66.1456 321.747 66.3288C322.267 66.5121 322.734 66.7997 323.147 67.1918C323.56 67.5838 323.886 68.093 324.125 68.7195C324.364 69.3416 324.483 70.098 324.483 70.9886V71.6662H316.678V70.2344H322.61C322.61 69.7315 322.508 69.2862 322.303 68.8984C322.099 68.5064 321.811 68.1974 321.44 67.9716C321.074 67.7457 320.644 67.6328 320.149 67.6328C319.612 67.6328 319.144 67.7649 318.743 68.0291C318.347 68.2891 318.04 68.63 317.823 69.0518C317.609 69.4695 317.503 69.9233 317.503 70.4134V71.532C317.503 72.1882 317.618 72.7464 317.848 73.2067C318.082 73.6669 318.408 74.0185 318.826 74.2614C319.244 74.5 319.732 74.6193 320.29 74.6193C320.652 74.6193 320.982 74.5682 321.281 74.4659C321.579 74.3594 321.837 74.2017 322.054 73.9929C322.271 73.7841 322.438 73.5263 322.553 73.2195L324.362 73.5455C324.217 74.0781 323.957 74.5447 323.582 74.9453C323.211 75.3416 322.744 75.6506 322.182 75.8722C321.624 76.0895 320.987 76.1982 320.271 76.1982ZM335.59 66.1818V67.7159H330.227V66.1818H335.59ZM331.666 63.8295H333.577V73.1172C333.577 73.4879 333.632 73.767 333.743 73.9545C333.854 74.1378 333.997 74.2635 334.171 74.3317C334.35 74.3956 334.544 74.4276 334.753 74.4276C334.906 74.4276 335.041 74.4169 335.156 74.3956C335.271 74.3743 335.36 74.3572 335.424 74.3445L335.769 75.9233C335.659 75.9659 335.501 76.0085 335.296 76.0511C335.092 76.098 334.836 76.1236 334.529 76.1278C334.026 76.1364 333.558 76.0469 333.123 75.8594C332.688 75.6719 332.337 75.3821 332.068 74.9901C331.8 74.598 331.666 74.1058 331.666 73.5135V63.8295ZM341.651 76.1982C340.683 76.1982 339.85 75.9915 339.151 75.5781C338.457 75.1605 337.92 74.5746 337.541 73.8203C337.166 73.0618 336.978 72.1733 336.978 71.1548C336.978 70.1491 337.166 69.2628 337.541 68.4957C337.92 67.7287 338.448 67.13 339.126 66.6996C339.808 66.2692 340.604 66.054 341.516 66.054C342.07 66.054 342.607 66.1456 343.127 66.3288C343.647 66.5121 344.114 66.7997 344.527 67.1918C344.94 67.5838 345.266 68.093 345.505 68.7195C345.744 69.3416 345.863 70.098 345.863 70.9886V71.6662H338.058V70.2344H343.99C343.99 69.7315 343.888 69.2862 343.683 68.8984C343.479 68.5064 343.191 68.1974 342.82 67.9716C342.454 67.7457 342.023 67.6328 341.529 67.6328C340.992 67.6328 340.523 67.7649 340.123 68.0291C339.727 68.2891 339.42 68.63 339.202 69.0518C338.989 69.4695 338.883 69.9233 338.883 70.4134V71.532C338.883 72.1882 338.998 72.7464 339.228 73.2067C339.462 73.6669 339.788 74.0185 340.206 74.2614C340.624 74.5 341.112 74.6193 341.67 74.6193C342.032 74.6193 342.362 74.5682 342.661 74.4659C342.959 74.3594 343.217 74.2017 343.434 73.9929C343.651 73.7841 343.818 73.5263 343.933 73.2195L345.742 73.5455C345.597 74.0781 345.337 74.5447 344.962 74.9453C344.591 75.3416 344.124 75.6506 343.562 75.8722C343.004 76.0895 342.367 76.1982 341.651 76.1982ZM347.804 76V66.1818H349.651V67.7415H349.753C349.932 67.2131 350.247 66.7976 350.699 66.495C351.155 66.1882 351.671 66.0348 352.246 66.0348C352.365 66.0348 352.506 66.0391 352.668 66.0476C352.834 66.0561 352.964 66.0668 353.058 66.0795V67.9077C352.981 67.8864 352.845 67.8629 352.649 67.8374C352.453 67.8075 352.257 67.7926 352.061 67.7926C351.609 67.7926 351.206 67.8885 350.853 68.0803C350.503 68.2678 350.226 68.5298 350.022 68.8665C349.817 69.1989 349.715 69.5781 349.715 70.0043V76H347.804ZM354.532 76V66.1818H356.366V67.7798H356.488C356.692 67.2386 357.027 66.8168 357.491 66.5142C357.956 66.2074 358.512 66.054 359.16 66.054C359.816 66.054 360.366 66.2074 360.809 66.5142C361.256 66.821 361.586 67.2429 361.8 67.7798H361.902C362.136 67.2557 362.509 66.8381 363.02 66.527C363.532 66.2116 364.141 66.054 364.849 66.054C365.739 66.054 366.466 66.3331 367.028 66.8913C367.595 67.4496 367.878 68.2912 367.878 69.4162V76H365.967V69.5952C365.967 68.9304 365.786 68.4489 365.424 68.1506C365.062 67.8523 364.629 67.7031 364.126 67.7031C363.504 67.7031 363.02 67.8949 362.675 68.2784C362.33 68.6577 362.157 69.1456 362.157 69.7422V76H360.253V69.4737C360.253 68.9411 360.086 68.5128 359.754 68.1889C359.422 67.8651 358.989 67.7031 358.456 67.7031C358.094 67.7031 357.76 67.799 357.453 67.9908C357.15 68.1783 356.905 68.4403 356.718 68.777C356.535 69.1136 356.443 69.5036 356.443 69.9467V76H354.532ZM382.201 68.5788L380.469 68.8857C380.396 68.6641 380.281 68.4531 380.123 68.2528C379.97 68.0526 379.761 67.8885 379.497 67.7607C379.233 67.6328 378.903 67.5689 378.506 67.5689C377.965 67.5689 377.513 67.6903 377.151 67.9332C376.789 68.1719 376.608 68.4808 376.608 68.8601C376.608 69.1882 376.729 69.4524 376.972 69.6527C377.215 69.853 377.607 70.017 378.148 70.1449L379.708 70.5028C380.611 70.7116 381.285 71.0334 381.728 71.468C382.171 71.9027 382.393 72.4673 382.393 73.1619C382.393 73.75 382.222 74.2741 381.881 74.7344C381.545 75.1903 381.074 75.5483 380.469 75.8082C379.868 76.0682 379.171 76.1982 378.378 76.1982C377.279 76.1982 376.382 75.9638 375.687 75.495C374.993 75.022 374.567 74.3509 374.409 73.4815L376.256 73.2003C376.371 73.6818 376.608 74.0462 376.966 74.2933C377.324 74.5362 377.79 74.6577 378.366 74.6577C378.992 74.6577 379.493 74.5277 379.868 74.2678C380.243 74.0036 380.43 73.6818 380.43 73.3026C380.43 72.9957 380.315 72.7379 380.085 72.5291C379.859 72.3203 379.512 72.1626 379.043 72.0561L377.381 71.6918C376.465 71.483 375.788 71.1506 375.349 70.6946C374.914 70.2386 374.697 69.6612 374.697 68.9624C374.697 68.3828 374.859 67.8757 375.182 67.4411C375.506 67.0064 375.954 66.6676 376.525 66.4247C377.096 66.1776 377.75 66.054 378.487 66.054C379.548 66.054 380.383 66.2841 380.993 66.7443C381.602 67.2003 382.005 67.8118 382.201 68.5788ZM386.225 70.1705V76H384.314V62.9091H386.2V67.7798H386.321C386.551 67.2514 386.903 66.8317 387.376 66.5206C387.849 66.2095 388.467 66.054 389.23 66.054C389.903 66.054 390.491 66.1925 390.994 66.4695C391.501 66.7464 391.893 67.1598 392.17 67.7095C392.451 68.255 392.592 68.9368 392.592 69.755V76H390.68V69.9851C390.68 69.2649 390.495 68.7067 390.124 68.3104C389.754 67.9098 389.238 67.7095 388.578 67.7095C388.126 67.7095 387.721 67.8054 387.363 67.9972C387.009 68.1889 386.73 68.4702 386.526 68.8409C386.325 69.2074 386.225 69.6506 386.225 70.1705ZM399.194 76.1982C398.226 76.1982 397.393 75.9915 396.694 75.5781C396 75.1605 395.463 74.5746 395.084 73.8203C394.709 73.0618 394.521 72.1733 394.521 71.1548C394.521 70.1491 394.709 69.2628 395.084 68.4957C395.463 67.7287 395.991 67.13 396.669 66.6996C397.351 66.2692 398.148 66.054 399.059 66.054C399.613 66.054 400.15 66.1456 400.67 66.3288C401.19 66.5121 401.657 66.7997 402.07 67.1918C402.483 67.5838 402.809 68.093 403.048 68.7195C403.287 69.3416 403.406 70.098 403.406 70.9886V71.6662H395.601V70.2344H401.533C401.533 69.7315 401.431 69.2862 401.226 68.8984C401.022 68.5064 400.734 68.1974 400.363 67.9716C399.997 67.7457 399.567 67.6328 399.072 67.6328C398.535 67.6328 398.067 67.7649 397.666 68.0291C397.27 68.2891 396.963 68.63 396.746 69.0518C396.532 69.4695 396.426 69.9233 396.426 70.4134V71.532C396.426 72.1882 396.541 72.7464 396.771 73.2067C397.005 73.6669 397.331 74.0185 397.749 74.2614C398.167 74.5 398.655 74.6193 399.213 74.6193C399.575 74.6193 399.905 74.5682 400.204 74.4659C400.502 74.3594 400.76 74.2017 400.977 73.9929C401.194 73.7841 401.361 73.5263 401.476 73.2195L403.285 73.5455C403.14 74.0781 402.88 74.5447 402.505 74.9453C402.134 75.3416 401.667 75.6506 401.105 75.8722C400.547 76.0895 399.91 76.1982 399.194 76.1982ZM409.578 76.1982C408.611 76.1982 407.778 75.9915 407.079 75.5781C406.384 75.1605 405.847 74.5746 405.468 73.8203C405.093 73.0618 404.906 72.1733 404.906 71.1548C404.906 70.1491 405.093 69.2628 405.468 68.4957C405.847 67.7287 406.376 67.13 407.053 66.6996C407.735 66.2692 408.532 66.054 409.444 66.054C409.998 66.054 410.535 66.1456 411.055 66.3288C411.575 66.5121 412.041 66.7997 412.455 67.1918C412.868 67.5838 413.194 68.093 413.433 68.7195C413.671 69.3416 413.79 70.098 413.79 70.9886V71.6662H405.986V70.2344H411.918C411.918 69.7315 411.815 69.2862 411.611 68.8984C411.406 68.5064 411.119 68.1974 410.748 67.9716C410.381 67.7457 409.951 67.6328 409.457 67.6328C408.92 67.6328 408.451 67.7649 408.05 68.0291C407.654 68.2891 407.347 68.63 407.13 69.0518C406.917 69.4695 406.81 69.9233 406.81 70.4134V71.532C406.81 72.1882 406.925 72.7464 407.156 73.2067C407.39 73.6669 407.716 74.0185 408.134 74.2614C408.551 74.5 409.039 74.6193 409.597 74.6193C409.96 74.6193 410.29 74.5682 410.588 74.4659C410.886 74.3594 411.144 74.2017 411.362 73.9929C411.579 73.7841 411.745 73.5263 411.86 73.2195L413.669 73.5455C413.524 74.0781 413.264 74.5447 412.889 74.9453C412.518 75.3416 412.052 75.6506 411.489 75.8722C410.931 76.0895 410.294 76.1982 409.578 76.1982ZM420.314 66.1818V67.7159H414.951V66.1818H420.314ZM416.389 63.8295H418.301V73.1172C418.301 73.4879 418.356 73.767 418.467 73.9545C418.578 74.1378 418.72 74.2635 418.895 74.3317C419.074 74.3956 419.268 74.4276 419.477 74.4276C419.63 74.4276 419.764 74.4169 419.879 74.3956C419.995 74.3743 420.084 74.3572 420.148 74.3445L420.493 75.9233C420.382 75.9659 420.225 76.0085 420.02 76.0511C419.816 76.098 419.56 76.1236 419.253 76.1278C418.75 76.1364 418.281 76.0469 417.847 75.8594C417.412 75.6719 417.061 75.3821 416.792 74.9901C416.524 74.598 416.389 74.1058 416.389 73.5135V63.8295ZM431.505 66.1818V67.7159H425.956V66.1818H431.505ZM427.478 76V65.044C427.478 64.4304 427.612 63.9212 427.88 63.5163C428.149 63.1072 428.505 62.8026 428.948 62.6023C429.391 62.3977 429.872 62.2955 430.392 62.2955C430.776 62.2955 431.104 62.3274 431.377 62.3913C431.649 62.451 431.852 62.5064 431.984 62.5575L431.537 64.1044C431.447 64.0788 431.332 64.049 431.191 64.0149C431.051 63.9766 430.88 63.9574 430.68 63.9574C430.216 63.9574 429.883 64.0724 429.683 64.3026C429.487 64.5327 429.389 64.8651 429.389 65.2997V76H427.478ZM433.297 76V66.1818H435.144V67.7415H435.246C435.425 67.2131 435.74 66.7976 436.192 66.495C436.648 66.1882 437.164 66.0348 437.739 66.0348C437.858 66.0348 437.999 66.0391 438.161 66.0476C438.327 66.0561 438.457 66.0668 438.551 66.0795V67.9077C438.474 67.8864 438.338 67.8629 438.142 67.8374C437.946 67.8075 437.75 67.7926 437.554 67.7926C437.102 67.7926 436.699 67.8885 436.346 68.0803C435.996 68.2678 435.719 68.5298 435.515 68.8665C435.31 69.1989 435.208 69.5781 435.208 70.0043V76H433.297ZM443.905 76.1982C442.937 76.1982 442.104 75.9915 441.405 75.5781C440.711 75.1605 440.174 74.5746 439.795 73.8203C439.42 73.0618 439.232 72.1733 439.232 71.1548C439.232 70.1491 439.42 69.2628 439.795 68.4957C440.174 67.7287 440.702 67.13 441.38 66.6996C442.062 66.2692 442.859 66.054 443.77 66.054C444.324 66.054 444.861 66.1456 445.381 66.3288C445.901 66.5121 446.368 66.7997 446.781 67.1918C447.194 67.5838 447.52 68.093 447.759 68.7195C447.998 69.3416 448.117 70.098 448.117 70.9886V71.6662H440.312V70.2344H446.244C446.244 69.7315 446.142 69.2862 445.937 68.8984C445.733 68.5064 445.445 68.1974 445.074 67.9716C444.708 67.7457 444.278 67.6328 443.783 67.6328C443.246 67.6328 442.778 67.7649 442.377 68.0291C441.981 68.2891 441.674 68.63 441.457 69.0518C441.243 69.4695 441.137 69.9233 441.137 70.4134V71.532C441.137 72.1882 441.252 72.7464 441.482 73.2067C441.716 73.6669 442.042 74.0185 442.46 74.2614C442.878 74.5 443.366 74.6193 443.924 74.6193C444.286 74.6193 444.616 74.5682 444.915 74.4659C445.213 74.3594 445.471 74.2017 445.688 73.9929C445.905 73.7841 446.072 73.5263 446.187 73.2195L447.996 73.5455C447.851 74.0781 447.591 74.5447 447.216 74.9453C446.845 75.3416 446.378 75.6506 445.816 75.8722C445.258 76.0895 444.621 76.1982 443.905 76.1982ZM454.289 76.1982C453.322 76.1982 452.489 75.9915 451.79 75.5781C451.095 75.1605 450.558 74.5746 450.179 73.8203C449.804 73.0618 449.617 72.1733 449.617 71.1548C449.617 70.1491 449.804 69.2628 450.179 68.4957C450.558 67.7287 451.087 67.13 451.764 66.6996C452.446 66.2692 453.243 66.054 454.155 66.054C454.709 66.054 455.246 66.1456 455.766 66.3288C456.286 66.5121 456.752 66.7997 457.166 67.1918C457.579 67.5838 457.905 68.093 458.144 68.7195C458.382 69.3416 458.502 70.098 458.502 70.9886V71.6662H450.697V70.2344H456.629C456.629 69.7315 456.526 69.2862 456.322 68.8984C456.117 68.5064 455.83 68.1974 455.459 67.9716C455.092 67.7457 454.662 67.6328 454.168 67.6328C453.631 67.6328 453.162 67.7649 452.761 68.0291C452.365 68.2891 452.058 68.63 451.841 69.0518C451.628 69.4695 451.521 69.9233 451.521 70.4134V71.532C451.521 72.1882 451.636 72.7464 451.867 73.2067C452.101 73.6669 452.427 74.0185 452.845 74.2614C453.262 74.5 453.75 74.6193 454.308 74.6193C454.671 74.6193 455.001 74.5682 455.299 74.4659C455.597 74.3594 455.855 74.2017 456.073 73.9929C456.29 73.7841 456.456 73.5263 456.571 73.2195L458.38 73.5455C458.235 74.0781 457.975 74.5447 457.6 74.9453C457.229 75.3416 456.763 75.6506 456.2 75.8722C455.642 76.0895 455.005 76.1982 454.289 76.1982ZM460.442 76V66.1818H462.277V67.7798H462.398C462.603 67.2386 462.937 66.8168 463.402 66.5142C463.866 66.2074 464.422 66.054 465.07 66.054C465.726 66.054 466.276 66.2074 466.719 66.5142C467.167 66.821 467.497 67.2429 467.71 67.7798H467.812C468.046 67.2557 468.419 66.8381 468.931 66.527C469.442 66.2116 470.051 66.054 470.759 66.054C471.649 66.054 472.376 66.3331 472.939 66.8913C473.505 67.4496 473.789 68.2912 473.789 69.4162V76H471.877V69.5952C471.877 68.9304 471.696 68.4489 471.334 68.1506C470.972 67.8523 470.539 67.7031 470.037 67.7031C469.414 67.7031 468.931 67.8949 468.586 68.2784C468.24 68.6577 468.068 69.1456 468.068 69.7422V76H466.163V69.4737C466.163 68.9411 465.997 68.5128 465.664 68.1889C465.332 67.8651 464.899 67.7031 464.367 67.7031C464.005 67.7031 463.67 67.799 463.363 67.9908C463.061 68.1783 462.816 68.4403 462.628 68.777C462.445 69.1136 462.353 69.5036 462.353 69.9467V76H460.442ZM476.17 76V66.1818H478.081V76H476.17ZM477.135 64.6669C476.803 64.6669 476.518 64.5561 476.279 64.3345C476.045 64.1087 475.927 63.8402 475.927 63.5291C475.927 63.2138 476.045 62.9453 476.279 62.7237C476.518 62.4979 476.803 62.3849 477.135 62.3849C477.468 62.3849 477.751 62.4979 477.986 62.7237C478.224 62.9453 478.344 63.2138 478.344 63.5291C478.344 63.8402 478.224 64.1087 477.986 64.3345C477.751 64.5561 477.468 64.6669 477.135 64.6669ZM486.692 71.9283V66.1818H488.61V76H486.731V74.2997H486.628C486.402 74.8239 486.04 75.2607 485.542 75.6101C485.047 75.9553 484.432 76.1278 483.694 76.1278C483.064 76.1278 482.505 75.9893 482.02 75.7124C481.538 75.4311 481.159 75.0156 480.882 74.4659C480.609 73.9162 480.473 73.2365 480.473 72.4268V66.1818H482.384V72.1967C482.384 72.8658 482.569 73.3984 482.94 73.7947C483.311 74.1911 483.792 74.3892 484.385 74.3892C484.743 74.3892 485.098 74.2997 485.452 74.1207C485.81 73.9418 486.106 73.6712 486.341 73.3089C486.579 72.9467 486.696 72.4865 486.692 71.9283ZM490.998 76V66.1818H492.832V67.7798H492.954C493.158 67.2386 493.493 66.8168 493.957 66.5142C494.422 66.2074 494.978 66.054 495.626 66.054C496.282 66.054 496.832 66.2074 497.275 66.5142C497.722 66.821 498.052 67.2429 498.266 67.7798H498.368C498.602 67.2557 498.975 66.8381 499.486 66.527C499.998 66.2116 500.607 66.054 501.315 66.054C502.205 66.054 502.932 66.3331 503.494 66.8913C504.061 67.4496 504.344 68.2912 504.344 69.4162V76H502.433V69.5952C502.433 68.9304 502.252 68.4489 501.89 68.1506C501.528 67.8523 501.095 67.7031 500.592 67.7031C499.97 67.7031 499.486 67.8949 499.141 68.2784C498.796 68.6577 498.623 69.1456 498.623 69.7422V76H496.719V69.4737C496.719 68.9411 496.552 68.5128 496.22 68.1889C495.888 67.8651 495.455 67.7031 494.922 67.7031C494.56 67.7031 494.226 67.799 493.919 67.9908C493.616 68.1783 493.371 68.4403 493.184 68.777C493.001 69.1136 492.909 69.5036 492.909 69.9467V76H490.998ZM511.463 76V62.9091H513.374V67.7734H513.489C513.6 67.5689 513.76 67.3324 513.969 67.0639C514.178 66.7955 514.467 66.5611 514.838 66.3608C515.209 66.1562 515.699 66.054 516.308 66.054C517.101 66.054 517.808 66.2543 518.43 66.6548C519.053 67.0554 519.54 67.6328 519.894 68.3871C520.252 69.1413 520.431 70.049 520.431 71.1101C520.431 72.1712 520.254 73.081 519.901 73.8395C519.547 74.5937 519.061 75.1754 518.443 75.5845C517.825 75.9893 517.12 76.1918 516.327 76.1918C515.731 76.1918 515.243 76.0916 514.864 75.8913C514.489 75.6911 514.195 75.4567 513.982 75.1882C513.768 74.9197 513.604 74.6811 513.489 74.4723H513.33V76H511.463ZM513.336 71.0909C513.336 71.7812 513.436 72.3864 513.636 72.9062C513.837 73.4261 514.126 73.8331 514.506 74.1271C514.885 74.4169 515.349 74.5618 515.899 74.5618C516.47 74.5618 516.947 74.4105 517.331 74.108C517.714 73.8011 518.004 73.3857 518.2 72.8615C518.401 72.3374 518.501 71.7472 518.501 71.0909C518.501 70.4432 518.403 69.8615 518.207 69.3459C518.015 68.8303 517.725 68.4233 517.337 68.125C516.954 67.8267 516.474 67.6776 515.899 67.6776C515.345 67.6776 514.876 67.8203 514.493 68.1058C514.114 68.3913 513.826 68.7898 513.63 69.3011C513.434 69.8125 513.336 70.4091 513.336 71.0909ZM526.629 76.1982C525.661 76.1982 524.828 75.9915 524.129 75.5781C523.435 75.1605 522.898 74.5746 522.519 73.8203C522.144 73.0618 521.956 72.1733 521.956 71.1548C521.956 70.1491 522.144 69.2628 522.519 68.4957C522.898 67.7287 523.426 67.13 524.104 66.6996C524.786 66.2692 525.583 66.054 526.495 66.054C527.049 66.054 527.585 66.1456 528.105 66.3288C528.625 66.5121 529.092 66.7997 529.505 67.1918C529.919 67.5838 530.245 68.093 530.483 68.7195C530.722 69.3416 530.841 70.098 530.841 70.9886V71.6662H523.036V70.2344H528.968C528.968 69.7315 528.866 69.2862 528.661 68.8984C528.457 68.5064 528.169 68.1974 527.799 67.9716C527.432 67.7457 527.002 67.6328 526.507 67.6328C525.97 67.6328 525.502 67.7649 525.101 68.0291C524.705 68.2891 524.398 68.63 524.181 69.0518C523.968 69.4695 523.861 69.9233 523.861 70.4134V71.532C523.861 72.1882 523.976 72.7464 524.206 73.2067C524.441 73.6669 524.767 74.0185 525.184 74.2614C525.602 74.5 526.09 74.6193 526.648 74.6193C527.01 74.6193 527.34 74.5682 527.639 74.4659C527.937 74.3594 528.195 74.2017 528.412 73.9929C528.629 73.7841 528.796 73.5263 528.911 73.2195L530.72 73.5455C530.575 74.0781 530.315 74.5447 529.94 74.9453C529.569 75.3416 529.102 75.6506 528.54 75.8722C527.982 76.0895 527.345 76.1982 526.629 76.1982ZM537.365 66.1818V67.7159H532.002V66.1818H537.365ZM533.44 63.8295H535.351V73.1172C535.351 73.4879 535.407 73.767 535.517 73.9545C535.628 74.1378 535.771 74.2635 535.946 74.3317C536.125 74.3956 536.319 74.4276 536.527 74.4276C536.681 74.4276 536.815 74.4169 536.93 74.3956C537.045 74.3743 537.135 74.3572 537.199 74.3445L537.544 75.9233C537.433 75.9659 537.275 76.0085 537.071 76.0511C536.866 76.098 536.611 76.1236 536.304 76.1278C535.801 76.1364 535.332 76.0469 534.897 75.8594C534.463 75.6719 534.111 75.3821 533.843 74.9901C533.574 74.598 533.44 74.1058 533.44 73.5135V63.8295ZM542.156 76.2173C541.534 76.2173 540.972 76.1023 540.469 75.8722C539.966 75.6378 539.567 75.299 539.273 74.8558C538.984 74.4126 538.839 73.8693 538.839 73.2259C538.839 72.6719 538.945 72.2159 539.158 71.858C539.371 71.5 539.659 71.2166 540.021 71.0078C540.383 70.799 540.788 70.6413 541.236 70.5348C541.683 70.4283 542.139 70.3473 542.604 70.2919C543.192 70.2237 543.669 70.1683 544.035 70.1257C544.402 70.0788 544.668 70.0043 544.834 69.902C545.001 69.7997 545.084 69.6335 545.084 69.4034V69.3587C545.084 68.8004 544.926 68.3679 544.611 68.0611C544.3 67.7543 543.835 67.6009 543.217 67.6009C542.574 67.6009 542.067 67.7436 541.696 68.0291C541.329 68.3104 541.076 68.6236 540.935 68.9688L539.139 68.5597C539.352 67.9631 539.663 67.4815 540.072 67.1151C540.486 66.7443 540.961 66.4759 541.498 66.3097C542.035 66.1392 542.599 66.054 543.192 66.054C543.584 66.054 543.999 66.1009 544.438 66.1946C544.881 66.2841 545.295 66.4503 545.678 66.6932C546.066 66.9361 546.383 67.2834 546.631 67.7351C546.878 68.1825 547.001 68.7642 547.001 69.4801V76H545.135V74.6577H545.058C544.935 74.9048 544.749 75.1477 544.502 75.3864C544.255 75.625 543.937 75.8232 543.55 75.9808C543.162 76.1385 542.697 76.2173 542.156 76.2173ZM542.572 74.6832C543.1 74.6832 543.552 74.5788 543.927 74.37C544.306 74.1612 544.594 73.8885 544.79 73.5518C544.99 73.2109 545.09 72.8466 545.09 72.4588V71.1932C545.022 71.2614 544.89 71.3253 544.694 71.3849C544.502 71.4403 544.283 71.4893 544.035 71.532C543.788 71.5703 543.548 71.6065 543.313 71.6406C543.079 71.6705 542.883 71.696 542.725 71.7173C542.354 71.7642 542.016 71.843 541.709 71.9538C541.406 72.0646 541.163 72.2244 540.98 72.4332C540.801 72.6378 540.712 72.9105 540.712 73.2514C540.712 73.7244 540.886 74.0824 541.236 74.3253C541.585 74.5639 542.03 74.6832 542.572 74.6832ZM561.308 68.5788L559.576 68.8857C559.503 68.6641 559.388 68.4531 559.23 68.2528C559.077 68.0526 558.868 67.8885 558.604 67.7607C558.34 67.6328 558.01 67.5689 557.613 67.5689C557.072 67.5689 556.62 67.6903 556.258 67.9332C555.896 68.1719 555.715 68.4808 555.715 68.8601C555.715 69.1882 555.836 69.4524 556.079 69.6527C556.322 69.853 556.714 70.017 557.255 70.1449L558.815 70.5028C559.718 70.7116 560.392 71.0334 560.835 71.468C561.278 71.9027 561.5 72.4673 561.5 73.1619C561.5 73.75 561.329 74.2741 560.988 74.7344C560.652 75.1903 560.181 75.5483 559.576 75.8082C558.975 76.0682 558.278 76.1982 557.485 76.1982C556.386 76.1982 555.489 75.9638 554.794 75.495C554.1 75.022 553.674 74.3509 553.516 73.4815L555.363 73.2003C555.478 73.6818 555.715 74.0462 556.073 74.2933C556.431 74.5362 556.897 74.6577 557.473 74.6577C558.099 74.6577 558.6 74.5277 558.975 74.2678C559.35 74.0036 559.537 73.6818 559.537 73.3026C559.537 72.9957 559.422 72.7379 559.192 72.5291C558.966 72.3203 558.619 72.1626 558.15 72.0561L556.488 71.6918C555.572 71.483 554.895 71.1506 554.456 70.6946C554.021 70.2386 553.804 69.6612 553.804 68.9624C553.804 68.3828 553.966 67.8757 554.289 67.4411C554.613 67.0064 555.061 66.6676 555.632 66.4247C556.203 66.1776 556.857 66.054 557.594 66.054C558.655 66.054 559.49 66.2841 560.1 66.7443C560.709 67.2003 561.112 67.8118 561.308 68.5788ZM568.004 66.1818V67.7159H562.641V66.1818H568.004ZM564.079 63.8295H565.991V73.1172C565.991 73.4879 566.046 73.767 566.157 73.9545C566.268 74.1378 566.41 74.2635 566.585 74.3317C566.764 74.3956 566.958 74.4276 567.167 74.4276C567.32 74.4276 567.454 74.4169 567.569 74.3956C567.685 74.3743 567.774 74.3572 567.838 74.3445L568.183 75.9233C568.072 75.9659 567.915 76.0085 567.71 76.0511C567.506 76.098 567.25 76.1236 566.943 76.1278C566.44 76.1364 565.971 76.0469 565.537 75.8594C565.102 75.6719 564.751 75.3821 564.482 74.9901C564.214 74.598 564.079 74.1058 564.079 73.5135V63.8295ZM574.064 76.1982C573.097 76.1982 572.264 75.9915 571.565 75.5781C570.87 75.1605 570.334 74.5746 569.954 73.8203C569.579 73.0618 569.392 72.1733 569.392 71.1548C569.392 70.1491 569.579 69.2628 569.954 68.4957C570.334 67.7287 570.862 67.13 571.54 66.6996C572.221 66.2692 573.018 66.054 573.93 66.054C574.484 66.054 575.021 66.1456 575.541 66.3288C576.061 66.5121 576.527 66.7997 576.941 67.1918C577.354 67.5838 577.68 68.093 577.919 68.7195C578.157 69.3416 578.277 70.098 578.277 70.9886V71.6662H570.472V70.2344H576.404C576.404 69.7315 576.302 69.2862 576.097 68.8984C575.892 68.5064 575.605 68.1974 575.234 67.9716C574.868 67.7457 574.437 67.6328 573.943 67.6328C573.406 67.6328 572.937 67.7649 572.537 68.0291C572.14 68.2891 571.834 68.63 571.616 69.0518C571.403 69.4695 571.297 69.9233 571.297 70.4134V71.532C571.297 72.1882 571.412 72.7464 571.642 73.2067C571.876 73.6669 572.202 74.0185 572.62 74.2614C573.037 74.5 573.525 74.6193 574.084 74.6193C574.446 74.6193 574.776 74.5682 575.074 74.4659C575.373 74.3594 575.63 74.2017 575.848 73.9929C576.065 73.7841 576.231 73.5263 576.346 73.2195L578.155 73.5455C578.01 74.0781 577.75 74.5447 577.375 74.9453C577.005 75.3416 576.538 75.6506 575.976 75.8722C575.417 76.0895 574.78 76.1982 574.064 76.1982ZM583.075 76.2173C582.452 76.2173 581.89 76.1023 581.387 75.8722C580.884 75.6378 580.486 75.299 580.192 74.8558C579.902 74.4126 579.757 73.8693 579.757 73.2259C579.757 72.6719 579.864 72.2159 580.077 71.858C580.29 71.5 580.577 71.2166 580.94 71.0078C581.302 70.799 581.707 70.6413 582.154 70.5348C582.602 70.4283 583.057 70.3473 583.522 70.2919C584.11 70.2237 584.587 70.1683 584.954 70.1257C585.32 70.0788 585.587 70.0043 585.753 69.902C585.919 69.7997 586.002 69.6335 586.002 69.4034V69.3587C586.002 68.8004 585.844 68.3679 585.529 68.0611C585.218 67.7543 584.754 67.6009 584.136 67.6009C583.492 67.6009 582.985 67.7436 582.614 68.0291C582.248 68.3104 581.994 68.6236 581.854 68.9688L580.057 68.5597C580.271 67.9631 580.582 67.4815 580.991 67.1151C581.404 66.7443 581.879 66.4759 582.416 66.3097C582.953 66.1392 583.518 66.054 584.11 66.054C584.502 66.054 584.918 66.1009 585.357 66.1946C585.8 66.2841 586.213 66.4503 586.597 66.6932C586.984 66.9361 587.302 67.2834 587.549 67.7351C587.796 68.1825 587.92 68.7642 587.92 69.4801V76H586.053V74.6577H585.977C585.853 74.9048 585.668 75.1477 585.42 75.3864C585.173 75.625 584.856 75.8232 584.468 75.9808C584.08 76.1385 583.616 76.2173 583.075 76.2173ZM583.49 74.6832C584.018 74.6832 584.47 74.5788 584.845 74.37C585.224 74.1612 585.512 73.8885 585.708 73.5518C585.908 73.2109 586.008 72.8466 586.008 72.4588V71.1932C585.94 71.2614 585.808 71.3253 585.612 71.3849C585.42 71.4403 585.201 71.4893 584.954 71.532C584.707 71.5703 584.466 71.6065 584.232 71.6406C583.997 71.6705 583.801 71.696 583.643 71.7173C583.273 71.7642 582.934 71.843 582.627 71.9538C582.325 72.0646 582.082 72.2244 581.898 72.4332C581.719 72.6378 581.63 72.9105 581.63 73.2514C581.63 73.7244 581.805 74.0824 582.154 74.3253C582.504 74.5639 582.949 74.6832 583.49 74.6832ZM592.197 62.9091V76H590.285V62.9091H592.197ZM599.171 66.1818V67.7159H593.808V66.1818H599.171ZM595.246 63.8295H597.157V73.1172C597.157 73.4879 597.213 73.767 597.324 73.9545C597.434 74.1378 597.577 74.2635 597.752 74.3317C597.931 74.3956 598.125 74.4276 598.334 74.4276C598.487 74.4276 598.621 74.4169 598.736 74.3956C598.851 74.3743 598.941 74.3572 599.005 74.3445L599.35 75.9233C599.239 75.9659 599.081 76.0085 598.877 76.0511C598.672 76.098 598.417 76.1236 598.11 76.1278C597.607 76.1364 597.138 76.0469 596.704 75.8594C596.269 75.6719 595.917 75.3821 595.649 74.9901C595.38 74.598 595.246 74.1058 595.246 73.5135V63.8295ZM603.227 70.1705V76H601.316V62.9091H603.202V67.7798H603.323C603.553 67.2514 603.905 66.8317 604.378 66.5206C604.851 66.2095 605.469 66.054 606.231 66.054C606.905 66.054 607.493 66.1925 607.996 66.4695C608.503 66.7464 608.895 67.1598 609.172 67.7095C609.453 68.255 609.594 68.9368 609.594 69.755V76H607.682V69.9851C607.682 69.2649 607.497 68.7067 607.126 68.3104C606.756 67.9098 606.24 67.7095 605.579 67.7095C605.128 67.7095 604.723 67.8054 604.365 67.9972C604.011 68.1889 603.732 68.4702 603.528 68.8409C603.327 69.2074 603.227 69.6506 603.227 70.1705ZM616.548 76V66.1818H618.395V67.7415H618.497C618.676 67.2131 618.992 66.7976 619.443 66.495C619.899 66.1882 620.415 66.0348 620.99 66.0348C621.11 66.0348 621.25 66.0391 621.412 66.0476C621.578 66.0561 621.708 66.0668 621.802 66.0795V67.9077C621.725 67.8864 621.589 67.8629 621.393 67.8374C621.197 67.8075 621.001 67.7926 620.805 67.7926C620.353 67.7926 619.95 67.8885 619.597 68.0803C619.247 68.2678 618.97 68.5298 618.766 68.8665C618.561 69.1989 618.459 69.5781 618.459 70.0043V76H616.548ZM627.156 76.1982C626.189 76.1982 625.356 75.9915 624.657 75.5781C623.962 75.1605 623.425 74.5746 623.046 73.8203C622.671 73.0618 622.483 72.1733 622.483 71.1548C622.483 70.1491 622.671 69.2628 623.046 68.4957C623.425 67.7287 623.954 67.13 624.631 66.6996C625.313 66.2692 626.11 66.054 627.022 66.054C627.576 66.054 628.113 66.1456 628.633 66.3288C629.152 66.5121 629.619 66.7997 630.032 67.1918C630.446 67.5838 630.772 68.093 631.01 68.7195C631.249 69.3416 631.368 70.098 631.368 70.9886V71.6662H623.564V70.2344H629.495C629.495 69.7315 629.393 69.2862 629.189 68.8984C628.984 68.5064 628.696 68.1974 628.326 67.9716C627.959 67.7457 627.529 67.6328 627.035 67.6328C626.498 67.6328 626.029 67.7649 625.628 68.0291C625.232 68.2891 624.925 68.63 624.708 69.0518C624.495 69.4695 624.388 69.9233 624.388 70.4134V71.532C624.388 72.1882 624.503 72.7464 624.733 73.2067C624.968 73.6669 625.294 74.0185 625.711 74.2614C626.129 74.5 626.617 74.6193 627.175 74.6193C627.537 74.6193 627.868 74.5682 628.166 74.4659C628.464 74.3594 628.722 74.2017 628.939 73.9929C629.157 73.7841 629.323 73.5263 629.438 73.2195L631.247 73.5455C631.102 74.0781 630.842 74.5447 630.467 74.9453C630.096 75.3416 629.63 75.6506 629.067 75.8722C628.509 76.0895 627.872 76.1982 627.156 76.1982ZM640.666 68.5788L638.934 68.8857C638.861 68.6641 638.746 68.4531 638.589 68.2528C638.435 68.0526 638.226 67.8885 637.962 67.7607C637.698 67.6328 637.368 67.5689 636.971 67.5689C636.43 67.5689 635.979 67.6903 635.616 67.9332C635.254 68.1719 635.073 68.4808 635.073 68.8601C635.073 69.1882 635.195 69.4524 635.437 69.6527C635.68 69.853 636.072 70.017 636.614 70.1449L638.173 70.5028C639.077 70.7116 639.75 71.0334 640.193 71.468C640.636 71.9027 640.858 72.4673 640.858 73.1619C640.858 73.75 640.687 74.2741 640.346 74.7344C640.01 75.1903 639.539 75.5483 638.934 75.8082C638.333 76.0682 637.636 76.1982 636.844 76.1982C635.744 76.1982 634.847 75.9638 634.153 75.495C633.458 75.022 633.032 74.3509 632.874 73.4815L634.721 73.2003C634.837 73.6818 635.073 74.0462 635.431 74.2933C635.789 74.5362 636.256 74.6577 636.831 74.6577C637.457 74.6577 637.958 74.5277 638.333 74.2678C638.708 74.0036 638.895 73.6818 638.895 73.3026C638.895 72.9957 638.78 72.7379 638.55 72.5291C638.324 72.3203 637.977 72.1626 637.508 72.0561L635.846 71.6918C634.93 71.483 634.253 71.1506 633.814 70.6946C633.379 70.2386 633.162 69.6612 633.162 68.9624C633.162 68.3828 633.324 67.8757 633.648 67.4411C633.971 67.0064 634.419 66.6676 634.99 66.4247C635.561 66.1776 636.215 66.054 636.952 66.054C638.013 66.054 638.849 66.2841 639.458 66.7443C640.067 67.2003 640.47 67.8118 640.666 68.5788ZM642.779 79.6818V66.1818H644.646V67.7734H644.806C644.916 67.5689 645.076 67.3324 645.285 67.0639C645.494 66.7955 645.784 66.5611 646.154 66.3608C646.525 66.1562 647.015 66.054 647.624 66.054C648.417 66.054 649.124 66.2543 649.747 66.6548C650.369 67.0554 650.857 67.6328 651.21 68.3871C651.568 69.1413 651.747 70.049 651.747 71.1101C651.747 72.1712 651.57 73.081 651.217 73.8395C650.863 74.5937 650.377 75.1754 649.759 75.5845C649.141 75.9893 648.436 76.1918 647.644 76.1918C647.047 76.1918 646.559 76.0916 646.18 75.8913C645.805 75.6911 645.511 75.4567 645.298 75.1882C645.085 74.9197 644.921 74.6811 644.806 74.4723H644.69V79.6818H642.779ZM644.652 71.0909C644.652 71.7812 644.752 72.3864 644.953 72.9062C645.153 73.4261 645.443 73.8331 645.822 74.1271C646.201 74.4169 646.666 74.5618 647.215 74.5618C647.786 74.5618 648.264 74.4105 648.647 74.108C649.031 73.8011 649.32 73.3857 649.516 72.8615C649.717 72.3374 649.817 71.7472 649.817 71.0909C649.817 70.4432 649.719 69.8615 649.523 69.3459C649.331 68.8303 649.041 68.4233 648.654 68.125C648.27 67.8267 647.791 67.6776 647.215 67.6776C646.661 67.6776 646.193 67.8203 645.809 68.1058C645.43 68.3913 645.142 68.7898 644.946 69.3011C644.75 69.8125 644.652 70.4091 644.652 71.0909ZM657.844 76.1982C656.924 76.1982 656.121 75.9872 655.434 75.5653C654.748 75.1435 654.216 74.5533 653.836 73.7947C653.457 73.0362 653.268 72.1499 653.268 71.1357C653.268 70.1172 653.457 69.2266 653.836 68.4638C654.216 67.701 654.748 67.1087 655.434 66.6868C656.121 66.2649 656.924 66.054 657.844 66.054C658.765 66.054 659.568 66.2649 660.254 66.6868C660.94 67.1087 661.473 67.701 661.852 68.4638C662.231 69.2266 662.421 70.1172 662.421 71.1357C662.421 72.1499 662.231 73.0362 661.852 73.7947C661.473 74.5533 660.94 75.1435 660.254 75.5653C659.568 75.9872 658.765 76.1982 657.844 76.1982ZM657.851 74.5938C658.447 74.5938 658.942 74.4361 659.334 74.1207C659.726 73.8054 660.015 73.3857 660.203 72.8615C660.395 72.3374 660.491 71.7599 660.491 71.1293C660.491 70.5028 660.395 69.9276 660.203 69.4034C660.015 68.875 659.726 68.451 659.334 68.1314C658.942 67.8118 658.447 67.652 657.851 67.652C657.25 67.652 656.751 67.8118 656.355 68.1314C655.963 68.451 655.671 68.875 655.479 69.4034C655.292 69.9276 655.198 70.5028 655.198 71.1293C655.198 71.7599 655.292 72.3374 655.479 72.8615C655.671 73.3857 655.963 73.8054 656.355 74.1207C656.751 74.4361 657.25 74.5938 657.851 74.5938ZM666.286 70.1705V76H664.374V66.1818H666.209V67.7798H666.33C666.556 67.2599 666.91 66.8423 667.391 66.527C667.877 66.2116 668.489 66.054 669.226 66.054C669.895 66.054 670.481 66.1946 670.984 66.4759C671.487 66.7528 671.876 67.1662 672.153 67.7159C672.43 68.2656 672.569 68.9453 672.569 69.755V76H670.658V69.9851C670.658 69.2734 670.472 68.7173 670.102 68.3168C669.731 67.9119 669.222 67.7095 668.574 67.7095C668.131 67.7095 667.737 67.8054 667.391 67.9972C667.05 68.1889 666.78 68.4702 666.58 68.8409C666.384 69.2074 666.286 69.6506 666.286 70.1705ZM682.309 68.5788L680.577 68.8857C680.505 68.6641 680.39 68.4531 680.232 68.2528C680.079 68.0526 679.87 67.8885 679.606 67.7607C679.341 67.6328 679.011 67.5689 678.615 67.5689C678.074 67.5689 677.622 67.6903 677.26 67.9332C676.897 68.1719 676.716 68.4808 676.716 68.8601C676.716 69.1882 676.838 69.4524 677.081 69.6527C677.324 69.853 677.716 70.017 678.257 70.1449L679.817 70.5028C680.72 70.7116 681.393 71.0334 681.836 71.468C682.28 71.9027 682.501 72.4673 682.501 73.1619C682.501 73.75 682.331 74.2741 681.99 74.7344C681.653 75.1903 681.182 75.5483 680.577 75.8082C679.976 76.0682 679.28 76.1982 678.487 76.1982C677.388 76.1982 676.491 75.9638 675.796 75.495C675.101 75.022 674.675 74.3509 674.518 73.4815L676.365 73.2003C676.48 73.6818 676.716 74.0462 677.074 74.2933C677.432 74.5362 677.899 74.6577 678.474 74.6577C679.101 74.6577 679.601 74.5277 679.976 74.2678C680.351 74.0036 680.539 73.6818 680.539 73.3026C680.539 72.9957 680.424 72.7379 680.194 72.5291C679.968 72.3203 679.62 72.1626 679.152 72.0561L677.49 71.6918C676.574 71.483 675.896 71.1506 675.457 70.6946C675.022 70.2386 674.805 69.6612 674.805 68.9624C674.805 68.3828 674.967 67.8757 675.291 67.4411C675.615 67.0064 676.062 66.6676 676.633 66.4247C677.204 66.1776 677.858 66.054 678.596 66.054C679.657 66.054 680.492 66.2841 681.101 66.7443C681.711 67.2003 682.113 67.8118 682.309 68.5788ZM684.423 76V66.1818H686.334V76H684.423ZM685.388 64.6669C685.055 64.6669 684.77 64.5561 684.531 64.3345C684.297 64.1087 684.18 63.8402 684.18 63.5291C684.18 63.2138 684.297 62.9453 684.531 62.7237C684.77 62.4979 685.055 62.3849 685.388 62.3849C685.72 62.3849 686.003 62.4979 686.238 62.7237C686.477 62.9453 686.596 63.2138 686.596 63.5291C686.596 63.8402 686.477 64.1087 686.238 64.3345C686.003 64.5561 685.72 64.6669 685.388 64.6669ZM697.124 66.1818L693.564 76H691.518L687.952 66.1818H690.003L692.49 73.7372H692.592L695.072 66.1818H697.124ZM702.638 76.1982C701.67 76.1982 700.837 75.9915 700.139 75.5781C699.444 75.1605 698.907 74.5746 698.528 73.8203C698.153 73.0618 697.965 72.1733 697.965 71.1548C697.965 70.1491 698.153 69.2628 698.528 68.4957C698.907 67.7287 699.435 67.13 700.113 66.6996C700.795 66.2692 701.592 66.054 702.504 66.054C703.058 66.054 703.595 66.1456 704.114 66.3288C704.634 66.5121 705.101 66.7997 705.514 67.1918C705.928 67.5838 706.254 68.093 706.492 68.7195C706.731 69.3416 706.85 70.098 706.85 70.9886V71.6662H699.045V70.2344H704.977C704.977 69.7315 704.875 69.2862 704.67 68.8984C704.466 68.5064 704.178 68.1974 703.808 67.9716C703.441 67.7457 703.011 67.6328 702.516 67.6328C701.979 67.6328 701.511 67.7649 701.11 68.0291C700.714 68.2891 700.407 68.63 700.19 69.0518C699.977 69.4695 699.87 69.9233 699.87 70.4134V71.532C699.87 72.1882 699.985 72.7464 700.215 73.2067C700.45 73.6669 700.776 74.0185 701.193 74.2614C701.611 74.5 702.099 74.6193 702.657 74.6193C703.019 74.6193 703.349 74.5682 703.648 74.4659C703.946 74.3594 704.204 74.2017 704.421 73.9929C704.639 73.7841 704.805 73.5263 704.92 73.2195L706.729 73.5455C706.584 74.0781 706.324 74.5447 705.949 74.9453C705.578 75.3416 705.112 75.6506 704.549 75.8722C703.991 76.0895 703.354 76.1982 702.638 76.1982ZM715.503 76L712.614 66.1818H714.589L716.513 73.392H716.609L718.539 66.1818H720.514L722.432 73.3601H722.528L724.439 66.1818H726.414L723.531 76H721.582L719.587 68.9112H719.44L717.446 76H715.503ZM731.981 76.1982C731.013 76.1982 730.18 75.9915 729.481 75.5781C728.787 75.1605 728.25 74.5746 727.871 73.8203C727.496 73.0618 727.308 72.1733 727.308 71.1548C727.308 70.1491 727.496 69.2628 727.871 68.4957C728.25 67.7287 728.778 67.13 729.456 66.6996C730.138 66.2692 730.934 66.054 731.846 66.054C732.4 66.054 732.937 66.1456 733.457 66.3288C733.977 66.5121 734.444 66.7997 734.857 67.1918C735.27 67.5838 735.596 68.093 735.835 68.7195C736.074 69.3416 736.193 70.098 736.193 70.9886V71.6662H728.388V70.2344H734.32C734.32 69.7315 734.218 69.2862 734.013 68.8984C733.809 68.5064 733.521 68.1974 733.15 67.9716C732.784 67.7457 732.353 67.6328 731.859 67.6328C731.322 67.6328 730.853 67.7649 730.453 68.0291C730.057 68.2891 729.75 68.63 729.532 69.0518C729.319 69.4695 729.213 69.9233 729.213 70.4134V71.532C729.213 72.1882 729.328 72.7464 729.558 73.2067C729.792 73.6669 730.118 74.0185 730.536 74.2614C730.954 74.5 731.442 74.6193 732 74.6193C732.362 74.6193 732.692 74.5682 732.991 74.4659C733.289 74.3594 733.547 74.2017 733.764 73.9929C733.981 73.7841 734.148 73.5263 734.263 73.2195L736.072 73.5455C735.927 74.0781 735.667 74.5447 735.292 74.9453C734.921 75.3416 734.454 75.6506 733.892 75.8722C733.334 76.0895 732.697 76.1982 731.981 76.1982ZM738.287 76V62.9091H740.198V67.7734H740.313C740.424 67.5689 740.584 67.3324 740.793 67.0639C741.001 66.7955 741.291 66.5611 741.662 66.3608C742.033 66.1562 742.523 66.054 743.132 66.054C743.925 66.054 744.632 66.2543 745.254 66.6548C745.876 67.0554 746.364 67.6328 746.718 68.3871C747.076 69.1413 747.255 70.049 747.255 71.1101C747.255 72.1712 747.078 73.081 746.724 73.8395C746.371 74.5937 745.885 75.1754 745.267 75.5845C744.649 75.9893 743.944 76.1918 743.151 76.1918C742.555 76.1918 742.067 76.0916 741.688 75.8913C741.313 75.6911 741.018 75.4567 740.805 75.1882C740.592 74.9197 740.428 74.6811 740.313 74.4723H740.153V76H738.287ZM740.16 71.0909C740.16 71.7812 740.26 72.3864 740.46 72.9062C740.661 73.4261 740.95 73.8331 741.33 74.1271C741.709 74.4169 742.173 74.5618 742.723 74.5618C743.294 74.5618 743.771 74.4105 744.155 74.108C744.538 73.8011 744.828 73.3857 745.024 72.8615C745.224 72.3374 745.325 71.7472 745.325 71.0909C745.325 70.4432 745.227 69.8615 745.031 69.3459C744.839 68.8303 744.549 68.4233 744.161 68.125C743.778 67.8267 743.298 67.6776 742.723 67.6776C742.169 67.6776 741.7 67.8203 741.317 68.1058C740.938 68.3913 740.65 68.7898 740.454 69.3011C740.258 69.8125 740.16 70.4091 740.16 71.0909ZM757.48 76.1918C756.688 76.1918 755.98 75.9893 755.358 75.5845C754.74 75.1754 754.254 74.5937 753.901 73.8395C753.551 73.081 753.377 72.1712 753.377 71.1101C753.377 70.049 753.553 69.1413 753.907 68.3871C754.265 67.6328 754.755 67.0554 755.377 66.6548C755.999 66.2543 756.705 66.054 757.493 66.054C758.102 66.054 758.592 66.1562 758.963 66.3608C759.338 66.5611 759.628 66.7955 759.833 67.0639C760.041 67.3324 760.203 67.5689 760.318 67.7734H760.433V62.9091H762.345V76H760.478V74.4723H760.318C760.203 74.6811 760.037 74.9197 759.82 75.1882C759.607 75.4567 759.313 75.6911 758.938 75.8913C758.563 76.0916 758.077 76.1918 757.48 76.1918ZM757.902 74.5618C758.452 74.5618 758.916 74.4169 759.296 74.1271C759.679 73.8331 759.969 73.4261 760.165 72.9062C760.365 72.3864 760.465 71.7812 760.465 71.0909C760.465 70.4091 760.367 69.8125 760.171 69.3011C759.975 68.7898 759.688 68.3913 759.308 68.1058C758.929 67.8203 758.46 67.6776 757.902 67.6776C757.327 67.6776 756.847 67.8267 756.464 68.125C756.08 68.4233 755.791 68.8303 755.595 69.3459C755.403 69.8615 755.307 70.4432 755.307 71.0909C755.307 71.7472 755.405 72.3374 755.601 72.8615C755.797 73.3857 756.087 73.8011 756.47 74.108C756.858 74.4105 757.335 74.5618 757.902 74.5618ZM769.124 76.1982C768.157 76.1982 767.324 75.9915 766.625 75.5781C765.93 75.1605 765.393 74.5746 765.014 73.8203C764.639 73.0618 764.451 72.1733 764.451 71.1548C764.451 70.1491 764.639 69.2628 765.014 68.4957C765.393 67.7287 765.922 67.13 766.599 66.6996C767.281 66.2692 768.078 66.054 768.99 66.054C769.544 66.054 770.081 66.1456 770.601 66.3288C771.12 66.5121 771.587 66.7997 772 67.1918C772.414 67.5838 772.74 68.093 772.978 68.7195C773.217 69.3416 773.336 70.098 773.336 70.9886V71.6662H765.532V70.2344H771.463C771.463 69.7315 771.361 69.2862 771.157 68.8984C770.952 68.5064 770.664 68.1974 770.294 67.9716C769.927 67.7457 769.497 67.6328 769.002 67.6328C768.466 67.6328 767.997 67.7649 767.596 68.0291C767.2 68.2891 766.893 68.63 766.676 69.0518C766.463 69.4695 766.356 69.9233 766.356 70.4134V71.532C766.356 72.1882 766.471 72.7464 766.701 73.2067C766.936 73.6669 767.262 74.0185 767.679 74.2614C768.097 74.5 768.585 74.6193 769.143 74.6193C769.505 74.6193 769.836 74.5682 770.134 74.4659C770.432 74.3594 770.69 74.2017 770.907 73.9929C771.125 73.7841 771.291 73.5263 771.406 73.2195L773.215 73.5455C773.07 74.0781 772.81 74.5447 772.435 74.9453C772.064 75.3416 771.598 75.6506 771.035 75.8722C770.477 76.0895 769.84 76.1982 769.124 76.1982ZM782.634 68.5788L780.902 68.8857C780.829 68.6641 780.714 68.4531 780.557 68.2528C780.403 68.0526 780.194 67.8885 779.93 67.7607C779.666 67.6328 779.336 67.5689 778.939 67.5689C778.398 67.5689 777.947 67.6903 777.584 67.9332C777.222 68.1719 777.041 68.4808 777.041 68.8601C777.041 69.1882 777.162 69.4524 777.405 69.6527C777.648 69.853 778.04 70.017 778.581 70.1449L780.141 70.5028C781.045 70.7116 781.718 71.0334 782.161 71.468C782.604 71.9027 782.826 72.4673 782.826 73.1619C782.826 73.75 782.655 74.2741 782.314 74.7344C781.978 75.1903 781.507 75.5483 780.902 75.8082C780.301 76.0682 779.604 76.1982 778.812 76.1982C777.712 76.1982 776.815 75.9638 776.121 75.495C775.426 75.022 775 74.3509 774.842 73.4815L776.689 73.2003C776.805 73.6818 777.041 74.0462 777.399 74.2933C777.757 74.5362 778.224 74.6577 778.799 74.6577C779.425 74.6577 779.926 74.5277 780.301 74.2678C780.676 74.0036 780.863 73.6818 780.863 73.3026C780.863 72.9957 780.748 72.7379 780.518 72.5291C780.292 72.3203 779.945 72.1626 779.476 72.0561L777.814 71.6918C776.898 71.483 776.221 71.1506 775.782 70.6946C775.347 70.2386 775.13 69.6612 775.13 68.9624C775.13 68.3828 775.292 67.8757 775.616 67.4411C775.939 67.0064 776.387 66.6676 776.958 66.4247C777.529 66.1776 778.183 66.054 778.92 66.054C779.981 66.054 780.817 66.2841 781.426 66.7443C782.035 67.2003 782.438 67.8118 782.634 68.5788ZM784.747 76V66.1818H786.658V76H784.747ZM785.712 64.6669C785.38 64.6669 785.095 64.5561 784.856 64.3345C784.621 64.1087 784.504 63.8402 784.504 63.5291C784.504 63.2138 784.621 62.9453 784.856 62.7237C785.095 62.4979 785.38 62.3849 785.712 62.3849C786.045 62.3849 786.328 62.4979 786.563 62.7237C786.801 62.9453 786.92 63.2138 786.92 63.5291C786.92 63.8402 786.801 64.1087 786.563 64.3345C786.328 64.5561 786.045 64.6669 785.712 64.6669ZM793.166 79.8864C792.386 79.8864 791.715 79.7841 791.153 79.5795C790.594 79.375 790.138 79.1044 789.785 78.7678C789.431 78.4311 789.167 78.0625 788.992 77.6619L790.635 76.9844C790.75 77.1719 790.903 77.37 791.095 77.5788C791.291 77.7919 791.555 77.973 791.888 78.1222C792.224 78.2713 792.657 78.3459 793.185 78.3459C793.91 78.3459 794.508 78.169 794.981 77.8153C795.454 77.4659 795.691 76.9077 795.691 76.1406V74.2102H795.57C795.454 74.419 795.288 74.6513 795.071 74.907C794.858 75.1626 794.564 75.3842 794.189 75.5717C793.814 75.7592 793.326 75.853 792.725 75.853C791.949 75.853 791.251 75.6719 790.628 75.3097C790.011 74.9432 789.521 74.4041 789.158 73.6925C788.8 72.9766 788.621 72.0966 788.621 71.0526C788.621 70.0085 788.798 69.1136 789.152 68.3679C789.51 67.6222 790 67.0511 790.622 66.6548C791.244 66.2543 791.949 66.054 792.738 66.054C793.347 66.054 793.839 66.1562 794.214 66.3608C794.589 66.5611 794.881 66.7955 795.09 67.0639C795.303 67.3324 795.467 67.5689 795.582 67.7734H795.723V66.1818H797.596V76.2173C797.596 77.0611 797.4 77.7536 797.008 78.2947C796.616 78.8359 796.085 79.2365 795.416 79.4964C794.751 79.7564 794.001 79.8864 793.166 79.8864ZM793.147 74.2678C793.697 74.2678 794.161 74.1399 794.54 73.8842C794.924 73.6243 795.214 73.2536 795.41 72.772C795.61 72.2862 795.71 71.7045 795.71 71.027C795.71 70.3665 795.612 69.7848 795.416 69.282C795.22 68.7791 794.932 68.3871 794.553 68.1058C794.174 67.8203 793.705 67.6776 793.147 67.6776C792.572 67.6776 792.092 67.8267 791.709 68.125C791.325 68.419 791.035 68.8196 790.839 69.3267C790.648 69.8338 790.552 70.4006 790.552 71.027C790.552 71.6705 790.65 72.2351 790.846 72.7209C791.042 73.2067 791.332 73.5859 791.715 73.8587C792.103 74.1314 792.58 74.2678 793.147 74.2678ZM801.89 70.1705V76H799.979V66.1818H801.814V67.7798H801.935C802.161 67.2599 802.515 66.8423 802.996 66.527C803.482 66.2116 804.093 66.054 804.831 66.054C805.5 66.054 806.086 66.1946 806.588 66.4759C807.091 66.7528 807.481 67.1662 807.758 67.7159C808.035 68.2656 808.174 68.9453 808.174 69.755V76H806.262V69.9851C806.262 69.2734 806.077 68.7173 805.706 68.3168C805.336 67.9119 804.826 67.7095 804.179 67.7095C803.735 67.7095 803.341 67.8054 802.996 67.9972C802.655 68.1889 802.385 68.4702 802.184 68.8409C801.988 69.2074 801.89 69.6506 801.89 70.1705ZM817.052 70.1705V76H815.141V66.1818H816.975V67.7798H817.096C817.322 67.2599 817.676 66.8423 818.158 66.527C818.643 66.2116 819.255 66.054 819.992 66.054C820.661 66.054 821.247 66.1946 821.75 66.4759C822.253 66.7528 822.643 67.1662 822.92 67.7159C823.197 68.2656 823.335 68.9453 823.335 69.755V76H821.424V69.9851C821.424 69.2734 821.239 68.7173 820.868 68.3168C820.497 67.9119 819.988 67.7095 819.34 67.7095C818.897 67.7095 818.503 67.8054 818.158 67.9972C817.817 68.1889 817.546 68.4702 817.346 68.8409C817.15 69.2074 817.052 69.6506 817.052 70.1705ZM825.718 76V66.1818H827.63V76H825.718ZM826.684 64.6669C826.351 64.6669 826.066 64.5561 825.827 64.3345C825.593 64.1087 825.475 63.8402 825.475 63.5291C825.475 63.2138 825.593 62.9453 825.827 62.7237C826.066 62.4979 826.351 62.3849 826.684 62.3849C827.016 62.3849 827.299 62.4979 827.534 62.7237C827.772 62.9453 827.892 63.2138 827.892 63.5291C827.892 63.8402 827.772 64.1087 827.534 64.3345C827.299 64.5561 827.016 64.6669 826.684 64.6669ZM834.156 76.1982C833.206 76.1982 832.388 75.983 831.702 75.5526C831.02 75.1179 830.496 74.5192 830.129 73.7564C829.763 72.9936 829.58 72.12 829.58 71.1357C829.58 70.1385 829.767 69.2585 830.142 68.4957C830.517 67.7287 831.046 67.13 831.727 66.6996C832.409 66.2692 833.213 66.054 834.137 66.054C834.883 66.054 835.548 66.1925 836.132 66.4695C836.715 66.7422 837.186 67.1257 837.544 67.62C837.906 68.1143 838.122 68.6918 838.19 69.3523H836.33C836.227 68.892 835.993 68.4957 835.627 68.1634C835.264 67.831 834.779 67.6648 834.169 67.6648C833.637 67.6648 833.17 67.8054 832.769 68.0866C832.373 68.3636 832.064 68.7599 831.842 69.2756C831.621 69.7869 831.51 70.392 831.51 71.0909C831.51 71.8068 831.619 72.4247 831.836 72.9446C832.053 73.4645 832.36 73.8672 832.757 74.1527C833.157 74.4382 833.628 74.581 834.169 74.581C834.531 74.581 834.86 74.5149 835.154 74.3828C835.452 74.2464 835.701 74.0526 835.901 73.8011C836.106 73.5497 836.249 73.2472 836.33 72.8935H838.19C838.122 73.5284 837.915 74.0952 837.57 74.5938C837.225 75.0923 836.762 75.4844 836.183 75.7699C835.607 76.0554 834.932 76.1982 834.156 76.1982ZM841.965 70.1705V76H840.054V62.9091H841.939V67.7798H842.061C842.291 67.2514 842.642 66.8317 843.115 66.5206C843.588 66.2095 844.206 66.054 844.969 66.054C845.642 66.054 846.23 66.1925 846.733 66.4695C847.24 66.7464 847.632 67.1598 847.909 67.7095C848.191 68.255 848.331 68.9368 848.331 69.755V76H846.42V69.9851C846.42 69.2649 846.235 68.7067 845.864 68.3104C845.493 67.9098 844.978 67.7095 844.317 67.7095C843.865 67.7095 843.461 67.8054 843.103 67.9972C842.749 68.1889 842.47 68.4702 842.265 68.8409C842.065 69.2074 841.965 69.6506 841.965 70.1705ZM854.933 76.1982C853.966 76.1982 853.133 75.9915 852.434 75.5781C851.739 75.1605 851.202 74.5746 850.823 73.8203C850.448 73.0618 850.261 72.1733 850.261 71.1548C850.261 70.1491 850.448 69.2628 850.823 68.4957C851.202 67.7287 851.731 67.13 852.408 66.6996C853.09 66.2692 853.887 66.054 854.799 66.054C855.353 66.054 855.89 66.1456 856.41 66.3288C856.93 66.5121 857.396 66.7997 857.81 67.1918C858.223 67.5838 858.549 68.093 858.788 68.7195C859.026 69.3416 859.146 70.098 859.146 70.9886V71.6662H851.341V70.2344H857.273C857.273 69.7315 857.17 69.2862 856.966 68.8984C856.761 68.5064 856.474 68.1974 856.103 67.9716C855.737 67.7457 855.306 67.6328 854.812 67.6328C854.275 67.6328 853.806 67.7649 853.406 68.0291C853.009 68.2891 852.702 68.63 852.485 69.0518C852.272 69.4695 852.166 69.9233 852.166 70.4134V71.532C852.166 72.1882 852.281 72.7464 852.511 73.2067C852.745 73.6669 853.071 74.0185 853.489 74.2614C853.906 74.5 854.394 74.6193 854.952 74.6193C855.315 74.6193 855.645 74.5682 855.943 74.4659C856.242 74.3594 856.499 74.2017 856.717 73.9929C856.934 73.7841 857.1 73.5263 857.215 73.2195L859.024 73.5455C858.879 74.0781 858.619 74.5447 858.244 74.9453C857.874 75.3416 857.407 75.6506 856.844 75.8722C856.286 76.0895 855.649 76.1982 854.933 76.1982ZM865.67 76V66.1818H867.504V67.7798H867.626C867.83 67.2386 868.165 66.8168 868.629 66.5142C869.094 66.2074 869.65 66.054 870.298 66.054C870.954 66.054 871.504 66.2074 871.947 66.5142C872.394 66.821 872.725 67.2429 872.938 67.7798H873.04C873.274 67.2557 873.647 66.8381 874.159 66.527C874.67 66.2116 875.279 66.054 875.987 66.054C876.877 66.054 877.604 66.3331 878.166 66.8913C878.733 67.4496 879.016 68.2912 879.016 69.4162V76H877.105V69.5952C877.105 68.9304 876.924 68.4489 876.562 68.1506C876.2 67.8523 875.767 67.7031 875.264 67.7031C874.642 67.7031 874.159 67.8949 873.813 68.2784C873.468 68.6577 873.296 69.1456 873.296 69.7422V76H871.391V69.4737C871.391 68.9411 871.225 68.5128 870.892 68.1889C870.56 67.8651 870.127 67.7031 869.595 67.7031C869.232 67.7031 868.898 67.799 868.591 67.9908C868.288 68.1783 868.043 68.4403 867.856 68.777C867.673 69.1136 867.581 69.5036 867.581 69.9467V76H865.67ZM884.255 76.2173C883.633 76.2173 883.071 76.1023 882.568 75.8722C882.065 75.6378 881.667 75.299 881.373 74.8558C881.083 74.4126 880.938 73.8693 880.938 73.2259C880.938 72.6719 881.044 72.2159 881.257 71.858C881.471 71.5 881.758 71.2166 882.12 71.0078C882.483 70.799 882.887 70.6413 883.335 70.5348C883.782 70.4283 884.238 70.3473 884.703 70.2919C885.291 70.2237 885.768 70.1683 886.135 70.1257C886.501 70.0788 886.767 70.0043 886.934 69.902C887.1 69.7997 887.183 69.6335 887.183 69.4034V69.3587C887.183 68.8004 887.025 68.3679 886.71 68.0611C886.399 67.7543 885.934 67.6009 885.316 67.6009C884.673 67.6009 884.166 67.7436 883.795 68.0291C883.429 68.3104 883.175 68.6236 883.034 68.9688L881.238 68.5597C881.451 67.9631 881.762 67.4815 882.172 67.1151C882.585 66.7443 883.06 66.4759 883.597 66.3097C884.134 66.1392 884.699 66.054 885.291 66.054C885.683 66.054 886.098 66.1009 886.537 66.1946C886.98 66.2841 887.394 66.4503 887.777 66.6932C888.165 66.9361 888.483 67.2834 888.73 67.7351C888.977 68.1825 889.1 68.7642 889.1 69.4801V76H887.234V74.6577H887.157C887.034 74.9048 886.848 75.1477 886.601 75.3864C886.354 75.625 886.037 75.8232 885.649 75.9808C885.261 76.1385 884.797 76.2173 884.255 76.2173ZM884.671 74.6832C885.199 74.6832 885.651 74.5788 886.026 74.37C886.405 74.1612 886.693 73.8885 886.889 73.5518C887.089 73.2109 887.189 72.8466 887.189 72.4588V71.1932C887.121 71.2614 886.989 71.3253 886.793 71.3849C886.601 71.4403 886.382 71.4893 886.135 71.532C885.887 71.5703 885.647 71.6065 885.412 71.6406C885.178 71.6705 884.982 71.696 884.824 71.7173C884.453 71.7642 884.115 71.843 883.808 71.9538C883.505 72.0646 883.262 72.2244 883.079 72.4332C882.9 72.6378 882.811 72.9105 882.811 73.2514C882.811 73.7244 882.985 74.0824 883.335 74.3253C883.684 74.5639 884.13 74.6832 884.671 74.6832ZM891.466 76V66.1818H893.313V67.7415H893.416C893.595 67.2131 893.91 66.7976 894.362 66.495C894.818 66.1882 895.333 66.0348 895.909 66.0348C896.028 66.0348 896.169 66.0391 896.33 66.0476C896.497 66.0561 896.627 66.0668 896.72 66.0795V67.9077C896.644 67.8864 896.507 67.8629 896.311 67.8374C896.115 67.8075 895.919 67.7926 895.723 67.7926C895.272 67.7926 894.869 67.8885 894.515 68.0803C894.166 68.2678 893.889 68.5298 893.684 68.8665C893.48 69.1989 893.377 69.5781 893.377 70.0043V76H891.466ZM899.952 72.6697L899.939 70.3366H900.272L904.184 66.1818H906.472L902.01 70.9119H901.71L899.952 72.6697ZM898.194 76V62.9091H900.106V76H898.194ZM904.395 76L900.879 71.3338L902.196 69.9979L906.741 76H904.395ZM911.861 76.1982C910.894 76.1982 910.061 75.9915 909.362 75.5781C908.667 75.1605 908.13 74.5746 907.751 73.8203C907.376 73.0618 907.189 72.1733 907.189 71.1548C907.189 70.1491 907.376 69.2628 907.751 68.4957C908.13 67.7287 908.659 67.13 909.336 66.6996C910.018 66.2692 910.815 66.054 911.727 66.054C912.281 66.054 912.818 66.1456 913.338 66.3288C913.858 66.5121 914.324 66.7997 914.738 67.1918C915.151 67.5838 915.477 68.093 915.716 68.7195C915.954 69.3416 916.073 70.098 916.073 70.9886V71.6662H908.269V70.2344H914.201C914.201 69.7315 914.098 69.2862 913.894 68.8984C913.689 68.5064 913.402 68.1974 913.031 67.9716C912.664 67.7457 912.234 67.6328 911.74 67.6328C911.203 67.6328 910.734 67.7649 910.333 68.0291C909.937 68.2891 909.63 68.63 909.413 69.0518C909.2 69.4695 909.093 69.9233 909.093 70.4134V71.532C909.093 72.1882 909.208 72.7464 909.439 73.2067C909.673 73.6669 909.999 74.0185 910.417 74.2614C910.834 74.5 911.322 74.6193 911.88 74.6193C912.243 74.6193 912.573 74.5682 912.871 74.4659C913.169 74.3594 913.427 74.2017 913.645 73.9929C913.862 73.7841 914.028 73.5263 914.143 73.2195L915.952 73.5455C915.807 74.0781 915.547 74.5447 915.172 74.9453C914.801 75.3416 914.335 75.6506 913.772 75.8722C913.214 76.0895 912.577 76.1982 911.861 76.1982ZM922.597 66.1818V67.7159H917.234V66.1818H922.597ZM918.672 63.8295H920.584V73.1172C920.584 73.4879 920.639 73.767 920.75 73.9545C920.861 74.1378 921.003 74.2635 921.178 74.3317C921.357 74.3956 921.551 74.4276 921.76 74.4276C921.913 74.4276 922.047 74.4169 922.162 74.3956C922.278 74.3743 922.367 74.3572 922.431 74.3445L922.776 75.9233C922.665 75.9659 922.508 76.0085 922.303 76.0511C922.099 76.098 921.843 76.1236 921.536 76.1278C921.033 76.1364 920.564 76.0469 920.13 75.8594C919.695 75.6719 919.344 75.3821 919.075 74.9901C918.807 74.598 918.672 74.1058 918.672 73.5135V63.8295ZM929.115 76V66.1818H930.962V67.7415H931.065C931.243 67.2131 931.559 66.7976 932.011 66.495C932.467 66.1882 932.982 66.0348 933.557 66.0348C933.677 66.0348 933.817 66.0391 933.979 66.0476C934.145 66.0561 934.275 66.0668 934.369 66.0795V67.9077C934.292 67.8864 934.156 67.8629 933.96 67.8374C933.764 67.8075 933.568 67.7926 933.372 67.7926C932.92 67.7926 932.518 67.8885 932.164 68.0803C931.815 68.2678 931.538 68.5298 931.333 68.8665C931.128 69.1989 931.026 69.5781 931.026 70.0043V76H929.115ZM939.627 76.1982C938.707 76.1982 937.904 75.9872 937.217 75.5653C936.531 75.1435 935.999 74.5533 935.619 73.7947C935.24 73.0362 935.051 72.1499 935.051 71.1357C935.051 70.1172 935.24 69.2266 935.619 68.4638C935.999 67.701 936.531 67.1087 937.217 66.6868C937.904 66.2649 938.707 66.054 939.627 66.054C940.548 66.054 941.351 66.2649 942.037 66.6868C942.723 67.1087 943.256 67.701 943.635 68.4638C944.014 69.2266 944.204 70.1172 944.204 71.1357C944.204 72.1499 944.014 73.0362 943.635 73.7947C943.256 74.5533 942.723 75.1435 942.037 75.5653C941.351 75.9872 940.548 76.1982 939.627 76.1982ZM939.634 74.5938C940.23 74.5938 940.725 74.4361 941.117 74.1207C941.509 73.8054 941.798 73.3857 941.986 72.8615C942.178 72.3374 942.274 71.7599 942.274 71.1293C942.274 70.5028 942.178 69.9276 941.986 69.4034C941.798 68.875 941.509 68.451 941.117 68.1314C940.725 67.8118 940.23 67.652 939.634 67.652C939.033 67.652 938.534 67.8118 938.138 68.1314C937.746 68.451 937.454 68.875 937.262 69.4034C937.075 69.9276 936.981 70.5028 936.981 71.1293C936.981 71.7599 937.075 72.3374 937.262 72.8615C937.454 73.3857 937.746 73.8054 938.138 74.1207C938.534 74.4361 939.033 74.5938 939.634 74.5938ZM950.293 76.1982C949.343 76.1982 948.524 75.983 947.838 75.5526C947.157 75.1179 946.632 74.5192 946.266 73.7564C945.899 72.9936 945.716 72.12 945.716 71.1357C945.716 70.1385 945.904 69.2585 946.279 68.4957C946.654 67.7287 947.182 67.13 947.864 66.6996C948.546 66.2692 949.349 66.054 950.274 66.054C951.02 66.054 951.684 66.1925 952.268 66.4695C952.852 66.7422 953.323 67.1257 953.681 67.62C954.043 68.1143 954.258 68.6918 954.326 69.3523H952.466C952.364 68.892 952.13 68.4957 951.763 68.1634C951.401 67.831 950.915 67.6648 950.306 67.6648C949.773 67.6648 949.306 67.8054 948.906 68.0866C948.51 68.3636 948.201 68.7599 947.979 69.2756C947.757 69.7869 947.647 70.392 947.647 71.0909C947.647 71.8068 947.755 72.4247 947.973 72.9446C948.19 73.4645 948.497 73.8672 948.893 74.1527C949.294 74.4382 949.765 74.581 950.306 74.581C950.668 74.581 950.996 74.5149 951.29 74.3828C951.588 74.2464 951.838 74.0526 952.038 73.8011C952.243 73.5497 952.385 73.2472 952.466 72.8935H954.326C954.258 73.5284 954.051 74.0952 953.706 74.5938C953.361 75.0923 952.899 75.4844 952.319 75.7699C951.744 76.0554 951.069 76.1982 950.293 76.1982ZM957.948 72.6697L957.935 70.3366H958.268L962.18 66.1818H964.468L960.006 70.9119H959.706L957.948 72.6697ZM956.19 76V62.9091H958.101V76H956.19ZM962.39 76L958.875 71.3338L960.192 69.9979L964.736 76H962.39ZM977.971 68.5788L976.238 68.8857C976.166 68.6641 976.051 68.4531 975.893 68.2528C975.74 68.0526 975.531 67.8885 975.267 67.7607C975.003 67.6328 974.672 67.5689 974.276 67.5689C973.735 67.5689 973.283 67.6903 972.921 67.9332C972.559 68.1719 972.378 68.4808 972.378 68.8601C972.378 69.1882 972.499 69.4524 972.742 69.6527C972.985 69.853 973.377 70.017 973.918 70.1449L975.478 70.5028C976.381 70.7116 977.054 71.0334 977.498 71.468C977.941 71.9027 978.162 72.4673 978.162 73.1619C978.162 73.75 977.992 74.2741 977.651 74.7344C977.314 75.1903 976.844 75.5483 976.238 75.8082C975.638 76.0682 974.941 76.1982 974.148 76.1982C973.049 76.1982 972.152 75.9638 971.457 75.495C970.763 75.022 970.336 74.3509 970.179 73.4815L972.026 73.2003C972.141 73.6818 972.378 74.0462 972.736 74.2933C973.094 74.5362 973.56 74.6577 974.135 74.6577C974.762 74.6577 975.263 74.5277 975.638 74.2678C976.013 74.0036 976.2 73.6818 976.2 73.3026C976.2 72.9957 976.085 72.7379 975.855 72.5291C975.629 72.3203 975.282 72.1626 974.813 72.0561L973.151 71.6918C972.235 71.483 971.557 71.1506 971.118 70.6946C970.684 70.2386 970.466 69.6612 970.466 68.9624C970.466 68.3828 970.628 67.8757 970.952 67.4411C971.276 67.0064 971.723 66.6676 972.295 66.4247C972.866 66.1776 973.52 66.054 974.257 66.054C975.318 66.054 976.153 66.2841 976.763 66.7443C977.372 67.2003 977.775 67.8118 977.971 68.5788ZM984.667 66.1818V67.7159H979.304V66.1818H984.667ZM980.742 63.8295H982.653V73.1172C982.653 73.4879 982.709 73.767 982.82 73.9545C982.93 74.1378 983.073 74.2635 983.248 74.3317C983.427 74.3956 983.621 74.4276 983.83 74.4276C983.983 74.4276 984.117 74.4169 984.232 74.3956C984.347 74.3743 984.437 74.3572 984.501 74.3445L984.846 75.9233C984.735 75.9659 984.577 76.0085 984.373 76.0511C984.168 76.098 983.913 76.1236 983.606 76.1278C983.103 76.1364 982.634 76.0469 982.2 75.8594C981.765 75.6719 981.413 75.3821 981.145 74.9901C980.876 74.598 980.742 74.1058 980.742 73.5135V63.8295ZM989.458 76.2173C988.836 76.2173 988.274 76.1023 987.771 75.8722C987.268 75.6378 986.869 75.299 986.575 74.8558C986.286 74.4126 986.141 73.8693 986.141 73.2259C986.141 72.6719 986.247 72.2159 986.46 71.858C986.673 71.5 986.961 71.2166 987.323 71.0078C987.686 70.799 988.09 70.6413 988.538 70.5348C988.985 70.4283 989.441 70.3473 989.906 70.2919C990.494 70.2237 990.971 70.1683 991.338 70.1257C991.704 70.0788 991.97 70.0043 992.137 69.902C992.303 69.7997 992.386 69.6335 992.386 69.4034V69.3587C992.386 68.8004 992.228 68.3679 991.913 68.0611C991.602 67.7543 991.137 67.6009 990.519 67.6009C989.876 67.6009 989.369 67.7436 988.998 68.0291C988.632 68.3104 988.378 68.6236 988.237 68.9688L986.441 68.5597C986.654 67.9631 986.965 67.4815 987.374 67.1151C987.788 66.7443 988.263 66.4759 988.8 66.3097C989.337 66.1392 989.901 66.054 990.494 66.054C990.886 66.054 991.301 66.1009 991.74 66.1946C992.183 66.2841 992.597 66.4503 992.98 66.6932C993.368 66.9361 993.686 67.2834 993.933 67.7351C994.18 68.1825 994.303 68.7642 994.303 69.4801V76H992.437V74.6577H992.36C992.237 74.9048 992.051 75.1477 991.804 75.3864C991.557 75.625 991.24 75.8232 990.852 75.9808C990.464 76.1385 989.999 76.2173 989.458 76.2173ZM989.874 74.6832C990.402 74.6832 990.854 74.5788 991.229 74.37C991.608 74.1612 991.896 73.8885 992.092 73.5518C992.292 73.2109 992.392 72.8466 992.392 72.4588V71.1932C992.324 71.2614 992.192 71.3253 991.996 71.3849C991.804 71.4403 991.585 71.4893 991.338 71.532C991.09 71.5703 990.85 71.6065 990.615 71.6406C990.381 71.6705 990.185 71.696 990.027 71.7173C989.656 71.7642 989.318 71.843 989.011 71.9538C988.708 72.0646 988.465 72.2244 988.282 72.4332C988.103 72.6378 988.014 72.9105 988.014 73.2514C988.014 73.7244 988.188 74.0824 988.538 74.3253C988.887 74.5639 989.333 74.6832 989.874 74.6832ZM996.669 76V66.1818H998.516V67.7415H998.619C998.798 67.2131 999.113 66.7976 999.565 66.495C1000.02 66.1882 1000.54 66.0348 1001.11 66.0348C1001.23 66.0348 1001.37 66.0391 1001.53 66.0476C1001.7 66.0561 1001.83 66.0668 1001.92 66.0795V67.9077C1001.85 67.8864 1001.71 67.8629 1001.51 67.8374C1001.32 67.8075 1001.12 67.7926 1000.93 67.7926C1000.47 67.7926 1000.07 67.8885 999.718 68.0803C999.369 68.2678 999.092 68.5298 998.887 68.8665C998.683 69.1989 998.58 69.5781 998.58 70.0043V76H996.669ZM1012.12 76.1982C1011.17 76.1982 1010.35 75.983 1009.66 75.5526C1008.98 75.1179 1008.46 74.5192 1008.09 73.7564C1007.72 72.9936 1007.54 72.12 1007.54 71.1357C1007.54 70.1385 1007.73 69.2585 1008.1 68.4957C1008.48 67.7287 1009.01 67.13 1009.69 66.6996C1010.37 66.2692 1011.17 66.054 1012.1 66.054C1012.84 66.054 1013.51 66.1925 1014.09 66.4695C1014.68 66.7422 1015.15 67.1257 1015.5 67.62C1015.87 68.1143 1016.08 68.6918 1016.15 69.3523H1014.29C1014.19 68.892 1013.95 68.4957 1013.59 68.1634C1013.22 67.831 1012.74 67.6648 1012.13 67.6648C1011.6 67.6648 1011.13 67.8054 1010.73 68.0866C1010.33 68.3636 1010.02 68.7599 1009.8 69.2756C1009.58 69.7869 1009.47 70.392 1009.47 71.0909C1009.47 71.8068 1009.58 72.4247 1009.8 72.9446C1010.01 73.4645 1010.32 73.8672 1010.72 74.1527C1011.12 74.4382 1011.59 74.581 1012.13 74.581C1012.49 74.581 1012.82 74.5149 1013.11 74.3828C1013.41 74.2464 1013.66 74.0526 1013.86 73.8011C1014.07 73.5497 1014.21 73.2472 1014.29 72.8935H1016.15C1016.08 73.5284 1015.88 74.0952 1015.53 74.5938C1015.18 75.0923 1014.72 75.4844 1014.14 75.7699C1013.57 76.0554 1012.89 76.1982 1012.12 76.1982ZM1019.93 70.1705V76H1018.01V62.9091H1019.9V67.7798H1020.02C1020.25 67.2514 1020.6 66.8317 1021.08 66.5206C1021.55 66.2095 1022.17 66.054 1022.93 66.054C1023.6 66.054 1024.19 66.1925 1024.69 66.4695C1025.2 66.7464 1025.59 67.1598 1025.87 67.7095C1026.15 68.255 1026.29 68.9368 1026.29 69.755V76H1024.38V69.9851C1024.38 69.2649 1024.19 68.7067 1023.82 68.3104C1023.45 67.9098 1022.94 67.7095 1022.28 67.7095C1021.83 67.7095 1021.42 67.8054 1021.06 67.9972C1020.71 68.1889 1020.43 68.4702 1020.23 68.8409C1020.03 69.2074 1019.93 69.6506 1019.93 70.1705ZM1031.52 76.2173C1030.9 76.2173 1030.33 76.1023 1029.83 75.8722C1029.33 75.6378 1028.93 75.299 1028.64 74.8558C1028.35 74.4126 1028.2 73.8693 1028.2 73.2259C1028.2 72.6719 1028.31 72.2159 1028.52 71.858C1028.73 71.5 1029.02 71.2166 1029.38 71.0078C1029.75 70.799 1030.15 70.6413 1030.6 70.5348C1031.05 70.4283 1031.5 70.3473 1031.97 70.2919C1032.55 70.2237 1033.03 70.1683 1033.4 70.1257C1033.76 70.0788 1034.03 70.0043 1034.2 69.902C1034.36 69.7997 1034.45 69.6335 1034.45 69.4034V69.3587C1034.45 68.8004 1034.29 68.3679 1033.97 68.0611C1033.66 67.7543 1033.2 67.6009 1032.58 67.6009C1031.94 67.6009 1031.43 67.7436 1031.06 68.0291C1030.69 68.3104 1030.44 68.6236 1030.3 68.9688L1028.5 68.5597C1028.72 67.9631 1029.03 67.4815 1029.44 67.1151C1029.85 66.7443 1030.32 66.4759 1030.86 66.3097C1031.4 66.1392 1031.96 66.054 1032.55 66.054C1032.95 66.054 1033.36 66.1009 1033.8 66.1946C1034.24 66.2841 1034.66 66.4503 1035.04 66.6932C1035.43 66.9361 1035.75 67.2834 1035.99 67.7351C1036.24 68.1825 1036.36 68.7642 1036.36 69.4801V76H1034.5V74.6577H1034.42C1034.3 74.9048 1034.11 75.1477 1033.87 75.3864C1033.62 75.625 1033.3 75.8232 1032.91 75.9808C1032.52 76.1385 1032.06 76.2173 1031.52 76.2173ZM1031.93 74.6832C1032.46 74.6832 1032.91 74.5788 1033.29 74.37C1033.67 74.1612 1033.96 73.8885 1034.15 73.5518C1034.35 73.2109 1034.45 72.8466 1034.45 72.4588V71.1932C1034.39 71.2614 1034.25 71.3253 1034.06 71.3849C1033.87 71.4403 1033.65 71.4893 1033.4 71.532C1033.15 71.5703 1032.91 71.6065 1032.68 71.6406C1032.44 71.6705 1032.25 71.696 1032.09 71.7173C1031.72 71.7642 1031.38 71.843 1031.07 71.9538C1030.77 72.0646 1030.53 72.2244 1030.34 72.4332C1030.16 72.6378 1030.07 72.9105 1030.07 73.2514C1030.07 73.7244 1030.25 74.0824 1030.6 74.3253C1030.95 74.5639 1031.39 74.6832 1031.93 74.6832ZM1040.64 70.1705V76H1038.73V66.1818H1040.56V67.7798H1040.69C1040.91 67.2599 1041.27 66.8423 1041.75 66.527C1042.23 66.2116 1042.84 66.054 1043.58 66.054C1044.25 66.054 1044.84 66.1946 1045.34 66.4759C1045.84 66.7528 1046.23 67.1662 1046.51 67.7159C1046.79 68.2656 1046.92 68.9453 1046.92 69.755V76H1045.01V69.9851C1045.01 69.2734 1044.83 68.7173 1044.46 68.3168C1044.09 67.9119 1043.58 67.7095 1042.93 67.7095C1042.49 67.7095 1042.09 67.8054 1041.75 67.9972C1041.41 68.1889 1041.14 68.4702 1040.94 68.8409C1040.74 69.2074 1040.64 69.6506 1040.64 70.1705ZM1051.22 70.1705V76H1049.31V66.1818H1051.14V67.7798H1051.26C1051.49 67.2599 1051.84 66.8423 1052.32 66.527C1052.81 66.2116 1053.42 66.054 1054.16 66.054C1054.83 66.054 1055.41 66.1946 1055.92 66.4759C1056.42 66.7528 1056.81 67.1662 1057.09 67.7159C1057.36 68.2656 1057.5 68.9453 1057.5 69.755V76H1055.59V69.9851C1055.59 69.2734 1055.41 68.7173 1055.04 68.3168C1054.66 67.9119 1054.16 67.7095 1053.51 67.7095C1053.06 67.7095 1052.67 67.8054 1052.32 67.9972C1051.98 68.1889 1051.71 68.4702 1051.51 68.8409C1051.32 69.2074 1051.22 69.6506 1051.22 70.1705ZM1064.12 76.1982C1063.15 76.1982 1062.32 75.9915 1061.62 75.5781C1060.92 75.1605 1060.39 74.5746 1060.01 73.8203C1059.63 73.0618 1059.44 72.1733 1059.44 71.1548C1059.44 70.1491 1059.63 69.2628 1060.01 68.4957C1060.39 67.7287 1060.91 67.13 1061.59 66.6996C1062.27 66.2692 1063.07 66.054 1063.98 66.054C1064.54 66.054 1065.07 66.1456 1065.59 66.3288C1066.11 66.5121 1066.58 66.7997 1066.99 67.1918C1067.41 67.5838 1067.73 68.093 1067.97 68.7195C1068.21 69.3416 1068.33 70.098 1068.33 70.9886V71.6662H1060.52V70.2344H1066.46C1066.46 69.7315 1066.35 69.2862 1066.15 68.8984C1065.95 68.5064 1065.66 68.1974 1065.29 67.9716C1064.92 67.7457 1064.49 67.6328 1064 67.6328C1063.46 67.6328 1062.99 67.7649 1062.59 68.0291C1062.19 68.2891 1061.89 68.63 1061.67 69.0518C1061.46 69.4695 1061.35 69.9233 1061.35 70.4134V71.532C1061.35 72.1882 1061.46 72.7464 1061.69 73.2067C1061.93 73.6669 1062.25 74.0185 1062.67 74.2614C1063.09 74.5 1063.58 74.6193 1064.14 74.6193C1064.5 74.6193 1064.83 74.5682 1065.13 74.4659C1065.43 74.3594 1065.68 74.2017 1065.9 73.9929C1066.12 73.7841 1066.28 73.5263 1066.4 73.2195L1068.21 73.5455C1068.06 74.0781 1067.8 74.5447 1067.43 74.9453C1067.06 75.3416 1066.59 75.6506 1066.03 75.8722C1065.47 76.0895 1064.83 76.1982 1064.12 76.1982ZM1072.18 62.9091V76H1070.27V62.9091H1072.18ZM1081.93 68.5788L1080.2 68.8857C1080.13 68.6641 1080.01 68.4531 1079.85 68.2528C1079.7 68.0526 1079.49 67.8885 1079.23 67.7607C1078.96 67.6328 1078.63 67.5689 1078.24 67.5689C1077.69 67.5689 1077.24 67.6903 1076.88 67.9332C1076.52 68.1719 1076.34 68.4808 1076.34 68.8601C1076.34 69.1882 1076.46 69.4524 1076.7 69.6527C1076.94 69.853 1077.34 70.017 1077.88 70.1449L1079.44 70.5028C1080.34 70.7116 1081.01 71.0334 1081.46 71.468C1081.9 71.9027 1082.12 72.4673 1082.12 73.1619C1082.12 73.75 1081.95 74.2741 1081.61 74.7344C1081.27 75.1903 1080.8 75.5483 1080.2 75.8082C1079.6 76.0682 1078.9 76.1982 1078.11 76.1982C1077.01 76.1982 1076.11 75.9638 1075.42 75.495C1074.72 75.022 1074.3 74.3509 1074.14 73.4815L1075.99 73.2003C1076.1 73.6818 1076.34 74.0462 1076.69 74.2933C1077.05 74.5362 1077.52 74.6577 1078.09 74.6577C1078.72 74.6577 1079.22 74.5277 1079.6 74.2678C1079.97 74.0036 1080.16 73.6818 1080.16 73.3026C1080.16 72.9957 1080.04 72.7379 1079.81 72.5291C1079.59 72.3203 1079.24 72.1626 1078.77 72.0561L1077.11 71.6918C1076.19 71.483 1075.52 71.1506 1075.08 70.6946C1074.64 70.2386 1074.43 69.6612 1074.43 68.9624C1074.43 68.3828 1074.59 67.8757 1074.91 67.4411C1075.24 67.0064 1075.68 66.6676 1076.25 66.4247C1076.82 66.1776 1077.48 66.054 1078.22 66.054C1079.28 66.054 1080.11 66.2841 1080.72 66.7443C1081.33 67.2003 1081.73 67.8118 1081.93 68.5788ZM1085.3 76.1214C1084.95 76.1214 1084.65 75.9979 1084.4 75.7507C1084.15 75.4993 1084.02 75.1967 1084.02 74.843C1084.02 74.4936 1084.15 74.1953 1084.4 73.9482C1084.65 73.6967 1084.95 73.571 1085.3 73.571C1085.65 73.571 1085.95 73.6967 1086.2 73.9482C1086.45 74.1953 1086.58 74.4936 1086.58 74.843C1086.58 75.0774 1086.52 75.2926 1086.4 75.4886C1086.29 75.6804 1086.13 75.8338 1085.94 75.9489C1085.75 76.0639 1085.54 76.1214 1085.3 76.1214ZM1089.32 62.9091V64.1364C1089.32 64.4986 1089.25 64.88 1089.12 65.2805C1088.98 65.6768 1088.8 66.0582 1088.55 66.4247C1088.31 66.7912 1088.02 67.1065 1087.7 67.3707L1086.75 66.6932C1087 66.3267 1087.22 65.9368 1087.4 65.5234C1087.59 65.1101 1087.68 64.6541 1087.68 64.1555V62.9091H1089.32ZM1092.57 62.9091V64.1364C1092.57 64.4986 1092.51 64.88 1092.37 65.2805C1092.24 65.6768 1092.05 66.0582 1091.81 66.4247C1091.56 66.7912 1091.28 67.1065 1090.95 67.3707L1090 66.6932C1090.26 66.3267 1090.47 65.9368 1090.66 65.5234C1090.84 65.1101 1090.94 64.6541 1090.94 64.1555V62.9091H1092.57Z" fill="white"/>
</svg>
